%TF.GenerationSoftware,KiCad,Pcbnew,8.0.8*%
%TF.CreationDate,2025-04-18T18:27:36-04:00*%
%TF.ProjectId,VEML7700-TR,56454d4c-3737-4303-902d-54522e6b6963,rev?*%
%TF.SameCoordinates,Original*%
%TF.FileFunction,Legend,Bot*%
%TF.FilePolarity,Positive*%
%FSLAX46Y46*%
G04 Gerber Fmt 4.6, Leading zero omitted, Abs format (unit mm)*
G04 Created by KiCad (PCBNEW 8.0.8) date 2025-04-18 18:27:36*
%MOMM*%
%LPD*%
G01*
G04 APERTURE LIST*
%ADD10C,0.150000*%
%ADD11C,0.127000*%
%ADD12C,0.200000*%
G04 APERTURE END LIST*
D10*
X145619276Y-119190416D02*
X145619276Y-119848397D01*
X145619276Y-119848397D02*
X145580571Y-119925807D01*
X145580571Y-119925807D02*
X145541866Y-119964512D01*
X145541866Y-119964512D02*
X145464457Y-120003216D01*
X145464457Y-120003216D02*
X145309638Y-120003216D01*
X145309638Y-120003216D02*
X145232228Y-119964512D01*
X145232228Y-119964512D02*
X145193523Y-119925807D01*
X145193523Y-119925807D02*
X145154819Y-119848397D01*
X145154819Y-119848397D02*
X145154819Y-119190416D01*
X144342018Y-120003216D02*
X144806475Y-120003216D01*
X144574247Y-120003216D02*
X144574247Y-119190416D01*
X144574247Y-119190416D02*
X144651656Y-119306531D01*
X144651656Y-119306531D02*
X144729066Y-119383940D01*
X144729066Y-119383940D02*
X144806475Y-119422645D01*
X143102703Y-117190416D02*
X142831770Y-118003216D01*
X142831770Y-118003216D02*
X142560836Y-117190416D01*
X142289903Y-117577464D02*
X142018969Y-117577464D01*
X141902855Y-118003216D02*
X142289903Y-118003216D01*
X142289903Y-118003216D02*
X142289903Y-117190416D01*
X142289903Y-117190416D02*
X141902855Y-117190416D01*
X141554513Y-118003216D02*
X141554513Y-117190416D01*
X141554513Y-117190416D02*
X141283579Y-117770988D01*
X141283579Y-117770988D02*
X141012646Y-117190416D01*
X141012646Y-117190416D02*
X141012646Y-118003216D01*
X140238551Y-118003216D02*
X140625599Y-118003216D01*
X140625599Y-118003216D02*
X140625599Y-117190416D01*
X140045027Y-117190416D02*
X139503161Y-117190416D01*
X139503161Y-117190416D02*
X139851503Y-118003216D01*
X139270932Y-117190416D02*
X138729066Y-117190416D01*
X138729066Y-117190416D02*
X139077408Y-118003216D01*
X138264609Y-117190416D02*
X138187199Y-117190416D01*
X138187199Y-117190416D02*
X138109790Y-117229121D01*
X138109790Y-117229121D02*
X138071085Y-117267826D01*
X138071085Y-117267826D02*
X138032380Y-117345235D01*
X138032380Y-117345235D02*
X137993675Y-117500054D01*
X137993675Y-117500054D02*
X137993675Y-117693578D01*
X137993675Y-117693578D02*
X138032380Y-117848397D01*
X138032380Y-117848397D02*
X138071085Y-117925807D01*
X138071085Y-117925807D02*
X138109790Y-117964512D01*
X138109790Y-117964512D02*
X138187199Y-118003216D01*
X138187199Y-118003216D02*
X138264609Y-118003216D01*
X138264609Y-118003216D02*
X138342018Y-117964512D01*
X138342018Y-117964512D02*
X138380723Y-117925807D01*
X138380723Y-117925807D02*
X138419428Y-117848397D01*
X138419428Y-117848397D02*
X138458132Y-117693578D01*
X138458132Y-117693578D02*
X138458132Y-117500054D01*
X138458132Y-117500054D02*
X138419428Y-117345235D01*
X138419428Y-117345235D02*
X138380723Y-117267826D01*
X138380723Y-117267826D02*
X138342018Y-117229121D01*
X138342018Y-117229121D02*
X138264609Y-117190416D01*
X137490514Y-117190416D02*
X137413104Y-117190416D01*
X137413104Y-117190416D02*
X137335695Y-117229121D01*
X137335695Y-117229121D02*
X137296990Y-117267826D01*
X137296990Y-117267826D02*
X137258285Y-117345235D01*
X137258285Y-117345235D02*
X137219580Y-117500054D01*
X137219580Y-117500054D02*
X137219580Y-117693578D01*
X137219580Y-117693578D02*
X137258285Y-117848397D01*
X137258285Y-117848397D02*
X137296990Y-117925807D01*
X137296990Y-117925807D02*
X137335695Y-117964512D01*
X137335695Y-117964512D02*
X137413104Y-118003216D01*
X137413104Y-118003216D02*
X137490514Y-118003216D01*
X137490514Y-118003216D02*
X137567923Y-117964512D01*
X137567923Y-117964512D02*
X137606628Y-117925807D01*
X137606628Y-117925807D02*
X137645333Y-117848397D01*
X137645333Y-117848397D02*
X137684037Y-117693578D01*
X137684037Y-117693578D02*
X137684037Y-117500054D01*
X137684037Y-117500054D02*
X137645333Y-117345235D01*
X137645333Y-117345235D02*
X137606628Y-117267826D01*
X137606628Y-117267826D02*
X137567923Y-117229121D01*
X137567923Y-117229121D02*
X137490514Y-117190416D01*
X136871238Y-117693578D02*
X136251962Y-117693578D01*
X135981028Y-117190416D02*
X135516571Y-117190416D01*
X135748799Y-118003216D02*
X135748799Y-117190416D01*
X135361752Y-117190416D02*
X134897295Y-117190416D01*
X135129523Y-118003216D02*
X135129523Y-117190416D01*
D11*
%TO.C,U1*%
X140400000Y-118600000D02*
X143400000Y-118600000D01*
X140400000Y-119425000D02*
X140400000Y-118600000D01*
X140400000Y-125400000D02*
X140400000Y-124575000D01*
X143400000Y-118600000D02*
X143400000Y-125400000D01*
X143400000Y-125400000D02*
X140400000Y-125400000D01*
D12*
X139300000Y-123905000D02*
G75*
G02*
X139100000Y-123905000I-100000J0D01*
G01*
X139100000Y-123905000D02*
G75*
G02*
X139300000Y-123905000I100000J0D01*
G01*
%TD*%
M02*
