%TF.GenerationSoftware,KiCad,Pcbnew,8.0.8*%
%TF.CreationDate,2025-03-13T11:30:44-04:00*%
%TF.ProjectId,Anemosens Sensor,416e656d-6f73-4656-9e73-2053656e736f,rev?*%
%TF.SameCoordinates,Original*%
%TF.FileFunction,Copper,L2,Bot*%
%TF.FilePolarity,Positive*%
%FSLAX46Y46*%
G04 Gerber Fmt 4.6, Leading zero omitted, Abs format (unit mm)*
G04 Created by KiCad (PCBNEW 8.0.8) date 2025-03-13 11:30:44*
%MOMM*%
%LPD*%
G01*
G04 APERTURE LIST*
G04 Aperture macros list*
%AMHorizOval*
0 Thick line with rounded ends*
0 $1 width*
0 $2 $3 position (X,Y) of the first rounded end (center of the circle)*
0 $4 $5 position (X,Y) of the second rounded end (center of the circle)*
0 Add line between two ends*
20,1,$1,$2,$3,$4,$5,0*
0 Add two circle primitives to create the rounded ends*
1,1,$1,$2,$3*
1,1,$1,$4,$5*%
%AMRotRect*
0 Rectangle, with rotation*
0 The origin of the aperture is its center*
0 $1 length*
0 $2 width*
0 $3 Rotation angle, in degrees counterclockwise*
0 Add horizontal line*
21,1,$1,$2,0,0,$3*%
G04 Aperture macros list end*
%TA.AperFunction,ComponentPad*%
%ADD10RotRect,1.700000X1.700000X135.000000*%
%TD*%
%TA.AperFunction,ComponentPad*%
%ADD11HorizOval,1.700000X0.000000X0.000000X0.000000X0.000000X0*%
%TD*%
%TA.AperFunction,ComponentPad*%
%ADD12RotRect,1.700000X1.700000X45.000000*%
%TD*%
%TA.AperFunction,ComponentPad*%
%ADD13HorizOval,1.700000X0.000000X0.000000X0.000000X0.000000X0*%
%TD*%
%TA.AperFunction,ComponentPad*%
%ADD14R,1.700000X1.700000*%
%TD*%
%TA.AperFunction,ComponentPad*%
%ADD15O,1.700000X1.700000*%
%TD*%
%TA.AperFunction,ViaPad*%
%ADD16C,0.600000*%
%TD*%
%TA.AperFunction,Conductor*%
%ADD17C,0.200000*%
%TD*%
G04 APERTURE END LIST*
D10*
%TO.P,J2,1,Pin_1*%
%TO.N,GND*%
X140214555Y-100785445D03*
D11*
%TO.P,J2,2,Pin_2*%
%TO.N,/HALL_OUT*%
X142010606Y-98989394D03*
%TO.P,J2,3,Pin_3*%
%TO.N,/MAG_INT*%
X143806657Y-97193343D03*
%TD*%
D12*
%TO.P,J1,1,Pin_1*%
%TO.N,/SDA*%
X128203949Y-97203949D03*
D13*
%TO.P,J1,2,Pin_2*%
%TO.N,/SCL*%
X130000000Y-99000000D03*
%TO.P,J1,3,Pin_3*%
%TO.N,+3.3V*%
X131796051Y-100796051D03*
%TD*%
D14*
%TO.P,J3,1,Pin_1*%
%TO.N,+3.3V*%
X133475000Y-84000000D03*
D15*
%TO.P,J3,2,Pin_2*%
%TO.N,GND*%
X136015000Y-84000000D03*
%TO.P,J3,3,Pin_3*%
%TO.N,/HALL_OUT*%
X138555000Y-84000000D03*
%TD*%
D16*
%TO.N,GND*%
X143075000Y-92000000D03*
X137876171Y-91888608D03*
%TO.N,/MAG_INT*%
X143000000Y-95000000D03*
X139912500Y-91000000D03*
%TD*%
D17*
%TO.N,/MAG_INT*%
X143000000Y-94087500D02*
X139912500Y-91000000D01*
X143000000Y-95000000D02*
X143000000Y-94087500D01*
%TD*%
%TA.AperFunction,Conductor*%
%TO.N,GND*%
G36*
X136697391Y-80520066D02*
G01*
X136704304Y-80520455D01*
X137396064Y-80578804D01*
X137402920Y-80579576D01*
X138090315Y-80676620D01*
X138097137Y-80677780D01*
X138777999Y-80813212D01*
X138784732Y-80814748D01*
X139456958Y-80988150D01*
X139463609Y-80990067D01*
X140125019Y-81200877D01*
X140131555Y-81203164D01*
X140780122Y-81450735D01*
X140786515Y-81453383D01*
X141420164Y-81736923D01*
X141426410Y-81739931D01*
X141584660Y-81821685D01*
X142043151Y-82058547D01*
X142049238Y-82061911D01*
X142647138Y-82414603D01*
X142653028Y-82418304D01*
X143230215Y-82803968D01*
X143235887Y-82807993D01*
X143790523Y-83225399D01*
X143795961Y-83229735D01*
X143905425Y-83322169D01*
X144159050Y-83536337D01*
X144326336Y-83677597D01*
X144331518Y-83682227D01*
X144835971Y-84159146D01*
X144840853Y-84164028D01*
X145126272Y-84465925D01*
X145317767Y-84668476D01*
X145322402Y-84673663D01*
X145770264Y-85204038D01*
X145774600Y-85209476D01*
X146192006Y-85764112D01*
X146196031Y-85769784D01*
X146581695Y-86346971D01*
X146585396Y-86352861D01*
X146938088Y-86950761D01*
X146941452Y-86956848D01*
X147260063Y-87573579D01*
X147263081Y-87579846D01*
X147546609Y-88213468D01*
X147549271Y-88219894D01*
X147796830Y-88868429D01*
X147799127Y-88874994D01*
X148009927Y-89536373D01*
X148011853Y-89543057D01*
X148185245Y-90215243D01*
X148186792Y-90222024D01*
X148322216Y-90902844D01*
X148323381Y-90909701D01*
X148420419Y-91597051D01*
X148421198Y-91603963D01*
X148479543Y-92295679D01*
X148479933Y-92302623D01*
X148499402Y-92996522D01*
X148499402Y-93003478D01*
X148479933Y-93697376D01*
X148479543Y-93704320D01*
X148421198Y-94396036D01*
X148420419Y-94402948D01*
X148323381Y-95090298D01*
X148322216Y-95097155D01*
X148186792Y-95777975D01*
X148185245Y-95784756D01*
X148011853Y-96456942D01*
X148009927Y-96463626D01*
X147799127Y-97125005D01*
X147796830Y-97131570D01*
X147549271Y-97780105D01*
X147546609Y-97786531D01*
X147263081Y-98420153D01*
X147260063Y-98426420D01*
X146941452Y-99043151D01*
X146938088Y-99049238D01*
X146585396Y-99647138D01*
X146581695Y-99653028D01*
X146196031Y-100230215D01*
X146192006Y-100235887D01*
X145774600Y-100790523D01*
X145770264Y-100795961D01*
X145322402Y-101326336D01*
X145317767Y-101331523D01*
X144840871Y-101835953D01*
X144835953Y-101840871D01*
X144331523Y-102317767D01*
X144326336Y-102322402D01*
X143795961Y-102770264D01*
X143790523Y-102774600D01*
X143235887Y-103192006D01*
X143230215Y-103196031D01*
X142653028Y-103581695D01*
X142647138Y-103585396D01*
X142049238Y-103938088D01*
X142043151Y-103941452D01*
X141426420Y-104260063D01*
X141420153Y-104263081D01*
X140786531Y-104546609D01*
X140780105Y-104549271D01*
X140131570Y-104796830D01*
X140125005Y-104799127D01*
X139463626Y-105009927D01*
X139456942Y-105011853D01*
X138784756Y-105185245D01*
X138777975Y-105186792D01*
X138097155Y-105322216D01*
X138090298Y-105323381D01*
X137402948Y-105420419D01*
X137396036Y-105421198D01*
X136704320Y-105479543D01*
X136697376Y-105479933D01*
X136003478Y-105499402D01*
X135996522Y-105499402D01*
X135302623Y-105479933D01*
X135295679Y-105479543D01*
X134603963Y-105421198D01*
X134597051Y-105420419D01*
X133909701Y-105323381D01*
X133902844Y-105322216D01*
X133222024Y-105186792D01*
X133215243Y-105185245D01*
X132543057Y-105011853D01*
X132536373Y-105009927D01*
X131874994Y-104799127D01*
X131868429Y-104796830D01*
X131219894Y-104549271D01*
X131213468Y-104546609D01*
X130579846Y-104263081D01*
X130573579Y-104260063D01*
X129956848Y-103941452D01*
X129950761Y-103938088D01*
X129352861Y-103585396D01*
X129346971Y-103581695D01*
X128769784Y-103196031D01*
X128764112Y-103192006D01*
X128367750Y-102893713D01*
X134649500Y-102893713D01*
X134649500Y-103106286D01*
X134682753Y-103316239D01*
X134748444Y-103518414D01*
X134844951Y-103707820D01*
X134969890Y-103879786D01*
X135120213Y-104030109D01*
X135292179Y-104155048D01*
X135292181Y-104155049D01*
X135292184Y-104155051D01*
X135481588Y-104251557D01*
X135683757Y-104317246D01*
X135893713Y-104350500D01*
X135893714Y-104350500D01*
X136106286Y-104350500D01*
X136106287Y-104350500D01*
X136316243Y-104317246D01*
X136518412Y-104251557D01*
X136707816Y-104155051D01*
X136729789Y-104139086D01*
X136879786Y-104030109D01*
X136879788Y-104030106D01*
X136879792Y-104030104D01*
X137030104Y-103879792D01*
X137030106Y-103879788D01*
X137030109Y-103879786D01*
X137155048Y-103707820D01*
X137155047Y-103707820D01*
X137155051Y-103707816D01*
X137251557Y-103518412D01*
X137317246Y-103316243D01*
X137350500Y-103106287D01*
X137350500Y-102893713D01*
X137317246Y-102683757D01*
X137251557Y-102481588D01*
X137155051Y-102292184D01*
X137155049Y-102292181D01*
X137155048Y-102292179D01*
X137030109Y-102120213D01*
X136879786Y-101969890D01*
X136707820Y-101844951D01*
X136518414Y-101748444D01*
X136518413Y-101748443D01*
X136518412Y-101748443D01*
X136316243Y-101682754D01*
X136316241Y-101682753D01*
X136316240Y-101682753D01*
X136154957Y-101657208D01*
X136106287Y-101649500D01*
X135893713Y-101649500D01*
X135845042Y-101657208D01*
X135683760Y-101682753D01*
X135481585Y-101748444D01*
X135292179Y-101844951D01*
X135120213Y-101969890D01*
X134969890Y-102120213D01*
X134844951Y-102292179D01*
X134748444Y-102481585D01*
X134682753Y-102683760D01*
X134649500Y-102893713D01*
X128367750Y-102893713D01*
X128209476Y-102774600D01*
X128204038Y-102770264D01*
X127673663Y-102322402D01*
X127668476Y-102317767D01*
X127492832Y-102151710D01*
X127164028Y-101840853D01*
X127159146Y-101835971D01*
X126682227Y-101331518D01*
X126677597Y-101326336D01*
X126480099Y-101092452D01*
X126229735Y-100795961D01*
X126225399Y-100790523D01*
X125807993Y-100235887D01*
X125803968Y-100230215D01*
X125427792Y-99667228D01*
X125418303Y-99653026D01*
X125414603Y-99647138D01*
X125320710Y-99487967D01*
X125061909Y-99049234D01*
X125058547Y-99043151D01*
X125036253Y-98999997D01*
X124739931Y-98426410D01*
X124736918Y-98420153D01*
X124713303Y-98367378D01*
X124453383Y-97786515D01*
X124450735Y-97780122D01*
X124230798Y-97203949D01*
X126496221Y-97203949D01*
X126516701Y-97346404D01*
X126516702Y-97346408D01*
X126576488Y-97477319D01*
X126576489Y-97477320D01*
X126576490Y-97477322D01*
X126614109Y-97524005D01*
X126614112Y-97524008D01*
X126614117Y-97524014D01*
X127673550Y-98583444D01*
X127883893Y-98793787D01*
X127883897Y-98793790D01*
X127883899Y-98793792D01*
X127930575Y-98831408D01*
X128061489Y-98891195D01*
X128061490Y-98891195D01*
X128061492Y-98891196D01*
X128203949Y-98911677D01*
X128346406Y-98891196D01*
X128473067Y-98833350D01*
X128542225Y-98823407D01*
X128605781Y-98852431D01*
X128643556Y-98911209D01*
X128648107Y-98956952D01*
X128644341Y-98999997D01*
X128644341Y-99000000D01*
X128664936Y-99235403D01*
X128664938Y-99235413D01*
X128726094Y-99463655D01*
X128726096Y-99463659D01*
X128726097Y-99463663D01*
X128811653Y-99647138D01*
X128825965Y-99677830D01*
X128825967Y-99677834D01*
X128881790Y-99757557D01*
X128961505Y-99871401D01*
X129128599Y-100038495D01*
X129225384Y-100106265D01*
X129322165Y-100174032D01*
X129322167Y-100174033D01*
X129322170Y-100174035D01*
X129536337Y-100273903D01*
X129764592Y-100335063D01*
X129952918Y-100351539D01*
X129999999Y-100355659D01*
X130000000Y-100355659D01*
X130000001Y-100355659D01*
X130039234Y-100352226D01*
X130235408Y-100335063D01*
X130336099Y-100308083D01*
X130405949Y-100309746D01*
X130463811Y-100348909D01*
X130491315Y-100413137D01*
X130487967Y-100459950D01*
X130460990Y-100560634D01*
X130460987Y-100560647D01*
X130440392Y-100796050D01*
X130440392Y-100796051D01*
X130460987Y-101031454D01*
X130460989Y-101031464D01*
X130522145Y-101259706D01*
X130522147Y-101259710D01*
X130522148Y-101259714D01*
X130622016Y-101473881D01*
X130622018Y-101473885D01*
X130684601Y-101563262D01*
X130757556Y-101667452D01*
X130924650Y-101834546D01*
X130939510Y-101844951D01*
X131118216Y-101970083D01*
X131118218Y-101970084D01*
X131118221Y-101970086D01*
X131332388Y-102069954D01*
X131560643Y-102131114D01*
X131748969Y-102147590D01*
X131796050Y-102151710D01*
X131796051Y-102151710D01*
X131796052Y-102151710D01*
X131835285Y-102148277D01*
X132031459Y-102131114D01*
X132259714Y-102069954D01*
X132473881Y-101970086D01*
X132667452Y-101834546D01*
X132834546Y-101667452D01*
X132970086Y-101473881D01*
X133069954Y-101259714D01*
X133131114Y-101031459D01*
X133151710Y-100796051D01*
X133150782Y-100785445D01*
X138507332Y-100785445D01*
X138527792Y-100927758D01*
X138527793Y-100927763D01*
X138587519Y-101058542D01*
X138625099Y-101105177D01*
X139083184Y-101563262D01*
X139731592Y-100914853D01*
X139748630Y-100978438D01*
X139814456Y-101092452D01*
X139907548Y-101185544D01*
X140021562Y-101251370D01*
X140085146Y-101268407D01*
X139436738Y-101916816D01*
X139894822Y-102374900D01*
X139941457Y-102412480D01*
X140072236Y-102472206D01*
X140072241Y-102472207D01*
X140214555Y-102492667D01*
X140356868Y-102472207D01*
X140356873Y-102472206D01*
X140487652Y-102412480D01*
X140534287Y-102374900D01*
X140534291Y-102374896D01*
X140992372Y-101916816D01*
X140343963Y-101268407D01*
X140407548Y-101251370D01*
X140521562Y-101185544D01*
X140614654Y-101092452D01*
X140680480Y-100978438D01*
X140697517Y-100914853D01*
X141345926Y-101563262D01*
X141804006Y-101105181D01*
X141804010Y-101105177D01*
X141841590Y-101058542D01*
X141901316Y-100927763D01*
X141901317Y-100927758D01*
X141921777Y-100785445D01*
X141901317Y-100643131D01*
X141901316Y-100643127D01*
X141843384Y-100516276D01*
X141833440Y-100447118D01*
X141862464Y-100383562D01*
X141921242Y-100345787D01*
X141966983Y-100341236D01*
X142010606Y-100345053D01*
X142246014Y-100324457D01*
X142474269Y-100263297D01*
X142688436Y-100163429D01*
X142882007Y-100027889D01*
X143049101Y-99860795D01*
X143184641Y-99667224D01*
X143284509Y-99453057D01*
X143345669Y-99224802D01*
X143366265Y-98989394D01*
X143345669Y-98753986D01*
X143318689Y-98653294D01*
X143320352Y-98583444D01*
X143359515Y-98525582D01*
X143423743Y-98498078D01*
X143470557Y-98501426D01*
X143571249Y-98528406D01*
X143759575Y-98544882D01*
X143806656Y-98549002D01*
X143806657Y-98549002D01*
X143806658Y-98549002D01*
X143845891Y-98545569D01*
X144042065Y-98528406D01*
X144270320Y-98467246D01*
X144484487Y-98367378D01*
X144678058Y-98231838D01*
X144845152Y-98064744D01*
X144980692Y-97871173D01*
X145080560Y-97657006D01*
X145141720Y-97428751D01*
X145162316Y-97193343D01*
X145141720Y-96957935D01*
X145080560Y-96729680D01*
X144980692Y-96515514D01*
X144942035Y-96460305D01*
X144845151Y-96321940D01*
X144678059Y-96154849D01*
X144678052Y-96154844D01*
X144484491Y-96019310D01*
X144484487Y-96019308D01*
X144432826Y-95995218D01*
X144270320Y-95919440D01*
X144270316Y-95919439D01*
X144270312Y-95919437D01*
X144042070Y-95858281D01*
X144042060Y-95858279D01*
X143806658Y-95837684D01*
X143806655Y-95837684D01*
X143580408Y-95857478D01*
X143511908Y-95843711D01*
X143461725Y-95795096D01*
X143445792Y-95727067D01*
X143469167Y-95661224D01*
X143497354Y-95634834D01*
X143496816Y-95634159D01*
X143502256Y-95629819D01*
X143502262Y-95629816D01*
X143629816Y-95502262D01*
X143725789Y-95349522D01*
X143785368Y-95179255D01*
X143785369Y-95179249D01*
X143805565Y-95000003D01*
X143805565Y-94999996D01*
X143785369Y-94820750D01*
X143785368Y-94820745D01*
X143725788Y-94650476D01*
X143629813Y-94497734D01*
X143627550Y-94494896D01*
X143626659Y-94492715D01*
X143626111Y-94491842D01*
X143626264Y-94491745D01*
X143601144Y-94430209D01*
X143600500Y-94417587D01*
X143600500Y-94008445D01*
X143600500Y-94008443D01*
X143559577Y-93855716D01*
X143487671Y-93731170D01*
X143480524Y-93718790D01*
X143480521Y-93718786D01*
X143480520Y-93718784D01*
X143368716Y-93606980D01*
X143368715Y-93606979D01*
X143364385Y-93602649D01*
X143364374Y-93602639D01*
X140743200Y-90981465D01*
X140709715Y-90920142D01*
X140707663Y-90907686D01*
X140697868Y-90820745D01*
X140638289Y-90650478D01*
X140542316Y-90497738D01*
X140414762Y-90370184D01*
X140262023Y-90274211D01*
X140091754Y-90214631D01*
X140091749Y-90214630D01*
X139912504Y-90194435D01*
X139912496Y-90194435D01*
X139733250Y-90214630D01*
X139733245Y-90214631D01*
X139562976Y-90274211D01*
X139410237Y-90370184D01*
X139282684Y-90497737D01*
X139186711Y-90650476D01*
X139127131Y-90820745D01*
X139127130Y-90820750D01*
X139106935Y-90999996D01*
X139106935Y-91000003D01*
X139127130Y-91179249D01*
X139127131Y-91179254D01*
X139186711Y-91349523D01*
X139282684Y-91502262D01*
X139410238Y-91629816D01*
X139562978Y-91725789D01*
X139733245Y-91785368D01*
X139820169Y-91795161D01*
X139884580Y-91822226D01*
X139893965Y-91830700D01*
X142363181Y-94299916D01*
X142396666Y-94361239D01*
X142399500Y-94387597D01*
X142399500Y-94417587D01*
X142379815Y-94484626D01*
X142372450Y-94494896D01*
X142370186Y-94497734D01*
X142274211Y-94650476D01*
X142214631Y-94820745D01*
X142214630Y-94820750D01*
X142194435Y-94999996D01*
X142194435Y-95000003D01*
X142214630Y-95179249D01*
X142214631Y-95179254D01*
X142274211Y-95349523D01*
X142366388Y-95496221D01*
X142370184Y-95502262D01*
X142497738Y-95629816D01*
X142650478Y-95725789D01*
X142799617Y-95777975D01*
X142820745Y-95785368D01*
X142820750Y-95785369D01*
X142999996Y-95805565D01*
X143000000Y-95805565D01*
X143033412Y-95801800D01*
X143102232Y-95813854D01*
X143153613Y-95861202D01*
X143171238Y-95928812D01*
X143149513Y-95995218D01*
X143118420Y-96026595D01*
X142935251Y-96154851D01*
X142768162Y-96321940D01*
X142632622Y-96515512D01*
X142632621Y-96515514D01*
X142532755Y-96729678D01*
X142532751Y-96729687D01*
X142471595Y-96957929D01*
X142471593Y-96957939D01*
X142450998Y-97193342D01*
X142450998Y-97193343D01*
X142471593Y-97428746D01*
X142471596Y-97428759D01*
X142498573Y-97529443D01*
X142496910Y-97599293D01*
X142457747Y-97657155D01*
X142393518Y-97684658D01*
X142346706Y-97681310D01*
X142246022Y-97654333D01*
X142246018Y-97654332D01*
X142246014Y-97654331D01*
X142246012Y-97654330D01*
X142246009Y-97654330D01*
X142010607Y-97633735D01*
X142010605Y-97633735D01*
X141775202Y-97654330D01*
X141775192Y-97654332D01*
X141546950Y-97715488D01*
X141546941Y-97715492D01*
X141332777Y-97815358D01*
X141332775Y-97815359D01*
X141139203Y-97950899D01*
X140972111Y-98117991D01*
X140836571Y-98311563D01*
X140836570Y-98311565D01*
X140763976Y-98467244D01*
X140736773Y-98525582D01*
X140736704Y-98525729D01*
X140736700Y-98525738D01*
X140675544Y-98753980D01*
X140675542Y-98753990D01*
X140654947Y-98989393D01*
X140654947Y-98989396D01*
X140658763Y-99033014D01*
X140644996Y-99101514D01*
X140596381Y-99151697D01*
X140528352Y-99167630D01*
X140483723Y-99156615D01*
X140356872Y-99098683D01*
X140356868Y-99098682D01*
X140214555Y-99078222D01*
X140072241Y-99098682D01*
X140072236Y-99098683D01*
X139941457Y-99158409D01*
X139894822Y-99195989D01*
X139894818Y-99195993D01*
X139436738Y-99654074D01*
X140085146Y-100302482D01*
X140021562Y-100319520D01*
X139907548Y-100385346D01*
X139814456Y-100478438D01*
X139748630Y-100592452D01*
X139731592Y-100656036D01*
X139083184Y-100007628D01*
X138625103Y-100465708D01*
X138625099Y-100465712D01*
X138587519Y-100512347D01*
X138527793Y-100643126D01*
X138527792Y-100643131D01*
X138507332Y-100785445D01*
X133150782Y-100785445D01*
X133131114Y-100560643D01*
X133069954Y-100332388D01*
X132970086Y-100118222D01*
X132914260Y-100038493D01*
X132834545Y-99924648D01*
X132667453Y-99757557D01*
X132667446Y-99757552D01*
X132473885Y-99622018D01*
X132473881Y-99622016D01*
X132369300Y-99573249D01*
X132259714Y-99522148D01*
X132259710Y-99522147D01*
X132259706Y-99522145D01*
X132031464Y-99460989D01*
X132031454Y-99460987D01*
X131796052Y-99440392D01*
X131796050Y-99440392D01*
X131560647Y-99460987D01*
X131560634Y-99460990D01*
X131459950Y-99487967D01*
X131390100Y-99486304D01*
X131332238Y-99447140D01*
X131304735Y-99382912D01*
X131308083Y-99336099D01*
X131310771Y-99326068D01*
X131335063Y-99235408D01*
X131355659Y-99000000D01*
X131335063Y-98764592D01*
X131273903Y-98536337D01*
X131174035Y-98322171D01*
X131166608Y-98311563D01*
X131038494Y-98128597D01*
X130871402Y-97961506D01*
X130871395Y-97961501D01*
X130677834Y-97825967D01*
X130677830Y-97825965D01*
X130655083Y-97815358D01*
X130463663Y-97726097D01*
X130463659Y-97726096D01*
X130463655Y-97726094D01*
X130235413Y-97664938D01*
X130235403Y-97664936D01*
X130000001Y-97644341D01*
X129999998Y-97644341D01*
X129956952Y-97648107D01*
X129888452Y-97634340D01*
X129838269Y-97585725D01*
X129822336Y-97517696D01*
X129833351Y-97473067D01*
X129853588Y-97428756D01*
X129891196Y-97346406D01*
X129911677Y-97203949D01*
X129891196Y-97061492D01*
X129843904Y-96957939D01*
X129831409Y-96930578D01*
X129831408Y-96930577D01*
X129831408Y-96930576D01*
X129793789Y-96883893D01*
X129793784Y-96883888D01*
X129793780Y-96883883D01*
X128524008Y-95614114D01*
X128524002Y-95614109D01*
X128523998Y-95614105D01*
X128477322Y-95576489D01*
X128346408Y-95516702D01*
X128346404Y-95516701D01*
X128203949Y-95496221D01*
X128061493Y-95516701D01*
X128061489Y-95516702D01*
X127930578Y-95576488D01*
X127883883Y-95614117D01*
X126614114Y-96883889D01*
X126614105Y-96883899D01*
X126576489Y-96930575D01*
X126516702Y-97061489D01*
X126516701Y-97061493D01*
X126496221Y-97203949D01*
X124230798Y-97203949D01*
X124203164Y-97131555D01*
X124200872Y-97125005D01*
X124180628Y-97061489D01*
X123990067Y-96463609D01*
X123988150Y-96456958D01*
X123814748Y-95784732D01*
X123813212Y-95777999D01*
X123677780Y-95097137D01*
X123676620Y-95090315D01*
X123579576Y-94402920D01*
X123578804Y-94396064D01*
X123520455Y-93704304D01*
X123520066Y-93697376D01*
X123517530Y-93606978D01*
X123500597Y-93003457D01*
X123500597Y-92996542D01*
X123520066Y-92302606D01*
X123520454Y-92295697D01*
X123578804Y-91603931D01*
X123579576Y-91597083D01*
X123676621Y-90909678D01*
X123677778Y-90902867D01*
X123813214Y-90221992D01*
X123814746Y-90215274D01*
X123988153Y-89543031D01*
X123990064Y-89536399D01*
X124200880Y-88874968D01*
X124203159Y-88868455D01*
X124450739Y-88219865D01*
X124453378Y-88213496D01*
X124736929Y-87579821D01*
X124739924Y-87573603D01*
X125058556Y-86956830D01*
X125061900Y-86950779D01*
X125095562Y-86893713D01*
X126649500Y-86893713D01*
X126649500Y-87106287D01*
X126682754Y-87316243D01*
X126686966Y-87329207D01*
X126748444Y-87518414D01*
X126844951Y-87707820D01*
X126969890Y-87879786D01*
X127120213Y-88030109D01*
X127292179Y-88155048D01*
X127292181Y-88155049D01*
X127292184Y-88155051D01*
X127481588Y-88251557D01*
X127683757Y-88317246D01*
X127893713Y-88350500D01*
X127893714Y-88350500D01*
X128106286Y-88350500D01*
X128106287Y-88350500D01*
X128316243Y-88317246D01*
X128518412Y-88251557D01*
X128707816Y-88155051D01*
X128729789Y-88139086D01*
X128879786Y-88030109D01*
X128879788Y-88030106D01*
X128879792Y-88030104D01*
X129030104Y-87879792D01*
X129030106Y-87879788D01*
X129030109Y-87879786D01*
X129155048Y-87707820D01*
X129155047Y-87707820D01*
X129155051Y-87707816D01*
X129251557Y-87518412D01*
X129317246Y-87316243D01*
X129350500Y-87106287D01*
X129350500Y-86893713D01*
X142649500Y-86893713D01*
X142649500Y-87106287D01*
X142682754Y-87316243D01*
X142686966Y-87329207D01*
X142748444Y-87518414D01*
X142844951Y-87707820D01*
X142969890Y-87879786D01*
X143120213Y-88030109D01*
X143292179Y-88155048D01*
X143292181Y-88155049D01*
X143292184Y-88155051D01*
X143481588Y-88251557D01*
X143683757Y-88317246D01*
X143893713Y-88350500D01*
X143893714Y-88350500D01*
X144106286Y-88350500D01*
X144106287Y-88350500D01*
X144316243Y-88317246D01*
X144518412Y-88251557D01*
X144707816Y-88155051D01*
X144729789Y-88139086D01*
X144879786Y-88030109D01*
X144879788Y-88030106D01*
X144879792Y-88030104D01*
X145030104Y-87879792D01*
X145030106Y-87879788D01*
X145030109Y-87879786D01*
X145155048Y-87707820D01*
X145155047Y-87707820D01*
X145155051Y-87707816D01*
X145251557Y-87518412D01*
X145317246Y-87316243D01*
X145350500Y-87106287D01*
X145350500Y-86893713D01*
X145317246Y-86683757D01*
X145251557Y-86481588D01*
X145155051Y-86292184D01*
X145155049Y-86292181D01*
X145155048Y-86292179D01*
X145030109Y-86120213D01*
X144879786Y-85969890D01*
X144707820Y-85844951D01*
X144518414Y-85748444D01*
X144518413Y-85748443D01*
X144518412Y-85748443D01*
X144316243Y-85682754D01*
X144316241Y-85682753D01*
X144316240Y-85682753D01*
X144154957Y-85657208D01*
X144106287Y-85649500D01*
X143893713Y-85649500D01*
X143845042Y-85657208D01*
X143683760Y-85682753D01*
X143481585Y-85748444D01*
X143292179Y-85844951D01*
X143120213Y-85969890D01*
X142969890Y-86120213D01*
X142844951Y-86292179D01*
X142748444Y-86481585D01*
X142682753Y-86683760D01*
X142649500Y-86893713D01*
X129350500Y-86893713D01*
X129317246Y-86683757D01*
X129251557Y-86481588D01*
X129155051Y-86292184D01*
X129155049Y-86292181D01*
X129155048Y-86292179D01*
X129030109Y-86120213D01*
X128879786Y-85969890D01*
X128707820Y-85844951D01*
X128518414Y-85748444D01*
X128518413Y-85748443D01*
X128518412Y-85748443D01*
X128316243Y-85682754D01*
X128316241Y-85682753D01*
X128316240Y-85682753D01*
X128154957Y-85657208D01*
X128106287Y-85649500D01*
X127893713Y-85649500D01*
X127845042Y-85657208D01*
X127683760Y-85682753D01*
X127481585Y-85748444D01*
X127292179Y-85844951D01*
X127120213Y-85969890D01*
X126969890Y-86120213D01*
X126844951Y-86292179D01*
X126748444Y-86481585D01*
X126682753Y-86683760D01*
X126649500Y-86893713D01*
X125095562Y-86893713D01*
X125414614Y-86352842D01*
X125418292Y-86346988D01*
X125803978Y-85769768D01*
X125807981Y-85764127D01*
X126225409Y-85209463D01*
X126229725Y-85204050D01*
X126677617Y-84673639D01*
X126682211Y-84668498D01*
X127159163Y-84164010D01*
X127164010Y-84159163D01*
X127668498Y-83682211D01*
X127673639Y-83677617D01*
X128204050Y-83229725D01*
X128209463Y-83225409D01*
X128373265Y-83102135D01*
X132124500Y-83102135D01*
X132124500Y-84897870D01*
X132124501Y-84897876D01*
X132130908Y-84957483D01*
X132181202Y-85092328D01*
X132181206Y-85092335D01*
X132267452Y-85207544D01*
X132267455Y-85207547D01*
X132382664Y-85293793D01*
X132382671Y-85293797D01*
X132517517Y-85344091D01*
X132517516Y-85344091D01*
X132524444Y-85344835D01*
X132577127Y-85350500D01*
X134372872Y-85350499D01*
X134432483Y-85344091D01*
X134567331Y-85293796D01*
X134682546Y-85207546D01*
X134768796Y-85092331D01*
X134818002Y-84960401D01*
X134859872Y-84904468D01*
X134925337Y-84880050D01*
X134993610Y-84894901D01*
X135021865Y-84916053D01*
X135143917Y-85038105D01*
X135337421Y-85173600D01*
X135551507Y-85273429D01*
X135551516Y-85273433D01*
X135765000Y-85330634D01*
X135765000Y-84433012D01*
X135822007Y-84465925D01*
X135949174Y-84500000D01*
X136080826Y-84500000D01*
X136207993Y-84465925D01*
X136265000Y-84433012D01*
X136265000Y-85330633D01*
X136478483Y-85273433D01*
X136478492Y-85273429D01*
X136692578Y-85173600D01*
X136886082Y-85038105D01*
X137053105Y-84871082D01*
X137183119Y-84685405D01*
X137237696Y-84641781D01*
X137307195Y-84634588D01*
X137369549Y-84666110D01*
X137386269Y-84685405D01*
X137516505Y-84871401D01*
X137683599Y-85038495D01*
X137780384Y-85106265D01*
X137877165Y-85174032D01*
X137877167Y-85174033D01*
X137877170Y-85174035D01*
X138091337Y-85273903D01*
X138319592Y-85335063D01*
X138496034Y-85350500D01*
X138554999Y-85355659D01*
X138555000Y-85355659D01*
X138555001Y-85355659D01*
X138613966Y-85350500D01*
X138790408Y-85335063D01*
X139018663Y-85273903D01*
X139232830Y-85174035D01*
X139426401Y-85038495D01*
X139593495Y-84871401D01*
X139729035Y-84677830D01*
X139828903Y-84463663D01*
X139890063Y-84235408D01*
X139910659Y-84000000D01*
X139890063Y-83764592D01*
X139828903Y-83536337D01*
X139729035Y-83322171D01*
X139723731Y-83314595D01*
X139593494Y-83128597D01*
X139426402Y-82961506D01*
X139426395Y-82961501D01*
X139232834Y-82825967D01*
X139232830Y-82825965D01*
X139185657Y-82803968D01*
X139018663Y-82726097D01*
X139018659Y-82726096D01*
X139018655Y-82726094D01*
X138790413Y-82664938D01*
X138790403Y-82664936D01*
X138555001Y-82644341D01*
X138554999Y-82644341D01*
X138319596Y-82664936D01*
X138319586Y-82664938D01*
X138091344Y-82726094D01*
X138091335Y-82726098D01*
X137877171Y-82825964D01*
X137877169Y-82825965D01*
X137683597Y-82961505D01*
X137516508Y-83128594D01*
X137386269Y-83314595D01*
X137331692Y-83358219D01*
X137262193Y-83365412D01*
X137199839Y-83333890D01*
X137183119Y-83314594D01*
X137053113Y-83128926D01*
X137053108Y-83128920D01*
X136886082Y-82961894D01*
X136692578Y-82826399D01*
X136478492Y-82726570D01*
X136478486Y-82726567D01*
X136265000Y-82669364D01*
X136265000Y-83566988D01*
X136207993Y-83534075D01*
X136080826Y-83500000D01*
X135949174Y-83500000D01*
X135822007Y-83534075D01*
X135765000Y-83566988D01*
X135765000Y-82669364D01*
X135764999Y-82669364D01*
X135551513Y-82726567D01*
X135551507Y-82726570D01*
X135337422Y-82826399D01*
X135337420Y-82826400D01*
X135143926Y-82961886D01*
X135021865Y-83083947D01*
X134960542Y-83117431D01*
X134890850Y-83112447D01*
X134834917Y-83070575D01*
X134818002Y-83039598D01*
X134768797Y-82907671D01*
X134768793Y-82907664D01*
X134682547Y-82792455D01*
X134682544Y-82792452D01*
X134567335Y-82706206D01*
X134567328Y-82706202D01*
X134432482Y-82655908D01*
X134432483Y-82655908D01*
X134372883Y-82649501D01*
X134372881Y-82649500D01*
X134372873Y-82649500D01*
X134372864Y-82649500D01*
X132577129Y-82649500D01*
X132577123Y-82649501D01*
X132517516Y-82655908D01*
X132382671Y-82706202D01*
X132382664Y-82706206D01*
X132267455Y-82792452D01*
X132267452Y-82792455D01*
X132181206Y-82907664D01*
X132181202Y-82907671D01*
X132130908Y-83042517D01*
X132124501Y-83102116D01*
X132124500Y-83102135D01*
X128373265Y-83102135D01*
X128764127Y-82807981D01*
X128769768Y-82803978D01*
X129346988Y-82418292D01*
X129352842Y-82414614D01*
X129950779Y-82061900D01*
X129956830Y-82058556D01*
X130573603Y-81739924D01*
X130579821Y-81736929D01*
X131213496Y-81453378D01*
X131219865Y-81450739D01*
X131868455Y-81203159D01*
X131874968Y-81200880D01*
X132536399Y-80990064D01*
X132543031Y-80988153D01*
X133215274Y-80814746D01*
X133221992Y-80813214D01*
X133902867Y-80677778D01*
X133909678Y-80676621D01*
X134597083Y-80579576D01*
X134603931Y-80578804D01*
X135295697Y-80520454D01*
X135302606Y-80520066D01*
X135996543Y-80500597D01*
X136003457Y-80500597D01*
X136697391Y-80520066D01*
G37*
%TD.AperFunction*%
%TD*%
M02*
