%TF.GenerationSoftware,KiCad,Pcbnew,8.0.8*%
%TF.CreationDate,2025-03-13T11:30:44-04:00*%
%TF.ProjectId,Anemosens Sensor,416e656d-6f73-4656-9e73-2053656e736f,rev?*%
%TF.SameCoordinates,Original*%
%TF.FileFunction,Legend,Top*%
%TF.FilePolarity,Positive*%
%FSLAX46Y46*%
G04 Gerber Fmt 4.6, Leading zero omitted, Abs format (unit mm)*
G04 Created by KiCad (PCBNEW 8.0.8) date 2025-03-13 11:30:44*
%MOMM*%
%LPD*%
G01*
G04 APERTURE LIST*
%ADD10C,0.150000*%
%ADD11C,0.120000*%
%ADD12C,0.152400*%
%ADD13C,0.000000*%
G04 APERTURE END LIST*
D10*
X144908333Y-91419580D02*
X144860714Y-91467200D01*
X144860714Y-91467200D02*
X144717857Y-91514819D01*
X144717857Y-91514819D02*
X144622619Y-91514819D01*
X144622619Y-91514819D02*
X144479762Y-91467200D01*
X144479762Y-91467200D02*
X144384524Y-91371961D01*
X144384524Y-91371961D02*
X144336905Y-91276723D01*
X144336905Y-91276723D02*
X144289286Y-91086247D01*
X144289286Y-91086247D02*
X144289286Y-90943390D01*
X144289286Y-90943390D02*
X144336905Y-90752914D01*
X144336905Y-90752914D02*
X144384524Y-90657676D01*
X144384524Y-90657676D02*
X144479762Y-90562438D01*
X144479762Y-90562438D02*
X144622619Y-90514819D01*
X144622619Y-90514819D02*
X144717857Y-90514819D01*
X144717857Y-90514819D02*
X144860714Y-90562438D01*
X144860714Y-90562438D02*
X144908333Y-90610057D01*
X145289286Y-90610057D02*
X145336905Y-90562438D01*
X145336905Y-90562438D02*
X145432143Y-90514819D01*
X145432143Y-90514819D02*
X145670238Y-90514819D01*
X145670238Y-90514819D02*
X145765476Y-90562438D01*
X145765476Y-90562438D02*
X145813095Y-90610057D01*
X145813095Y-90610057D02*
X145860714Y-90705295D01*
X145860714Y-90705295D02*
X145860714Y-90800533D01*
X145860714Y-90800533D02*
X145813095Y-90943390D01*
X145813095Y-90943390D02*
X145241667Y-91514819D01*
X145241667Y-91514819D02*
X145860714Y-91514819D01*
X144908333Y-93419580D02*
X144860714Y-93467200D01*
X144860714Y-93467200D02*
X144717857Y-93514819D01*
X144717857Y-93514819D02*
X144622619Y-93514819D01*
X144622619Y-93514819D02*
X144479762Y-93467200D01*
X144479762Y-93467200D02*
X144384524Y-93371961D01*
X144384524Y-93371961D02*
X144336905Y-93276723D01*
X144336905Y-93276723D02*
X144289286Y-93086247D01*
X144289286Y-93086247D02*
X144289286Y-92943390D01*
X144289286Y-92943390D02*
X144336905Y-92752914D01*
X144336905Y-92752914D02*
X144384524Y-92657676D01*
X144384524Y-92657676D02*
X144479762Y-92562438D01*
X144479762Y-92562438D02*
X144622619Y-92514819D01*
X144622619Y-92514819D02*
X144717857Y-92514819D01*
X144717857Y-92514819D02*
X144860714Y-92562438D01*
X144860714Y-92562438D02*
X144908333Y-92610057D01*
X145860714Y-93514819D02*
X145289286Y-93514819D01*
X145575000Y-93514819D02*
X145575000Y-92514819D01*
X145575000Y-92514819D02*
X145479762Y-92657676D01*
X145479762Y-92657676D02*
X145384524Y-92752914D01*
X145384524Y-92752914D02*
X145289286Y-92800533D01*
X135904761Y-93550057D02*
X135809523Y-93502438D01*
X135809523Y-93502438D02*
X135714285Y-93407200D01*
X135714285Y-93407200D02*
X135571428Y-93264342D01*
X135571428Y-93264342D02*
X135476190Y-93216723D01*
X135476190Y-93216723D02*
X135380952Y-93216723D01*
X135428571Y-93454819D02*
X135333333Y-93407200D01*
X135333333Y-93407200D02*
X135238095Y-93311961D01*
X135238095Y-93311961D02*
X135190476Y-93121485D01*
X135190476Y-93121485D02*
X135190476Y-92788152D01*
X135190476Y-92788152D02*
X135238095Y-92597676D01*
X135238095Y-92597676D02*
X135333333Y-92502438D01*
X135333333Y-92502438D02*
X135428571Y-92454819D01*
X135428571Y-92454819D02*
X135619047Y-92454819D01*
X135619047Y-92454819D02*
X135714285Y-92502438D01*
X135714285Y-92502438D02*
X135809523Y-92597676D01*
X135809523Y-92597676D02*
X135857142Y-92788152D01*
X135857142Y-92788152D02*
X135857142Y-93121485D01*
X135857142Y-93121485D02*
X135809523Y-93311961D01*
X135809523Y-93311961D02*
X135714285Y-93407200D01*
X135714285Y-93407200D02*
X135619047Y-93454819D01*
X135619047Y-93454819D02*
X135428571Y-93454819D01*
X136809523Y-93454819D02*
X136238095Y-93454819D01*
X136523809Y-93454819D02*
X136523809Y-92454819D01*
X136523809Y-92454819D02*
X136428571Y-92597676D01*
X136428571Y-92597676D02*
X136333333Y-92692914D01*
X136333333Y-92692914D02*
X136238095Y-92740533D01*
X132844050Y-89107819D02*
X132844050Y-89345914D01*
X132605955Y-89250676D02*
X132844050Y-89345914D01*
X132844050Y-89345914D02*
X133082145Y-89250676D01*
X132701193Y-89536390D02*
X132844050Y-89345914D01*
X132844050Y-89345914D02*
X132986907Y-89536390D01*
X146149798Y-95378796D02*
X145644722Y-95883872D01*
X145644722Y-95883872D02*
X145510035Y-95951216D01*
X145510035Y-95951216D02*
X145375348Y-95951216D01*
X145375348Y-95951216D02*
X145240661Y-95883872D01*
X145240661Y-95883872D02*
X145173317Y-95816529D01*
X146385501Y-95749185D02*
X146452844Y-95749185D01*
X146452844Y-95749185D02*
X146553859Y-95782857D01*
X146553859Y-95782857D02*
X146722218Y-95951216D01*
X146722218Y-95951216D02*
X146755890Y-96052231D01*
X146755890Y-96052231D02*
X146755890Y-96119575D01*
X146755890Y-96119575D02*
X146722218Y-96220590D01*
X146722218Y-96220590D02*
X146654875Y-96287933D01*
X146654875Y-96287933D02*
X146520188Y-96355277D01*
X146520188Y-96355277D02*
X145712066Y-96355277D01*
X145712066Y-96355277D02*
X146149798Y-96793010D01*
X138520166Y-97776174D02*
X138419151Y-97809846D01*
X138419151Y-97809846D02*
X138318136Y-97910861D01*
X138318136Y-97910861D02*
X138250792Y-98045548D01*
X138250792Y-98045548D02*
X138250792Y-98180235D01*
X138250792Y-98180235D02*
X138284464Y-98281250D01*
X138284464Y-98281250D02*
X138385479Y-98449609D01*
X138385479Y-98449609D02*
X138486495Y-98550624D01*
X138486495Y-98550624D02*
X138654853Y-98651639D01*
X138654853Y-98651639D02*
X138755869Y-98685311D01*
X138755869Y-98685311D02*
X138890556Y-98685311D01*
X138890556Y-98685311D02*
X139025243Y-98617968D01*
X139025243Y-98617968D02*
X139092586Y-98550624D01*
X139092586Y-98550624D02*
X139159930Y-98415937D01*
X139159930Y-98415937D02*
X139159930Y-98348594D01*
X139159930Y-98348594D02*
X138924227Y-98112891D01*
X138924227Y-98112891D02*
X138789540Y-98247578D01*
X139429304Y-98348594D02*
X139968052Y-97809846D01*
X140069067Y-97574143D02*
X139361960Y-96867036D01*
X139698678Y-97203754D02*
X140102739Y-96799693D01*
X140473128Y-97170082D02*
X139766021Y-96462975D01*
X140708830Y-97069067D02*
X141247578Y-96530319D01*
X141348594Y-96294617D02*
X140641487Y-95587510D01*
X140641487Y-95587510D02*
X141382266Y-95856884D01*
X141382266Y-95856884D02*
X141112891Y-95116105D01*
X141112891Y-95116105D02*
X141819998Y-95823212D01*
X125368190Y-95839595D02*
X125873266Y-96344671D01*
X125873266Y-96344671D02*
X125940610Y-96479358D01*
X125940610Y-96479358D02*
X125940610Y-96614045D01*
X125940610Y-96614045D02*
X125873266Y-96748732D01*
X125873266Y-96748732D02*
X125805923Y-96816076D01*
X126782404Y-95839595D02*
X126378343Y-96243656D01*
X126580373Y-96041625D02*
X125873266Y-95334518D01*
X125873266Y-95334518D02*
X125906938Y-95502877D01*
X125906938Y-95502877D02*
X125906938Y-95637564D01*
X125906938Y-95637564D02*
X125873266Y-95738579D01*
X130093903Y-95669771D02*
X130161247Y-95804458D01*
X130161247Y-95804458D02*
X130329605Y-95972817D01*
X130329605Y-95972817D02*
X130430621Y-96006488D01*
X130430621Y-96006488D02*
X130497964Y-96006488D01*
X130497964Y-96006488D02*
X130598979Y-95972817D01*
X130598979Y-95972817D02*
X130666323Y-95905473D01*
X130666323Y-95905473D02*
X130699995Y-95804458D01*
X130699995Y-95804458D02*
X130699995Y-95737114D01*
X130699995Y-95737114D02*
X130666323Y-95636099D01*
X130666323Y-95636099D02*
X130565308Y-95467740D01*
X130565308Y-95467740D02*
X130531636Y-95366725D01*
X130531636Y-95366725D02*
X130531636Y-95299382D01*
X130531636Y-95299382D02*
X130565308Y-95198366D01*
X130565308Y-95198366D02*
X130632651Y-95131023D01*
X130632651Y-95131023D02*
X130733666Y-95097351D01*
X130733666Y-95097351D02*
X130801010Y-95097351D01*
X130801010Y-95097351D02*
X130902025Y-95131023D01*
X130902025Y-95131023D02*
X131070384Y-95299382D01*
X131070384Y-95299382D02*
X131137727Y-95434069D01*
X130531636Y-96309534D02*
X131070384Y-96848282D01*
X131306086Y-96881954D02*
X131373430Y-97016641D01*
X131373430Y-97016641D02*
X131541789Y-97185000D01*
X131541789Y-97185000D02*
X131642804Y-97218672D01*
X131642804Y-97218672D02*
X131710147Y-97218672D01*
X131710147Y-97218672D02*
X131811163Y-97185000D01*
X131811163Y-97185000D02*
X131878506Y-97117656D01*
X131878506Y-97117656D02*
X131912178Y-97016641D01*
X131912178Y-97016641D02*
X131912178Y-96949298D01*
X131912178Y-96949298D02*
X131878506Y-96848282D01*
X131878506Y-96848282D02*
X131777491Y-96679924D01*
X131777491Y-96679924D02*
X131743819Y-96578908D01*
X131743819Y-96578908D02*
X131743819Y-96511565D01*
X131743819Y-96511565D02*
X131777491Y-96410550D01*
X131777491Y-96410550D02*
X131844834Y-96343206D01*
X131844834Y-96343206D02*
X131945850Y-96309534D01*
X131945850Y-96309534D02*
X132013193Y-96309534D01*
X132013193Y-96309534D02*
X132114208Y-96343206D01*
X132114208Y-96343206D02*
X132282567Y-96511565D01*
X132282567Y-96511565D02*
X132349911Y-96646252D01*
X131743819Y-97521718D02*
X132282567Y-98060466D01*
X133158033Y-97387031D02*
X133595766Y-97824763D01*
X133595766Y-97824763D02*
X133090689Y-97858435D01*
X133090689Y-97858435D02*
X133191705Y-97959450D01*
X133191705Y-97959450D02*
X133225376Y-98060466D01*
X133225376Y-98060466D02*
X133225376Y-98127809D01*
X133225376Y-98127809D02*
X133191705Y-98228824D01*
X133191705Y-98228824D02*
X133023346Y-98397183D01*
X133023346Y-98397183D02*
X132922331Y-98430855D01*
X132922331Y-98430855D02*
X132854987Y-98430855D01*
X132854987Y-98430855D02*
X132753972Y-98397183D01*
X132753972Y-98397183D02*
X132551941Y-98195153D01*
X132551941Y-98195153D02*
X132518270Y-98094137D01*
X132518270Y-98094137D02*
X132518270Y-98026794D01*
X126833333Y-91454819D02*
X126500000Y-90978628D01*
X126261905Y-91454819D02*
X126261905Y-90454819D01*
X126261905Y-90454819D02*
X126642857Y-90454819D01*
X126642857Y-90454819D02*
X126738095Y-90502438D01*
X126738095Y-90502438D02*
X126785714Y-90550057D01*
X126785714Y-90550057D02*
X126833333Y-90645295D01*
X126833333Y-90645295D02*
X126833333Y-90788152D01*
X126833333Y-90788152D02*
X126785714Y-90883390D01*
X126785714Y-90883390D02*
X126738095Y-90931009D01*
X126738095Y-90931009D02*
X126642857Y-90978628D01*
X126642857Y-90978628D02*
X126261905Y-90978628D01*
X127785714Y-91454819D02*
X127214286Y-91454819D01*
X127500000Y-91454819D02*
X127500000Y-90454819D01*
X127500000Y-90454819D02*
X127404762Y-90597676D01*
X127404762Y-90597676D02*
X127309524Y-90692914D01*
X127309524Y-90692914D02*
X127214286Y-90740533D01*
X130833333Y-89504819D02*
X130500000Y-89028628D01*
X130261905Y-89504819D02*
X130261905Y-88504819D01*
X130261905Y-88504819D02*
X130642857Y-88504819D01*
X130642857Y-88504819D02*
X130738095Y-88552438D01*
X130738095Y-88552438D02*
X130785714Y-88600057D01*
X130785714Y-88600057D02*
X130833333Y-88695295D01*
X130833333Y-88695295D02*
X130833333Y-88838152D01*
X130833333Y-88838152D02*
X130785714Y-88933390D01*
X130785714Y-88933390D02*
X130738095Y-88981009D01*
X130738095Y-88981009D02*
X130642857Y-89028628D01*
X130642857Y-89028628D02*
X130261905Y-89028628D01*
X131214286Y-88600057D02*
X131261905Y-88552438D01*
X131261905Y-88552438D02*
X131357143Y-88504819D01*
X131357143Y-88504819D02*
X131595238Y-88504819D01*
X131595238Y-88504819D02*
X131690476Y-88552438D01*
X131690476Y-88552438D02*
X131738095Y-88600057D01*
X131738095Y-88600057D02*
X131785714Y-88695295D01*
X131785714Y-88695295D02*
X131785714Y-88790533D01*
X131785714Y-88790533D02*
X131738095Y-88933390D01*
X131738095Y-88933390D02*
X131166667Y-89504819D01*
X131166667Y-89504819D02*
X131785714Y-89504819D01*
X132666666Y-81454819D02*
X132666666Y-82169104D01*
X132666666Y-82169104D02*
X132619047Y-82311961D01*
X132619047Y-82311961D02*
X132523809Y-82407200D01*
X132523809Y-82407200D02*
X132380952Y-82454819D01*
X132380952Y-82454819D02*
X132285714Y-82454819D01*
X133047619Y-81454819D02*
X133666666Y-81454819D01*
X133666666Y-81454819D02*
X133333333Y-81835771D01*
X133333333Y-81835771D02*
X133476190Y-81835771D01*
X133476190Y-81835771D02*
X133571428Y-81883390D01*
X133571428Y-81883390D02*
X133619047Y-81931009D01*
X133619047Y-81931009D02*
X133666666Y-82026247D01*
X133666666Y-82026247D02*
X133666666Y-82264342D01*
X133666666Y-82264342D02*
X133619047Y-82359580D01*
X133619047Y-82359580D02*
X133571428Y-82407200D01*
X133571428Y-82407200D02*
X133476190Y-82454819D01*
X133476190Y-82454819D02*
X133190476Y-82454819D01*
X133190476Y-82454819D02*
X133095238Y-82407200D01*
X133095238Y-82407200D02*
X133047619Y-82359580D01*
X134666667Y-87454819D02*
X134666667Y-86454819D01*
X134666667Y-86454819D02*
X135000000Y-87169104D01*
X135000000Y-87169104D02*
X135333333Y-86454819D01*
X135333333Y-86454819D02*
X135333333Y-87454819D01*
X135761905Y-86550057D02*
X135809524Y-86502438D01*
X135809524Y-86502438D02*
X135904762Y-86454819D01*
X135904762Y-86454819D02*
X136142857Y-86454819D01*
X136142857Y-86454819D02*
X136238095Y-86502438D01*
X136238095Y-86502438D02*
X136285714Y-86550057D01*
X136285714Y-86550057D02*
X136333333Y-86645295D01*
X136333333Y-86645295D02*
X136333333Y-86740533D01*
X136333333Y-86740533D02*
X136285714Y-86883390D01*
X136285714Y-86883390D02*
X135714286Y-87454819D01*
X135714286Y-87454819D02*
X136333333Y-87454819D01*
X136761905Y-87454819D02*
X136761905Y-86454819D01*
X136761905Y-86931009D02*
X137333333Y-86931009D01*
X137333333Y-87454819D02*
X137333333Y-86454819D01*
D11*
%TO.C,C2*%
X142298752Y-90265000D02*
X141776248Y-90265000D01*
X142298752Y-91735000D02*
X141776248Y-91735000D01*
%TO.C,C1*%
X142298752Y-92325000D02*
X141776248Y-92325000D01*
X142298752Y-93795000D02*
X141776248Y-93795000D01*
D12*
%TO.C,Q1*%
X133625100Y-90320300D02*
X133625100Y-90590259D01*
X133625100Y-95409739D02*
X133625100Y-95679700D01*
X133625100Y-95679700D02*
X138374900Y-95679700D01*
X138374900Y-90320300D02*
X133625100Y-90320300D01*
X138374900Y-90590261D02*
X138374900Y-90320300D01*
X138374900Y-95679700D02*
X138374900Y-95409741D01*
D13*
G36*
X140064000Y-93840499D02*
G01*
X139810000Y-93840499D01*
X139810000Y-93459499D01*
X140064000Y-93459499D01*
X140064000Y-93840499D01*
G37*
D11*
%TO.C,J2*%
X140172129Y-98946967D02*
X143806657Y-95312439D01*
X140214555Y-102666349D02*
X139274103Y-101725897D01*
X141155007Y-101725897D02*
X140214555Y-102666349D01*
X142053033Y-100827871D02*
X140172129Y-98946967D01*
X142053033Y-100827871D02*
X145687561Y-97193343D01*
X145687561Y-97193343D02*
X143806657Y-95312439D01*
%TO.C,J1*%
X126323045Y-97203949D02*
X127263497Y-96263497D01*
X127263497Y-98144401D02*
X126323045Y-97203949D01*
X128161523Y-99042427D02*
X130042427Y-97161523D01*
X128161523Y-99042427D02*
X131796051Y-102676955D01*
X130042427Y-97161523D02*
X133676955Y-100796051D01*
X131796051Y-102676955D02*
X133676955Y-100796051D01*
%TO.C,R1*%
X128265000Y-92227064D02*
X128265000Y-91772936D01*
X129735000Y-92227064D02*
X129735000Y-91772936D01*
%TO.C,R2*%
X130265000Y-92227064D02*
X130265000Y-91772936D01*
X131735000Y-92227064D02*
X131735000Y-91772936D01*
%TO.C,J3*%
X132145000Y-85330000D02*
X132145000Y-84000000D01*
X133475000Y-85330000D02*
X132145000Y-85330000D01*
X134745000Y-82670000D02*
X139885000Y-82670000D01*
X134745000Y-85330000D02*
X134745000Y-82670000D01*
X134745000Y-85330000D02*
X139885000Y-85330000D01*
X139885000Y-85330000D02*
X139885000Y-82670000D01*
%TD*%
M02*
