%TF.GenerationSoftware,KiCad,Pcbnew,8.0.8*%
%TF.CreationDate,2025-03-13T11:30:44-04:00*%
%TF.ProjectId,Anemosens Sensor,416e656d-6f73-4656-9e73-2053656e736f,rev?*%
%TF.SameCoordinates,Original*%
%TF.FileFunction,Copper,L1,Top*%
%TF.FilePolarity,Positive*%
%FSLAX46Y46*%
G04 Gerber Fmt 4.6, Leading zero omitted, Abs format (unit mm)*
G04 Created by KiCad (PCBNEW 8.0.8) date 2025-03-13 11:30:44*
%MOMM*%
%LPD*%
G01*
G04 APERTURE LIST*
G04 Aperture macros list*
%AMRoundRect*
0 Rectangle with rounded corners*
0 $1 Rounding radius*
0 $2 $3 $4 $5 $6 $7 $8 $9 X,Y pos of 4 corners*
0 Add a 4 corners polygon primitive as box body*
4,1,4,$2,$3,$4,$5,$6,$7,$8,$9,$2,$3,0*
0 Add four circle primitives for the rounded corners*
1,1,$1+$1,$2,$3*
1,1,$1+$1,$4,$5*
1,1,$1+$1,$6,$7*
1,1,$1+$1,$8,$9*
0 Add four rect primitives between the rounded corners*
20,1,$1+$1,$2,$3,$4,$5,0*
20,1,$1+$1,$4,$5,$6,$7,0*
20,1,$1+$1,$6,$7,$8,$9,0*
20,1,$1+$1,$8,$9,$2,$3,0*%
%AMHorizOval*
0 Thick line with rounded ends*
0 $1 width*
0 $2 $3 position (X,Y) of the first rounded end (center of the circle)*
0 $4 $5 position (X,Y) of the second rounded end (center of the circle)*
0 Add line between two ends*
20,1,$1,$2,$3,$4,$5,0*
0 Add two circle primitives to create the rounded ends*
1,1,$1,$2,$3*
1,1,$1,$4,$5*%
%AMRotRect*
0 Rectangle, with rotation*
0 The origin of the aperture is its center*
0 $1 length*
0 $2 width*
0 $3 Rotation angle, in degrees counterclockwise*
0 Add horizontal line*
21,1,$1,$2,0,0,$3*%
G04 Aperture macros list end*
%TA.AperFunction,SMDPad,CuDef*%
%ADD10RoundRect,0.250000X0.337500X0.475000X-0.337500X0.475000X-0.337500X-0.475000X0.337500X-0.475000X0*%
%TD*%
%TA.AperFunction,SMDPad,CuDef*%
%ADD11R,1.308100X0.254000*%
%TD*%
%TA.AperFunction,ComponentPad*%
%ADD12RotRect,1.700000X1.700000X135.000000*%
%TD*%
%TA.AperFunction,ComponentPad*%
%ADD13HorizOval,1.700000X0.000000X0.000000X0.000000X0.000000X0*%
%TD*%
%TA.AperFunction,ComponentPad*%
%ADD14RotRect,1.700000X1.700000X45.000000*%
%TD*%
%TA.AperFunction,ComponentPad*%
%ADD15HorizOval,1.700000X0.000000X0.000000X0.000000X0.000000X0*%
%TD*%
%TA.AperFunction,SMDPad,CuDef*%
%ADD16RoundRect,0.250000X0.450000X-0.350000X0.450000X0.350000X-0.450000X0.350000X-0.450000X-0.350000X0*%
%TD*%
%TA.AperFunction,ComponentPad*%
%ADD17R,1.700000X1.700000*%
%TD*%
%TA.AperFunction,ComponentPad*%
%ADD18O,1.700000X1.700000*%
%TD*%
%TA.AperFunction,ViaPad*%
%ADD19C,0.600000*%
%TD*%
%TA.AperFunction,Conductor*%
%ADD20C,0.200000*%
%TD*%
%TA.AperFunction,Conductor*%
%ADD21C,0.762000*%
%TD*%
G04 APERTURE END LIST*
D10*
%TO.P,C2,1*%
%TO.N,GND*%
X143075000Y-91000000D03*
%TO.P,C2,2*%
%TO.N,+3.3V*%
X141000000Y-91000000D03*
%TD*%
%TO.P,C1,1*%
%TO.N,GND*%
X143075000Y-93060000D03*
%TO.P,C1,2*%
%TO.N,+3.3V*%
X141000000Y-93060000D03*
%TD*%
D11*
%TO.P,Q1,1,SDA*%
%TO.N,/SDA*%
X133098050Y-91049999D03*
%TO.P,Q1,2,SCL*%
%TO.N,/SCL*%
X133098050Y-91700000D03*
%TO.P,Q1,3,A2*%
%TO.N,+3.3V*%
X133098050Y-92350001D03*
%TO.P,Q1,4,A1*%
X133098050Y-93000000D03*
%TO.P,Q1,5,TEST*%
%TO.N,unconnected-(Q1-TEST-Pad5)*%
X133098050Y-93649999D03*
%TO.P,Q1,6,TEST*%
%TO.N,unconnected-(Q1-TEST-Pad6)*%
X133098050Y-94300000D03*
%TO.P,Q1,7,TEST*%
%TO.N,unconnected-(Q1-TEST-Pad7)*%
X133098050Y-94949999D03*
%TO.P,Q1,8,TEST*%
%TO.N,unconnected-(Q1-TEST-Pad8)*%
X138901950Y-94950001D03*
%TO.P,Q1,9,TEST*%
%TO.N,unconnected-(Q1-TEST-Pad9)*%
X138901950Y-94300000D03*
%TO.P,Q1,10,TEST*%
%TO.N,unconnected-(Q1-TEST-Pad10)*%
X138901950Y-93650001D03*
%TO.P,Q1,11,VDD5V*%
%TO.N,unconnected-(Q1-VDD5V-Pad11)*%
X138901950Y-93000000D03*
%TO.P,Q1,12,VDD3V*%
%TO.N,+3.3V*%
X138901950Y-92350001D03*
%TO.P,Q1,13,GND*%
%TO.N,GND*%
X138901950Y-91700000D03*
%TO.P,Q1,14,PWM*%
%TO.N,/MAG_INT*%
X138901950Y-91050001D03*
%TD*%
D12*
%TO.P,J2,1,Pin_1*%
%TO.N,GND*%
X140214555Y-100785445D03*
D13*
%TO.P,J2,2,Pin_2*%
%TO.N,/HALL_OUT*%
X142010606Y-98989394D03*
%TO.P,J2,3,Pin_3*%
%TO.N,/MAG_INT*%
X143806657Y-97193343D03*
%TD*%
D14*
%TO.P,J1,1,Pin_1*%
%TO.N,/SDA*%
X128203949Y-97203949D03*
D15*
%TO.P,J1,2,Pin_2*%
%TO.N,/SCL*%
X130000000Y-99000000D03*
%TO.P,J1,3,Pin_3*%
%TO.N,+3.3V*%
X131796051Y-100796051D03*
%TD*%
D16*
%TO.P,R1,1*%
%TO.N,+3.3V*%
X129000000Y-93000000D03*
%TO.P,R1,2*%
%TO.N,/SDA*%
X129000000Y-91000000D03*
%TD*%
%TO.P,R2,1*%
%TO.N,+3.3V*%
X131000000Y-93000000D03*
%TO.P,R2,2*%
%TO.N,/SCL*%
X131000000Y-91000000D03*
%TD*%
D17*
%TO.P,J3,1,Pin_1*%
%TO.N,+3.3V*%
X133475000Y-84000000D03*
D18*
%TO.P,J3,2,Pin_2*%
%TO.N,GND*%
X136015000Y-84000000D03*
%TO.P,J3,3,Pin_3*%
%TO.N,/HALL_OUT*%
X138555000Y-84000000D03*
%TD*%
D19*
%TO.N,GND*%
X143075000Y-92000000D03*
X137876171Y-91888608D03*
%TO.N,/MAG_INT*%
X143000000Y-95000000D03*
X139912500Y-91000000D03*
%TD*%
D20*
%TO.N,GND*%
X143075000Y-93060000D02*
X143075000Y-91000000D01*
X138901950Y-91700000D02*
X138064779Y-91700000D01*
X138064779Y-91700000D02*
X137876171Y-91888608D01*
D21*
%TO.N,+3.3V*%
X141000000Y-91000000D02*
X141000000Y-90841577D01*
X141000000Y-90841577D02*
X137158423Y-87000000D01*
X134000000Y-87000000D02*
X133475000Y-86475000D01*
X129000000Y-93000000D02*
X131000000Y-93000000D01*
D20*
X133098050Y-93000000D02*
X133098050Y-92350001D01*
X138901950Y-92350001D02*
X140649999Y-92350001D01*
D21*
X136000000Y-98000000D02*
X137795001Y-98000000D01*
D20*
X131000000Y-93000000D02*
X133098050Y-93000000D01*
D21*
X131796051Y-100796051D02*
X131796051Y-95796051D01*
X141000000Y-93060000D02*
X141000000Y-92000000D01*
D20*
X140649999Y-92350001D02*
X141000000Y-92000000D01*
D21*
X137795001Y-98000000D02*
X141000000Y-94795001D01*
X137158423Y-87000000D02*
X134000000Y-87000000D01*
X141000000Y-94795001D02*
X141000000Y-93060000D01*
X141000000Y-92000000D02*
X141000000Y-91000000D01*
X131796051Y-95796051D02*
X129000000Y-93000000D01*
X133475000Y-86475000D02*
X133475000Y-84000000D01*
X133203949Y-100796051D02*
X136000000Y-98000000D01*
X131796051Y-100796051D02*
X133203949Y-100796051D01*
D20*
%TO.N,/SCL*%
X128515256Y-91900000D02*
X130100000Y-91900000D01*
X130100000Y-91900000D02*
X131000000Y-91000000D01*
X130000000Y-99000000D02*
X130000000Y-95584744D01*
X131700000Y-91700000D02*
X133098050Y-91700000D01*
X128000000Y-93584744D02*
X128000000Y-92415256D01*
X130000000Y-95584744D02*
X128000000Y-93584744D01*
X131000000Y-91000000D02*
X131700000Y-91700000D01*
X128000000Y-92415256D02*
X128515256Y-91900000D01*
%TO.N,/SDA*%
X127600000Y-91400000D02*
X128000000Y-91000000D01*
X128000000Y-91000000D02*
X129000000Y-91000000D01*
X132148051Y-90100000D02*
X133098050Y-91049999D01*
X129900000Y-90100000D02*
X132148051Y-90100000D01*
X129000000Y-91000000D02*
X129900000Y-90100000D01*
X127600000Y-96600000D02*
X127600000Y-91400000D01*
X128203949Y-97203949D02*
X127600000Y-96600000D01*
%TO.N,/HALL_OUT*%
X142010606Y-90413362D02*
X138555000Y-86957756D01*
X142010606Y-98989394D02*
X142010606Y-90413362D01*
X138555000Y-86957756D02*
X138555000Y-84000000D01*
%TO.N,/MAG_INT*%
X138951951Y-91000000D02*
X138901950Y-91050001D01*
X143806657Y-95806657D02*
X143000000Y-95000000D01*
X143806657Y-97193343D02*
X143806657Y-95806657D01*
X139912500Y-91000000D02*
X138951951Y-91000000D01*
%TD*%
M02*
