%TF.GenerationSoftware,KiCad,Pcbnew,8.0.8*%
%TF.CreationDate,2025-04-04T16:16:19-04:00*%
%TF.ProjectId,ESP32,45535033-322e-46b6-9963-61645f706362,rev?*%
%TF.SameCoordinates,Original*%
%TF.FileFunction,Legend,Top*%
%TF.FilePolarity,Positive*%
%FSLAX46Y46*%
G04 Gerber Fmt 4.6, Leading zero omitted, Abs format (unit mm)*
G04 Created by KiCad (PCBNEW 8.0.8) date 2025-04-04 16:16:19*
%MOMM*%
%LPD*%
G01*
G04 APERTURE LIST*
%ADD10C,0.100000*%
%ADD11C,0.150000*%
%ADD12C,0.120000*%
%ADD13C,0.152400*%
%ADD14C,0.127000*%
%ADD15C,0.200000*%
G04 APERTURE END LIST*
D10*
X142303884Y-112652531D02*
X142303884Y-111652531D01*
X142303884Y-111652531D02*
X142637217Y-112366816D01*
X142637217Y-112366816D02*
X142970550Y-111652531D01*
X142970550Y-111652531D02*
X142970550Y-112652531D01*
X143637217Y-111652531D02*
X143827693Y-111652531D01*
X143827693Y-111652531D02*
X143922931Y-111700150D01*
X143922931Y-111700150D02*
X144018169Y-111795388D01*
X144018169Y-111795388D02*
X144065788Y-111985864D01*
X144065788Y-111985864D02*
X144065788Y-112319197D01*
X144065788Y-112319197D02*
X144018169Y-112509673D01*
X144018169Y-112509673D02*
X143922931Y-112604912D01*
X143922931Y-112604912D02*
X143827693Y-112652531D01*
X143827693Y-112652531D02*
X143637217Y-112652531D01*
X143637217Y-112652531D02*
X143541979Y-112604912D01*
X143541979Y-112604912D02*
X143446741Y-112509673D01*
X143446741Y-112509673D02*
X143399122Y-112319197D01*
X143399122Y-112319197D02*
X143399122Y-111985864D01*
X143399122Y-111985864D02*
X143446741Y-111795388D01*
X143446741Y-111795388D02*
X143541979Y-111700150D01*
X143541979Y-111700150D02*
X143637217Y-111652531D01*
X144351503Y-111652531D02*
X144922931Y-111652531D01*
X144637217Y-112652531D02*
X144637217Y-111652531D01*
X145446741Y-111652531D02*
X145637217Y-111652531D01*
X145637217Y-111652531D02*
X145732455Y-111700150D01*
X145732455Y-111700150D02*
X145827693Y-111795388D01*
X145827693Y-111795388D02*
X145875312Y-111985864D01*
X145875312Y-111985864D02*
X145875312Y-112319197D01*
X145875312Y-112319197D02*
X145827693Y-112509673D01*
X145827693Y-112509673D02*
X145732455Y-112604912D01*
X145732455Y-112604912D02*
X145637217Y-112652531D01*
X145637217Y-112652531D02*
X145446741Y-112652531D01*
X145446741Y-112652531D02*
X145351503Y-112604912D01*
X145351503Y-112604912D02*
X145256265Y-112509673D01*
X145256265Y-112509673D02*
X145208646Y-112319197D01*
X145208646Y-112319197D02*
X145208646Y-111985864D01*
X145208646Y-111985864D02*
X145256265Y-111795388D01*
X145256265Y-111795388D02*
X145351503Y-111700150D01*
X145351503Y-111700150D02*
X145446741Y-111652531D01*
X146256265Y-112604912D02*
X146399122Y-112652531D01*
X146399122Y-112652531D02*
X146637217Y-112652531D01*
X146637217Y-112652531D02*
X146732455Y-112604912D01*
X146732455Y-112604912D02*
X146780074Y-112557292D01*
X146780074Y-112557292D02*
X146827693Y-112462054D01*
X146827693Y-112462054D02*
X146827693Y-112366816D01*
X146827693Y-112366816D02*
X146780074Y-112271578D01*
X146780074Y-112271578D02*
X146732455Y-112223959D01*
X146732455Y-112223959D02*
X146637217Y-112176340D01*
X146637217Y-112176340D02*
X146446741Y-112128721D01*
X146446741Y-112128721D02*
X146351503Y-112081102D01*
X146351503Y-112081102D02*
X146303884Y-112033483D01*
X146303884Y-112033483D02*
X146256265Y-111938245D01*
X146256265Y-111938245D02*
X146256265Y-111843007D01*
X146256265Y-111843007D02*
X146303884Y-111747769D01*
X146303884Y-111747769D02*
X146351503Y-111700150D01*
X146351503Y-111700150D02*
X146446741Y-111652531D01*
X146446741Y-111652531D02*
X146684836Y-111652531D01*
X146684836Y-111652531D02*
X146827693Y-111700150D01*
X147256265Y-112652531D02*
X147256265Y-111652531D01*
X147684836Y-112604912D02*
X147827693Y-112652531D01*
X147827693Y-112652531D02*
X148065788Y-112652531D01*
X148065788Y-112652531D02*
X148161026Y-112604912D01*
X148161026Y-112604912D02*
X148208645Y-112557292D01*
X148208645Y-112557292D02*
X148256264Y-112462054D01*
X148256264Y-112462054D02*
X148256264Y-112366816D01*
X148256264Y-112366816D02*
X148208645Y-112271578D01*
X148208645Y-112271578D02*
X148161026Y-112223959D01*
X148161026Y-112223959D02*
X148065788Y-112176340D01*
X148065788Y-112176340D02*
X147875312Y-112128721D01*
X147875312Y-112128721D02*
X147780074Y-112081102D01*
X147780074Y-112081102D02*
X147732455Y-112033483D01*
X147732455Y-112033483D02*
X147684836Y-111938245D01*
X147684836Y-111938245D02*
X147684836Y-111843007D01*
X147684836Y-111843007D02*
X147732455Y-111747769D01*
X147732455Y-111747769D02*
X147780074Y-111700150D01*
X147780074Y-111700150D02*
X147875312Y-111652531D01*
X147875312Y-111652531D02*
X148113407Y-111652531D01*
X148113407Y-111652531D02*
X148256264Y-111700150D01*
X149446741Y-112128721D02*
X149780074Y-112128721D01*
X149922931Y-112652531D02*
X149446741Y-112652531D01*
X149446741Y-112652531D02*
X149446741Y-111652531D01*
X149446741Y-111652531D02*
X149922931Y-111652531D01*
X150303884Y-112604912D02*
X150446741Y-112652531D01*
X150446741Y-112652531D02*
X150684836Y-112652531D01*
X150684836Y-112652531D02*
X150780074Y-112604912D01*
X150780074Y-112604912D02*
X150827693Y-112557292D01*
X150827693Y-112557292D02*
X150875312Y-112462054D01*
X150875312Y-112462054D02*
X150875312Y-112366816D01*
X150875312Y-112366816D02*
X150827693Y-112271578D01*
X150827693Y-112271578D02*
X150780074Y-112223959D01*
X150780074Y-112223959D02*
X150684836Y-112176340D01*
X150684836Y-112176340D02*
X150494360Y-112128721D01*
X150494360Y-112128721D02*
X150399122Y-112081102D01*
X150399122Y-112081102D02*
X150351503Y-112033483D01*
X150351503Y-112033483D02*
X150303884Y-111938245D01*
X150303884Y-111938245D02*
X150303884Y-111843007D01*
X150303884Y-111843007D02*
X150351503Y-111747769D01*
X150351503Y-111747769D02*
X150399122Y-111700150D01*
X150399122Y-111700150D02*
X150494360Y-111652531D01*
X150494360Y-111652531D02*
X150732455Y-111652531D01*
X150732455Y-111652531D02*
X150875312Y-111700150D01*
X151303884Y-112652531D02*
X151303884Y-111652531D01*
X151303884Y-111652531D02*
X151684836Y-111652531D01*
X151684836Y-111652531D02*
X151780074Y-111700150D01*
X151780074Y-111700150D02*
X151827693Y-111747769D01*
X151827693Y-111747769D02*
X151875312Y-111843007D01*
X151875312Y-111843007D02*
X151875312Y-111985864D01*
X151875312Y-111985864D02*
X151827693Y-112081102D01*
X151827693Y-112081102D02*
X151780074Y-112128721D01*
X151780074Y-112128721D02*
X151684836Y-112176340D01*
X151684836Y-112176340D02*
X151303884Y-112176340D01*
X152208646Y-111652531D02*
X152827693Y-111652531D01*
X152827693Y-111652531D02*
X152494360Y-112033483D01*
X152494360Y-112033483D02*
X152637217Y-112033483D01*
X152637217Y-112033483D02*
X152732455Y-112081102D01*
X152732455Y-112081102D02*
X152780074Y-112128721D01*
X152780074Y-112128721D02*
X152827693Y-112223959D01*
X152827693Y-112223959D02*
X152827693Y-112462054D01*
X152827693Y-112462054D02*
X152780074Y-112557292D01*
X152780074Y-112557292D02*
X152732455Y-112604912D01*
X152732455Y-112604912D02*
X152637217Y-112652531D01*
X152637217Y-112652531D02*
X152351503Y-112652531D01*
X152351503Y-112652531D02*
X152256265Y-112604912D01*
X152256265Y-112604912D02*
X152208646Y-112557292D01*
X153208646Y-111747769D02*
X153256265Y-111700150D01*
X153256265Y-111700150D02*
X153351503Y-111652531D01*
X153351503Y-111652531D02*
X153589598Y-111652531D01*
X153589598Y-111652531D02*
X153684836Y-111700150D01*
X153684836Y-111700150D02*
X153732455Y-111747769D01*
X153732455Y-111747769D02*
X153780074Y-111843007D01*
X153780074Y-111843007D02*
X153780074Y-111938245D01*
X153780074Y-111938245D02*
X153732455Y-112081102D01*
X153732455Y-112081102D02*
X153161027Y-112652531D01*
X153161027Y-112652531D02*
X153780074Y-112652531D01*
X155303884Y-112128721D02*
X155446741Y-112176340D01*
X155446741Y-112176340D02*
X155494360Y-112223959D01*
X155494360Y-112223959D02*
X155541979Y-112319197D01*
X155541979Y-112319197D02*
X155541979Y-112462054D01*
X155541979Y-112462054D02*
X155494360Y-112557292D01*
X155494360Y-112557292D02*
X155446741Y-112604912D01*
X155446741Y-112604912D02*
X155351503Y-112652531D01*
X155351503Y-112652531D02*
X154970551Y-112652531D01*
X154970551Y-112652531D02*
X154970551Y-111652531D01*
X154970551Y-111652531D02*
X155303884Y-111652531D01*
X155303884Y-111652531D02*
X155399122Y-111700150D01*
X155399122Y-111700150D02*
X155446741Y-111747769D01*
X155446741Y-111747769D02*
X155494360Y-111843007D01*
X155494360Y-111843007D02*
X155494360Y-111938245D01*
X155494360Y-111938245D02*
X155446741Y-112033483D01*
X155446741Y-112033483D02*
X155399122Y-112081102D01*
X155399122Y-112081102D02*
X155303884Y-112128721D01*
X155303884Y-112128721D02*
X154970551Y-112128721D01*
X156113408Y-112652531D02*
X156018170Y-112604912D01*
X156018170Y-112604912D02*
X155970551Y-112557292D01*
X155970551Y-112557292D02*
X155922932Y-112462054D01*
X155922932Y-112462054D02*
X155922932Y-112176340D01*
X155922932Y-112176340D02*
X155970551Y-112081102D01*
X155970551Y-112081102D02*
X156018170Y-112033483D01*
X156018170Y-112033483D02*
X156113408Y-111985864D01*
X156113408Y-111985864D02*
X156256265Y-111985864D01*
X156256265Y-111985864D02*
X156351503Y-112033483D01*
X156351503Y-112033483D02*
X156399122Y-112081102D01*
X156399122Y-112081102D02*
X156446741Y-112176340D01*
X156446741Y-112176340D02*
X156446741Y-112462054D01*
X156446741Y-112462054D02*
X156399122Y-112557292D01*
X156399122Y-112557292D02*
X156351503Y-112604912D01*
X156351503Y-112604912D02*
X156256265Y-112652531D01*
X156256265Y-112652531D02*
X156113408Y-112652531D01*
X157303884Y-112652531D02*
X157303884Y-112128721D01*
X157303884Y-112128721D02*
X157256265Y-112033483D01*
X157256265Y-112033483D02*
X157161027Y-111985864D01*
X157161027Y-111985864D02*
X156970551Y-111985864D01*
X156970551Y-111985864D02*
X156875313Y-112033483D01*
X157303884Y-112604912D02*
X157208646Y-112652531D01*
X157208646Y-112652531D02*
X156970551Y-112652531D01*
X156970551Y-112652531D02*
X156875313Y-112604912D01*
X156875313Y-112604912D02*
X156827694Y-112509673D01*
X156827694Y-112509673D02*
X156827694Y-112414435D01*
X156827694Y-112414435D02*
X156875313Y-112319197D01*
X156875313Y-112319197D02*
X156970551Y-112271578D01*
X156970551Y-112271578D02*
X157208646Y-112271578D01*
X157208646Y-112271578D02*
X157303884Y-112223959D01*
X157780075Y-112652531D02*
X157780075Y-111985864D01*
X157780075Y-112176340D02*
X157827694Y-112081102D01*
X157827694Y-112081102D02*
X157875313Y-112033483D01*
X157875313Y-112033483D02*
X157970551Y-111985864D01*
X157970551Y-111985864D02*
X158065789Y-111985864D01*
X158827694Y-112652531D02*
X158827694Y-111652531D01*
X158827694Y-112604912D02*
X158732456Y-112652531D01*
X158732456Y-112652531D02*
X158541980Y-112652531D01*
X158541980Y-112652531D02*
X158446742Y-112604912D01*
X158446742Y-112604912D02*
X158399123Y-112557292D01*
X158399123Y-112557292D02*
X158351504Y-112462054D01*
X158351504Y-112462054D02*
X158351504Y-112176340D01*
X158351504Y-112176340D02*
X158399123Y-112081102D01*
X158399123Y-112081102D02*
X158446742Y-112033483D01*
X158446742Y-112033483D02*
X158541980Y-111985864D01*
X158541980Y-111985864D02*
X158732456Y-111985864D01*
X158732456Y-111985864D02*
X158827694Y-112033483D01*
X142494360Y-113262475D02*
X142589598Y-113262475D01*
X142589598Y-113262475D02*
X142684836Y-113310094D01*
X142684836Y-113310094D02*
X142732455Y-113357713D01*
X142732455Y-113357713D02*
X142780074Y-113452951D01*
X142780074Y-113452951D02*
X142827693Y-113643427D01*
X142827693Y-113643427D02*
X142827693Y-113881522D01*
X142827693Y-113881522D02*
X142780074Y-114071998D01*
X142780074Y-114071998D02*
X142732455Y-114167236D01*
X142732455Y-114167236D02*
X142684836Y-114214856D01*
X142684836Y-114214856D02*
X142589598Y-114262475D01*
X142589598Y-114262475D02*
X142494360Y-114262475D01*
X142494360Y-114262475D02*
X142399122Y-114214856D01*
X142399122Y-114214856D02*
X142351503Y-114167236D01*
X142351503Y-114167236D02*
X142303884Y-114071998D01*
X142303884Y-114071998D02*
X142256265Y-113881522D01*
X142256265Y-113881522D02*
X142256265Y-113643427D01*
X142256265Y-113643427D02*
X142303884Y-113452951D01*
X142303884Y-113452951D02*
X142351503Y-113357713D01*
X142351503Y-113357713D02*
X142399122Y-113310094D01*
X142399122Y-113310094D02*
X142494360Y-113262475D01*
X143684836Y-113595808D02*
X143684836Y-114262475D01*
X143446741Y-113214856D02*
X143208646Y-113929141D01*
X143208646Y-113929141D02*
X143827693Y-113929141D01*
X144208646Y-113881522D02*
X144970551Y-113881522D01*
X145637217Y-113262475D02*
X145732455Y-113262475D01*
X145732455Y-113262475D02*
X145827693Y-113310094D01*
X145827693Y-113310094D02*
X145875312Y-113357713D01*
X145875312Y-113357713D02*
X145922931Y-113452951D01*
X145922931Y-113452951D02*
X145970550Y-113643427D01*
X145970550Y-113643427D02*
X145970550Y-113881522D01*
X145970550Y-113881522D02*
X145922931Y-114071998D01*
X145922931Y-114071998D02*
X145875312Y-114167236D01*
X145875312Y-114167236D02*
X145827693Y-114214856D01*
X145827693Y-114214856D02*
X145732455Y-114262475D01*
X145732455Y-114262475D02*
X145637217Y-114262475D01*
X145637217Y-114262475D02*
X145541979Y-114214856D01*
X145541979Y-114214856D02*
X145494360Y-114167236D01*
X145494360Y-114167236D02*
X145446741Y-114071998D01*
X145446741Y-114071998D02*
X145399122Y-113881522D01*
X145399122Y-113881522D02*
X145399122Y-113643427D01*
X145399122Y-113643427D02*
X145446741Y-113452951D01*
X145446741Y-113452951D02*
X145494360Y-113357713D01*
X145494360Y-113357713D02*
X145541979Y-113310094D01*
X145541979Y-113310094D02*
X145637217Y-113262475D01*
X146351503Y-113357713D02*
X146399122Y-113310094D01*
X146399122Y-113310094D02*
X146494360Y-113262475D01*
X146494360Y-113262475D02*
X146732455Y-113262475D01*
X146732455Y-113262475D02*
X146827693Y-113310094D01*
X146827693Y-113310094D02*
X146875312Y-113357713D01*
X146875312Y-113357713D02*
X146922931Y-113452951D01*
X146922931Y-113452951D02*
X146922931Y-113548189D01*
X146922931Y-113548189D02*
X146875312Y-113691046D01*
X146875312Y-113691046D02*
X146303884Y-114262475D01*
X146303884Y-114262475D02*
X146922931Y-114262475D01*
X147351503Y-113881522D02*
X148113408Y-113881522D01*
X148541979Y-113357713D02*
X148589598Y-113310094D01*
X148589598Y-113310094D02*
X148684836Y-113262475D01*
X148684836Y-113262475D02*
X148922931Y-113262475D01*
X148922931Y-113262475D02*
X149018169Y-113310094D01*
X149018169Y-113310094D02*
X149065788Y-113357713D01*
X149065788Y-113357713D02*
X149113407Y-113452951D01*
X149113407Y-113452951D02*
X149113407Y-113548189D01*
X149113407Y-113548189D02*
X149065788Y-113691046D01*
X149065788Y-113691046D02*
X148494360Y-114262475D01*
X148494360Y-114262475D02*
X149113407Y-114262475D01*
X149732455Y-113262475D02*
X149827693Y-113262475D01*
X149827693Y-113262475D02*
X149922931Y-113310094D01*
X149922931Y-113310094D02*
X149970550Y-113357713D01*
X149970550Y-113357713D02*
X150018169Y-113452951D01*
X150018169Y-113452951D02*
X150065788Y-113643427D01*
X150065788Y-113643427D02*
X150065788Y-113881522D01*
X150065788Y-113881522D02*
X150018169Y-114071998D01*
X150018169Y-114071998D02*
X149970550Y-114167236D01*
X149970550Y-114167236D02*
X149922931Y-114214856D01*
X149922931Y-114214856D02*
X149827693Y-114262475D01*
X149827693Y-114262475D02*
X149732455Y-114262475D01*
X149732455Y-114262475D02*
X149637217Y-114214856D01*
X149637217Y-114214856D02*
X149589598Y-114167236D01*
X149589598Y-114167236D02*
X149541979Y-114071998D01*
X149541979Y-114071998D02*
X149494360Y-113881522D01*
X149494360Y-113881522D02*
X149494360Y-113643427D01*
X149494360Y-113643427D02*
X149541979Y-113452951D01*
X149541979Y-113452951D02*
X149589598Y-113357713D01*
X149589598Y-113357713D02*
X149637217Y-113310094D01*
X149637217Y-113310094D02*
X149732455Y-113262475D01*
X150446741Y-113357713D02*
X150494360Y-113310094D01*
X150494360Y-113310094D02*
X150589598Y-113262475D01*
X150589598Y-113262475D02*
X150827693Y-113262475D01*
X150827693Y-113262475D02*
X150922931Y-113310094D01*
X150922931Y-113310094D02*
X150970550Y-113357713D01*
X150970550Y-113357713D02*
X151018169Y-113452951D01*
X151018169Y-113452951D02*
X151018169Y-113548189D01*
X151018169Y-113548189D02*
X150970550Y-113691046D01*
X150970550Y-113691046D02*
X150399122Y-114262475D01*
X150399122Y-114262475D02*
X151018169Y-114262475D01*
X151922931Y-113262475D02*
X151446741Y-113262475D01*
X151446741Y-113262475D02*
X151399122Y-113738665D01*
X151399122Y-113738665D02*
X151446741Y-113691046D01*
X151446741Y-113691046D02*
X151541979Y-113643427D01*
X151541979Y-113643427D02*
X151780074Y-113643427D01*
X151780074Y-113643427D02*
X151875312Y-113691046D01*
X151875312Y-113691046D02*
X151922931Y-113738665D01*
X151922931Y-113738665D02*
X151970550Y-113833903D01*
X151970550Y-113833903D02*
X151970550Y-114071998D01*
X151970550Y-114071998D02*
X151922931Y-114167236D01*
X151922931Y-114167236D02*
X151875312Y-114214856D01*
X151875312Y-114214856D02*
X151780074Y-114262475D01*
X151780074Y-114262475D02*
X151541979Y-114262475D01*
X151541979Y-114262475D02*
X151446741Y-114214856D01*
X151446741Y-114214856D02*
X151399122Y-114167236D01*
X142208646Y-115205752D02*
X142446741Y-115872419D01*
X142446741Y-115872419D02*
X142684836Y-115205752D01*
X143589598Y-115872419D02*
X143018170Y-115872419D01*
X143303884Y-115872419D02*
X143303884Y-114872419D01*
X143303884Y-114872419D02*
X143208646Y-115015276D01*
X143208646Y-115015276D02*
X143113408Y-115110514D01*
X143113408Y-115110514D02*
X143018170Y-115158133D01*
X144018170Y-115777180D02*
X144065789Y-115824800D01*
X144065789Y-115824800D02*
X144018170Y-115872419D01*
X144018170Y-115872419D02*
X143970551Y-115824800D01*
X143970551Y-115824800D02*
X144018170Y-115777180D01*
X144018170Y-115777180D02*
X144018170Y-115872419D01*
X144684836Y-114872419D02*
X144780074Y-114872419D01*
X144780074Y-114872419D02*
X144875312Y-114920038D01*
X144875312Y-114920038D02*
X144922931Y-114967657D01*
X144922931Y-114967657D02*
X144970550Y-115062895D01*
X144970550Y-115062895D02*
X145018169Y-115253371D01*
X145018169Y-115253371D02*
X145018169Y-115491466D01*
X145018169Y-115491466D02*
X144970550Y-115681942D01*
X144970550Y-115681942D02*
X144922931Y-115777180D01*
X144922931Y-115777180D02*
X144875312Y-115824800D01*
X144875312Y-115824800D02*
X144780074Y-115872419D01*
X144780074Y-115872419D02*
X144684836Y-115872419D01*
X144684836Y-115872419D02*
X144589598Y-115824800D01*
X144589598Y-115824800D02*
X144541979Y-115777180D01*
X144541979Y-115777180D02*
X144494360Y-115681942D01*
X144494360Y-115681942D02*
X144446741Y-115491466D01*
X144446741Y-115491466D02*
X144446741Y-115253371D01*
X144446741Y-115253371D02*
X144494360Y-115062895D01*
X144494360Y-115062895D02*
X144541979Y-114967657D01*
X144541979Y-114967657D02*
X144589598Y-114920038D01*
X144589598Y-114920038D02*
X144684836Y-114872419D01*
D11*
X132952381Y-106504819D02*
X133047619Y-106504819D01*
X133047619Y-106504819D02*
X133142857Y-106552438D01*
X133142857Y-106552438D02*
X133190476Y-106600057D01*
X133190476Y-106600057D02*
X133238095Y-106695295D01*
X133238095Y-106695295D02*
X133285714Y-106885771D01*
X133285714Y-106885771D02*
X133285714Y-107123866D01*
X133285714Y-107123866D02*
X133238095Y-107314342D01*
X133238095Y-107314342D02*
X133190476Y-107409580D01*
X133190476Y-107409580D02*
X133142857Y-107457200D01*
X133142857Y-107457200D02*
X133047619Y-107504819D01*
X133047619Y-107504819D02*
X132952381Y-107504819D01*
X132952381Y-107504819D02*
X132857143Y-107457200D01*
X132857143Y-107457200D02*
X132809524Y-107409580D01*
X132809524Y-107409580D02*
X132761905Y-107314342D01*
X132761905Y-107314342D02*
X132714286Y-107123866D01*
X132714286Y-107123866D02*
X132714286Y-106885771D01*
X132714286Y-106885771D02*
X132761905Y-106695295D01*
X132761905Y-106695295D02*
X132809524Y-106600057D01*
X132809524Y-106600057D02*
X132857143Y-106552438D01*
X132857143Y-106552438D02*
X132952381Y-106504819D01*
X133285714Y-111504819D02*
X132714286Y-111504819D01*
X133000000Y-111504819D02*
X133000000Y-110504819D01*
X133000000Y-110504819D02*
X132904762Y-110647676D01*
X132904762Y-110647676D02*
X132809524Y-110742914D01*
X132809524Y-110742914D02*
X132714286Y-110790533D01*
X148804819Y-88166666D02*
X148328628Y-88499999D01*
X148804819Y-88738094D02*
X147804819Y-88738094D01*
X147804819Y-88738094D02*
X147804819Y-88357142D01*
X147804819Y-88357142D02*
X147852438Y-88261904D01*
X147852438Y-88261904D02*
X147900057Y-88214285D01*
X147900057Y-88214285D02*
X147995295Y-88166666D01*
X147995295Y-88166666D02*
X148138152Y-88166666D01*
X148138152Y-88166666D02*
X148233390Y-88214285D01*
X148233390Y-88214285D02*
X148281009Y-88261904D01*
X148281009Y-88261904D02*
X148328628Y-88357142D01*
X148328628Y-88357142D02*
X148328628Y-88738094D01*
X147900057Y-87785713D02*
X147852438Y-87738094D01*
X147852438Y-87738094D02*
X147804819Y-87642856D01*
X147804819Y-87642856D02*
X147804819Y-87404761D01*
X147804819Y-87404761D02*
X147852438Y-87309523D01*
X147852438Y-87309523D02*
X147900057Y-87261904D01*
X147900057Y-87261904D02*
X147995295Y-87214285D01*
X147995295Y-87214285D02*
X148090533Y-87214285D01*
X148090533Y-87214285D02*
X148233390Y-87261904D01*
X148233390Y-87261904D02*
X148804819Y-87833332D01*
X148804819Y-87833332D02*
X148804819Y-87214285D01*
X151104819Y-84619047D02*
X151104819Y-84428571D01*
X151104819Y-84428571D02*
X151152438Y-84333333D01*
X151152438Y-84333333D02*
X151247676Y-84238095D01*
X151247676Y-84238095D02*
X151438152Y-84190476D01*
X151438152Y-84190476D02*
X151771485Y-84190476D01*
X151771485Y-84190476D02*
X151961961Y-84238095D01*
X151961961Y-84238095D02*
X152057200Y-84333333D01*
X152057200Y-84333333D02*
X152104819Y-84428571D01*
X152104819Y-84428571D02*
X152104819Y-84619047D01*
X152104819Y-84619047D02*
X152057200Y-84714285D01*
X152057200Y-84714285D02*
X151961961Y-84809523D01*
X151961961Y-84809523D02*
X151771485Y-84857142D01*
X151771485Y-84857142D02*
X151438152Y-84857142D01*
X151438152Y-84857142D02*
X151247676Y-84809523D01*
X151247676Y-84809523D02*
X151152438Y-84714285D01*
X151152438Y-84714285D02*
X151104819Y-84619047D01*
X152104819Y-83761904D02*
X151104819Y-83761904D01*
X151104819Y-83761904D02*
X152104819Y-83190476D01*
X152104819Y-83190476D02*
X151104819Y-83190476D01*
X146124819Y-109698570D02*
X146124819Y-109079523D01*
X146124819Y-109079523D02*
X146505771Y-109412856D01*
X146505771Y-109412856D02*
X146505771Y-109269999D01*
X146505771Y-109269999D02*
X146553390Y-109174761D01*
X146553390Y-109174761D02*
X146601009Y-109127142D01*
X146601009Y-109127142D02*
X146696247Y-109079523D01*
X146696247Y-109079523D02*
X146934342Y-109079523D01*
X146934342Y-109079523D02*
X147029580Y-109127142D01*
X147029580Y-109127142D02*
X147077200Y-109174761D01*
X147077200Y-109174761D02*
X147124819Y-109269999D01*
X147124819Y-109269999D02*
X147124819Y-109555713D01*
X147124819Y-109555713D02*
X147077200Y-109650951D01*
X147077200Y-109650951D02*
X147029580Y-109698570D01*
X146743866Y-108650951D02*
X146743866Y-107889047D01*
X146458152Y-106984285D02*
X147124819Y-106984285D01*
X146077200Y-107222380D02*
X146791485Y-107460475D01*
X146791485Y-107460475D02*
X146791485Y-106841428D01*
X127804819Y-93166666D02*
X127328628Y-93499999D01*
X127804819Y-93738094D02*
X126804819Y-93738094D01*
X126804819Y-93738094D02*
X126804819Y-93357142D01*
X126804819Y-93357142D02*
X126852438Y-93261904D01*
X126852438Y-93261904D02*
X126900057Y-93214285D01*
X126900057Y-93214285D02*
X126995295Y-93166666D01*
X126995295Y-93166666D02*
X127138152Y-93166666D01*
X127138152Y-93166666D02*
X127233390Y-93214285D01*
X127233390Y-93214285D02*
X127281009Y-93261904D01*
X127281009Y-93261904D02*
X127328628Y-93357142D01*
X127328628Y-93357142D02*
X127328628Y-93738094D01*
X127138152Y-92309523D02*
X127804819Y-92309523D01*
X126757200Y-92547618D02*
X127471485Y-92785713D01*
X127471485Y-92785713D02*
X127471485Y-92166666D01*
X128666667Y-106504819D02*
X129285714Y-106504819D01*
X129285714Y-106504819D02*
X128952381Y-106885771D01*
X128952381Y-106885771D02*
X129095238Y-106885771D01*
X129095238Y-106885771D02*
X129190476Y-106933390D01*
X129190476Y-106933390D02*
X129238095Y-106981009D01*
X129238095Y-106981009D02*
X129285714Y-107076247D01*
X129285714Y-107076247D02*
X129285714Y-107314342D01*
X129285714Y-107314342D02*
X129238095Y-107409580D01*
X129238095Y-107409580D02*
X129190476Y-107457200D01*
X129190476Y-107457200D02*
X129095238Y-107504819D01*
X129095238Y-107504819D02*
X128809524Y-107504819D01*
X128809524Y-107504819D02*
X128714286Y-107457200D01*
X128714286Y-107457200D02*
X128666667Y-107409580D01*
X137124819Y-110031904D02*
X137124819Y-109841428D01*
X137124819Y-109841428D02*
X137077200Y-109746190D01*
X137077200Y-109746190D02*
X137029580Y-109698571D01*
X137029580Y-109698571D02*
X136886723Y-109603333D01*
X136886723Y-109603333D02*
X136696247Y-109555714D01*
X136696247Y-109555714D02*
X136315295Y-109555714D01*
X136315295Y-109555714D02*
X136220057Y-109603333D01*
X136220057Y-109603333D02*
X136172438Y-109650952D01*
X136172438Y-109650952D02*
X136124819Y-109746190D01*
X136124819Y-109746190D02*
X136124819Y-109936666D01*
X136124819Y-109936666D02*
X136172438Y-110031904D01*
X136172438Y-110031904D02*
X136220057Y-110079523D01*
X136220057Y-110079523D02*
X136315295Y-110127142D01*
X136315295Y-110127142D02*
X136553390Y-110127142D01*
X136553390Y-110127142D02*
X136648628Y-110079523D01*
X136648628Y-110079523D02*
X136696247Y-110031904D01*
X136696247Y-110031904D02*
X136743866Y-109936666D01*
X136743866Y-109936666D02*
X136743866Y-109746190D01*
X136743866Y-109746190D02*
X136696247Y-109650952D01*
X136696247Y-109650952D02*
X136648628Y-109603333D01*
X136648628Y-109603333D02*
X136553390Y-109555714D01*
X136743866Y-109127142D02*
X136743866Y-108365238D01*
X137124819Y-107365238D02*
X137124819Y-107936666D01*
X137124819Y-107650952D02*
X136124819Y-107650952D01*
X136124819Y-107650952D02*
X136267676Y-107746190D01*
X136267676Y-107746190D02*
X136362914Y-107841428D01*
X136362914Y-107841428D02*
X136410533Y-107936666D01*
X136124819Y-106746190D02*
X136124819Y-106650952D01*
X136124819Y-106650952D02*
X136172438Y-106555714D01*
X136172438Y-106555714D02*
X136220057Y-106508095D01*
X136220057Y-106508095D02*
X136315295Y-106460476D01*
X136315295Y-106460476D02*
X136505771Y-106412857D01*
X136505771Y-106412857D02*
X136743866Y-106412857D01*
X136743866Y-106412857D02*
X136934342Y-106460476D01*
X136934342Y-106460476D02*
X137029580Y-106508095D01*
X137029580Y-106508095D02*
X137077200Y-106555714D01*
X137077200Y-106555714D02*
X137124819Y-106650952D01*
X137124819Y-106650952D02*
X137124819Y-106746190D01*
X137124819Y-106746190D02*
X137077200Y-106841428D01*
X137077200Y-106841428D02*
X137029580Y-106889047D01*
X137029580Y-106889047D02*
X136934342Y-106936666D01*
X136934342Y-106936666D02*
X136743866Y-106984285D01*
X136743866Y-106984285D02*
X136505771Y-106984285D01*
X136505771Y-106984285D02*
X136315295Y-106936666D01*
X136315295Y-106936666D02*
X136220057Y-106889047D01*
X136220057Y-106889047D02*
X136172438Y-106841428D01*
X136172438Y-106841428D02*
X136124819Y-106746190D01*
X161679580Y-78166666D02*
X161727200Y-78214285D01*
X161727200Y-78214285D02*
X161774819Y-78357142D01*
X161774819Y-78357142D02*
X161774819Y-78452380D01*
X161774819Y-78452380D02*
X161727200Y-78595237D01*
X161727200Y-78595237D02*
X161631961Y-78690475D01*
X161631961Y-78690475D02*
X161536723Y-78738094D01*
X161536723Y-78738094D02*
X161346247Y-78785713D01*
X161346247Y-78785713D02*
X161203390Y-78785713D01*
X161203390Y-78785713D02*
X161012914Y-78738094D01*
X161012914Y-78738094D02*
X160917676Y-78690475D01*
X160917676Y-78690475D02*
X160822438Y-78595237D01*
X160822438Y-78595237D02*
X160774819Y-78452380D01*
X160774819Y-78452380D02*
X160774819Y-78357142D01*
X160774819Y-78357142D02*
X160822438Y-78214285D01*
X160822438Y-78214285D02*
X160870057Y-78166666D01*
X160774819Y-77833332D02*
X160774819Y-77214285D01*
X160774819Y-77214285D02*
X161155771Y-77547618D01*
X161155771Y-77547618D02*
X161155771Y-77404761D01*
X161155771Y-77404761D02*
X161203390Y-77309523D01*
X161203390Y-77309523D02*
X161251009Y-77261904D01*
X161251009Y-77261904D02*
X161346247Y-77214285D01*
X161346247Y-77214285D02*
X161584342Y-77214285D01*
X161584342Y-77214285D02*
X161679580Y-77261904D01*
X161679580Y-77261904D02*
X161727200Y-77309523D01*
X161727200Y-77309523D02*
X161774819Y-77404761D01*
X161774819Y-77404761D02*
X161774819Y-77690475D01*
X161774819Y-77690475D02*
X161727200Y-77785713D01*
X161727200Y-77785713D02*
X161679580Y-77833332D01*
X130124819Y-97246189D02*
X129124819Y-97246189D01*
X129220057Y-96817618D02*
X129172438Y-96769999D01*
X129172438Y-96769999D02*
X129124819Y-96674761D01*
X129124819Y-96674761D02*
X129124819Y-96436666D01*
X129124819Y-96436666D02*
X129172438Y-96341428D01*
X129172438Y-96341428D02*
X129220057Y-96293809D01*
X129220057Y-96293809D02*
X129315295Y-96246190D01*
X129315295Y-96246190D02*
X129410533Y-96246190D01*
X129410533Y-96246190D02*
X129553390Y-96293809D01*
X129553390Y-96293809D02*
X130124819Y-96865237D01*
X130124819Y-96865237D02*
X130124819Y-96246190D01*
X130029580Y-95246190D02*
X130077200Y-95293809D01*
X130077200Y-95293809D02*
X130124819Y-95436666D01*
X130124819Y-95436666D02*
X130124819Y-95531904D01*
X130124819Y-95531904D02*
X130077200Y-95674761D01*
X130077200Y-95674761D02*
X129981961Y-95769999D01*
X129981961Y-95769999D02*
X129886723Y-95817618D01*
X129886723Y-95817618D02*
X129696247Y-95865237D01*
X129696247Y-95865237D02*
X129553390Y-95865237D01*
X129553390Y-95865237D02*
X129362914Y-95817618D01*
X129362914Y-95817618D02*
X129267676Y-95769999D01*
X129267676Y-95769999D02*
X129172438Y-95674761D01*
X129172438Y-95674761D02*
X129124819Y-95531904D01*
X129124819Y-95531904D02*
X129124819Y-95436666D01*
X129124819Y-95436666D02*
X129172438Y-95293809D01*
X129172438Y-95293809D02*
X129220057Y-95246190D01*
X141124819Y-109698570D02*
X141124819Y-109031904D01*
X141124819Y-109031904D02*
X142124819Y-109460475D01*
X141743866Y-108650951D02*
X141743866Y-107889047D01*
X141553390Y-107269999D02*
X141505771Y-107365237D01*
X141505771Y-107365237D02*
X141458152Y-107412856D01*
X141458152Y-107412856D02*
X141362914Y-107460475D01*
X141362914Y-107460475D02*
X141315295Y-107460475D01*
X141315295Y-107460475D02*
X141220057Y-107412856D01*
X141220057Y-107412856D02*
X141172438Y-107365237D01*
X141172438Y-107365237D02*
X141124819Y-107269999D01*
X141124819Y-107269999D02*
X141124819Y-107079523D01*
X141124819Y-107079523D02*
X141172438Y-106984285D01*
X141172438Y-106984285D02*
X141220057Y-106936666D01*
X141220057Y-106936666D02*
X141315295Y-106889047D01*
X141315295Y-106889047D02*
X141362914Y-106889047D01*
X141362914Y-106889047D02*
X141458152Y-106936666D01*
X141458152Y-106936666D02*
X141505771Y-106984285D01*
X141505771Y-106984285D02*
X141553390Y-107079523D01*
X141553390Y-107079523D02*
X141553390Y-107269999D01*
X141553390Y-107269999D02*
X141601009Y-107365237D01*
X141601009Y-107365237D02*
X141648628Y-107412856D01*
X141648628Y-107412856D02*
X141743866Y-107460475D01*
X141743866Y-107460475D02*
X141934342Y-107460475D01*
X141934342Y-107460475D02*
X142029580Y-107412856D01*
X142029580Y-107412856D02*
X142077200Y-107365237D01*
X142077200Y-107365237D02*
X142124819Y-107269999D01*
X142124819Y-107269999D02*
X142124819Y-107079523D01*
X142124819Y-107079523D02*
X142077200Y-106984285D01*
X142077200Y-106984285D02*
X142029580Y-106936666D01*
X142029580Y-106936666D02*
X141934342Y-106889047D01*
X141934342Y-106889047D02*
X141743866Y-106889047D01*
X141743866Y-106889047D02*
X141648628Y-106936666D01*
X141648628Y-106936666D02*
X141601009Y-106984285D01*
X141601009Y-106984285D02*
X141553390Y-107079523D01*
X135124819Y-97246189D02*
X134124819Y-97246189D01*
X134220057Y-96817618D02*
X134172438Y-96769999D01*
X134172438Y-96769999D02*
X134124819Y-96674761D01*
X134124819Y-96674761D02*
X134124819Y-96436666D01*
X134124819Y-96436666D02*
X134172438Y-96341428D01*
X134172438Y-96341428D02*
X134220057Y-96293809D01*
X134220057Y-96293809D02*
X134315295Y-96246190D01*
X134315295Y-96246190D02*
X134410533Y-96246190D01*
X134410533Y-96246190D02*
X134553390Y-96293809D01*
X134553390Y-96293809D02*
X135124819Y-96865237D01*
X135124819Y-96865237D02*
X135124819Y-96246190D01*
X135029580Y-95246190D02*
X135077200Y-95293809D01*
X135077200Y-95293809D02*
X135124819Y-95436666D01*
X135124819Y-95436666D02*
X135124819Y-95531904D01*
X135124819Y-95531904D02*
X135077200Y-95674761D01*
X135077200Y-95674761D02*
X134981961Y-95769999D01*
X134981961Y-95769999D02*
X134886723Y-95817618D01*
X134886723Y-95817618D02*
X134696247Y-95865237D01*
X134696247Y-95865237D02*
X134553390Y-95865237D01*
X134553390Y-95865237D02*
X134362914Y-95817618D01*
X134362914Y-95817618D02*
X134267676Y-95769999D01*
X134267676Y-95769999D02*
X134172438Y-95674761D01*
X134172438Y-95674761D02*
X134124819Y-95531904D01*
X134124819Y-95531904D02*
X134124819Y-95436666D01*
X134124819Y-95436666D02*
X134172438Y-95293809D01*
X134172438Y-95293809D02*
X134220057Y-95246190D01*
X138666667Y-89407200D02*
X138809524Y-89454819D01*
X138809524Y-89454819D02*
X139047619Y-89454819D01*
X139047619Y-89454819D02*
X139142857Y-89407200D01*
X139142857Y-89407200D02*
X139190476Y-89359580D01*
X139190476Y-89359580D02*
X139238095Y-89264342D01*
X139238095Y-89264342D02*
X139238095Y-89169104D01*
X139238095Y-89169104D02*
X139190476Y-89073866D01*
X139190476Y-89073866D02*
X139142857Y-89026247D01*
X139142857Y-89026247D02*
X139047619Y-88978628D01*
X139047619Y-88978628D02*
X138857143Y-88931009D01*
X138857143Y-88931009D02*
X138761905Y-88883390D01*
X138761905Y-88883390D02*
X138714286Y-88835771D01*
X138714286Y-88835771D02*
X138666667Y-88740533D01*
X138666667Y-88740533D02*
X138666667Y-88645295D01*
X138666667Y-88645295D02*
X138714286Y-88550057D01*
X138714286Y-88550057D02*
X138761905Y-88502438D01*
X138761905Y-88502438D02*
X138857143Y-88454819D01*
X138857143Y-88454819D02*
X139095238Y-88454819D01*
X139095238Y-88454819D02*
X139238095Y-88502438D01*
X139571429Y-88454819D02*
X139809524Y-89454819D01*
X139809524Y-89454819D02*
X140000000Y-88740533D01*
X140000000Y-88740533D02*
X140190476Y-89454819D01*
X140190476Y-89454819D02*
X140428572Y-88454819D01*
X141333333Y-89454819D02*
X140761905Y-89454819D01*
X141047619Y-89454819D02*
X141047619Y-88454819D01*
X141047619Y-88454819D02*
X140952381Y-88597676D01*
X140952381Y-88597676D02*
X140857143Y-88692914D01*
X140857143Y-88692914D02*
X140761905Y-88740533D01*
X138642857Y-91931009D02*
X138785714Y-91978628D01*
X138785714Y-91978628D02*
X138833333Y-92026247D01*
X138833333Y-92026247D02*
X138880952Y-92121485D01*
X138880952Y-92121485D02*
X138880952Y-92264342D01*
X138880952Y-92264342D02*
X138833333Y-92359580D01*
X138833333Y-92359580D02*
X138785714Y-92407200D01*
X138785714Y-92407200D02*
X138690476Y-92454819D01*
X138690476Y-92454819D02*
X138309524Y-92454819D01*
X138309524Y-92454819D02*
X138309524Y-91454819D01*
X138309524Y-91454819D02*
X138642857Y-91454819D01*
X138642857Y-91454819D02*
X138738095Y-91502438D01*
X138738095Y-91502438D02*
X138785714Y-91550057D01*
X138785714Y-91550057D02*
X138833333Y-91645295D01*
X138833333Y-91645295D02*
X138833333Y-91740533D01*
X138833333Y-91740533D02*
X138785714Y-91835771D01*
X138785714Y-91835771D02*
X138738095Y-91883390D01*
X138738095Y-91883390D02*
X138642857Y-91931009D01*
X138642857Y-91931009D02*
X138309524Y-91931009D01*
X139500000Y-91454819D02*
X139690476Y-91454819D01*
X139690476Y-91454819D02*
X139785714Y-91502438D01*
X139785714Y-91502438D02*
X139880952Y-91597676D01*
X139880952Y-91597676D02*
X139928571Y-91788152D01*
X139928571Y-91788152D02*
X139928571Y-92121485D01*
X139928571Y-92121485D02*
X139880952Y-92311961D01*
X139880952Y-92311961D02*
X139785714Y-92407200D01*
X139785714Y-92407200D02*
X139690476Y-92454819D01*
X139690476Y-92454819D02*
X139500000Y-92454819D01*
X139500000Y-92454819D02*
X139404762Y-92407200D01*
X139404762Y-92407200D02*
X139309524Y-92311961D01*
X139309524Y-92311961D02*
X139261905Y-92121485D01*
X139261905Y-92121485D02*
X139261905Y-91788152D01*
X139261905Y-91788152D02*
X139309524Y-91597676D01*
X139309524Y-91597676D02*
X139404762Y-91502438D01*
X139404762Y-91502438D02*
X139500000Y-91454819D01*
X140547619Y-91454819D02*
X140738095Y-91454819D01*
X140738095Y-91454819D02*
X140833333Y-91502438D01*
X140833333Y-91502438D02*
X140928571Y-91597676D01*
X140928571Y-91597676D02*
X140976190Y-91788152D01*
X140976190Y-91788152D02*
X140976190Y-92121485D01*
X140976190Y-92121485D02*
X140928571Y-92311961D01*
X140928571Y-92311961D02*
X140833333Y-92407200D01*
X140833333Y-92407200D02*
X140738095Y-92454819D01*
X140738095Y-92454819D02*
X140547619Y-92454819D01*
X140547619Y-92454819D02*
X140452381Y-92407200D01*
X140452381Y-92407200D02*
X140357143Y-92311961D01*
X140357143Y-92311961D02*
X140309524Y-92121485D01*
X140309524Y-92121485D02*
X140309524Y-91788152D01*
X140309524Y-91788152D02*
X140357143Y-91597676D01*
X140357143Y-91597676D02*
X140452381Y-91502438D01*
X140452381Y-91502438D02*
X140547619Y-91454819D01*
X141261905Y-91454819D02*
X141833333Y-91454819D01*
X141547619Y-92454819D02*
X141547619Y-91454819D01*
X153804819Y-77166666D02*
X153328628Y-77499999D01*
X153804819Y-77738094D02*
X152804819Y-77738094D01*
X152804819Y-77738094D02*
X152804819Y-77357142D01*
X152804819Y-77357142D02*
X152852438Y-77261904D01*
X152852438Y-77261904D02*
X152900057Y-77214285D01*
X152900057Y-77214285D02*
X152995295Y-77166666D01*
X152995295Y-77166666D02*
X153138152Y-77166666D01*
X153138152Y-77166666D02*
X153233390Y-77214285D01*
X153233390Y-77214285D02*
X153281009Y-77261904D01*
X153281009Y-77261904D02*
X153328628Y-77357142D01*
X153328628Y-77357142D02*
X153328628Y-77738094D01*
X153804819Y-76214285D02*
X153804819Y-76785713D01*
X153804819Y-76499999D02*
X152804819Y-76499999D01*
X152804819Y-76499999D02*
X152947676Y-76595237D01*
X152947676Y-76595237D02*
X153042914Y-76690475D01*
X153042914Y-76690475D02*
X153090533Y-76785713D01*
X128666667Y-114504819D02*
X129333333Y-114504819D01*
X129333333Y-114504819D02*
X128904762Y-115504819D01*
X124119048Y-98504819D02*
X124119048Y-97504819D01*
X124119048Y-97504819D02*
X124357143Y-97504819D01*
X124357143Y-97504819D02*
X124500000Y-97552438D01*
X124500000Y-97552438D02*
X124595238Y-97647676D01*
X124595238Y-97647676D02*
X124642857Y-97742914D01*
X124642857Y-97742914D02*
X124690476Y-97933390D01*
X124690476Y-97933390D02*
X124690476Y-98076247D01*
X124690476Y-98076247D02*
X124642857Y-98266723D01*
X124642857Y-98266723D02*
X124595238Y-98361961D01*
X124595238Y-98361961D02*
X124500000Y-98457200D01*
X124500000Y-98457200D02*
X124357143Y-98504819D01*
X124357143Y-98504819D02*
X124119048Y-98504819D01*
X125119048Y-98123866D02*
X125880953Y-98123866D01*
X147666667Y-76407200D02*
X147809524Y-76454819D01*
X147809524Y-76454819D02*
X148047619Y-76454819D01*
X148047619Y-76454819D02*
X148142857Y-76407200D01*
X148142857Y-76407200D02*
X148190476Y-76359580D01*
X148190476Y-76359580D02*
X148238095Y-76264342D01*
X148238095Y-76264342D02*
X148238095Y-76169104D01*
X148238095Y-76169104D02*
X148190476Y-76073866D01*
X148190476Y-76073866D02*
X148142857Y-76026247D01*
X148142857Y-76026247D02*
X148047619Y-75978628D01*
X148047619Y-75978628D02*
X147857143Y-75931009D01*
X147857143Y-75931009D02*
X147761905Y-75883390D01*
X147761905Y-75883390D02*
X147714286Y-75835771D01*
X147714286Y-75835771D02*
X147666667Y-75740533D01*
X147666667Y-75740533D02*
X147666667Y-75645295D01*
X147666667Y-75645295D02*
X147714286Y-75550057D01*
X147714286Y-75550057D02*
X147761905Y-75502438D01*
X147761905Y-75502438D02*
X147857143Y-75454819D01*
X147857143Y-75454819D02*
X148095238Y-75454819D01*
X148095238Y-75454819D02*
X148238095Y-75502438D01*
X148571429Y-75454819D02*
X148809524Y-76454819D01*
X148809524Y-76454819D02*
X149000000Y-75740533D01*
X149000000Y-75740533D02*
X149190476Y-76454819D01*
X149190476Y-76454819D02*
X149428572Y-75454819D01*
X149761905Y-75550057D02*
X149809524Y-75502438D01*
X149809524Y-75502438D02*
X149904762Y-75454819D01*
X149904762Y-75454819D02*
X150142857Y-75454819D01*
X150142857Y-75454819D02*
X150238095Y-75502438D01*
X150238095Y-75502438D02*
X150285714Y-75550057D01*
X150285714Y-75550057D02*
X150333333Y-75645295D01*
X150333333Y-75645295D02*
X150333333Y-75740533D01*
X150333333Y-75740533D02*
X150285714Y-75883390D01*
X150285714Y-75883390D02*
X149714286Y-76454819D01*
X149714286Y-76454819D02*
X150333333Y-76454819D01*
X147547618Y-73454819D02*
X147214285Y-72978628D01*
X146976190Y-73454819D02*
X146976190Y-72454819D01*
X146976190Y-72454819D02*
X147357142Y-72454819D01*
X147357142Y-72454819D02*
X147452380Y-72502438D01*
X147452380Y-72502438D02*
X147499999Y-72550057D01*
X147499999Y-72550057D02*
X147547618Y-72645295D01*
X147547618Y-72645295D02*
X147547618Y-72788152D01*
X147547618Y-72788152D02*
X147499999Y-72883390D01*
X147499999Y-72883390D02*
X147452380Y-72931009D01*
X147452380Y-72931009D02*
X147357142Y-72978628D01*
X147357142Y-72978628D02*
X146976190Y-72978628D01*
X147976190Y-72931009D02*
X148309523Y-72931009D01*
X148452380Y-73454819D02*
X147976190Y-73454819D01*
X147976190Y-73454819D02*
X147976190Y-72454819D01*
X147976190Y-72454819D02*
X148452380Y-72454819D01*
X148833333Y-73407200D02*
X148976190Y-73454819D01*
X148976190Y-73454819D02*
X149214285Y-73454819D01*
X149214285Y-73454819D02*
X149309523Y-73407200D01*
X149309523Y-73407200D02*
X149357142Y-73359580D01*
X149357142Y-73359580D02*
X149404761Y-73264342D01*
X149404761Y-73264342D02*
X149404761Y-73169104D01*
X149404761Y-73169104D02*
X149357142Y-73073866D01*
X149357142Y-73073866D02*
X149309523Y-73026247D01*
X149309523Y-73026247D02*
X149214285Y-72978628D01*
X149214285Y-72978628D02*
X149023809Y-72931009D01*
X149023809Y-72931009D02*
X148928571Y-72883390D01*
X148928571Y-72883390D02*
X148880952Y-72835771D01*
X148880952Y-72835771D02*
X148833333Y-72740533D01*
X148833333Y-72740533D02*
X148833333Y-72645295D01*
X148833333Y-72645295D02*
X148880952Y-72550057D01*
X148880952Y-72550057D02*
X148928571Y-72502438D01*
X148928571Y-72502438D02*
X149023809Y-72454819D01*
X149023809Y-72454819D02*
X149261904Y-72454819D01*
X149261904Y-72454819D02*
X149404761Y-72502438D01*
X149833333Y-72931009D02*
X150166666Y-72931009D01*
X150309523Y-73454819D02*
X149833333Y-73454819D01*
X149833333Y-73454819D02*
X149833333Y-72454819D01*
X149833333Y-72454819D02*
X150309523Y-72454819D01*
X150595238Y-72454819D02*
X151166666Y-72454819D01*
X150880952Y-73454819D02*
X150880952Y-72454819D01*
X144523810Y-79454819D02*
X145142857Y-79454819D01*
X145142857Y-79454819D02*
X144809524Y-79835771D01*
X144809524Y-79835771D02*
X144952381Y-79835771D01*
X144952381Y-79835771D02*
X145047619Y-79883390D01*
X145047619Y-79883390D02*
X145095238Y-79931009D01*
X145095238Y-79931009D02*
X145142857Y-80026247D01*
X145142857Y-80026247D02*
X145142857Y-80264342D01*
X145142857Y-80264342D02*
X145095238Y-80359580D01*
X145095238Y-80359580D02*
X145047619Y-80407200D01*
X145047619Y-80407200D02*
X144952381Y-80454819D01*
X144952381Y-80454819D02*
X144666667Y-80454819D01*
X144666667Y-80454819D02*
X144571429Y-80407200D01*
X144571429Y-80407200D02*
X144523810Y-80359580D01*
X145571429Y-80359580D02*
X145619048Y-80407200D01*
X145619048Y-80407200D02*
X145571429Y-80454819D01*
X145571429Y-80454819D02*
X145523810Y-80407200D01*
X145523810Y-80407200D02*
X145571429Y-80359580D01*
X145571429Y-80359580D02*
X145571429Y-80454819D01*
X145952381Y-79454819D02*
X146571428Y-79454819D01*
X146571428Y-79454819D02*
X146238095Y-79835771D01*
X146238095Y-79835771D02*
X146380952Y-79835771D01*
X146380952Y-79835771D02*
X146476190Y-79883390D01*
X146476190Y-79883390D02*
X146523809Y-79931009D01*
X146523809Y-79931009D02*
X146571428Y-80026247D01*
X146571428Y-80026247D02*
X146571428Y-80264342D01*
X146571428Y-80264342D02*
X146523809Y-80359580D01*
X146523809Y-80359580D02*
X146476190Y-80407200D01*
X146476190Y-80407200D02*
X146380952Y-80454819D01*
X146380952Y-80454819D02*
X146095238Y-80454819D01*
X146095238Y-80454819D02*
X146000000Y-80407200D01*
X146000000Y-80407200D02*
X145952381Y-80359580D01*
X146857143Y-79454819D02*
X147190476Y-80454819D01*
X147190476Y-80454819D02*
X147523809Y-79454819D01*
X123785714Y-82219104D02*
X124261904Y-82219104D01*
X123690476Y-82504819D02*
X124023809Y-81504819D01*
X124023809Y-81504819D02*
X124357142Y-82504819D01*
X124690476Y-82504819D02*
X124690476Y-81504819D01*
X124690476Y-81504819D02*
X124928571Y-81504819D01*
X124928571Y-81504819D02*
X125071428Y-81552438D01*
X125071428Y-81552438D02*
X125166666Y-81647676D01*
X125166666Y-81647676D02*
X125214285Y-81742914D01*
X125214285Y-81742914D02*
X125261904Y-81933390D01*
X125261904Y-81933390D02*
X125261904Y-82076247D01*
X125261904Y-82076247D02*
X125214285Y-82266723D01*
X125214285Y-82266723D02*
X125166666Y-82361961D01*
X125166666Y-82361961D02*
X125071428Y-82457200D01*
X125071428Y-82457200D02*
X124928571Y-82504819D01*
X124928571Y-82504819D02*
X124690476Y-82504819D01*
X125880952Y-81504819D02*
X125976190Y-81504819D01*
X125976190Y-81504819D02*
X126071428Y-81552438D01*
X126071428Y-81552438D02*
X126119047Y-81600057D01*
X126119047Y-81600057D02*
X126166666Y-81695295D01*
X126166666Y-81695295D02*
X126214285Y-81885771D01*
X126214285Y-81885771D02*
X126214285Y-82123866D01*
X126214285Y-82123866D02*
X126166666Y-82314342D01*
X126166666Y-82314342D02*
X126119047Y-82409580D01*
X126119047Y-82409580D02*
X126071428Y-82457200D01*
X126071428Y-82457200D02*
X125976190Y-82504819D01*
X125976190Y-82504819D02*
X125880952Y-82504819D01*
X125880952Y-82504819D02*
X125785714Y-82457200D01*
X125785714Y-82457200D02*
X125738095Y-82409580D01*
X125738095Y-82409580D02*
X125690476Y-82314342D01*
X125690476Y-82314342D02*
X125642857Y-82123866D01*
X125642857Y-82123866D02*
X125642857Y-81885771D01*
X125642857Y-81885771D02*
X125690476Y-81695295D01*
X125690476Y-81695295D02*
X125738095Y-81600057D01*
X125738095Y-81600057D02*
X125785714Y-81552438D01*
X125785714Y-81552438D02*
X125880952Y-81504819D01*
X132714286Y-114600057D02*
X132761905Y-114552438D01*
X132761905Y-114552438D02*
X132857143Y-114504819D01*
X132857143Y-114504819D02*
X133095238Y-114504819D01*
X133095238Y-114504819D02*
X133190476Y-114552438D01*
X133190476Y-114552438D02*
X133238095Y-114600057D01*
X133238095Y-114600057D02*
X133285714Y-114695295D01*
X133285714Y-114695295D02*
X133285714Y-114790533D01*
X133285714Y-114790533D02*
X133238095Y-114933390D01*
X133238095Y-114933390D02*
X132666667Y-115504819D01*
X132666667Y-115504819D02*
X133285714Y-115504819D01*
X161124819Y-109698570D02*
X162124819Y-109031904D01*
X161124819Y-109031904D02*
X162124819Y-109698570D01*
X161743866Y-108650951D02*
X161743866Y-107889047D01*
X161124819Y-107222380D02*
X161124819Y-107127142D01*
X161124819Y-107127142D02*
X161172438Y-107031904D01*
X161172438Y-107031904D02*
X161220057Y-106984285D01*
X161220057Y-106984285D02*
X161315295Y-106936666D01*
X161315295Y-106936666D02*
X161505771Y-106889047D01*
X161505771Y-106889047D02*
X161743866Y-106889047D01*
X161743866Y-106889047D02*
X161934342Y-106936666D01*
X161934342Y-106936666D02*
X162029580Y-106984285D01*
X162029580Y-106984285D02*
X162077200Y-107031904D01*
X162077200Y-107031904D02*
X162124819Y-107127142D01*
X162124819Y-107127142D02*
X162124819Y-107222380D01*
X162124819Y-107222380D02*
X162077200Y-107317618D01*
X162077200Y-107317618D02*
X162029580Y-107365237D01*
X162029580Y-107365237D02*
X161934342Y-107412856D01*
X161934342Y-107412856D02*
X161743866Y-107460475D01*
X161743866Y-107460475D02*
X161505771Y-107460475D01*
X161505771Y-107460475D02*
X161315295Y-107412856D01*
X161315295Y-107412856D02*
X161220057Y-107365237D01*
X161220057Y-107365237D02*
X161172438Y-107317618D01*
X161172438Y-107317618D02*
X161124819Y-107222380D01*
X124809523Y-115504819D02*
X124238095Y-115504819D01*
X124523809Y-115504819D02*
X124523809Y-114504819D01*
X124523809Y-114504819D02*
X124428571Y-114647676D01*
X124428571Y-114647676D02*
X124333333Y-114742914D01*
X124333333Y-114742914D02*
X124238095Y-114790533D01*
X125428571Y-114504819D02*
X125523809Y-114504819D01*
X125523809Y-114504819D02*
X125619047Y-114552438D01*
X125619047Y-114552438D02*
X125666666Y-114600057D01*
X125666666Y-114600057D02*
X125714285Y-114695295D01*
X125714285Y-114695295D02*
X125761904Y-114885771D01*
X125761904Y-114885771D02*
X125761904Y-115123866D01*
X125761904Y-115123866D02*
X125714285Y-115314342D01*
X125714285Y-115314342D02*
X125666666Y-115409580D01*
X125666666Y-115409580D02*
X125619047Y-115457200D01*
X125619047Y-115457200D02*
X125523809Y-115504819D01*
X125523809Y-115504819D02*
X125428571Y-115504819D01*
X125428571Y-115504819D02*
X125333333Y-115457200D01*
X125333333Y-115457200D02*
X125285714Y-115409580D01*
X125285714Y-115409580D02*
X125238095Y-115314342D01*
X125238095Y-115314342D02*
X125190476Y-115123866D01*
X125190476Y-115123866D02*
X125190476Y-114885771D01*
X125190476Y-114885771D02*
X125238095Y-114695295D01*
X125238095Y-114695295D02*
X125285714Y-114600057D01*
X125285714Y-114600057D02*
X125333333Y-114552438D01*
X125333333Y-114552438D02*
X125428571Y-114504819D01*
X123563095Y-89454819D02*
X124134523Y-89454819D01*
X123848809Y-90454819D02*
X123848809Y-89454819D01*
X124372619Y-89454819D02*
X125039285Y-90454819D01*
X125039285Y-89454819D02*
X124372619Y-90454819D01*
X125420238Y-90454819D02*
X125420238Y-89454819D01*
X125420238Y-89454819D02*
X125658333Y-89454819D01*
X125658333Y-89454819D02*
X125801190Y-89502438D01*
X125801190Y-89502438D02*
X125896428Y-89597676D01*
X125896428Y-89597676D02*
X125944047Y-89692914D01*
X125944047Y-89692914D02*
X125991666Y-89883390D01*
X125991666Y-89883390D02*
X125991666Y-90026247D01*
X125991666Y-90026247D02*
X125944047Y-90216723D01*
X125944047Y-90216723D02*
X125896428Y-90311961D01*
X125896428Y-90311961D02*
X125801190Y-90407200D01*
X125801190Y-90407200D02*
X125658333Y-90454819D01*
X125658333Y-90454819D02*
X125420238Y-90454819D01*
X135039580Y-82204166D02*
X135087200Y-82251785D01*
X135087200Y-82251785D02*
X135134819Y-82394642D01*
X135134819Y-82394642D02*
X135134819Y-82489880D01*
X135134819Y-82489880D02*
X135087200Y-82632737D01*
X135087200Y-82632737D02*
X134991961Y-82727975D01*
X134991961Y-82727975D02*
X134896723Y-82775594D01*
X134896723Y-82775594D02*
X134706247Y-82823213D01*
X134706247Y-82823213D02*
X134563390Y-82823213D01*
X134563390Y-82823213D02*
X134372914Y-82775594D01*
X134372914Y-82775594D02*
X134277676Y-82727975D01*
X134277676Y-82727975D02*
X134182438Y-82632737D01*
X134182438Y-82632737D02*
X134134819Y-82489880D01*
X134134819Y-82489880D02*
X134134819Y-82394642D01*
X134134819Y-82394642D02*
X134182438Y-82251785D01*
X134182438Y-82251785D02*
X134230057Y-82204166D01*
X134134819Y-81347023D02*
X134134819Y-81537499D01*
X134134819Y-81537499D02*
X134182438Y-81632737D01*
X134182438Y-81632737D02*
X134230057Y-81680356D01*
X134230057Y-81680356D02*
X134372914Y-81775594D01*
X134372914Y-81775594D02*
X134563390Y-81823213D01*
X134563390Y-81823213D02*
X134944342Y-81823213D01*
X134944342Y-81823213D02*
X135039580Y-81775594D01*
X135039580Y-81775594D02*
X135087200Y-81727975D01*
X135087200Y-81727975D02*
X135134819Y-81632737D01*
X135134819Y-81632737D02*
X135134819Y-81442261D01*
X135134819Y-81442261D02*
X135087200Y-81347023D01*
X135087200Y-81347023D02*
X135039580Y-81299404D01*
X135039580Y-81299404D02*
X134944342Y-81251785D01*
X134944342Y-81251785D02*
X134706247Y-81251785D01*
X134706247Y-81251785D02*
X134611009Y-81299404D01*
X134611009Y-81299404D02*
X134563390Y-81347023D01*
X134563390Y-81347023D02*
X134515771Y-81442261D01*
X134515771Y-81442261D02*
X134515771Y-81632737D01*
X134515771Y-81632737D02*
X134563390Y-81727975D01*
X134563390Y-81727975D02*
X134611009Y-81775594D01*
X134611009Y-81775594D02*
X134706247Y-81823213D01*
X140124819Y-85579523D02*
X139124819Y-85579523D01*
X139124819Y-85579523D02*
X139124819Y-85198571D01*
X139124819Y-85198571D02*
X139172438Y-85103333D01*
X139172438Y-85103333D02*
X139220057Y-85055714D01*
X139220057Y-85055714D02*
X139315295Y-85008095D01*
X139315295Y-85008095D02*
X139458152Y-85008095D01*
X139458152Y-85008095D02*
X139553390Y-85055714D01*
X139553390Y-85055714D02*
X139601009Y-85103333D01*
X139601009Y-85103333D02*
X139648628Y-85198571D01*
X139648628Y-85198571D02*
X139648628Y-85579523D01*
X139124819Y-84389047D02*
X139124819Y-84198571D01*
X139124819Y-84198571D02*
X139172438Y-84103333D01*
X139172438Y-84103333D02*
X139267676Y-84008095D01*
X139267676Y-84008095D02*
X139458152Y-83960476D01*
X139458152Y-83960476D02*
X139791485Y-83960476D01*
X139791485Y-83960476D02*
X139981961Y-84008095D01*
X139981961Y-84008095D02*
X140077200Y-84103333D01*
X140077200Y-84103333D02*
X140124819Y-84198571D01*
X140124819Y-84198571D02*
X140124819Y-84389047D01*
X140124819Y-84389047D02*
X140077200Y-84484285D01*
X140077200Y-84484285D02*
X139981961Y-84579523D01*
X139981961Y-84579523D02*
X139791485Y-84627142D01*
X139791485Y-84627142D02*
X139458152Y-84627142D01*
X139458152Y-84627142D02*
X139267676Y-84579523D01*
X139267676Y-84579523D02*
X139172438Y-84484285D01*
X139172438Y-84484285D02*
X139124819Y-84389047D01*
X139124819Y-83627142D02*
X140124819Y-83389047D01*
X140124819Y-83389047D02*
X139410533Y-83198571D01*
X139410533Y-83198571D02*
X140124819Y-83008095D01*
X140124819Y-83008095D02*
X139124819Y-82770000D01*
X139601009Y-82389047D02*
X139601009Y-82055714D01*
X140124819Y-81912857D02*
X140124819Y-82389047D01*
X140124819Y-82389047D02*
X139124819Y-82389047D01*
X139124819Y-82389047D02*
X139124819Y-81912857D01*
X140124819Y-80912857D02*
X139648628Y-81246190D01*
X140124819Y-81484285D02*
X139124819Y-81484285D01*
X139124819Y-81484285D02*
X139124819Y-81103333D01*
X139124819Y-81103333D02*
X139172438Y-81008095D01*
X139172438Y-81008095D02*
X139220057Y-80960476D01*
X139220057Y-80960476D02*
X139315295Y-80912857D01*
X139315295Y-80912857D02*
X139458152Y-80912857D01*
X139458152Y-80912857D02*
X139553390Y-80960476D01*
X139553390Y-80960476D02*
X139601009Y-81008095D01*
X139601009Y-81008095D02*
X139648628Y-81103333D01*
X139648628Y-81103333D02*
X139648628Y-81484285D01*
X132833333Y-84804819D02*
X132500000Y-84328628D01*
X132261905Y-84804819D02*
X132261905Y-83804819D01*
X132261905Y-83804819D02*
X132642857Y-83804819D01*
X132642857Y-83804819D02*
X132738095Y-83852438D01*
X132738095Y-83852438D02*
X132785714Y-83900057D01*
X132785714Y-83900057D02*
X132833333Y-83995295D01*
X132833333Y-83995295D02*
X132833333Y-84138152D01*
X132833333Y-84138152D02*
X132785714Y-84233390D01*
X132785714Y-84233390D02*
X132738095Y-84281009D01*
X132738095Y-84281009D02*
X132642857Y-84328628D01*
X132642857Y-84328628D02*
X132261905Y-84328628D01*
X133166667Y-83804819D02*
X133785714Y-83804819D01*
X133785714Y-83804819D02*
X133452381Y-84185771D01*
X133452381Y-84185771D02*
X133595238Y-84185771D01*
X133595238Y-84185771D02*
X133690476Y-84233390D01*
X133690476Y-84233390D02*
X133738095Y-84281009D01*
X133738095Y-84281009D02*
X133785714Y-84376247D01*
X133785714Y-84376247D02*
X133785714Y-84614342D01*
X133785714Y-84614342D02*
X133738095Y-84709580D01*
X133738095Y-84709580D02*
X133690476Y-84757200D01*
X133690476Y-84757200D02*
X133595238Y-84804819D01*
X133595238Y-84804819D02*
X133309524Y-84804819D01*
X133309524Y-84804819D02*
X133214286Y-84757200D01*
X133214286Y-84757200D02*
X133166667Y-84709580D01*
X138049580Y-82204166D02*
X138097200Y-82251785D01*
X138097200Y-82251785D02*
X138144819Y-82394642D01*
X138144819Y-82394642D02*
X138144819Y-82489880D01*
X138144819Y-82489880D02*
X138097200Y-82632737D01*
X138097200Y-82632737D02*
X138001961Y-82727975D01*
X138001961Y-82727975D02*
X137906723Y-82775594D01*
X137906723Y-82775594D02*
X137716247Y-82823213D01*
X137716247Y-82823213D02*
X137573390Y-82823213D01*
X137573390Y-82823213D02*
X137382914Y-82775594D01*
X137382914Y-82775594D02*
X137287676Y-82727975D01*
X137287676Y-82727975D02*
X137192438Y-82632737D01*
X137192438Y-82632737D02*
X137144819Y-82489880D01*
X137144819Y-82489880D02*
X137144819Y-82394642D01*
X137144819Y-82394642D02*
X137192438Y-82251785D01*
X137192438Y-82251785D02*
X137240057Y-82204166D01*
X137144819Y-81299404D02*
X137144819Y-81775594D01*
X137144819Y-81775594D02*
X137621009Y-81823213D01*
X137621009Y-81823213D02*
X137573390Y-81775594D01*
X137573390Y-81775594D02*
X137525771Y-81680356D01*
X137525771Y-81680356D02*
X137525771Y-81442261D01*
X137525771Y-81442261D02*
X137573390Y-81347023D01*
X137573390Y-81347023D02*
X137621009Y-81299404D01*
X137621009Y-81299404D02*
X137716247Y-81251785D01*
X137716247Y-81251785D02*
X137954342Y-81251785D01*
X137954342Y-81251785D02*
X138049580Y-81299404D01*
X138049580Y-81299404D02*
X138097200Y-81347023D01*
X138097200Y-81347023D02*
X138144819Y-81442261D01*
X138144819Y-81442261D02*
X138144819Y-81680356D01*
X138144819Y-81680356D02*
X138097200Y-81775594D01*
X138097200Y-81775594D02*
X138049580Y-81823213D01*
X152833333Y-80454819D02*
X152500000Y-79978628D01*
X152261905Y-80454819D02*
X152261905Y-79454819D01*
X152261905Y-79454819D02*
X152642857Y-79454819D01*
X152642857Y-79454819D02*
X152738095Y-79502438D01*
X152738095Y-79502438D02*
X152785714Y-79550057D01*
X152785714Y-79550057D02*
X152833333Y-79645295D01*
X152833333Y-79645295D02*
X152833333Y-79788152D01*
X152833333Y-79788152D02*
X152785714Y-79883390D01*
X152785714Y-79883390D02*
X152738095Y-79931009D01*
X152738095Y-79931009D02*
X152642857Y-79978628D01*
X152642857Y-79978628D02*
X152261905Y-79978628D01*
X153738095Y-79454819D02*
X153261905Y-79454819D01*
X153261905Y-79454819D02*
X153214286Y-79931009D01*
X153214286Y-79931009D02*
X153261905Y-79883390D01*
X153261905Y-79883390D02*
X153357143Y-79835771D01*
X153357143Y-79835771D02*
X153595238Y-79835771D01*
X153595238Y-79835771D02*
X153690476Y-79883390D01*
X153690476Y-79883390D02*
X153738095Y-79931009D01*
X153738095Y-79931009D02*
X153785714Y-80026247D01*
X153785714Y-80026247D02*
X153785714Y-80264342D01*
X153785714Y-80264342D02*
X153738095Y-80359580D01*
X153738095Y-80359580D02*
X153690476Y-80407200D01*
X153690476Y-80407200D02*
X153595238Y-80454819D01*
X153595238Y-80454819D02*
X153357143Y-80454819D01*
X153357143Y-80454819D02*
X153261905Y-80407200D01*
X153261905Y-80407200D02*
X153214286Y-80359580D01*
X140124819Y-97246189D02*
X139124819Y-97246189D01*
X139220057Y-96817618D02*
X139172438Y-96769999D01*
X139172438Y-96769999D02*
X139124819Y-96674761D01*
X139124819Y-96674761D02*
X139124819Y-96436666D01*
X139124819Y-96436666D02*
X139172438Y-96341428D01*
X139172438Y-96341428D02*
X139220057Y-96293809D01*
X139220057Y-96293809D02*
X139315295Y-96246190D01*
X139315295Y-96246190D02*
X139410533Y-96246190D01*
X139410533Y-96246190D02*
X139553390Y-96293809D01*
X139553390Y-96293809D02*
X140124819Y-96865237D01*
X140124819Y-96865237D02*
X140124819Y-96246190D01*
X140029580Y-95246190D02*
X140077200Y-95293809D01*
X140077200Y-95293809D02*
X140124819Y-95436666D01*
X140124819Y-95436666D02*
X140124819Y-95531904D01*
X140124819Y-95531904D02*
X140077200Y-95674761D01*
X140077200Y-95674761D02*
X139981961Y-95769999D01*
X139981961Y-95769999D02*
X139886723Y-95817618D01*
X139886723Y-95817618D02*
X139696247Y-95865237D01*
X139696247Y-95865237D02*
X139553390Y-95865237D01*
X139553390Y-95865237D02*
X139362914Y-95817618D01*
X139362914Y-95817618D02*
X139267676Y-95769999D01*
X139267676Y-95769999D02*
X139172438Y-95674761D01*
X139172438Y-95674761D02*
X139124819Y-95531904D01*
X139124819Y-95531904D02*
X139124819Y-95436666D01*
X139124819Y-95436666D02*
X139172438Y-95293809D01*
X139172438Y-95293809D02*
X139220057Y-95246190D01*
X145238095Y-87552438D02*
X145142857Y-87504819D01*
X145142857Y-87504819D02*
X145000000Y-87504819D01*
X145000000Y-87504819D02*
X144857143Y-87552438D01*
X144857143Y-87552438D02*
X144761905Y-87647676D01*
X144761905Y-87647676D02*
X144714286Y-87742914D01*
X144714286Y-87742914D02*
X144666667Y-87933390D01*
X144666667Y-87933390D02*
X144666667Y-88076247D01*
X144666667Y-88076247D02*
X144714286Y-88266723D01*
X144714286Y-88266723D02*
X144761905Y-88361961D01*
X144761905Y-88361961D02*
X144857143Y-88457200D01*
X144857143Y-88457200D02*
X145000000Y-88504819D01*
X145000000Y-88504819D02*
X145095238Y-88504819D01*
X145095238Y-88504819D02*
X145238095Y-88457200D01*
X145238095Y-88457200D02*
X145285714Y-88409580D01*
X145285714Y-88409580D02*
X145285714Y-88076247D01*
X145285714Y-88076247D02*
X145095238Y-88076247D01*
X145714286Y-88504819D02*
X145714286Y-87504819D01*
X145714286Y-87504819D02*
X146285714Y-88504819D01*
X146285714Y-88504819D02*
X146285714Y-87504819D01*
X146761905Y-88504819D02*
X146761905Y-87504819D01*
X146761905Y-87504819D02*
X147000000Y-87504819D01*
X147000000Y-87504819D02*
X147142857Y-87552438D01*
X147142857Y-87552438D02*
X147238095Y-87647676D01*
X147238095Y-87647676D02*
X147285714Y-87742914D01*
X147285714Y-87742914D02*
X147333333Y-87933390D01*
X147333333Y-87933390D02*
X147333333Y-88076247D01*
X147333333Y-88076247D02*
X147285714Y-88266723D01*
X147285714Y-88266723D02*
X147238095Y-88361961D01*
X147238095Y-88361961D02*
X147142857Y-88457200D01*
X147142857Y-88457200D02*
X147000000Y-88504819D01*
X147000000Y-88504819D02*
X146761905Y-88504819D01*
X128809524Y-72407200D02*
X128952381Y-72454819D01*
X128952381Y-72454819D02*
X129190476Y-72454819D01*
X129190476Y-72454819D02*
X129285714Y-72407200D01*
X129285714Y-72407200D02*
X129333333Y-72359580D01*
X129333333Y-72359580D02*
X129380952Y-72264342D01*
X129380952Y-72264342D02*
X129380952Y-72169104D01*
X129380952Y-72169104D02*
X129333333Y-72073866D01*
X129333333Y-72073866D02*
X129285714Y-72026247D01*
X129285714Y-72026247D02*
X129190476Y-71978628D01*
X129190476Y-71978628D02*
X129000000Y-71931009D01*
X129000000Y-71931009D02*
X128904762Y-71883390D01*
X128904762Y-71883390D02*
X128857143Y-71835771D01*
X128857143Y-71835771D02*
X128809524Y-71740533D01*
X128809524Y-71740533D02*
X128809524Y-71645295D01*
X128809524Y-71645295D02*
X128857143Y-71550057D01*
X128857143Y-71550057D02*
X128904762Y-71502438D01*
X128904762Y-71502438D02*
X129000000Y-71454819D01*
X129000000Y-71454819D02*
X129238095Y-71454819D01*
X129238095Y-71454819D02*
X129380952Y-71502438D01*
X130380952Y-72359580D02*
X130333333Y-72407200D01*
X130333333Y-72407200D02*
X130190476Y-72454819D01*
X130190476Y-72454819D02*
X130095238Y-72454819D01*
X130095238Y-72454819D02*
X129952381Y-72407200D01*
X129952381Y-72407200D02*
X129857143Y-72311961D01*
X129857143Y-72311961D02*
X129809524Y-72216723D01*
X129809524Y-72216723D02*
X129761905Y-72026247D01*
X129761905Y-72026247D02*
X129761905Y-71883390D01*
X129761905Y-71883390D02*
X129809524Y-71692914D01*
X129809524Y-71692914D02*
X129857143Y-71597676D01*
X129857143Y-71597676D02*
X129952381Y-71502438D01*
X129952381Y-71502438D02*
X130095238Y-71454819D01*
X130095238Y-71454819D02*
X130190476Y-71454819D01*
X130190476Y-71454819D02*
X130333333Y-71502438D01*
X130333333Y-71502438D02*
X130380952Y-71550057D01*
X131285714Y-72454819D02*
X130809524Y-72454819D01*
X130809524Y-72454819D02*
X130809524Y-71454819D01*
X128785714Y-76407200D02*
X128928571Y-76454819D01*
X128928571Y-76454819D02*
X129166666Y-76454819D01*
X129166666Y-76454819D02*
X129261904Y-76407200D01*
X129261904Y-76407200D02*
X129309523Y-76359580D01*
X129309523Y-76359580D02*
X129357142Y-76264342D01*
X129357142Y-76264342D02*
X129357142Y-76169104D01*
X129357142Y-76169104D02*
X129309523Y-76073866D01*
X129309523Y-76073866D02*
X129261904Y-76026247D01*
X129261904Y-76026247D02*
X129166666Y-75978628D01*
X129166666Y-75978628D02*
X128976190Y-75931009D01*
X128976190Y-75931009D02*
X128880952Y-75883390D01*
X128880952Y-75883390D02*
X128833333Y-75835771D01*
X128833333Y-75835771D02*
X128785714Y-75740533D01*
X128785714Y-75740533D02*
X128785714Y-75645295D01*
X128785714Y-75645295D02*
X128833333Y-75550057D01*
X128833333Y-75550057D02*
X128880952Y-75502438D01*
X128880952Y-75502438D02*
X128976190Y-75454819D01*
X128976190Y-75454819D02*
X129214285Y-75454819D01*
X129214285Y-75454819D02*
X129357142Y-75502438D01*
X129785714Y-76454819D02*
X129785714Y-75454819D01*
X129785714Y-75454819D02*
X130023809Y-75454819D01*
X130023809Y-75454819D02*
X130166666Y-75502438D01*
X130166666Y-75502438D02*
X130261904Y-75597676D01*
X130261904Y-75597676D02*
X130309523Y-75692914D01*
X130309523Y-75692914D02*
X130357142Y-75883390D01*
X130357142Y-75883390D02*
X130357142Y-76026247D01*
X130357142Y-76026247D02*
X130309523Y-76216723D01*
X130309523Y-76216723D02*
X130261904Y-76311961D01*
X130261904Y-76311961D02*
X130166666Y-76407200D01*
X130166666Y-76407200D02*
X130023809Y-76454819D01*
X130023809Y-76454819D02*
X129785714Y-76454819D01*
X130738095Y-76169104D02*
X131214285Y-76169104D01*
X130642857Y-76454819D02*
X130976190Y-75454819D01*
X130976190Y-75454819D02*
X131309523Y-76454819D01*
X129190476Y-110838152D02*
X129190476Y-111504819D01*
X128952381Y-110457200D02*
X128714286Y-111171485D01*
X128714286Y-111171485D02*
X129333333Y-111171485D01*
X132029580Y-82204166D02*
X132077200Y-82251785D01*
X132077200Y-82251785D02*
X132124819Y-82394642D01*
X132124819Y-82394642D02*
X132124819Y-82489880D01*
X132124819Y-82489880D02*
X132077200Y-82632737D01*
X132077200Y-82632737D02*
X131981961Y-82727975D01*
X131981961Y-82727975D02*
X131886723Y-82775594D01*
X131886723Y-82775594D02*
X131696247Y-82823213D01*
X131696247Y-82823213D02*
X131553390Y-82823213D01*
X131553390Y-82823213D02*
X131362914Y-82775594D01*
X131362914Y-82775594D02*
X131267676Y-82727975D01*
X131267676Y-82727975D02*
X131172438Y-82632737D01*
X131172438Y-82632737D02*
X131124819Y-82489880D01*
X131124819Y-82489880D02*
X131124819Y-82394642D01*
X131124819Y-82394642D02*
X131172438Y-82251785D01*
X131172438Y-82251785D02*
X131220057Y-82204166D01*
X131124819Y-81870832D02*
X131124819Y-81204166D01*
X131124819Y-81204166D02*
X132124819Y-81632737D01*
X124904762Y-106933390D02*
X124809524Y-106885771D01*
X124809524Y-106885771D02*
X124761905Y-106838152D01*
X124761905Y-106838152D02*
X124714286Y-106742914D01*
X124714286Y-106742914D02*
X124714286Y-106695295D01*
X124714286Y-106695295D02*
X124761905Y-106600057D01*
X124761905Y-106600057D02*
X124809524Y-106552438D01*
X124809524Y-106552438D02*
X124904762Y-106504819D01*
X124904762Y-106504819D02*
X125095238Y-106504819D01*
X125095238Y-106504819D02*
X125190476Y-106552438D01*
X125190476Y-106552438D02*
X125238095Y-106600057D01*
X125238095Y-106600057D02*
X125285714Y-106695295D01*
X125285714Y-106695295D02*
X125285714Y-106742914D01*
X125285714Y-106742914D02*
X125238095Y-106838152D01*
X125238095Y-106838152D02*
X125190476Y-106885771D01*
X125190476Y-106885771D02*
X125095238Y-106933390D01*
X125095238Y-106933390D02*
X124904762Y-106933390D01*
X124904762Y-106933390D02*
X124809524Y-106981009D01*
X124809524Y-106981009D02*
X124761905Y-107028628D01*
X124761905Y-107028628D02*
X124714286Y-107123866D01*
X124714286Y-107123866D02*
X124714286Y-107314342D01*
X124714286Y-107314342D02*
X124761905Y-107409580D01*
X124761905Y-107409580D02*
X124809524Y-107457200D01*
X124809524Y-107457200D02*
X124904762Y-107504819D01*
X124904762Y-107504819D02*
X125095238Y-107504819D01*
X125095238Y-107504819D02*
X125190476Y-107457200D01*
X125190476Y-107457200D02*
X125238095Y-107409580D01*
X125238095Y-107409580D02*
X125285714Y-107314342D01*
X125285714Y-107314342D02*
X125285714Y-107123866D01*
X125285714Y-107123866D02*
X125238095Y-107028628D01*
X125238095Y-107028628D02*
X125190476Y-106981009D01*
X125190476Y-106981009D02*
X125095238Y-106933390D01*
X124158333Y-94504819D02*
X123825000Y-94028628D01*
X123586905Y-94504819D02*
X123586905Y-93504819D01*
X123586905Y-93504819D02*
X123967857Y-93504819D01*
X123967857Y-93504819D02*
X124063095Y-93552438D01*
X124063095Y-93552438D02*
X124110714Y-93600057D01*
X124110714Y-93600057D02*
X124158333Y-93695295D01*
X124158333Y-93695295D02*
X124158333Y-93838152D01*
X124158333Y-93838152D02*
X124110714Y-93933390D01*
X124110714Y-93933390D02*
X124063095Y-93981009D01*
X124063095Y-93981009D02*
X123967857Y-94028628D01*
X123967857Y-94028628D02*
X123586905Y-94028628D01*
X124491667Y-93504819D02*
X125158333Y-94504819D01*
X125158333Y-93504819D02*
X124491667Y-94504819D01*
X125539286Y-94504819D02*
X125539286Y-93504819D01*
X125539286Y-93504819D02*
X125777381Y-93504819D01*
X125777381Y-93504819D02*
X125920238Y-93552438D01*
X125920238Y-93552438D02*
X126015476Y-93647676D01*
X126015476Y-93647676D02*
X126063095Y-93742914D01*
X126063095Y-93742914D02*
X126110714Y-93933390D01*
X126110714Y-93933390D02*
X126110714Y-94076247D01*
X126110714Y-94076247D02*
X126063095Y-94266723D01*
X126063095Y-94266723D02*
X126015476Y-94361961D01*
X126015476Y-94361961D02*
X125920238Y-94457200D01*
X125920238Y-94457200D02*
X125777381Y-94504819D01*
X125777381Y-94504819D02*
X125539286Y-94504819D01*
X157679580Y-78166666D02*
X157727200Y-78214285D01*
X157727200Y-78214285D02*
X157774819Y-78357142D01*
X157774819Y-78357142D02*
X157774819Y-78452380D01*
X157774819Y-78452380D02*
X157727200Y-78595237D01*
X157727200Y-78595237D02*
X157631961Y-78690475D01*
X157631961Y-78690475D02*
X157536723Y-78738094D01*
X157536723Y-78738094D02*
X157346247Y-78785713D01*
X157346247Y-78785713D02*
X157203390Y-78785713D01*
X157203390Y-78785713D02*
X157012914Y-78738094D01*
X157012914Y-78738094D02*
X156917676Y-78690475D01*
X156917676Y-78690475D02*
X156822438Y-78595237D01*
X156822438Y-78595237D02*
X156774819Y-78452380D01*
X156774819Y-78452380D02*
X156774819Y-78357142D01*
X156774819Y-78357142D02*
X156822438Y-78214285D01*
X156822438Y-78214285D02*
X156870057Y-78166666D01*
X156870057Y-77785713D02*
X156822438Y-77738094D01*
X156822438Y-77738094D02*
X156774819Y-77642856D01*
X156774819Y-77642856D02*
X156774819Y-77404761D01*
X156774819Y-77404761D02*
X156822438Y-77309523D01*
X156822438Y-77309523D02*
X156870057Y-77261904D01*
X156870057Y-77261904D02*
X156965295Y-77214285D01*
X156965295Y-77214285D02*
X157060533Y-77214285D01*
X157060533Y-77214285D02*
X157203390Y-77261904D01*
X157203390Y-77261904D02*
X157774819Y-77833332D01*
X157774819Y-77833332D02*
X157774819Y-77214285D01*
X152124819Y-110793808D02*
X151124819Y-110793808D01*
X151124819Y-110793808D02*
X151124819Y-110555713D01*
X151124819Y-110555713D02*
X151172438Y-110412856D01*
X151172438Y-110412856D02*
X151267676Y-110317618D01*
X151267676Y-110317618D02*
X151362914Y-110269999D01*
X151362914Y-110269999D02*
X151553390Y-110222380D01*
X151553390Y-110222380D02*
X151696247Y-110222380D01*
X151696247Y-110222380D02*
X151886723Y-110269999D01*
X151886723Y-110269999D02*
X151981961Y-110317618D01*
X151981961Y-110317618D02*
X152077200Y-110412856D01*
X152077200Y-110412856D02*
X152124819Y-110555713D01*
X152124819Y-110555713D02*
X152124819Y-110793808D01*
X151743866Y-109793808D02*
X151743866Y-109031904D01*
X152124819Y-109412856D02*
X151362914Y-109412856D01*
X151077200Y-107841428D02*
X152362914Y-108698570D01*
X152124819Y-107508094D02*
X151124819Y-107508094D01*
X151124819Y-107508094D02*
X151124819Y-107269999D01*
X151124819Y-107269999D02*
X151172438Y-107127142D01*
X151172438Y-107127142D02*
X151267676Y-107031904D01*
X151267676Y-107031904D02*
X151362914Y-106984285D01*
X151362914Y-106984285D02*
X151553390Y-106936666D01*
X151553390Y-106936666D02*
X151696247Y-106936666D01*
X151696247Y-106936666D02*
X151886723Y-106984285D01*
X151886723Y-106984285D02*
X151981961Y-107031904D01*
X151981961Y-107031904D02*
X152077200Y-107127142D01*
X152077200Y-107127142D02*
X152124819Y-107269999D01*
X152124819Y-107269999D02*
X152124819Y-107508094D01*
X151743866Y-106508094D02*
X151743866Y-105746190D01*
X124119048Y-102504819D02*
X124119048Y-101504819D01*
X124119048Y-101504819D02*
X124357143Y-101504819D01*
X124357143Y-101504819D02*
X124500000Y-101552438D01*
X124500000Y-101552438D02*
X124595238Y-101647676D01*
X124595238Y-101647676D02*
X124642857Y-101742914D01*
X124642857Y-101742914D02*
X124690476Y-101933390D01*
X124690476Y-101933390D02*
X124690476Y-102076247D01*
X124690476Y-102076247D02*
X124642857Y-102266723D01*
X124642857Y-102266723D02*
X124595238Y-102361961D01*
X124595238Y-102361961D02*
X124500000Y-102457200D01*
X124500000Y-102457200D02*
X124357143Y-102504819D01*
X124357143Y-102504819D02*
X124119048Y-102504819D01*
X125119048Y-102123866D02*
X125880953Y-102123866D01*
X125500000Y-102504819D02*
X125500000Y-101742914D01*
X139833333Y-74804819D02*
X139500000Y-74328628D01*
X139261905Y-74804819D02*
X139261905Y-73804819D01*
X139261905Y-73804819D02*
X139642857Y-73804819D01*
X139642857Y-73804819D02*
X139738095Y-73852438D01*
X139738095Y-73852438D02*
X139785714Y-73900057D01*
X139785714Y-73900057D02*
X139833333Y-73995295D01*
X139833333Y-73995295D02*
X139833333Y-74138152D01*
X139833333Y-74138152D02*
X139785714Y-74233390D01*
X139785714Y-74233390D02*
X139738095Y-74281009D01*
X139738095Y-74281009D02*
X139642857Y-74328628D01*
X139642857Y-74328628D02*
X139261905Y-74328628D01*
X140690476Y-73804819D02*
X140500000Y-73804819D01*
X140500000Y-73804819D02*
X140404762Y-73852438D01*
X140404762Y-73852438D02*
X140357143Y-73900057D01*
X140357143Y-73900057D02*
X140261905Y-74042914D01*
X140261905Y-74042914D02*
X140214286Y-74233390D01*
X140214286Y-74233390D02*
X140214286Y-74614342D01*
X140214286Y-74614342D02*
X140261905Y-74709580D01*
X140261905Y-74709580D02*
X140309524Y-74757200D01*
X140309524Y-74757200D02*
X140404762Y-74804819D01*
X140404762Y-74804819D02*
X140595238Y-74804819D01*
X140595238Y-74804819D02*
X140690476Y-74757200D01*
X140690476Y-74757200D02*
X140738095Y-74709580D01*
X140738095Y-74709580D02*
X140785714Y-74614342D01*
X140785714Y-74614342D02*
X140785714Y-74376247D01*
X140785714Y-74376247D02*
X140738095Y-74281009D01*
X140738095Y-74281009D02*
X140690476Y-74233390D01*
X140690476Y-74233390D02*
X140595238Y-74185771D01*
X140595238Y-74185771D02*
X140404762Y-74185771D01*
X140404762Y-74185771D02*
X140309524Y-74233390D01*
X140309524Y-74233390D02*
X140261905Y-74281009D01*
X140261905Y-74281009D02*
X140214286Y-74376247D01*
X124809524Y-111504819D02*
X125000000Y-111504819D01*
X125000000Y-111504819D02*
X125095238Y-111457200D01*
X125095238Y-111457200D02*
X125142857Y-111409580D01*
X125142857Y-111409580D02*
X125238095Y-111266723D01*
X125238095Y-111266723D02*
X125285714Y-111076247D01*
X125285714Y-111076247D02*
X125285714Y-110695295D01*
X125285714Y-110695295D02*
X125238095Y-110600057D01*
X125238095Y-110600057D02*
X125190476Y-110552438D01*
X125190476Y-110552438D02*
X125095238Y-110504819D01*
X125095238Y-110504819D02*
X124904762Y-110504819D01*
X124904762Y-110504819D02*
X124809524Y-110552438D01*
X124809524Y-110552438D02*
X124761905Y-110600057D01*
X124761905Y-110600057D02*
X124714286Y-110695295D01*
X124714286Y-110695295D02*
X124714286Y-110933390D01*
X124714286Y-110933390D02*
X124761905Y-111028628D01*
X124761905Y-111028628D02*
X124809524Y-111076247D01*
X124809524Y-111076247D02*
X124904762Y-111123866D01*
X124904762Y-111123866D02*
X125095238Y-111123866D01*
X125095238Y-111123866D02*
X125190476Y-111076247D01*
X125190476Y-111076247D02*
X125238095Y-111028628D01*
X125238095Y-111028628D02*
X125285714Y-110933390D01*
X133114381Y-74261816D02*
X133114381Y-73449016D01*
X133114381Y-73449016D02*
X133385315Y-74029588D01*
X133385315Y-74029588D02*
X133656248Y-73449016D01*
X133656248Y-73449016D02*
X133656248Y-74261816D01*
X133927181Y-73449016D02*
X134391638Y-73449016D01*
X134159410Y-74261816D02*
X134159410Y-73449016D01*
X135088324Y-74261816D02*
X134623867Y-74261816D01*
X134856095Y-74261816D02*
X134856095Y-73449016D01*
X134856095Y-73449016D02*
X134778686Y-73565131D01*
X134778686Y-73565131D02*
X134701276Y-73642540D01*
X134701276Y-73642540D02*
X134623867Y-73681245D01*
X132679580Y-90204166D02*
X132727200Y-90251785D01*
X132727200Y-90251785D02*
X132774819Y-90394642D01*
X132774819Y-90394642D02*
X132774819Y-90489880D01*
X132774819Y-90489880D02*
X132727200Y-90632737D01*
X132727200Y-90632737D02*
X132631961Y-90727975D01*
X132631961Y-90727975D02*
X132536723Y-90775594D01*
X132536723Y-90775594D02*
X132346247Y-90823213D01*
X132346247Y-90823213D02*
X132203390Y-90823213D01*
X132203390Y-90823213D02*
X132012914Y-90775594D01*
X132012914Y-90775594D02*
X131917676Y-90727975D01*
X131917676Y-90727975D02*
X131822438Y-90632737D01*
X131822438Y-90632737D02*
X131774819Y-90489880D01*
X131774819Y-90489880D02*
X131774819Y-90394642D01*
X131774819Y-90394642D02*
X131822438Y-90251785D01*
X131822438Y-90251785D02*
X131870057Y-90204166D01*
X132203390Y-89632737D02*
X132155771Y-89727975D01*
X132155771Y-89727975D02*
X132108152Y-89775594D01*
X132108152Y-89775594D02*
X132012914Y-89823213D01*
X132012914Y-89823213D02*
X131965295Y-89823213D01*
X131965295Y-89823213D02*
X131870057Y-89775594D01*
X131870057Y-89775594D02*
X131822438Y-89727975D01*
X131822438Y-89727975D02*
X131774819Y-89632737D01*
X131774819Y-89632737D02*
X131774819Y-89442261D01*
X131774819Y-89442261D02*
X131822438Y-89347023D01*
X131822438Y-89347023D02*
X131870057Y-89299404D01*
X131870057Y-89299404D02*
X131965295Y-89251785D01*
X131965295Y-89251785D02*
X132012914Y-89251785D01*
X132012914Y-89251785D02*
X132108152Y-89299404D01*
X132108152Y-89299404D02*
X132155771Y-89347023D01*
X132155771Y-89347023D02*
X132203390Y-89442261D01*
X132203390Y-89442261D02*
X132203390Y-89632737D01*
X132203390Y-89632737D02*
X132251009Y-89727975D01*
X132251009Y-89727975D02*
X132298628Y-89775594D01*
X132298628Y-89775594D02*
X132393866Y-89823213D01*
X132393866Y-89823213D02*
X132584342Y-89823213D01*
X132584342Y-89823213D02*
X132679580Y-89775594D01*
X132679580Y-89775594D02*
X132727200Y-89727975D01*
X132727200Y-89727975D02*
X132774819Y-89632737D01*
X132774819Y-89632737D02*
X132774819Y-89442261D01*
X132774819Y-89442261D02*
X132727200Y-89347023D01*
X132727200Y-89347023D02*
X132679580Y-89299404D01*
X132679580Y-89299404D02*
X132584342Y-89251785D01*
X132584342Y-89251785D02*
X132393866Y-89251785D01*
X132393866Y-89251785D02*
X132298628Y-89299404D01*
X132298628Y-89299404D02*
X132251009Y-89347023D01*
X132251009Y-89347023D02*
X132203390Y-89442261D01*
X152146009Y-101047618D02*
X152146009Y-100714285D01*
X152669819Y-100571428D02*
X152669819Y-101047618D01*
X152669819Y-101047618D02*
X151669819Y-101047618D01*
X151669819Y-101047618D02*
X151669819Y-100571428D01*
X152622200Y-100190475D02*
X152669819Y-100047618D01*
X152669819Y-100047618D02*
X152669819Y-99809523D01*
X152669819Y-99809523D02*
X152622200Y-99714285D01*
X152622200Y-99714285D02*
X152574580Y-99666666D01*
X152574580Y-99666666D02*
X152479342Y-99619047D01*
X152479342Y-99619047D02*
X152384104Y-99619047D01*
X152384104Y-99619047D02*
X152288866Y-99666666D01*
X152288866Y-99666666D02*
X152241247Y-99714285D01*
X152241247Y-99714285D02*
X152193628Y-99809523D01*
X152193628Y-99809523D02*
X152146009Y-99999999D01*
X152146009Y-99999999D02*
X152098390Y-100095237D01*
X152098390Y-100095237D02*
X152050771Y-100142856D01*
X152050771Y-100142856D02*
X151955533Y-100190475D01*
X151955533Y-100190475D02*
X151860295Y-100190475D01*
X151860295Y-100190475D02*
X151765057Y-100142856D01*
X151765057Y-100142856D02*
X151717438Y-100095237D01*
X151717438Y-100095237D02*
X151669819Y-99999999D01*
X151669819Y-99999999D02*
X151669819Y-99761904D01*
X151669819Y-99761904D02*
X151717438Y-99619047D01*
X152669819Y-99190475D02*
X151669819Y-99190475D01*
X151669819Y-99190475D02*
X151669819Y-98809523D01*
X151669819Y-98809523D02*
X151717438Y-98714285D01*
X151717438Y-98714285D02*
X151765057Y-98666666D01*
X151765057Y-98666666D02*
X151860295Y-98619047D01*
X151860295Y-98619047D02*
X152003152Y-98619047D01*
X152003152Y-98619047D02*
X152098390Y-98666666D01*
X152098390Y-98666666D02*
X152146009Y-98714285D01*
X152146009Y-98714285D02*
X152193628Y-98809523D01*
X152193628Y-98809523D02*
X152193628Y-99190475D01*
X151669819Y-98285713D02*
X151669819Y-97666666D01*
X151669819Y-97666666D02*
X152050771Y-97999999D01*
X152050771Y-97999999D02*
X152050771Y-97857142D01*
X152050771Y-97857142D02*
X152098390Y-97761904D01*
X152098390Y-97761904D02*
X152146009Y-97714285D01*
X152146009Y-97714285D02*
X152241247Y-97666666D01*
X152241247Y-97666666D02*
X152479342Y-97666666D01*
X152479342Y-97666666D02*
X152574580Y-97714285D01*
X152574580Y-97714285D02*
X152622200Y-97761904D01*
X152622200Y-97761904D02*
X152669819Y-97857142D01*
X152669819Y-97857142D02*
X152669819Y-98142856D01*
X152669819Y-98142856D02*
X152622200Y-98238094D01*
X152622200Y-98238094D02*
X152574580Y-98285713D01*
X151765057Y-97285713D02*
X151717438Y-97238094D01*
X151717438Y-97238094D02*
X151669819Y-97142856D01*
X151669819Y-97142856D02*
X151669819Y-96904761D01*
X151669819Y-96904761D02*
X151717438Y-96809523D01*
X151717438Y-96809523D02*
X151765057Y-96761904D01*
X151765057Y-96761904D02*
X151860295Y-96714285D01*
X151860295Y-96714285D02*
X151955533Y-96714285D01*
X151955533Y-96714285D02*
X152098390Y-96761904D01*
X152098390Y-96761904D02*
X152669819Y-97333332D01*
X152669819Y-97333332D02*
X152669819Y-96714285D01*
X152288866Y-96285713D02*
X152288866Y-95523809D01*
X152574580Y-94476190D02*
X152622200Y-94523809D01*
X152622200Y-94523809D02*
X152669819Y-94666666D01*
X152669819Y-94666666D02*
X152669819Y-94761904D01*
X152669819Y-94761904D02*
X152622200Y-94904761D01*
X152622200Y-94904761D02*
X152526961Y-94999999D01*
X152526961Y-94999999D02*
X152431723Y-95047618D01*
X152431723Y-95047618D02*
X152241247Y-95095237D01*
X152241247Y-95095237D02*
X152098390Y-95095237D01*
X152098390Y-95095237D02*
X151907914Y-95047618D01*
X151907914Y-95047618D02*
X151812676Y-94999999D01*
X151812676Y-94999999D02*
X151717438Y-94904761D01*
X151717438Y-94904761D02*
X151669819Y-94761904D01*
X151669819Y-94761904D02*
X151669819Y-94666666D01*
X151669819Y-94666666D02*
X151717438Y-94523809D01*
X151717438Y-94523809D02*
X151765057Y-94476190D01*
X151669819Y-94142856D02*
X151669819Y-93523809D01*
X151669819Y-93523809D02*
X152050771Y-93857142D01*
X152050771Y-93857142D02*
X152050771Y-93714285D01*
X152050771Y-93714285D02*
X152098390Y-93619047D01*
X152098390Y-93619047D02*
X152146009Y-93571428D01*
X152146009Y-93571428D02*
X152241247Y-93523809D01*
X152241247Y-93523809D02*
X152479342Y-93523809D01*
X152479342Y-93523809D02*
X152574580Y-93571428D01*
X152574580Y-93571428D02*
X152622200Y-93619047D01*
X152622200Y-93619047D02*
X152669819Y-93714285D01*
X152669819Y-93714285D02*
X152669819Y-93999999D01*
X152669819Y-93999999D02*
X152622200Y-94095237D01*
X152622200Y-94095237D02*
X152574580Y-94142856D01*
X152288866Y-93095237D02*
X152288866Y-92333333D01*
X151669819Y-91952380D02*
X152669819Y-91714285D01*
X152669819Y-91714285D02*
X151955533Y-91523809D01*
X151955533Y-91523809D02*
X152669819Y-91333333D01*
X152669819Y-91333333D02*
X151669819Y-91095238D01*
X152669819Y-90142857D02*
X152193628Y-90476190D01*
X152669819Y-90714285D02*
X151669819Y-90714285D01*
X151669819Y-90714285D02*
X151669819Y-90333333D01*
X151669819Y-90333333D02*
X151717438Y-90238095D01*
X151717438Y-90238095D02*
X151765057Y-90190476D01*
X151765057Y-90190476D02*
X151860295Y-90142857D01*
X151860295Y-90142857D02*
X152003152Y-90142857D01*
X152003152Y-90142857D02*
X152098390Y-90190476D01*
X152098390Y-90190476D02*
X152146009Y-90238095D01*
X152146009Y-90238095D02*
X152193628Y-90333333D01*
X152193628Y-90333333D02*
X152193628Y-90714285D01*
X151669819Y-89523809D02*
X151669819Y-89333333D01*
X151669819Y-89333333D02*
X151717438Y-89238095D01*
X151717438Y-89238095D02*
X151812676Y-89142857D01*
X151812676Y-89142857D02*
X152003152Y-89095238D01*
X152003152Y-89095238D02*
X152336485Y-89095238D01*
X152336485Y-89095238D02*
X152526961Y-89142857D01*
X152526961Y-89142857D02*
X152622200Y-89238095D01*
X152622200Y-89238095D02*
X152669819Y-89333333D01*
X152669819Y-89333333D02*
X152669819Y-89523809D01*
X152669819Y-89523809D02*
X152622200Y-89619047D01*
X152622200Y-89619047D02*
X152526961Y-89714285D01*
X152526961Y-89714285D02*
X152336485Y-89761904D01*
X152336485Y-89761904D02*
X152003152Y-89761904D01*
X152003152Y-89761904D02*
X151812676Y-89714285D01*
X151812676Y-89714285D02*
X151717438Y-89619047D01*
X151717438Y-89619047D02*
X151669819Y-89523809D01*
X151669819Y-88476190D02*
X151669819Y-88285714D01*
X151669819Y-88285714D02*
X151717438Y-88190476D01*
X151717438Y-88190476D02*
X151812676Y-88095238D01*
X151812676Y-88095238D02*
X152003152Y-88047619D01*
X152003152Y-88047619D02*
X152336485Y-88047619D01*
X152336485Y-88047619D02*
X152526961Y-88095238D01*
X152526961Y-88095238D02*
X152622200Y-88190476D01*
X152622200Y-88190476D02*
X152669819Y-88285714D01*
X152669819Y-88285714D02*
X152669819Y-88476190D01*
X152669819Y-88476190D02*
X152622200Y-88571428D01*
X152622200Y-88571428D02*
X152526961Y-88666666D01*
X152526961Y-88666666D02*
X152336485Y-88714285D01*
X152336485Y-88714285D02*
X152003152Y-88714285D01*
X152003152Y-88714285D02*
X151812676Y-88666666D01*
X151812676Y-88666666D02*
X151717438Y-88571428D01*
X151717438Y-88571428D02*
X151669819Y-88476190D01*
X152669819Y-87619047D02*
X151669819Y-87619047D01*
X151669819Y-87619047D02*
X152384104Y-87285714D01*
X152384104Y-87285714D02*
X151669819Y-86952381D01*
X151669819Y-86952381D02*
X152669819Y-86952381D01*
X157124819Y-109079523D02*
X157124819Y-109650951D01*
X157124819Y-109365237D02*
X156124819Y-109365237D01*
X156124819Y-109365237D02*
X156267676Y-109460475D01*
X156267676Y-109460475D02*
X156362914Y-109555713D01*
X156362914Y-109555713D02*
X156410533Y-109650951D01*
X156743866Y-108650951D02*
X156743866Y-107889047D01*
X156220057Y-107460475D02*
X156172438Y-107412856D01*
X156172438Y-107412856D02*
X156124819Y-107317618D01*
X156124819Y-107317618D02*
X156124819Y-107079523D01*
X156124819Y-107079523D02*
X156172438Y-106984285D01*
X156172438Y-106984285D02*
X156220057Y-106936666D01*
X156220057Y-106936666D02*
X156315295Y-106889047D01*
X156315295Y-106889047D02*
X156410533Y-106889047D01*
X156410533Y-106889047D02*
X156553390Y-106936666D01*
X156553390Y-106936666D02*
X157124819Y-107508094D01*
X157124819Y-107508094D02*
X157124819Y-106889047D01*
X124095238Y-86504819D02*
X124095238Y-85504819D01*
X124571428Y-86504819D02*
X124571428Y-85504819D01*
X124571428Y-85504819D02*
X125142856Y-86504819D01*
X125142856Y-86504819D02*
X125142856Y-85504819D01*
X125476190Y-85504819D02*
X126047618Y-85504819D01*
X125761904Y-86504819D02*
X125761904Y-85504819D01*
X153679580Y-73204166D02*
X153727200Y-73251785D01*
X153727200Y-73251785D02*
X153774819Y-73394642D01*
X153774819Y-73394642D02*
X153774819Y-73489880D01*
X153774819Y-73489880D02*
X153727200Y-73632737D01*
X153727200Y-73632737D02*
X153631961Y-73727975D01*
X153631961Y-73727975D02*
X153536723Y-73775594D01*
X153536723Y-73775594D02*
X153346247Y-73823213D01*
X153346247Y-73823213D02*
X153203390Y-73823213D01*
X153203390Y-73823213D02*
X153012914Y-73775594D01*
X153012914Y-73775594D02*
X152917676Y-73727975D01*
X152917676Y-73727975D02*
X152822438Y-73632737D01*
X152822438Y-73632737D02*
X152774819Y-73489880D01*
X152774819Y-73489880D02*
X152774819Y-73394642D01*
X152774819Y-73394642D02*
X152822438Y-73251785D01*
X152822438Y-73251785D02*
X152870057Y-73204166D01*
X153774819Y-72251785D02*
X153774819Y-72823213D01*
X153774819Y-72537499D02*
X152774819Y-72537499D01*
X152774819Y-72537499D02*
X152917676Y-72632737D01*
X152917676Y-72632737D02*
X153012914Y-72727975D01*
X153012914Y-72727975D02*
X153060533Y-72823213D01*
X157679580Y-73166666D02*
X157727200Y-73214285D01*
X157727200Y-73214285D02*
X157774819Y-73357142D01*
X157774819Y-73357142D02*
X157774819Y-73452380D01*
X157774819Y-73452380D02*
X157727200Y-73595237D01*
X157727200Y-73595237D02*
X157631961Y-73690475D01*
X157631961Y-73690475D02*
X157536723Y-73738094D01*
X157536723Y-73738094D02*
X157346247Y-73785713D01*
X157346247Y-73785713D02*
X157203390Y-73785713D01*
X157203390Y-73785713D02*
X157012914Y-73738094D01*
X157012914Y-73738094D02*
X156917676Y-73690475D01*
X156917676Y-73690475D02*
X156822438Y-73595237D01*
X156822438Y-73595237D02*
X156774819Y-73452380D01*
X156774819Y-73452380D02*
X156774819Y-73357142D01*
X156774819Y-73357142D02*
X156822438Y-73214285D01*
X156822438Y-73214285D02*
X156870057Y-73166666D01*
X157108152Y-72309523D02*
X157774819Y-72309523D01*
X156727200Y-72547618D02*
X157441485Y-72785713D01*
X157441485Y-72785713D02*
X157441485Y-72166666D01*
D12*
%TO.C,TP5*%
X131800000Y-103800000D02*
X134200000Y-103800000D01*
X131800000Y-106200000D02*
X131800000Y-103800000D01*
X134200000Y-103800000D02*
X134200000Y-106200000D01*
X134200000Y-106200000D02*
X131800000Y-106200000D01*
%TO.C,TP6*%
X131800000Y-107800000D02*
X134200000Y-107800000D01*
X131800000Y-110200000D02*
X131800000Y-107800000D01*
X134200000Y-107800000D02*
X134200000Y-110200000D01*
X134200000Y-110200000D02*
X131800000Y-110200000D01*
%TO.C,R2*%
X149265000Y-88227064D02*
X149265000Y-87772936D01*
X150735000Y-88227064D02*
X150735000Y-87772936D01*
%TO.C,D1*%
X149040000Y-83000000D02*
X149040000Y-85860000D01*
X149040000Y-85860000D02*
X150960000Y-85860000D01*
X150960000Y-85860000D02*
X150960000Y-83000000D01*
%TO.C,J6*%
X147670000Y-105670000D02*
X147670000Y-110870000D01*
X147730000Y-105670000D02*
X147670000Y-105670000D01*
X147730000Y-105670000D02*
X147730000Y-108270000D01*
X147730000Y-108270000D02*
X150330000Y-108270000D01*
X149000000Y-105670000D02*
X150330000Y-105670000D01*
X150330000Y-105670000D02*
X150330000Y-107000000D01*
X150330000Y-108270000D02*
X150330000Y-110870000D01*
X150330000Y-110870000D02*
X147670000Y-110870000D01*
%TO.C,R4*%
X128265000Y-93227064D02*
X128265000Y-92772936D01*
X129735000Y-93227064D02*
X129735000Y-92772936D01*
%TO.C,TP8*%
X127800000Y-103800000D02*
X130200000Y-103800000D01*
X127800000Y-106200000D02*
X127800000Y-103800000D01*
X130200000Y-103800000D02*
X130200000Y-106200000D01*
X130200000Y-106200000D02*
X127800000Y-106200000D01*
%TO.C,J8*%
X137670000Y-105670000D02*
X137670000Y-110870000D01*
X137730000Y-105670000D02*
X137670000Y-105670000D01*
X137730000Y-105670000D02*
X137730000Y-108270000D01*
X137730000Y-108270000D02*
X140330000Y-108270000D01*
X139000000Y-105670000D02*
X140330000Y-105670000D01*
X140330000Y-105670000D02*
X140330000Y-107000000D01*
X140330000Y-108270000D02*
X140330000Y-110870000D01*
X140330000Y-110870000D02*
X137670000Y-110870000D01*
%TO.C,C3*%
X162265000Y-78261252D02*
X162265000Y-77738748D01*
X163735000Y-78261252D02*
X163735000Y-77738748D01*
%TO.C,J10*%
X130670000Y-93670000D02*
X130670000Y-98870000D01*
X130730000Y-93670000D02*
X130670000Y-93670000D01*
X130730000Y-93670000D02*
X130730000Y-96270000D01*
X130730000Y-96270000D02*
X133330000Y-96270000D01*
X132000000Y-93670000D02*
X133330000Y-93670000D01*
X133330000Y-93670000D02*
X133330000Y-95000000D01*
X133330000Y-96270000D02*
X133330000Y-98870000D01*
X133330000Y-98870000D02*
X130670000Y-98870000D01*
%TO.C,J7*%
X142670000Y-105670000D02*
X142670000Y-110870000D01*
X142730000Y-105670000D02*
X142670000Y-105670000D01*
X142730000Y-105670000D02*
X142730000Y-108270000D01*
X142730000Y-108270000D02*
X145330000Y-108270000D01*
X144000000Y-105670000D02*
X145330000Y-105670000D01*
X145330000Y-105670000D02*
X145330000Y-107000000D01*
X145330000Y-108270000D02*
X145330000Y-110870000D01*
X145330000Y-110870000D02*
X142670000Y-110870000D01*
%TO.C,J9*%
X135670000Y-93670000D02*
X135670000Y-98870000D01*
X135730000Y-93670000D02*
X135670000Y-93670000D01*
X135730000Y-93670000D02*
X135730000Y-96270000D01*
X135730000Y-96270000D02*
X138330000Y-96270000D01*
X137000000Y-93670000D02*
X138330000Y-93670000D01*
X138330000Y-93670000D02*
X138330000Y-95000000D01*
X138330000Y-96270000D02*
X138330000Y-98870000D01*
X138330000Y-98870000D02*
X135670000Y-98870000D01*
D13*
%TO.C,SW1*%
X136723400Y-86917200D02*
X136723400Y-88387860D01*
X136723400Y-89612140D02*
X136723400Y-91082800D01*
X136723400Y-91082800D02*
X143276600Y-91082800D01*
X143276600Y-86917200D02*
X136723400Y-86917200D01*
X143276600Y-88387860D02*
X143276600Y-86917200D01*
X143276600Y-91082800D02*
X143276600Y-89612140D01*
D12*
%TO.C,R1*%
X154265000Y-77227064D02*
X154265000Y-76772936D01*
X155735000Y-77227064D02*
X155735000Y-76772936D01*
%TO.C,TP12*%
X127800000Y-111800000D02*
X130200000Y-111800000D01*
X127800000Y-114200000D02*
X127800000Y-111800000D01*
X130200000Y-111800000D02*
X130200000Y-114200000D01*
X130200000Y-114200000D02*
X127800000Y-114200000D01*
%TO.C,TP11*%
X123800000Y-94800000D02*
X126200000Y-94800000D01*
X123800000Y-97200000D02*
X123800000Y-94800000D01*
X126200000Y-94800000D02*
X126200000Y-97200000D01*
X126200000Y-97200000D02*
X123800000Y-97200000D01*
D13*
%TO.C,SW2*%
X145723400Y-73917200D02*
X145723400Y-75387860D01*
X145723400Y-76612140D02*
X145723400Y-78082800D01*
X145723400Y-78082800D02*
X152276600Y-78082800D01*
X152276600Y-73917200D02*
X145723400Y-73917200D01*
X152276600Y-75387860D02*
X152276600Y-73917200D01*
X152276600Y-78082800D02*
X152276600Y-76612140D01*
D12*
%TO.C,TP1*%
X144800000Y-80800000D02*
X147200000Y-80800000D01*
X144800000Y-83200000D02*
X144800000Y-80800000D01*
X147200000Y-80800000D02*
X147200000Y-83200000D01*
X147200000Y-83200000D02*
X144800000Y-83200000D01*
%TO.C,TP16*%
X123800000Y-78800000D02*
X126200000Y-78800000D01*
X123800000Y-81200000D02*
X123800000Y-78800000D01*
X126200000Y-78800000D02*
X126200000Y-81200000D01*
X126200000Y-81200000D02*
X123800000Y-81200000D01*
%TO.C,TP7*%
X131800000Y-111800000D02*
X134200000Y-111800000D01*
X131800000Y-114200000D02*
X131800000Y-111800000D01*
X134200000Y-111800000D02*
X134200000Y-114200000D01*
X134200000Y-114200000D02*
X131800000Y-114200000D01*
%TO.C,J4*%
X162670000Y-105670000D02*
X162670000Y-110870000D01*
X162730000Y-105670000D02*
X162670000Y-105670000D01*
X162730000Y-105670000D02*
X162730000Y-108270000D01*
X162730000Y-108270000D02*
X165330000Y-108270000D01*
X164000000Y-105670000D02*
X165330000Y-105670000D01*
X165330000Y-105670000D02*
X165330000Y-107000000D01*
X165330000Y-108270000D02*
X165330000Y-110870000D01*
X165330000Y-110870000D02*
X162670000Y-110870000D01*
%TO.C,TP15*%
X123800000Y-111800000D02*
X126200000Y-111800000D01*
X123800000Y-114200000D02*
X123800000Y-111800000D01*
X126200000Y-111800000D02*
X126200000Y-114200000D01*
X126200000Y-114200000D02*
X123800000Y-114200000D01*
%TO.C,TP18*%
X123625000Y-86750000D02*
X126025000Y-86750000D01*
X123625000Y-89150000D02*
X123625000Y-86750000D01*
X126025000Y-86750000D02*
X126025000Y-89150000D01*
X126025000Y-89150000D02*
X123625000Y-89150000D01*
%TO.C,C6*%
X132265000Y-81776248D02*
X132265000Y-82298752D01*
X133735000Y-81776248D02*
X133735000Y-82298752D01*
%TO.C,J1*%
X140670000Y-80670000D02*
X140670000Y-85870000D01*
X140730000Y-80670000D02*
X140670000Y-80670000D01*
X140730000Y-80670000D02*
X140730000Y-83270000D01*
X140730000Y-83270000D02*
X143330000Y-83270000D01*
X142000000Y-80670000D02*
X143330000Y-80670000D01*
X143330000Y-80670000D02*
X143330000Y-82000000D01*
X143330000Y-83270000D02*
X143330000Y-85870000D01*
X143330000Y-85870000D02*
X140670000Y-85870000D01*
%TO.C,R3*%
X132772936Y-85265000D02*
X133227064Y-85265000D01*
X132772936Y-86735000D02*
X133227064Y-86735000D01*
%TO.C,C5*%
X135275000Y-81776248D02*
X135275000Y-82298752D01*
X136745000Y-81776248D02*
X136745000Y-82298752D01*
%TO.C,R5*%
X155772936Y-79265000D02*
X156227064Y-79265000D01*
X155772936Y-80735000D02*
X156227064Y-80735000D01*
%TO.C,J3*%
X140670000Y-93670000D02*
X140670000Y-98870000D01*
X140730000Y-93670000D02*
X140670000Y-93670000D01*
X140730000Y-93670000D02*
X140730000Y-96270000D01*
X140730000Y-96270000D02*
X143330000Y-96270000D01*
X142000000Y-93670000D02*
X143330000Y-93670000D01*
X143330000Y-93670000D02*
X143330000Y-95000000D01*
X143330000Y-96270000D02*
X143330000Y-98870000D01*
X143330000Y-98870000D02*
X140670000Y-98870000D01*
%TO.C,TP2*%
X144800000Y-84800000D02*
X147200000Y-84800000D01*
X144800000Y-87200000D02*
X144800000Y-84800000D01*
X147200000Y-84800000D02*
X147200000Y-87200000D01*
X147200000Y-87200000D02*
X144800000Y-87200000D01*
%TO.C,TP4*%
X128800000Y-72800000D02*
X131200000Y-72800000D01*
X128800000Y-75200000D02*
X128800000Y-72800000D01*
X131200000Y-72800000D02*
X131200000Y-75200000D01*
X131200000Y-75200000D02*
X128800000Y-75200000D01*
%TO.C,TP3*%
X128800000Y-76800000D02*
X131200000Y-76800000D01*
X128800000Y-79200000D02*
X128800000Y-76800000D01*
X131200000Y-76800000D02*
X131200000Y-79200000D01*
X131200000Y-79200000D02*
X128800000Y-79200000D01*
%TO.C,TP9*%
X127800000Y-107800000D02*
X130200000Y-107800000D01*
X127800000Y-110200000D02*
X127800000Y-107800000D01*
X130200000Y-107800000D02*
X130200000Y-110200000D01*
X130200000Y-110200000D02*
X127800000Y-110200000D01*
%TO.C,C7*%
X129255000Y-81776248D02*
X129255000Y-82298752D01*
X130725000Y-81776248D02*
X130725000Y-82298752D01*
%TO.C,TP13*%
X123800000Y-103800000D02*
X126200000Y-103800000D01*
X123800000Y-106200000D02*
X123800000Y-103800000D01*
X126200000Y-103800000D02*
X126200000Y-106200000D01*
X126200000Y-106200000D02*
X123800000Y-106200000D01*
%TO.C,TP19*%
X123625000Y-90800000D02*
X126025000Y-90800000D01*
X123625000Y-93200000D02*
X123625000Y-90800000D01*
X126025000Y-90800000D02*
X126025000Y-93200000D01*
X126025000Y-93200000D02*
X123625000Y-93200000D01*
%TO.C,C2*%
X158265000Y-78261252D02*
X158265000Y-77738748D01*
X159735000Y-78261252D02*
X159735000Y-77738748D01*
%TO.C,J2*%
X152670000Y-105670000D02*
X152670000Y-110870000D01*
X152730000Y-105670000D02*
X152670000Y-105670000D01*
X152730000Y-105670000D02*
X152730000Y-108270000D01*
X152730000Y-108270000D02*
X155330000Y-108270000D01*
X154000000Y-105670000D02*
X155330000Y-105670000D01*
X155330000Y-105670000D02*
X155330000Y-107000000D01*
X155330000Y-108270000D02*
X155330000Y-110870000D01*
X155330000Y-110870000D02*
X152670000Y-110870000D01*
%TO.C,TP10*%
X123800000Y-98800000D02*
X126200000Y-98800000D01*
X123800000Y-101200000D02*
X123800000Y-98800000D01*
X126200000Y-98800000D02*
X126200000Y-101200000D01*
X126200000Y-101200000D02*
X123800000Y-101200000D01*
%TO.C,R6*%
X139772936Y-75265000D02*
X140227064Y-75265000D01*
X139772936Y-76735000D02*
X140227064Y-76735000D01*
%TO.C,TP14*%
X123800000Y-107800000D02*
X126200000Y-107800000D01*
X123800000Y-110200000D02*
X123800000Y-107800000D01*
X126200000Y-107800000D02*
X126200000Y-110200000D01*
X126200000Y-110200000D02*
X123800000Y-110200000D01*
D14*
%TO.C,MT1*%
X132500000Y-74750000D02*
X133055000Y-74750000D01*
X132500000Y-74805000D02*
X132500000Y-74750000D01*
X132500000Y-77250000D02*
X132500000Y-77195000D01*
X133055000Y-77250000D02*
X132500000Y-77250000D01*
X134945000Y-74750000D02*
X135500000Y-74750000D01*
X135500000Y-74750000D02*
X135500000Y-74805000D01*
X135500000Y-77250000D02*
X134945000Y-77250000D01*
X135500000Y-77250000D02*
X135500000Y-77195000D01*
D15*
X132100000Y-75250000D02*
G75*
G02*
X131900000Y-75250000I-100000J0D01*
G01*
X131900000Y-75250000D02*
G75*
G02*
X132100000Y-75250000I100000J0D01*
G01*
D12*
%TO.C,C8*%
X133265000Y-90298752D02*
X133265000Y-89776248D01*
X134735000Y-90298752D02*
X134735000Y-89776248D01*
D14*
%TO.C,U1*%
X153300000Y-83000000D02*
X153300000Y-101000000D01*
X153300000Y-83000000D02*
X153430000Y-83000000D01*
X153300000Y-101000000D02*
X153430000Y-101000000D01*
X166970000Y-101000000D02*
X173300000Y-101000000D01*
X173300000Y-83000000D02*
X166970000Y-83000000D01*
X173300000Y-101000000D02*
X173300000Y-83000000D01*
D15*
X166300000Y-81500000D02*
G75*
G02*
X166100000Y-81500000I-100000J0D01*
G01*
X166100000Y-81500000D02*
G75*
G02*
X166300000Y-81500000I100000J0D01*
G01*
D12*
%TO.C,J5*%
X157670000Y-105670000D02*
X157670000Y-110870000D01*
X157730000Y-105670000D02*
X157670000Y-105670000D01*
X157730000Y-105670000D02*
X157730000Y-108270000D01*
X157730000Y-108270000D02*
X160330000Y-108270000D01*
X159000000Y-105670000D02*
X160330000Y-105670000D01*
X160330000Y-105670000D02*
X160330000Y-107000000D01*
X160330000Y-108270000D02*
X160330000Y-110870000D01*
X160330000Y-110870000D02*
X157670000Y-110870000D01*
%TO.C,TP17*%
X123800000Y-82800000D02*
X126200000Y-82800000D01*
X123800000Y-85200000D02*
X123800000Y-82800000D01*
X126200000Y-82800000D02*
X126200000Y-85200000D01*
X126200000Y-85200000D02*
X123800000Y-85200000D01*
%TO.C,C1*%
X154265000Y-73298752D02*
X154265000Y-72776248D01*
X155735000Y-73298752D02*
X155735000Y-72776248D01*
%TO.C,C4*%
X158265000Y-73261252D02*
X158265000Y-72738748D01*
X159735000Y-73261252D02*
X159735000Y-72738748D01*
%TD*%
M02*
