%TF.GenerationSoftware,KiCad,Pcbnew,8.0.8*%
%TF.CreationDate,2025-04-04T16:16:19-04:00*%
%TF.ProjectId,ESP32,45535033-322e-46b6-9963-61645f706362,rev?*%
%TF.SameCoordinates,Original*%
%TF.FileFunction,Soldermask,Top*%
%TF.FilePolarity,Negative*%
%FSLAX46Y46*%
G04 Gerber Fmt 4.6, Leading zero omitted, Abs format (unit mm)*
G04 Created by KiCad (PCBNEW 8.0.8) date 2025-04-04 16:16:19*
%MOMM*%
%LPD*%
G01*
G04 APERTURE LIST*
G04 Aperture macros list*
%AMRoundRect*
0 Rectangle with rounded corners*
0 $1 Rounding radius*
0 $2 $3 $4 $5 $6 $7 $8 $9 X,Y pos of 4 corners*
0 Add a 4 corners polygon primitive as box body*
4,1,4,$2,$3,$4,$5,$6,$7,$8,$9,$2,$3,0*
0 Add four circle primitives for the rounded corners*
1,1,$1+$1,$2,$3*
1,1,$1+$1,$4,$5*
1,1,$1+$1,$6,$7*
1,1,$1+$1,$8,$9*
0 Add four rect primitives between the rounded corners*
20,1,$1+$1,$2,$3,$4,$5,0*
20,1,$1+$1,$4,$5,$6,$7,0*
20,1,$1+$1,$6,$7,$8,$9,0*
20,1,$1+$1,$8,$9,$2,$3,0*%
G04 Aperture macros list end*
%ADD10C,0.010000*%
%ADD11R,2.000000X2.000000*%
%ADD12RoundRect,0.250000X0.450000X-0.350000X0.450000X0.350000X-0.450000X0.350000X-0.450000X-0.350000X0*%
%ADD13RoundRect,0.250000X0.450000X-0.325000X0.450000X0.325000X-0.450000X0.325000X-0.450000X-0.325000X0*%
%ADD14R,1.700000X1.700000*%
%ADD15O,1.700000X1.700000*%
%ADD16C,3.200000*%
%ADD17RoundRect,0.250000X0.475000X-0.337500X0.475000X0.337500X-0.475000X0.337500X-0.475000X-0.337500X0*%
%ADD18R,2.108200X0.558800*%
%ADD19RoundRect,0.250000X-0.475000X0.337500X-0.475000X-0.337500X0.475000X-0.337500X0.475000X0.337500X0*%
%ADD20RoundRect,0.250000X-0.350000X-0.450000X0.350000X-0.450000X0.350000X0.450000X-0.350000X0.450000X0*%
%ADD21RoundRect,0.102000X-0.450000X0.750000X-0.450000X-0.750000X0.450000X-0.750000X0.450000X0.750000X0*%
%ADD22RoundRect,0.102000X-0.350000X0.350000X-0.350000X-0.350000X0.350000X-0.350000X0.350000X0.350000X0*%
G04 APERTURE END LIST*
D10*
%TO.C,MT1*%
X133125000Y-75425000D02*
X132550000Y-75425000D01*
X132550000Y-75075000D01*
X133125000Y-75075000D01*
X133125000Y-75425000D01*
G36*
X133125000Y-75425000D02*
G01*
X132550000Y-75425000D01*
X132550000Y-75075000D01*
X133125000Y-75075000D01*
X133125000Y-75425000D01*
G37*
X133125000Y-75925000D02*
X132550000Y-75925000D01*
X132550000Y-75575000D01*
X133125000Y-75575000D01*
X133125000Y-75925000D01*
G36*
X133125000Y-75925000D02*
G01*
X132550000Y-75925000D01*
X132550000Y-75575000D01*
X133125000Y-75575000D01*
X133125000Y-75925000D01*
G37*
X133125000Y-76425000D02*
X132550000Y-76425000D01*
X132550000Y-76075000D01*
X133125000Y-76075000D01*
X133125000Y-76425000D01*
G36*
X133125000Y-76425000D02*
G01*
X132550000Y-76425000D01*
X132550000Y-76075000D01*
X133125000Y-76075000D01*
X133125000Y-76425000D01*
G37*
X133125000Y-76925000D02*
X132550000Y-76925000D01*
X132550000Y-76575000D01*
X133125000Y-76575000D01*
X133125000Y-76925000D01*
G36*
X133125000Y-76925000D02*
G01*
X132550000Y-76925000D01*
X132550000Y-76575000D01*
X133125000Y-76575000D01*
X133125000Y-76925000D01*
G37*
X133675000Y-75375000D02*
X133325000Y-75375000D01*
X133325000Y-74800000D01*
X133675000Y-74800000D01*
X133675000Y-75375000D01*
G36*
X133675000Y-75375000D02*
G01*
X133325000Y-75375000D01*
X133325000Y-74800000D01*
X133675000Y-74800000D01*
X133675000Y-75375000D01*
G37*
X133675000Y-77200000D02*
X133325000Y-77200000D01*
X133325000Y-76625000D01*
X133675000Y-76625000D01*
X133675000Y-77200000D01*
G36*
X133675000Y-77200000D02*
G01*
X133325000Y-77200000D01*
X133325000Y-76625000D01*
X133675000Y-76625000D01*
X133675000Y-77200000D01*
G37*
X134175000Y-75375000D02*
X133825000Y-75375000D01*
X133825000Y-74800000D01*
X134175000Y-74800000D01*
X134175000Y-75375000D01*
G36*
X134175000Y-75375000D02*
G01*
X133825000Y-75375000D01*
X133825000Y-74800000D01*
X134175000Y-74800000D01*
X134175000Y-75375000D01*
G37*
X134175000Y-77200000D02*
X133825000Y-77200000D01*
X133825000Y-76625000D01*
X134175000Y-76625000D01*
X134175000Y-77200000D01*
G36*
X134175000Y-77200000D02*
G01*
X133825000Y-77200000D01*
X133825000Y-76625000D01*
X134175000Y-76625000D01*
X134175000Y-77200000D01*
G37*
X134675000Y-75375000D02*
X134325000Y-75375000D01*
X134325000Y-74800000D01*
X134675000Y-74800000D01*
X134675000Y-75375000D01*
G36*
X134675000Y-75375000D02*
G01*
X134325000Y-75375000D01*
X134325000Y-74800000D01*
X134675000Y-74800000D01*
X134675000Y-75375000D01*
G37*
X134675000Y-77200000D02*
X134325000Y-77200000D01*
X134325000Y-76625000D01*
X134675000Y-76625000D01*
X134675000Y-77200000D01*
G36*
X134675000Y-77200000D02*
G01*
X134325000Y-77200000D01*
X134325000Y-76625000D01*
X134675000Y-76625000D01*
X134675000Y-77200000D01*
G37*
X135450000Y-75425000D02*
X134875000Y-75425000D01*
X134875000Y-75075000D01*
X135450000Y-75075000D01*
X135450000Y-75425000D01*
G36*
X135450000Y-75425000D02*
G01*
X134875000Y-75425000D01*
X134875000Y-75075000D01*
X135450000Y-75075000D01*
X135450000Y-75425000D01*
G37*
X135450000Y-75925000D02*
X134875000Y-75925000D01*
X134875000Y-75575000D01*
X135450000Y-75575000D01*
X135450000Y-75925000D01*
G36*
X135450000Y-75925000D02*
G01*
X134875000Y-75925000D01*
X134875000Y-75575000D01*
X135450000Y-75575000D01*
X135450000Y-75925000D01*
G37*
X135450000Y-76425000D02*
X134875000Y-76425000D01*
X134875000Y-76075000D01*
X135450000Y-76075000D01*
X135450000Y-76425000D01*
G36*
X135450000Y-76425000D02*
G01*
X134875000Y-76425000D01*
X134875000Y-76075000D01*
X135450000Y-76075000D01*
X135450000Y-76425000D01*
G37*
X135450000Y-76925000D02*
X134875000Y-76925000D01*
X134875000Y-76575000D01*
X135450000Y-76575000D01*
X135450000Y-76925000D01*
G36*
X135450000Y-76925000D02*
G01*
X134875000Y-76925000D01*
X134875000Y-76575000D01*
X135450000Y-76575000D01*
X135450000Y-76925000D01*
G37*
%TD*%
D11*
%TO.C,TP5*%
X133000000Y-105000000D03*
%TD*%
%TO.C,TP6*%
X133000000Y-109000000D03*
%TD*%
D12*
%TO.C,R2*%
X150000000Y-89000000D03*
X150000000Y-87000000D03*
%TD*%
D13*
%TO.C,D1*%
X150000000Y-85025000D03*
X150000000Y-82975000D03*
%TD*%
D14*
%TO.C,J6*%
X149000000Y-107000000D03*
D15*
X149000000Y-109540000D03*
%TD*%
D12*
%TO.C,R4*%
X129000000Y-94000000D03*
X129000000Y-92000000D03*
%TD*%
D11*
%TO.C,TP8*%
X129000000Y-105000000D03*
%TD*%
D16*
%TO.C,REF\u002A\u002A*%
X171000000Y-74000000D03*
%TD*%
D14*
%TO.C,J8*%
X139000000Y-107000000D03*
D15*
X139000000Y-109540000D03*
%TD*%
D17*
%TO.C,C3*%
X163000000Y-79037500D03*
X163000000Y-76962500D03*
%TD*%
D14*
%TO.C,J10*%
X132000000Y-95000000D03*
D15*
X132000000Y-97540000D03*
%TD*%
D14*
%TO.C,J7*%
X144000000Y-107000000D03*
D15*
X144000000Y-109540000D03*
%TD*%
D14*
%TO.C,J9*%
X137000000Y-95000000D03*
D15*
X137000000Y-97540000D03*
%TD*%
D18*
%TO.C,SW1*%
X136699300Y-89000000D03*
X143300700Y-89000000D03*
%TD*%
D12*
%TO.C,R1*%
X155000000Y-78000000D03*
X155000000Y-76000000D03*
%TD*%
D11*
%TO.C,TP12*%
X129000000Y-113000000D03*
%TD*%
%TO.C,TP11*%
X125000000Y-96000000D03*
%TD*%
D18*
%TO.C,SW2*%
X145699300Y-76000000D03*
X152300700Y-76000000D03*
%TD*%
D11*
%TO.C,TP1*%
X146000000Y-82000000D03*
%TD*%
%TO.C,TP16*%
X125000000Y-80000000D03*
%TD*%
%TO.C,TP7*%
X133000000Y-113000000D03*
%TD*%
D16*
%TO.C,REF\u002A\u002A*%
X171000000Y-113000000D03*
%TD*%
D14*
%TO.C,J4*%
X164000000Y-107000000D03*
D15*
X164000000Y-109540000D03*
%TD*%
D11*
%TO.C,TP15*%
X125000000Y-113000000D03*
%TD*%
%TO.C,TP18*%
X124825000Y-87950000D03*
%TD*%
D19*
%TO.C,C6*%
X133000000Y-81000000D03*
X133000000Y-83075000D03*
%TD*%
D16*
%TO.C,REF\u002A\u002A*%
X124000000Y-74000000D03*
%TD*%
D14*
%TO.C,J1*%
X142000000Y-82000000D03*
D15*
X142000000Y-84540000D03*
%TD*%
D20*
%TO.C,R3*%
X132000000Y-86000000D03*
X134000000Y-86000000D03*
%TD*%
D19*
%TO.C,C5*%
X136010000Y-81000000D03*
X136010000Y-83075000D03*
%TD*%
D20*
%TO.C,R5*%
X155000000Y-80000000D03*
X157000000Y-80000000D03*
%TD*%
D14*
%TO.C,J3*%
X142000000Y-95000000D03*
D15*
X142000000Y-97540000D03*
%TD*%
D11*
%TO.C,TP2*%
X146000000Y-86000000D03*
%TD*%
%TO.C,TP4*%
X130000000Y-74000000D03*
%TD*%
%TO.C,TP3*%
X130000000Y-78000000D03*
%TD*%
%TO.C,TP9*%
X129000000Y-109000000D03*
%TD*%
D19*
%TO.C,C7*%
X129990000Y-81000000D03*
X129990000Y-83075000D03*
%TD*%
D11*
%TO.C,TP13*%
X125000000Y-105000000D03*
%TD*%
%TO.C,TP19*%
X124825000Y-92000000D03*
%TD*%
D17*
%TO.C,C2*%
X159000000Y-79037500D03*
X159000000Y-76962500D03*
%TD*%
D14*
%TO.C,J2*%
X154000000Y-107000000D03*
D15*
X154000000Y-109540000D03*
%TD*%
D11*
%TO.C,TP10*%
X125000000Y-100000000D03*
%TD*%
D20*
%TO.C,R6*%
X139000000Y-76000000D03*
X141000000Y-76000000D03*
%TD*%
D11*
%TO.C,TP14*%
X125000000Y-109000000D03*
%TD*%
D17*
%TO.C,C8*%
X134000000Y-91075000D03*
X134000000Y-89000000D03*
%TD*%
D21*
%TO.C,U1*%
X166200000Y-83250000D03*
X164700000Y-83250000D03*
X163200000Y-83250000D03*
X161700000Y-83250000D03*
X160200000Y-83250000D03*
X158700000Y-83250000D03*
X157200000Y-83250000D03*
X155700000Y-83250000D03*
X154200000Y-83250000D03*
X154200000Y-100750000D03*
X155700000Y-100750000D03*
X157200000Y-100750000D03*
X158700000Y-100750000D03*
X160200000Y-100750000D03*
X161700000Y-100750000D03*
X163200000Y-100750000D03*
X164700000Y-100750000D03*
X166200000Y-100750000D03*
D22*
X161100000Y-91860000D03*
X161100000Y-92960000D03*
X161100000Y-94060000D03*
X160000000Y-91860000D03*
X160000000Y-92960000D03*
X160000000Y-94060000D03*
X158900000Y-91860000D03*
X158900000Y-92960000D03*
X158900000Y-94060000D03*
%TD*%
D14*
%TO.C,J5*%
X159000000Y-107000000D03*
D15*
X159000000Y-109540000D03*
%TD*%
D11*
%TO.C,TP17*%
X125000000Y-84000000D03*
%TD*%
D17*
%TO.C,C1*%
X155000000Y-74075000D03*
X155000000Y-72000000D03*
%TD*%
%TO.C,C4*%
X159000000Y-74037500D03*
X159000000Y-71962500D03*
%TD*%
M02*
