M48
; DRILL file {KiCad 8.0.8} date 2025-04-04T16:16:16-0400
; FORMAT={-:-/ absolute / inch / decimal}
; #@! TF.CreationDate,2025-04-04T16:16:16-04:00
; #@! TF.GenerationSoftware,Kicad,Pcbnew,8.0.8
; #@! TF.FileFunction,Plated,1,2,PTH
FMAT,2
INCH
; #@! TA.AperFunction,Plated,PTH,ViaDrill
T1C0.0118
; #@! TA.AperFunction,Plated,PTH,ComponentDrill
T2C0.0118
; #@! TA.AperFunction,Plated,PTH,ComponentDrill
T3C0.0394
%
G90
G05
T1
X5.0787Y-3.622
X5.1575Y-3.5039
X5.1969Y-2.9921
X5.2323Y-3.1102
X5.2362Y-3.2707
X5.2795Y-3.0709
X5.3819Y-3.5039
X5.4724Y-2.9921
X5.7362Y-2.9921
X5.8661Y-4.3815
X5.9055Y-3.2667
X5.9055Y-3.8189
X6.0268Y-3.1858
X6.0709Y-3.2776
X6.1024Y-3.622
X6.1024Y-4.0157
X6.1614Y-3.7953
X6.2199Y-3.9203
X6.2584Y-2.8346
X6.2598Y-2.9149
X6.2598Y-3.189
X6.2992Y-3.8976
X6.2992Y-4.0551
X6.3386Y-4.2913
T2
X6.2559Y-3.6382
X6.2559Y-3.6815
X6.2776Y-3.6165
X6.2776Y-3.6598
X6.2776Y-3.7031
X6.2992Y-3.6382
X6.2992Y-3.6815
X6.3209Y-3.6165
X6.3209Y-3.6598
X6.3209Y-3.7031
X6.3425Y-3.6382
X6.3425Y-3.6815
T3
X4.9144Y-3.4626
X4.9144Y-3.622
X4.9213Y-3.1496
X4.9213Y-3.3071
X4.9213Y-3.7795
X4.9213Y-3.937
X4.9213Y-4.1339
X4.9213Y-4.2913
X4.9213Y-4.4488
X5.0787Y-4.1339
X5.0787Y-4.2913
X5.0787Y-4.4488
X5.1181Y-2.9134
X5.1181Y-3.0709
X5.1969Y-3.7402
X5.1969Y-3.8402
X5.2362Y-4.1339
X5.2362Y-4.2913
X5.2362Y-4.4488
X5.3937Y-3.7402
X5.3937Y-3.8402
X5.4724Y-4.2126
X5.4724Y-4.3126
X5.5906Y-3.2283
X5.5906Y-3.3283
X5.5906Y-3.7402
X5.5906Y-3.8402
X5.6693Y-4.2126
X5.6693Y-4.3126
X5.748Y-3.2283
X5.748Y-3.3858
X5.8661Y-4.2126
X5.8661Y-4.3126
X6.063Y-4.2126
X6.063Y-4.3126
X6.2598Y-4.2126
X6.2598Y-4.3126
X6.4567Y-4.2126
X6.4567Y-4.3126
M30
