%TF.GenerationSoftware,KiCad,Pcbnew,8.0.8*%
%TF.CreationDate,2025-04-04T16:16:18-04:00*%
%TF.ProjectId,ESP32,45535033-322e-46b6-9963-61645f706362,rev?*%
%TF.SameCoordinates,Original*%
%TF.FileFunction,Paste,Top*%
%TF.FilePolarity,Positive*%
%FSLAX46Y46*%
G04 Gerber Fmt 4.6, Leading zero omitted, Abs format (unit mm)*
G04 Created by KiCad (PCBNEW 8.0.8) date 2025-04-04 16:16:18*
%MOMM*%
%LPD*%
G01*
G04 APERTURE LIST*
G04 Aperture macros list*
%AMRoundRect*
0 Rectangle with rounded corners*
0 $1 Rounding radius*
0 $2 $3 $4 $5 $6 $7 $8 $9 X,Y pos of 4 corners*
0 Add a 4 corners polygon primitive as box body*
4,1,4,$2,$3,$4,$5,$6,$7,$8,$9,$2,$3,0*
0 Add four circle primitives for the rounded corners*
1,1,$1+$1,$2,$3*
1,1,$1+$1,$4,$5*
1,1,$1+$1,$6,$7*
1,1,$1+$1,$8,$9*
0 Add four rect primitives between the rounded corners*
20,1,$1+$1,$2,$3,$4,$5,0*
20,1,$1+$1,$4,$5,$6,$7,0*
20,1,$1+$1,$6,$7,$8,$9,0*
20,1,$1+$1,$8,$9,$2,$3,0*%
G04 Aperture macros list end*
%ADD10C,0.010000*%
%ADD11RoundRect,0.250000X0.450000X-0.350000X0.450000X0.350000X-0.450000X0.350000X-0.450000X-0.350000X0*%
%ADD12RoundRect,0.250000X0.450000X-0.325000X0.450000X0.325000X-0.450000X0.325000X-0.450000X-0.325000X0*%
%ADD13RoundRect,0.250000X0.475000X-0.337500X0.475000X0.337500X-0.475000X0.337500X-0.475000X-0.337500X0*%
%ADD14R,2.108200X0.558800*%
%ADD15RoundRect,0.250000X-0.475000X0.337500X-0.475000X-0.337500X0.475000X-0.337500X0.475000X0.337500X0*%
%ADD16RoundRect,0.250000X-0.350000X-0.450000X0.350000X-0.450000X0.350000X0.450000X-0.350000X0.450000X0*%
%ADD17R,0.900000X1.500000*%
%ADD18R,0.700000X0.700000*%
G04 APERTURE END LIST*
D10*
%TO.C,MT1*%
X133062500Y-75369000D02*
X132612500Y-75369000D01*
X132612500Y-75131000D01*
X133062500Y-75131000D01*
X133062500Y-75369000D01*
G36*
X133062500Y-75369000D02*
G01*
X132612500Y-75369000D01*
X132612500Y-75131000D01*
X133062500Y-75131000D01*
X133062500Y-75369000D01*
G37*
X133062500Y-75869000D02*
X132612500Y-75869000D01*
X132612500Y-75631000D01*
X133062500Y-75631000D01*
X133062500Y-75869000D01*
G36*
X133062500Y-75869000D02*
G01*
X132612500Y-75869000D01*
X132612500Y-75631000D01*
X133062500Y-75631000D01*
X133062500Y-75869000D01*
G37*
X133062500Y-76369000D02*
X132612500Y-76369000D01*
X132612500Y-76131000D01*
X133062500Y-76131000D01*
X133062500Y-76369000D01*
G36*
X133062500Y-76369000D02*
G01*
X132612500Y-76369000D01*
X132612500Y-76131000D01*
X133062500Y-76131000D01*
X133062500Y-76369000D01*
G37*
X133062500Y-76869000D02*
X132612500Y-76869000D01*
X132612500Y-76631000D01*
X133062500Y-76631000D01*
X133062500Y-76869000D01*
G36*
X133062500Y-76869000D02*
G01*
X132612500Y-76869000D01*
X132612500Y-76631000D01*
X133062500Y-76631000D01*
X133062500Y-76869000D01*
G37*
X133619000Y-75312500D02*
X133381000Y-75312500D01*
X133381000Y-74862500D01*
X133619000Y-74862500D01*
X133619000Y-75312500D01*
G36*
X133619000Y-75312500D02*
G01*
X133381000Y-75312500D01*
X133381000Y-74862500D01*
X133619000Y-74862500D01*
X133619000Y-75312500D01*
G37*
X133619000Y-77137500D02*
X133381000Y-77137500D01*
X133381000Y-76687500D01*
X133619000Y-76687500D01*
X133619000Y-77137500D01*
G36*
X133619000Y-77137500D02*
G01*
X133381000Y-77137500D01*
X133381000Y-76687500D01*
X133619000Y-76687500D01*
X133619000Y-77137500D01*
G37*
X134119000Y-75312500D02*
X133881000Y-75312500D01*
X133881000Y-74862500D01*
X134119000Y-74862500D01*
X134119000Y-75312500D01*
G36*
X134119000Y-75312500D02*
G01*
X133881000Y-75312500D01*
X133881000Y-74862500D01*
X134119000Y-74862500D01*
X134119000Y-75312500D01*
G37*
X134119000Y-77137500D02*
X133881000Y-77137500D01*
X133881000Y-76687500D01*
X134119000Y-76687500D01*
X134119000Y-77137500D01*
G36*
X134119000Y-77137500D02*
G01*
X133881000Y-77137500D01*
X133881000Y-76687500D01*
X134119000Y-76687500D01*
X134119000Y-77137500D01*
G37*
X134619000Y-75312500D02*
X134381000Y-75312500D01*
X134381000Y-74862500D01*
X134619000Y-74862500D01*
X134619000Y-75312500D01*
G36*
X134619000Y-75312500D02*
G01*
X134381000Y-75312500D01*
X134381000Y-74862500D01*
X134619000Y-74862500D01*
X134619000Y-75312500D01*
G37*
X134619000Y-77137500D02*
X134381000Y-77137500D01*
X134381000Y-76687500D01*
X134619000Y-76687500D01*
X134619000Y-77137500D01*
G36*
X134619000Y-77137500D02*
G01*
X134381000Y-77137500D01*
X134381000Y-76687500D01*
X134619000Y-76687500D01*
X134619000Y-77137500D01*
G37*
X135387500Y-75369000D02*
X134937500Y-75369000D01*
X134937500Y-75131000D01*
X135387500Y-75131000D01*
X135387500Y-75369000D01*
G36*
X135387500Y-75369000D02*
G01*
X134937500Y-75369000D01*
X134937500Y-75131000D01*
X135387500Y-75131000D01*
X135387500Y-75369000D01*
G37*
X135387500Y-75869000D02*
X134937500Y-75869000D01*
X134937500Y-75631000D01*
X135387500Y-75631000D01*
X135387500Y-75869000D01*
G36*
X135387500Y-75869000D02*
G01*
X134937500Y-75869000D01*
X134937500Y-75631000D01*
X135387500Y-75631000D01*
X135387500Y-75869000D01*
G37*
X135387500Y-76369000D02*
X134937500Y-76369000D01*
X134937500Y-76131000D01*
X135387500Y-76131000D01*
X135387500Y-76369000D01*
G36*
X135387500Y-76369000D02*
G01*
X134937500Y-76369000D01*
X134937500Y-76131000D01*
X135387500Y-76131000D01*
X135387500Y-76369000D01*
G37*
X135387500Y-76869000D02*
X134937500Y-76869000D01*
X134937500Y-76631000D01*
X135387500Y-76631000D01*
X135387500Y-76869000D01*
G36*
X135387500Y-76869000D02*
G01*
X134937500Y-76869000D01*
X134937500Y-76631000D01*
X135387500Y-76631000D01*
X135387500Y-76869000D01*
G37*
%TD*%
D11*
%TO.C,R2*%
X150000000Y-89000000D03*
X150000000Y-87000000D03*
%TD*%
D12*
%TO.C,D1*%
X150000000Y-85025000D03*
X150000000Y-82975000D03*
%TD*%
D11*
%TO.C,R4*%
X129000000Y-94000000D03*
X129000000Y-92000000D03*
%TD*%
D13*
%TO.C,C3*%
X163000000Y-79037500D03*
X163000000Y-76962500D03*
%TD*%
D14*
%TO.C,SW1*%
X136699300Y-89000000D03*
X143300700Y-89000000D03*
%TD*%
D11*
%TO.C,R1*%
X155000000Y-78000000D03*
X155000000Y-76000000D03*
%TD*%
D14*
%TO.C,SW2*%
X145699300Y-76000000D03*
X152300700Y-76000000D03*
%TD*%
D15*
%TO.C,C6*%
X133000000Y-81000000D03*
X133000000Y-83075000D03*
%TD*%
D16*
%TO.C,R3*%
X132000000Y-86000000D03*
X134000000Y-86000000D03*
%TD*%
D15*
%TO.C,C5*%
X136010000Y-81000000D03*
X136010000Y-83075000D03*
%TD*%
D16*
%TO.C,R5*%
X155000000Y-80000000D03*
X157000000Y-80000000D03*
%TD*%
D15*
%TO.C,C7*%
X129990000Y-81000000D03*
X129990000Y-83075000D03*
%TD*%
D13*
%TO.C,C2*%
X159000000Y-79037500D03*
X159000000Y-76962500D03*
%TD*%
D16*
%TO.C,R6*%
X139000000Y-76000000D03*
X141000000Y-76000000D03*
%TD*%
D13*
%TO.C,C8*%
X134000000Y-91075000D03*
X134000000Y-89000000D03*
%TD*%
D17*
%TO.C,U1*%
X166200000Y-83250000D03*
X164700000Y-83250000D03*
X163200000Y-83250000D03*
X161700000Y-83250000D03*
X160200000Y-83250000D03*
X158700000Y-83250000D03*
X157200000Y-83250000D03*
X155700000Y-83250000D03*
X154200000Y-83250000D03*
X154200000Y-100750000D03*
X155700000Y-100750000D03*
X157200000Y-100750000D03*
X158700000Y-100750000D03*
X160200000Y-100750000D03*
X161700000Y-100750000D03*
X163200000Y-100750000D03*
X164700000Y-100750000D03*
X166200000Y-100750000D03*
D18*
X161100000Y-91860000D03*
X161100000Y-92960000D03*
X161100000Y-94060000D03*
X160000000Y-91860000D03*
X160000000Y-92960000D03*
X160000000Y-94060000D03*
X158900000Y-91860000D03*
X158900000Y-92960000D03*
X158900000Y-94060000D03*
%TD*%
D13*
%TO.C,C1*%
X155000000Y-74075000D03*
X155000000Y-72000000D03*
%TD*%
%TO.C,C4*%
X159000000Y-74037500D03*
X159000000Y-71962500D03*
%TD*%
M02*
