%TF.GenerationSoftware,KiCad,Pcbnew,8.0.8*%
%TF.CreationDate,2025-04-04T16:16:18-04:00*%
%TF.ProjectId,ESP32,45535033-322e-46b6-9963-61645f706362,rev?*%
%TF.SameCoordinates,Original*%
%TF.FileFunction,Copper,L2,Bot*%
%TF.FilePolarity,Positive*%
%FSLAX46Y46*%
G04 Gerber Fmt 4.6, Leading zero omitted, Abs format (unit mm)*
G04 Created by KiCad (PCBNEW 8.0.8) date 2025-04-04 16:16:18*
%MOMM*%
%LPD*%
G01*
G04 APERTURE LIST*
%TA.AperFunction,ComponentPad*%
%ADD10R,2.000000X2.000000*%
%TD*%
%TA.AperFunction,ComponentPad*%
%ADD11R,1.700000X1.700000*%
%TD*%
%TA.AperFunction,ComponentPad*%
%ADD12O,1.700000X1.700000*%
%TD*%
%TA.AperFunction,ComponentPad*%
%ADD13C,0.450000*%
%TD*%
%TA.AperFunction,ViaPad*%
%ADD14C,0.600000*%
%TD*%
%TA.AperFunction,Conductor*%
%ADD15C,0.762000*%
%TD*%
%TA.AperFunction,Conductor*%
%ADD16C,0.200000*%
%TD*%
G04 APERTURE END LIST*
D10*
%TO.P,TP5,1,1*%
%TO.N,/0*%
X133000000Y-105000000D03*
%TD*%
%TO.P,TP6,1,1*%
%TO.N,/1*%
X133000000Y-109000000D03*
%TD*%
D11*
%TO.P,J6,1,Pin_1*%
%TO.N,/3*%
X149000000Y-107000000D03*
D12*
%TO.P,J6,2,Pin_2*%
%TO.N,/4*%
X149000000Y-109540000D03*
%TD*%
D10*
%TO.P,TP8,1,1*%
%TO.N,/3*%
X129000000Y-105000000D03*
%TD*%
D11*
%TO.P,J8,1,Pin_1*%
%TO.N,/9*%
X139000000Y-107000000D03*
D12*
%TO.P,J8,2,Pin_2*%
%TO.N,/10*%
X139000000Y-109540000D03*
%TD*%
D11*
%TO.P,J10,1,Pin_1*%
%TO.N,/SDA*%
X132000000Y-95000000D03*
D12*
%TO.P,J10,2,Pin_2*%
%TO.N,/SCL*%
X132000000Y-97540000D03*
%TD*%
D11*
%TO.P,J7,1,Pin_1*%
%TO.N,/7*%
X144000000Y-107000000D03*
D12*
%TO.P,J7,2,Pin_2*%
%TO.N,/8*%
X144000000Y-109540000D03*
%TD*%
D11*
%TO.P,J9,1,Pin_1*%
%TO.N,/SDA*%
X137000000Y-95000000D03*
D12*
%TO.P,J9,2,Pin_2*%
%TO.N,/SCL*%
X137000000Y-97540000D03*
%TD*%
D10*
%TO.P,TP12,1,1*%
%TO.N,/7*%
X129000000Y-113000000D03*
%TD*%
%TO.P,TP11,1,1*%
%TO.N,/D-*%
X125000000Y-96000000D03*
%TD*%
%TO.P,TP1,1,1*%
%TO.N,+3.3V*%
X146000000Y-82000000D03*
%TD*%
%TO.P,TP16,1,1*%
%TO.N,/AD0*%
X125000000Y-80000000D03*
%TD*%
%TO.P,TP7,1,1*%
%TO.N,/2*%
X133000000Y-113000000D03*
%TD*%
D11*
%TO.P,J4,1,Pin_1*%
%TO.N,/0*%
X164000000Y-107000000D03*
D12*
%TO.P,J4,2,Pin_2*%
%TO.N,unconnected-(J4-Pin_2-Pad2)*%
X164000000Y-109540000D03*
%TD*%
D10*
%TO.P,TP15,1,1*%
%TO.N,/10*%
X125000000Y-113000000D03*
%TD*%
%TO.P,TP18,1,1*%
%TO.N,/TXD*%
X124825000Y-87950000D03*
%TD*%
D11*
%TO.P,J1,1,Pin_1*%
%TO.N,+3.3V*%
X142000000Y-82000000D03*
D12*
%TO.P,J1,2,Pin_2*%
%TO.N,GND*%
X142000000Y-84540000D03*
%TD*%
D11*
%TO.P,J3,1,Pin_1*%
%TO.N,/SDA*%
X142000000Y-95000000D03*
D12*
%TO.P,J3,2,Pin_2*%
%TO.N,/SCL*%
X142000000Y-97540000D03*
%TD*%
D10*
%TO.P,TP2,1,1*%
%TO.N,GND*%
X146000000Y-86000000D03*
%TD*%
%TO.P,TP4,1,1*%
%TO.N,/SCL*%
X130000000Y-74000000D03*
%TD*%
%TO.P,TP3,1,1*%
%TO.N,/SDA*%
X130000000Y-78000000D03*
%TD*%
%TO.P,TP9,1,1*%
%TO.N,/4*%
X129000000Y-109000000D03*
%TD*%
%TO.P,TP13,1,1*%
%TO.N,/8*%
X125000000Y-105000000D03*
%TD*%
%TO.P,TP19,1,1*%
%TO.N,/RXD*%
X124825000Y-92000000D03*
%TD*%
D11*
%TO.P,J2,1,Pin_1*%
%TO.N,/D+*%
X154000000Y-107000000D03*
D12*
%TO.P,J2,2,Pin_2*%
%TO.N,/D-*%
X154000000Y-109540000D03*
%TD*%
D10*
%TO.P,TP10,1,1*%
%TO.N,/D+*%
X125000000Y-100000000D03*
%TD*%
%TO.P,TP14,1,1*%
%TO.N,/9*%
X125000000Y-109000000D03*
%TD*%
D13*
%TO.P,U1,28,GND__10*%
%TO.N,GND*%
X161100000Y-92410000D03*
%TO.P,U1,29,GND__11*%
X161100000Y-93510000D03*
%TO.P,U1,30,GND__12*%
X160550000Y-91860000D03*
%TO.P,U1,31,GND__13*%
X160550000Y-92960000D03*
%TO.P,U1,32,GND__14*%
X160550000Y-94060000D03*
%TO.P,U1,33,GND__15*%
X160000000Y-92410000D03*
%TO.P,U1,34,GND__16*%
X160000000Y-93510000D03*
%TO.P,U1,35,GND__17*%
X159450000Y-91860000D03*
%TO.P,U1,36,GND__18*%
X159450000Y-92960000D03*
%TO.P,U1,37,GND__19*%
X159450000Y-94060000D03*
%TO.P,U1,38,GND__20*%
X158900000Y-92410000D03*
%TO.P,U1,39,GND__21*%
X158900000Y-93510000D03*
%TD*%
D11*
%TO.P,J5,1,Pin_1*%
%TO.N,/1*%
X159000000Y-107000000D03*
D12*
%TO.P,J5,2,Pin_2*%
%TO.N,/2*%
X159000000Y-109540000D03*
%TD*%
D10*
%TO.P,TP17,1,1*%
%TO.N,/INT*%
X125000000Y-84000000D03*
%TD*%
D14*
%TO.N,GND*%
X133000000Y-83075000D03*
X158962500Y-72000000D03*
X134100000Y-78000000D03*
X154200000Y-83250000D03*
X145699300Y-76000000D03*
X136699300Y-89000000D03*
%TO.N,+3.3V*%
X150000000Y-82975000D03*
X153081540Y-80918460D03*
X129000000Y-92000000D03*
X131000000Y-89000000D03*
%TO.N,/D+*%
X160000000Y-99000000D03*
%TO.N,/D-*%
X156500000Y-96400000D03*
%TO.N,/SCL*%
X150000000Y-97000000D03*
%TO.N,/SDA*%
X155000000Y-92000000D03*
%TO.N,/1*%
X161000000Y-109000000D03*
%TO.N,/4*%
X149000000Y-111290000D03*
%TO.N,/3*%
X160000000Y-103000000D03*
%TO.N,/AD0*%
X132000000Y-76000000D03*
X139000000Y-76000000D03*
%TO.N,/INT*%
X132900000Y-79000000D03*
%TO.N,/TXD*%
X157985000Y-99576000D03*
%TO.N,/RXD*%
X155000000Y-102000000D03*
%TO.N,Net-(U1-EN)*%
X159000000Y-81000000D03*
X159000000Y-74037500D03*
%TD*%
D15*
%TO.N,+3.3V*%
X131000000Y-90000000D02*
X129000000Y-92000000D01*
X152056540Y-80918460D02*
X150000000Y-82975000D01*
X153081540Y-80918460D02*
X152056540Y-80918460D01*
X131000000Y-89000000D02*
X131000000Y-90000000D01*
D16*
%TO.N,/D+*%
X158000000Y-97000000D02*
X154000000Y-97000000D01*
X151000000Y-100000000D02*
X125000000Y-100000000D01*
X160000000Y-99000000D02*
X158000000Y-97000000D01*
X154000000Y-97000000D02*
X151000000Y-100000000D01*
%TO.N,/D-*%
X156250000Y-96150000D02*
X127075000Y-96150000D01*
X126925000Y-96000000D02*
X125000000Y-96000000D01*
X127075000Y-96150000D02*
X126925000Y-96000000D01*
X156500000Y-96400000D02*
X156250000Y-96150000D01*
%TO.N,/SCL*%
X150000000Y-97000000D02*
X142525000Y-97000000D01*
X142525000Y-97000000D02*
X142000000Y-97525000D01*
%TO.N,/SDA*%
X154000000Y-92000000D02*
X151000000Y-95000000D01*
X132000000Y-95000000D02*
X137000000Y-95000000D01*
X151000000Y-95000000D02*
X142000000Y-95000000D01*
X155000000Y-92000000D02*
X154000000Y-92000000D01*
X137000000Y-95000000D02*
X142000000Y-95000000D01*
%TO.N,/0*%
X162850000Y-108150000D02*
X164000000Y-107000000D01*
X136150000Y-108150000D02*
X162850000Y-108150000D01*
X133000000Y-105000000D02*
X136150000Y-108150000D01*
%TO.N,/1*%
X159476346Y-110690000D02*
X161000000Y-109166346D01*
X134690000Y-110690000D02*
X159476346Y-110690000D01*
X133000000Y-109000000D02*
X134690000Y-110690000D01*
X161000000Y-109166346D02*
X161000000Y-109000000D01*
%TO.N,/4*%
X129000000Y-109000000D02*
X127700000Y-110300000D01*
X127700000Y-114300000D02*
X128400000Y-115000000D01*
X128400000Y-115000000D02*
X145290000Y-115000000D01*
X127700000Y-110300000D02*
X127700000Y-114300000D01*
X145290000Y-115000000D02*
X149000000Y-111290000D01*
%TO.N,/3*%
X144600000Y-102600000D02*
X149000000Y-107000000D01*
X131400000Y-102600000D02*
X144600000Y-102600000D01*
X155700000Y-103000000D02*
X151700000Y-107000000D01*
X160000000Y-103000000D02*
X155700000Y-103000000D01*
X151700000Y-107000000D02*
X149000000Y-107000000D01*
X129000000Y-105000000D02*
X131400000Y-102600000D01*
%TO.N,/7*%
X130300000Y-105100000D02*
X130300000Y-111700000D01*
X132400000Y-103000000D02*
X130300000Y-105100000D01*
X140000000Y-103000000D02*
X132400000Y-103000000D01*
X130300000Y-111700000D02*
X129000000Y-113000000D01*
X144000000Y-107000000D02*
X140000000Y-103000000D01*
%TO.N,/AD0*%
X132000000Y-76000000D02*
X139000000Y-76000000D01*
X132000000Y-76000000D02*
X129000000Y-76000000D01*
X129000000Y-76000000D02*
X125000000Y-80000000D01*
%TO.N,/INT*%
X132900000Y-79000000D02*
X127900000Y-84000000D01*
X127900000Y-84000000D02*
X125000000Y-84000000D01*
%TO.N,/TXD*%
X158009000Y-99600000D02*
X160248529Y-99600000D01*
X160248529Y-99600000D02*
X160600000Y-99248529D01*
X160600000Y-99248529D02*
X160600000Y-96751471D01*
X157985000Y-99576000D02*
X158009000Y-99600000D01*
X160600000Y-96751471D02*
X151798529Y-87950000D01*
X151798529Y-87950000D02*
X124825000Y-87950000D01*
%TO.N,/RXD*%
X123000000Y-101300000D02*
X123000000Y-93825000D01*
X123000000Y-93825000D02*
X124825000Y-92000000D01*
X123700000Y-102000000D02*
X123000000Y-101300000D01*
X155000000Y-102000000D02*
X123700000Y-102000000D01*
%TO.N,Net-(U1-EN)*%
X159000000Y-81000000D02*
X159000000Y-74037500D01*
%TD*%
%TA.AperFunction,Conductor*%
%TO.N,GND*%
G36*
X166943039Y-70520185D02*
G01*
X166988794Y-70572989D01*
X167000000Y-70624500D01*
X167000000Y-116375500D01*
X166980315Y-116442539D01*
X166927511Y-116488294D01*
X166876000Y-116499500D01*
X120624500Y-116499500D01*
X120557461Y-116479815D01*
X120511706Y-116427011D01*
X120500500Y-116375500D01*
X120500500Y-111952135D01*
X123499500Y-111952135D01*
X123499500Y-114047870D01*
X123499501Y-114047876D01*
X123505908Y-114107483D01*
X123556202Y-114242328D01*
X123556206Y-114242335D01*
X123642452Y-114357544D01*
X123642455Y-114357547D01*
X123757664Y-114443793D01*
X123757671Y-114443797D01*
X123892517Y-114494091D01*
X123892516Y-114494091D01*
X123899444Y-114494835D01*
X123952127Y-114500500D01*
X126047872Y-114500499D01*
X126107483Y-114494091D01*
X126242331Y-114443796D01*
X126357546Y-114357546D01*
X126443796Y-114242331D01*
X126494091Y-114107483D01*
X126500500Y-114047873D01*
X126500499Y-111952128D01*
X126494091Y-111892517D01*
X126456698Y-111792262D01*
X126443797Y-111757671D01*
X126443793Y-111757664D01*
X126357547Y-111642455D01*
X126357544Y-111642452D01*
X126242335Y-111556206D01*
X126242328Y-111556202D01*
X126107482Y-111505908D01*
X126107483Y-111505908D01*
X126047883Y-111499501D01*
X126047881Y-111499500D01*
X126047873Y-111499500D01*
X126047864Y-111499500D01*
X123952129Y-111499500D01*
X123952123Y-111499501D01*
X123892516Y-111505908D01*
X123757671Y-111556202D01*
X123757664Y-111556206D01*
X123642455Y-111642452D01*
X123642452Y-111642455D01*
X123556206Y-111757664D01*
X123556202Y-111757671D01*
X123505908Y-111892517D01*
X123499501Y-111952116D01*
X123499501Y-111952123D01*
X123499500Y-111952135D01*
X120500500Y-111952135D01*
X120500500Y-107952135D01*
X123499500Y-107952135D01*
X123499500Y-110047870D01*
X123499501Y-110047876D01*
X123505908Y-110107483D01*
X123556202Y-110242328D01*
X123556206Y-110242335D01*
X123642452Y-110357544D01*
X123642455Y-110357547D01*
X123757664Y-110443793D01*
X123757671Y-110443797D01*
X123892517Y-110494091D01*
X123892516Y-110494091D01*
X123899444Y-110494835D01*
X123952127Y-110500500D01*
X126047872Y-110500499D01*
X126107483Y-110494091D01*
X126242331Y-110443796D01*
X126357546Y-110357546D01*
X126443796Y-110242331D01*
X126494091Y-110107483D01*
X126500500Y-110047873D01*
X126500499Y-107952128D01*
X126494091Y-107892517D01*
X126443796Y-107757669D01*
X126443795Y-107757668D01*
X126443793Y-107757664D01*
X126357547Y-107642455D01*
X126357544Y-107642452D01*
X126242335Y-107556206D01*
X126242328Y-107556202D01*
X126107482Y-107505908D01*
X126107483Y-107505908D01*
X126047883Y-107499501D01*
X126047881Y-107499500D01*
X126047873Y-107499500D01*
X126047864Y-107499500D01*
X123952129Y-107499500D01*
X123952123Y-107499501D01*
X123892516Y-107505908D01*
X123757671Y-107556202D01*
X123757664Y-107556206D01*
X123642455Y-107642452D01*
X123642452Y-107642455D01*
X123556206Y-107757664D01*
X123556202Y-107757671D01*
X123505908Y-107892517D01*
X123499501Y-107952116D01*
X123499501Y-107952123D01*
X123499500Y-107952135D01*
X120500500Y-107952135D01*
X120500500Y-103952135D01*
X123499500Y-103952135D01*
X123499500Y-106047870D01*
X123499501Y-106047876D01*
X123505908Y-106107483D01*
X123556202Y-106242328D01*
X123556206Y-106242335D01*
X123642452Y-106357544D01*
X123642455Y-106357547D01*
X123757664Y-106443793D01*
X123757671Y-106443797D01*
X123892517Y-106494091D01*
X123892516Y-106494091D01*
X123899444Y-106494835D01*
X123952127Y-106500500D01*
X126047872Y-106500499D01*
X126107483Y-106494091D01*
X126242331Y-106443796D01*
X126357546Y-106357546D01*
X126443796Y-106242331D01*
X126494091Y-106107483D01*
X126500500Y-106047873D01*
X126500499Y-103952128D01*
X126494091Y-103892517D01*
X126454127Y-103785369D01*
X126443797Y-103757671D01*
X126443793Y-103757664D01*
X126357547Y-103642455D01*
X126357544Y-103642452D01*
X126242335Y-103556206D01*
X126242328Y-103556202D01*
X126107482Y-103505908D01*
X126107483Y-103505908D01*
X126047883Y-103499501D01*
X126047881Y-103499500D01*
X126047873Y-103499500D01*
X126047864Y-103499500D01*
X123952129Y-103499500D01*
X123952123Y-103499501D01*
X123892516Y-103505908D01*
X123757671Y-103556202D01*
X123757664Y-103556206D01*
X123642455Y-103642452D01*
X123642452Y-103642455D01*
X123556206Y-103757664D01*
X123556202Y-103757671D01*
X123505908Y-103892517D01*
X123499501Y-103952116D01*
X123499501Y-103952123D01*
X123499500Y-103952135D01*
X120500500Y-103952135D01*
X120500500Y-101379054D01*
X122399498Y-101379054D01*
X122440423Y-101531786D01*
X122440424Y-101531787D01*
X122459871Y-101565470D01*
X122508950Y-101650478D01*
X122519481Y-101668717D01*
X122638349Y-101787585D01*
X122638355Y-101787590D01*
X123215139Y-102364374D01*
X123215149Y-102364385D01*
X123219479Y-102368715D01*
X123219480Y-102368716D01*
X123331284Y-102480520D01*
X123331286Y-102480521D01*
X123331290Y-102480524D01*
X123468209Y-102559573D01*
X123468216Y-102559577D01*
X123580019Y-102589534D01*
X123620942Y-102600500D01*
X123620943Y-102600500D01*
X130250902Y-102600500D01*
X130317941Y-102620185D01*
X130363696Y-102672989D01*
X130373640Y-102742147D01*
X130344615Y-102805703D01*
X130338583Y-102812181D01*
X129687582Y-103463181D01*
X129626259Y-103496666D01*
X129599901Y-103499500D01*
X127952129Y-103499500D01*
X127952123Y-103499501D01*
X127892516Y-103505908D01*
X127757671Y-103556202D01*
X127757664Y-103556206D01*
X127642455Y-103642452D01*
X127642452Y-103642455D01*
X127556206Y-103757664D01*
X127556202Y-103757671D01*
X127505908Y-103892517D01*
X127499501Y-103952116D01*
X127499501Y-103952123D01*
X127499500Y-103952135D01*
X127499500Y-106047870D01*
X127499501Y-106047876D01*
X127505908Y-106107483D01*
X127556202Y-106242328D01*
X127556206Y-106242335D01*
X127642452Y-106357544D01*
X127642455Y-106357547D01*
X127757664Y-106443793D01*
X127757671Y-106443797D01*
X127892517Y-106494091D01*
X127892516Y-106494091D01*
X127899444Y-106494835D01*
X127952127Y-106500500D01*
X129575500Y-106500499D01*
X129642539Y-106520184D01*
X129688294Y-106572987D01*
X129699500Y-106624499D01*
X129699500Y-107375500D01*
X129679815Y-107442539D01*
X129627011Y-107488294D01*
X129575500Y-107499500D01*
X127952129Y-107499500D01*
X127952123Y-107499501D01*
X127892516Y-107505908D01*
X127757671Y-107556202D01*
X127757664Y-107556206D01*
X127642455Y-107642452D01*
X127642452Y-107642455D01*
X127556206Y-107757664D01*
X127556202Y-107757671D01*
X127505908Y-107892517D01*
X127499501Y-107952116D01*
X127499501Y-107952123D01*
X127499500Y-107952135D01*
X127499500Y-109599900D01*
X127479815Y-109666939D01*
X127463182Y-109687581D01*
X127331286Y-109819478D01*
X127331285Y-109819477D01*
X127331284Y-109819480D01*
X127219481Y-109931282D01*
X127219480Y-109931284D01*
X127177693Y-110003663D01*
X127171775Y-110013913D01*
X127171773Y-110013915D01*
X127140425Y-110068209D01*
X127140424Y-110068210D01*
X127129901Y-110107482D01*
X127099499Y-110220943D01*
X127099499Y-110220945D01*
X127099499Y-110389046D01*
X127099500Y-110389059D01*
X127099500Y-114213330D01*
X127099499Y-114213348D01*
X127099499Y-114379054D01*
X127099498Y-114379054D01*
X127140423Y-114531785D01*
X127169358Y-114581900D01*
X127169359Y-114581904D01*
X127169360Y-114581904D01*
X127219479Y-114668714D01*
X127219481Y-114668717D01*
X127338349Y-114787585D01*
X127338355Y-114787590D01*
X127915139Y-115364374D01*
X127915149Y-115364385D01*
X127919479Y-115368715D01*
X127919480Y-115368716D01*
X128031284Y-115480520D01*
X128031286Y-115480521D01*
X128031290Y-115480524D01*
X128168209Y-115559573D01*
X128168216Y-115559577D01*
X128280019Y-115589534D01*
X128320942Y-115600500D01*
X128320943Y-115600500D01*
X145203331Y-115600500D01*
X145203347Y-115600501D01*
X145210943Y-115600501D01*
X145369054Y-115600501D01*
X145369057Y-115600501D01*
X145521785Y-115559577D01*
X145571904Y-115530639D01*
X145658716Y-115480520D01*
X145770520Y-115368716D01*
X145770520Y-115368714D01*
X145780728Y-115358507D01*
X145780730Y-115358504D01*
X149018535Y-112120698D01*
X149079856Y-112087215D01*
X149092311Y-112085163D01*
X149179255Y-112075368D01*
X149349522Y-112015789D01*
X149502262Y-111919816D01*
X149629816Y-111792262D01*
X149725789Y-111639522D01*
X149785368Y-111469255D01*
X149788379Y-111442539D01*
X149793102Y-111400617D01*
X149820168Y-111336203D01*
X149877763Y-111296648D01*
X149916322Y-111290500D01*
X159389677Y-111290500D01*
X159389693Y-111290501D01*
X159397289Y-111290501D01*
X159555400Y-111290501D01*
X159555403Y-111290501D01*
X159708131Y-111249577D01*
X159719148Y-111243215D01*
X159760259Y-111219481D01*
X159760260Y-111219480D01*
X159845062Y-111170520D01*
X159956866Y-111058716D01*
X159956866Y-111058714D01*
X159967070Y-111048511D01*
X159967074Y-111048506D01*
X161237629Y-109777950D01*
X161284353Y-109748592D01*
X161349522Y-109725789D01*
X161502262Y-109629816D01*
X161629816Y-109502262D01*
X161725789Y-109349522D01*
X161785368Y-109179255D01*
X161785369Y-109179249D01*
X161805565Y-109000003D01*
X161805565Y-108999997D01*
X161792989Y-108888384D01*
X161805043Y-108819562D01*
X161852392Y-108768182D01*
X161916209Y-108750500D01*
X162683397Y-108750500D01*
X162750436Y-108770185D01*
X162796191Y-108822989D01*
X162806135Y-108892147D01*
X162795779Y-108926905D01*
X162726097Y-109076335D01*
X162726094Y-109076344D01*
X162664938Y-109304586D01*
X162664936Y-109304596D01*
X162644341Y-109539999D01*
X162644341Y-109540000D01*
X162664936Y-109775403D01*
X162664938Y-109775413D01*
X162726094Y-110003655D01*
X162726096Y-110003659D01*
X162726097Y-110003663D01*
X162765715Y-110088623D01*
X162825965Y-110217830D01*
X162825967Y-110217834D01*
X162923794Y-110357544D01*
X162961505Y-110411401D01*
X163128599Y-110578495D01*
X163225384Y-110646265D01*
X163322165Y-110714032D01*
X163322167Y-110714033D01*
X163322170Y-110714035D01*
X163536337Y-110813903D01*
X163764592Y-110875063D01*
X163952918Y-110891539D01*
X163999999Y-110895659D01*
X164000000Y-110895659D01*
X164000001Y-110895659D01*
X164039234Y-110892226D01*
X164235408Y-110875063D01*
X164463663Y-110813903D01*
X164677830Y-110714035D01*
X164871401Y-110578495D01*
X165038495Y-110411401D01*
X165174035Y-110217830D01*
X165273903Y-110003663D01*
X165335063Y-109775408D01*
X165355659Y-109540000D01*
X165335063Y-109304592D01*
X165273903Y-109076337D01*
X165174035Y-108862171D01*
X165145028Y-108820745D01*
X165038496Y-108668600D01*
X165000414Y-108630518D01*
X164916567Y-108546671D01*
X164883084Y-108485351D01*
X164888068Y-108415659D01*
X164929939Y-108359725D01*
X164960915Y-108342810D01*
X165092331Y-108293796D01*
X165207546Y-108207546D01*
X165293796Y-108092331D01*
X165344091Y-107957483D01*
X165350500Y-107897873D01*
X165350499Y-106102128D01*
X165344091Y-106042517D01*
X165293796Y-105907669D01*
X165293795Y-105907668D01*
X165293793Y-105907664D01*
X165207547Y-105792455D01*
X165207544Y-105792452D01*
X165092335Y-105706206D01*
X165092328Y-105706202D01*
X164957482Y-105655908D01*
X164957483Y-105655908D01*
X164897883Y-105649501D01*
X164897881Y-105649500D01*
X164897873Y-105649500D01*
X164897864Y-105649500D01*
X163102129Y-105649500D01*
X163102123Y-105649501D01*
X163042516Y-105655908D01*
X162907671Y-105706202D01*
X162907664Y-105706206D01*
X162792455Y-105792452D01*
X162792452Y-105792455D01*
X162706206Y-105907664D01*
X162706202Y-105907671D01*
X162655908Y-106042517D01*
X162649501Y-106102116D01*
X162649501Y-106102123D01*
X162649500Y-106102135D01*
X162649500Y-107425500D01*
X162629815Y-107492539D01*
X162577011Y-107538294D01*
X162525500Y-107549500D01*
X160474500Y-107549500D01*
X160407461Y-107529815D01*
X160361706Y-107477011D01*
X160350500Y-107425500D01*
X160350499Y-106102129D01*
X160350498Y-106102123D01*
X160350497Y-106102116D01*
X160344091Y-106042517D01*
X160293796Y-105907669D01*
X160293795Y-105907668D01*
X160293793Y-105907664D01*
X160207547Y-105792455D01*
X160207544Y-105792452D01*
X160092335Y-105706206D01*
X160092328Y-105706202D01*
X159957482Y-105655908D01*
X159957483Y-105655908D01*
X159897883Y-105649501D01*
X159897881Y-105649500D01*
X159897873Y-105649500D01*
X159897864Y-105649500D01*
X158102129Y-105649500D01*
X158102123Y-105649501D01*
X158042516Y-105655908D01*
X157907671Y-105706202D01*
X157907664Y-105706206D01*
X157792455Y-105792452D01*
X157792452Y-105792455D01*
X157706206Y-105907664D01*
X157706202Y-105907671D01*
X157655908Y-106042517D01*
X157649501Y-106102116D01*
X157649501Y-106102123D01*
X157649500Y-106102135D01*
X157649501Y-107425500D01*
X157629816Y-107492539D01*
X157577013Y-107538294D01*
X157525501Y-107549500D01*
X155474500Y-107549500D01*
X155407461Y-107529815D01*
X155361706Y-107477011D01*
X155350500Y-107425500D01*
X155350499Y-106102129D01*
X155350498Y-106102123D01*
X155350497Y-106102116D01*
X155344091Y-106042517D01*
X155293796Y-105907669D01*
X155293795Y-105907668D01*
X155293793Y-105907664D01*
X155207547Y-105792455D01*
X155207544Y-105792452D01*
X155092335Y-105706206D01*
X155092328Y-105706202D01*
X154957482Y-105655908D01*
X154957483Y-105655908D01*
X154897883Y-105649501D01*
X154897881Y-105649500D01*
X154897873Y-105649500D01*
X154897865Y-105649500D01*
X154199096Y-105649500D01*
X154132057Y-105629815D01*
X154086302Y-105577011D01*
X154076358Y-105507853D01*
X154105383Y-105444297D01*
X154111415Y-105437819D01*
X155912416Y-103636819D01*
X155973739Y-103603334D01*
X156000097Y-103600500D01*
X159417588Y-103600500D01*
X159484627Y-103620185D01*
X159494903Y-103627555D01*
X159497736Y-103629814D01*
X159497738Y-103629816D01*
X159650478Y-103725789D01*
X159741572Y-103757664D01*
X159820745Y-103785368D01*
X159820750Y-103785369D01*
X159999996Y-103805565D01*
X160000000Y-103805565D01*
X160000004Y-103805565D01*
X160179249Y-103785369D01*
X160179252Y-103785368D01*
X160179255Y-103785368D01*
X160349522Y-103725789D01*
X160502262Y-103629816D01*
X160629816Y-103502262D01*
X160725789Y-103349522D01*
X160785368Y-103179255D01*
X160805565Y-103000000D01*
X160785368Y-102820745D01*
X160725789Y-102650478D01*
X160709926Y-102625233D01*
X160668671Y-102559576D01*
X160629816Y-102497738D01*
X160502262Y-102370184D01*
X160493033Y-102364385D01*
X160349523Y-102274211D01*
X160179254Y-102214631D01*
X160179249Y-102214630D01*
X160000004Y-102194435D01*
X159999996Y-102194435D01*
X159820750Y-102214630D01*
X159820745Y-102214631D01*
X159650476Y-102274211D01*
X159497736Y-102370185D01*
X159494903Y-102372445D01*
X159492724Y-102373334D01*
X159491842Y-102373889D01*
X159491744Y-102373734D01*
X159430217Y-102398855D01*
X159417588Y-102399500D01*
X155883063Y-102399500D01*
X155816024Y-102379815D01*
X155770269Y-102327011D01*
X155760325Y-102257853D01*
X155766022Y-102234545D01*
X155785366Y-102179262D01*
X155785369Y-102179249D01*
X155805565Y-102000003D01*
X155805565Y-101999996D01*
X155785369Y-101820750D01*
X155785368Y-101820745D01*
X155732171Y-101668717D01*
X155725789Y-101650478D01*
X155629816Y-101497738D01*
X155502262Y-101370184D01*
X155433553Y-101327011D01*
X155349523Y-101274211D01*
X155179254Y-101214631D01*
X155179249Y-101214630D01*
X155000004Y-101194435D01*
X154999996Y-101194435D01*
X154820750Y-101214630D01*
X154820745Y-101214631D01*
X154650476Y-101274211D01*
X154497736Y-101370185D01*
X154494903Y-101372445D01*
X154492724Y-101373334D01*
X154491842Y-101373889D01*
X154491744Y-101373734D01*
X154430217Y-101398855D01*
X154417588Y-101399500D01*
X126563769Y-101399500D01*
X126496730Y-101379815D01*
X126450975Y-101327011D01*
X126441031Y-101257853D01*
X126447587Y-101232167D01*
X126494091Y-101107482D01*
X126500500Y-101047873D01*
X126500500Y-100724500D01*
X126520185Y-100657461D01*
X126572989Y-100611706D01*
X126624500Y-100600500D01*
X150913331Y-100600500D01*
X150913347Y-100600501D01*
X150920943Y-100600501D01*
X151079054Y-100600501D01*
X151079057Y-100600501D01*
X151231785Y-100559577D01*
X151281904Y-100530639D01*
X151368716Y-100480520D01*
X151480520Y-100368716D01*
X151480520Y-100368714D01*
X151490728Y-100358507D01*
X151490729Y-100358504D01*
X154212417Y-97636819D01*
X154273740Y-97603334D01*
X154300098Y-97600500D01*
X157699903Y-97600500D01*
X157766942Y-97620185D01*
X157787584Y-97636819D01*
X158938584Y-98787819D01*
X158972069Y-98849142D01*
X158967085Y-98918834D01*
X158925213Y-98974767D01*
X158859749Y-98999184D01*
X158850903Y-98999500D01*
X158591940Y-98999500D01*
X158524901Y-98979815D01*
X158504259Y-98963181D01*
X158487262Y-98946184D01*
X158334523Y-98850211D01*
X158164254Y-98790631D01*
X158164249Y-98790630D01*
X157985004Y-98770435D01*
X157984996Y-98770435D01*
X157805750Y-98790630D01*
X157805745Y-98790631D01*
X157635476Y-98850211D01*
X157482737Y-98946184D01*
X157355184Y-99073737D01*
X157259211Y-99226476D01*
X157199631Y-99396745D01*
X157199630Y-99396750D01*
X157179435Y-99575996D01*
X157179435Y-99576003D01*
X157199630Y-99755249D01*
X157199631Y-99755254D01*
X157259211Y-99925523D01*
X157355184Y-100078262D01*
X157482738Y-100205816D01*
X157635478Y-100301789D01*
X157797552Y-100358501D01*
X157805745Y-100361368D01*
X157805750Y-100361369D01*
X157984996Y-100381565D01*
X157985000Y-100381565D01*
X157985004Y-100381565D01*
X158164249Y-100361369D01*
X158164252Y-100361368D01*
X158164255Y-100361368D01*
X158334522Y-100301789D01*
X158465474Y-100219505D01*
X158531446Y-100200500D01*
X160161860Y-100200500D01*
X160161876Y-100200501D01*
X160169472Y-100200501D01*
X160327583Y-100200501D01*
X160327586Y-100200501D01*
X160480314Y-100159577D01*
X160557033Y-100115283D01*
X160617245Y-100080520D01*
X160729049Y-99968716D01*
X160729049Y-99968714D01*
X160739253Y-99958511D01*
X160739257Y-99958506D01*
X160958506Y-99739257D01*
X160958511Y-99739253D01*
X160968714Y-99729049D01*
X160968716Y-99729049D01*
X161080520Y-99617245D01*
X161133150Y-99526086D01*
X161159577Y-99480314D01*
X161200500Y-99327586D01*
X161200500Y-99169472D01*
X161200500Y-96840531D01*
X161200501Y-96840518D01*
X161200501Y-96672414D01*
X161191374Y-96638352D01*
X161159577Y-96519687D01*
X161159458Y-96519481D01*
X161080524Y-96382761D01*
X161080518Y-96382753D01*
X159645745Y-94947980D01*
X159612260Y-94886657D01*
X159617244Y-94816965D01*
X159659116Y-94761032D01*
X159692472Y-94743257D01*
X159766556Y-94717334D01*
X159780422Y-94708620D01*
X160219575Y-94708620D01*
X160233446Y-94717335D01*
X160387649Y-94771294D01*
X160387660Y-94771296D01*
X160549996Y-94789587D01*
X160550004Y-94789587D01*
X160712339Y-94771296D01*
X160712341Y-94771296D01*
X160866557Y-94717333D01*
X160880422Y-94708620D01*
X160550001Y-94378198D01*
X160550000Y-94378198D01*
X160219575Y-94708620D01*
X159780422Y-94708620D01*
X159101965Y-94030163D01*
X159300000Y-94030163D01*
X159300000Y-94089837D01*
X159322836Y-94144968D01*
X159365032Y-94187164D01*
X159420163Y-94210000D01*
X159479837Y-94210000D01*
X159534968Y-94187164D01*
X159577164Y-94144968D01*
X159600000Y-94089837D01*
X159600000Y-94060000D01*
X159768198Y-94060000D01*
X160000000Y-94291802D01*
X160231802Y-94060000D01*
X160201965Y-94030163D01*
X160400000Y-94030163D01*
X160400000Y-94089837D01*
X160422836Y-94144968D01*
X160465032Y-94187164D01*
X160520163Y-94210000D01*
X160579837Y-94210000D01*
X160634968Y-94187164D01*
X160677164Y-94144968D01*
X160700000Y-94089837D01*
X160700000Y-94060000D01*
X160868198Y-94060000D01*
X161198620Y-94390422D01*
X161207334Y-94376556D01*
X161241844Y-94277932D01*
X161282566Y-94221156D01*
X161317932Y-94201844D01*
X161416556Y-94167334D01*
X161430422Y-94158620D01*
X161100000Y-93828198D01*
X160868198Y-94060000D01*
X160700000Y-94060000D01*
X160700000Y-94030163D01*
X160677164Y-93975032D01*
X160634968Y-93932836D01*
X160579837Y-93910000D01*
X160520163Y-93910000D01*
X160465032Y-93932836D01*
X160422836Y-93975032D01*
X160400000Y-94030163D01*
X160201965Y-94030163D01*
X160000000Y-93828198D01*
X159768198Y-94060000D01*
X159600000Y-94060000D01*
X159600000Y-94030163D01*
X159577164Y-93975032D01*
X159534968Y-93932836D01*
X159479837Y-93910000D01*
X159420163Y-93910000D01*
X159365032Y-93932836D01*
X159322836Y-93975032D01*
X159300000Y-94030163D01*
X159101965Y-94030163D01*
X158551965Y-93480163D01*
X158750000Y-93480163D01*
X158750000Y-93539837D01*
X158772836Y-93594968D01*
X158815032Y-93637164D01*
X158870163Y-93660000D01*
X158929837Y-93660000D01*
X158984968Y-93637164D01*
X159027164Y-93594968D01*
X159050000Y-93539837D01*
X159050000Y-93510000D01*
X159218198Y-93510000D01*
X159450000Y-93741802D01*
X159681802Y-93510000D01*
X159651965Y-93480163D01*
X159850000Y-93480163D01*
X159850000Y-93539837D01*
X159872836Y-93594968D01*
X159915032Y-93637164D01*
X159970163Y-93660000D01*
X160029837Y-93660000D01*
X160084968Y-93637164D01*
X160127164Y-93594968D01*
X160150000Y-93539837D01*
X160150000Y-93510000D01*
X160318198Y-93510000D01*
X160550000Y-93741802D01*
X160781802Y-93510000D01*
X160751965Y-93480163D01*
X160950000Y-93480163D01*
X160950000Y-93539837D01*
X160972836Y-93594968D01*
X161015032Y-93637164D01*
X161070163Y-93660000D01*
X161129837Y-93660000D01*
X161184968Y-93637164D01*
X161227164Y-93594968D01*
X161250000Y-93539837D01*
X161250000Y-93509999D01*
X161418198Y-93509999D01*
X161418198Y-93510000D01*
X161748620Y-93840422D01*
X161757333Y-93826557D01*
X161811296Y-93672341D01*
X161811296Y-93672339D01*
X161829587Y-93510003D01*
X161829587Y-93509996D01*
X161811296Y-93347660D01*
X161811294Y-93347649D01*
X161757335Y-93193446D01*
X161748620Y-93179575D01*
X161418198Y-93509999D01*
X161250000Y-93509999D01*
X161250000Y-93480163D01*
X161227164Y-93425032D01*
X161184968Y-93382836D01*
X161129837Y-93360000D01*
X161070163Y-93360000D01*
X161015032Y-93382836D01*
X160972836Y-93425032D01*
X160950000Y-93480163D01*
X160751965Y-93480163D01*
X160550000Y-93278198D01*
X160318198Y-93510000D01*
X160150000Y-93510000D01*
X160150000Y-93480163D01*
X160127164Y-93425032D01*
X160084968Y-93382836D01*
X160029837Y-93360000D01*
X159970163Y-93360000D01*
X159915032Y-93382836D01*
X159872836Y-93425032D01*
X159850000Y-93480163D01*
X159651965Y-93480163D01*
X159450000Y-93278198D01*
X159218198Y-93510000D01*
X159050000Y-93510000D01*
X159050000Y-93480163D01*
X159027164Y-93425032D01*
X158984968Y-93382836D01*
X158929837Y-93360000D01*
X158870163Y-93360000D01*
X158815032Y-93382836D01*
X158772836Y-93425032D01*
X158750000Y-93480163D01*
X158551965Y-93480163D01*
X158251377Y-93179575D01*
X158242666Y-93193441D01*
X158242663Y-93193447D01*
X158216741Y-93267528D01*
X158176019Y-93324304D01*
X158111066Y-93350051D01*
X158042505Y-93336594D01*
X158012019Y-93314254D01*
X157657765Y-92960000D01*
X158668198Y-92960000D01*
X158900000Y-93191802D01*
X159131802Y-92960000D01*
X159101965Y-92930163D01*
X159300000Y-92930163D01*
X159300000Y-92989837D01*
X159322836Y-93044968D01*
X159365032Y-93087164D01*
X159420163Y-93110000D01*
X159479837Y-93110000D01*
X159534968Y-93087164D01*
X159577164Y-93044968D01*
X159600000Y-92989837D01*
X159600000Y-92960000D01*
X159768198Y-92960000D01*
X160000000Y-93191802D01*
X160231802Y-92960000D01*
X160201965Y-92930163D01*
X160400000Y-92930163D01*
X160400000Y-92989837D01*
X160422836Y-93044968D01*
X160465032Y-93087164D01*
X160520163Y-93110000D01*
X160579837Y-93110000D01*
X160634968Y-93087164D01*
X160677164Y-93044968D01*
X160700000Y-92989837D01*
X160700000Y-92960000D01*
X160868198Y-92960000D01*
X161100000Y-93191802D01*
X161331802Y-92960000D01*
X161100000Y-92728198D01*
X160868198Y-92960000D01*
X160700000Y-92960000D01*
X160700000Y-92930163D01*
X160677164Y-92875032D01*
X160634968Y-92832836D01*
X160579837Y-92810000D01*
X160520163Y-92810000D01*
X160465032Y-92832836D01*
X160422836Y-92875032D01*
X160400000Y-92930163D01*
X160201965Y-92930163D01*
X160000000Y-92728198D01*
X159768198Y-92960000D01*
X159600000Y-92960000D01*
X159600000Y-92930163D01*
X159577164Y-92875032D01*
X159534968Y-92832836D01*
X159479837Y-92810000D01*
X159420163Y-92810000D01*
X159365032Y-92832836D01*
X159322836Y-92875032D01*
X159300000Y-92930163D01*
X159101965Y-92930163D01*
X158900000Y-92728198D01*
X158668198Y-92960000D01*
X157657765Y-92960000D01*
X157107761Y-92409996D01*
X158170413Y-92409996D01*
X158170413Y-92410003D01*
X158188703Y-92572339D01*
X158188704Y-92572344D01*
X158242665Y-92726557D01*
X158251378Y-92740423D01*
X158581802Y-92410000D01*
X158551965Y-92380163D01*
X158750000Y-92380163D01*
X158750000Y-92439837D01*
X158772836Y-92494968D01*
X158815032Y-92537164D01*
X158870163Y-92560000D01*
X158929837Y-92560000D01*
X158984968Y-92537164D01*
X159027164Y-92494968D01*
X159050000Y-92439837D01*
X159050000Y-92410000D01*
X159218198Y-92410000D01*
X159450000Y-92641802D01*
X159681802Y-92410000D01*
X159651965Y-92380163D01*
X159850000Y-92380163D01*
X159850000Y-92439837D01*
X159872836Y-92494968D01*
X159915032Y-92537164D01*
X159970163Y-92560000D01*
X160029837Y-92560000D01*
X160084968Y-92537164D01*
X160127164Y-92494968D01*
X160150000Y-92439837D01*
X160150000Y-92410000D01*
X160318198Y-92410000D01*
X160550000Y-92641802D01*
X160781802Y-92410000D01*
X160751965Y-92380163D01*
X160950000Y-92380163D01*
X160950000Y-92439837D01*
X160972836Y-92494968D01*
X161015032Y-92537164D01*
X161070163Y-92560000D01*
X161129837Y-92560000D01*
X161184968Y-92537164D01*
X161227164Y-92494968D01*
X161250000Y-92439837D01*
X161250000Y-92409999D01*
X161418198Y-92409999D01*
X161418198Y-92410000D01*
X161748620Y-92740422D01*
X161757333Y-92726557D01*
X161811296Y-92572341D01*
X161811296Y-92572339D01*
X161829587Y-92410003D01*
X161829587Y-92409996D01*
X161811296Y-92247660D01*
X161811294Y-92247649D01*
X161757335Y-92093446D01*
X161748620Y-92079575D01*
X161418198Y-92409999D01*
X161250000Y-92409999D01*
X161250000Y-92380163D01*
X161227164Y-92325032D01*
X161184968Y-92282836D01*
X161129837Y-92260000D01*
X161070163Y-92260000D01*
X161015032Y-92282836D01*
X160972836Y-92325032D01*
X160950000Y-92380163D01*
X160751965Y-92380163D01*
X160550000Y-92178198D01*
X160318198Y-92410000D01*
X160150000Y-92410000D01*
X160150000Y-92380163D01*
X160127164Y-92325032D01*
X160084968Y-92282836D01*
X160029837Y-92260000D01*
X159970163Y-92260000D01*
X159915032Y-92282836D01*
X159872836Y-92325032D01*
X159850000Y-92380163D01*
X159651965Y-92380163D01*
X159450000Y-92178198D01*
X159218198Y-92410000D01*
X159050000Y-92410000D01*
X159050000Y-92380163D01*
X159027164Y-92325032D01*
X158984968Y-92282836D01*
X158929837Y-92260000D01*
X158870163Y-92260000D01*
X158815032Y-92282836D01*
X158772836Y-92325032D01*
X158750000Y-92380163D01*
X158551965Y-92380163D01*
X158251377Y-92079575D01*
X158242666Y-92093440D01*
X158188703Y-92247658D01*
X158188703Y-92247660D01*
X158170413Y-92409996D01*
X157107761Y-92409996D01*
X156459142Y-91761377D01*
X158569575Y-91761377D01*
X158900000Y-92091802D01*
X159131802Y-91860000D01*
X159101965Y-91830163D01*
X159300000Y-91830163D01*
X159300000Y-91889837D01*
X159322836Y-91944968D01*
X159365032Y-91987164D01*
X159420163Y-92010000D01*
X159479837Y-92010000D01*
X159534968Y-91987164D01*
X159577164Y-91944968D01*
X159600000Y-91889837D01*
X159600000Y-91860000D01*
X159768198Y-91860000D01*
X160000000Y-92091802D01*
X160231802Y-91860000D01*
X160201965Y-91830163D01*
X160400000Y-91830163D01*
X160400000Y-91889837D01*
X160422836Y-91944968D01*
X160465032Y-91987164D01*
X160520163Y-92010000D01*
X160579837Y-92010000D01*
X160634968Y-91987164D01*
X160677164Y-91944968D01*
X160700000Y-91889837D01*
X160700000Y-91859999D01*
X160868198Y-91859999D01*
X160868198Y-91860000D01*
X161100000Y-92091802D01*
X161100001Y-92091802D01*
X161430423Y-91761378D01*
X161430423Y-91761377D01*
X161416558Y-91752666D01*
X161317931Y-91718155D01*
X161261155Y-91677433D01*
X161241844Y-91642068D01*
X161207333Y-91543442D01*
X161198620Y-91529575D01*
X160868198Y-91859999D01*
X160700000Y-91859999D01*
X160700000Y-91830163D01*
X160677164Y-91775032D01*
X160634968Y-91732836D01*
X160579837Y-91710000D01*
X160520163Y-91710000D01*
X160465032Y-91732836D01*
X160422836Y-91775032D01*
X160400000Y-91830163D01*
X160201965Y-91830163D01*
X160000000Y-91628198D01*
X159768198Y-91860000D01*
X159600000Y-91860000D01*
X159600000Y-91830163D01*
X159577164Y-91775032D01*
X159534968Y-91732836D01*
X159479837Y-91710000D01*
X159420163Y-91710000D01*
X159365032Y-91732836D01*
X159322836Y-91775032D01*
X159300000Y-91830163D01*
X159101965Y-91830163D01*
X158801377Y-91529575D01*
X158792666Y-91543441D01*
X158792663Y-91543446D01*
X158758154Y-91642068D01*
X158717432Y-91698844D01*
X158682068Y-91718154D01*
X158583446Y-91752663D01*
X158583441Y-91752666D01*
X158569575Y-91761377D01*
X156459142Y-91761377D01*
X155909142Y-91211377D01*
X159119575Y-91211377D01*
X159450000Y-91541802D01*
X159450001Y-91541802D01*
X159780423Y-91211378D01*
X159780423Y-91211377D01*
X160219575Y-91211377D01*
X160550000Y-91541802D01*
X160550001Y-91541802D01*
X160880423Y-91211378D01*
X160880423Y-91211377D01*
X160866557Y-91202665D01*
X160712344Y-91148704D01*
X160712339Y-91148703D01*
X160550004Y-91130413D01*
X160549996Y-91130413D01*
X160387660Y-91148703D01*
X160387658Y-91148703D01*
X160233440Y-91202666D01*
X160219575Y-91211377D01*
X159780423Y-91211377D01*
X159766557Y-91202665D01*
X159612344Y-91148704D01*
X159612339Y-91148703D01*
X159450004Y-91130413D01*
X159449996Y-91130413D01*
X159287660Y-91148703D01*
X159287658Y-91148703D01*
X159133440Y-91202666D01*
X159119575Y-91211377D01*
X155909142Y-91211377D01*
X152286119Y-87588355D01*
X152286117Y-87588352D01*
X152167246Y-87469481D01*
X152167245Y-87469480D01*
X152080433Y-87419360D01*
X152080433Y-87419359D01*
X152080429Y-87419358D01*
X152030314Y-87390423D01*
X151877586Y-87349499D01*
X151719472Y-87349499D01*
X151711876Y-87349499D01*
X151711860Y-87349500D01*
X147581885Y-87349500D01*
X147514846Y-87329815D01*
X147469091Y-87277011D01*
X147459147Y-87207853D01*
X147465703Y-87182167D01*
X147493596Y-87107379D01*
X147493598Y-87107372D01*
X147499999Y-87047844D01*
X147500000Y-87047827D01*
X147500000Y-86250000D01*
X146433012Y-86250000D01*
X146465925Y-86192993D01*
X146500000Y-86065826D01*
X146500000Y-85934174D01*
X146465925Y-85807007D01*
X146433012Y-85750000D01*
X147500000Y-85750000D01*
X147500000Y-84952172D01*
X147499999Y-84952155D01*
X147493598Y-84892627D01*
X147493596Y-84892620D01*
X147443354Y-84757913D01*
X147443350Y-84757906D01*
X147357190Y-84642812D01*
X147357187Y-84642809D01*
X147242093Y-84556649D01*
X147242086Y-84556645D01*
X147107379Y-84506403D01*
X147107372Y-84506401D01*
X147047844Y-84500000D01*
X146250000Y-84500000D01*
X146250000Y-85566988D01*
X146192993Y-85534075D01*
X146065826Y-85500000D01*
X145934174Y-85500000D01*
X145807007Y-85534075D01*
X145750000Y-85566988D01*
X145750000Y-84500000D01*
X144952155Y-84500000D01*
X144892627Y-84506401D01*
X144892620Y-84506403D01*
X144757913Y-84556645D01*
X144757906Y-84556649D01*
X144642812Y-84642809D01*
X144642809Y-84642812D01*
X144556649Y-84757906D01*
X144556645Y-84757913D01*
X144506403Y-84892620D01*
X144506401Y-84892627D01*
X144500000Y-84952155D01*
X144500000Y-85750000D01*
X145566988Y-85750000D01*
X145534075Y-85807007D01*
X145500000Y-85934174D01*
X145500000Y-86065826D01*
X145534075Y-86192993D01*
X145566988Y-86250000D01*
X144500000Y-86250000D01*
X144500000Y-87047844D01*
X144506401Y-87107372D01*
X144506403Y-87107379D01*
X144534297Y-87182167D01*
X144539281Y-87251859D01*
X144505796Y-87313182D01*
X144444473Y-87346666D01*
X144418115Y-87349500D01*
X126449499Y-87349500D01*
X126382460Y-87329815D01*
X126336705Y-87277011D01*
X126325499Y-87225500D01*
X126325499Y-86902129D01*
X126325498Y-86902123D01*
X126325497Y-86902116D01*
X126319091Y-86842517D01*
X126268796Y-86707669D01*
X126268795Y-86707668D01*
X126268793Y-86707664D01*
X126182547Y-86592455D01*
X126182544Y-86592452D01*
X126067335Y-86506206D01*
X126067328Y-86506202D01*
X125932482Y-86455908D01*
X125932483Y-86455908D01*
X125872883Y-86449501D01*
X125872881Y-86449500D01*
X125872873Y-86449500D01*
X125872864Y-86449500D01*
X123777129Y-86449500D01*
X123777123Y-86449501D01*
X123717516Y-86455908D01*
X123582671Y-86506202D01*
X123582664Y-86506206D01*
X123467455Y-86592452D01*
X123467452Y-86592455D01*
X123381206Y-86707664D01*
X123381202Y-86707671D01*
X123330908Y-86842517D01*
X123324501Y-86902116D01*
X123324501Y-86902123D01*
X123324500Y-86902135D01*
X123324500Y-88997870D01*
X123324501Y-88997876D01*
X123330908Y-89057483D01*
X123381202Y-89192328D01*
X123381206Y-89192335D01*
X123467452Y-89307544D01*
X123467455Y-89307547D01*
X123582664Y-89393793D01*
X123582671Y-89393797D01*
X123717517Y-89444091D01*
X123717516Y-89444091D01*
X123724444Y-89444835D01*
X123777127Y-89450500D01*
X125872872Y-89450499D01*
X125932483Y-89444091D01*
X126067331Y-89393796D01*
X126182546Y-89307546D01*
X126268796Y-89192331D01*
X126319091Y-89057483D01*
X126325500Y-88997873D01*
X126325500Y-88674500D01*
X126345185Y-88607461D01*
X126397989Y-88561706D01*
X126449500Y-88550500D01*
X130046482Y-88550500D01*
X130113521Y-88570185D01*
X130159276Y-88622989D01*
X130169220Y-88692147D01*
X130161044Y-88721947D01*
X130152376Y-88742876D01*
X130152375Y-88742879D01*
X130152374Y-88742881D01*
X130118500Y-88913177D01*
X130118500Y-89583507D01*
X130098815Y-89650546D01*
X130082181Y-89671188D01*
X128315296Y-91438072D01*
X128315295Y-91438073D01*
X128218822Y-91582456D01*
X128152377Y-91742871D01*
X128152374Y-91742881D01*
X128118500Y-91913176D01*
X128118500Y-91913179D01*
X128118500Y-92086821D01*
X128118500Y-92086823D01*
X128118499Y-92086823D01*
X128152374Y-92257118D01*
X128152377Y-92257128D01*
X128218822Y-92417543D01*
X128315295Y-92561926D01*
X128438073Y-92684704D01*
X128582456Y-92781177D01*
X128707174Y-92832836D01*
X128742876Y-92847624D01*
X128742880Y-92847624D01*
X128742881Y-92847625D01*
X128913176Y-92881500D01*
X128913179Y-92881500D01*
X129086823Y-92881500D01*
X129201393Y-92858709D01*
X129257124Y-92847624D01*
X129407422Y-92785369D01*
X129417543Y-92781177D01*
X129417544Y-92781176D01*
X129417547Y-92781175D01*
X129561924Y-92684706D01*
X131684706Y-90561924D01*
X131781175Y-90417547D01*
X131847624Y-90257124D01*
X131881500Y-90086821D01*
X131881500Y-89913179D01*
X131881500Y-88913180D01*
X131881500Y-88913177D01*
X131847625Y-88742881D01*
X131847624Y-88742880D01*
X131847624Y-88742876D01*
X131838956Y-88721951D01*
X131831488Y-88652484D01*
X131862762Y-88590005D01*
X131922851Y-88554352D01*
X131953518Y-88550500D01*
X151498432Y-88550500D01*
X151565471Y-88570185D01*
X151586113Y-88586819D01*
X154187113Y-91187819D01*
X154220598Y-91249142D01*
X154215614Y-91318834D01*
X154173742Y-91374767D01*
X154108278Y-91399184D01*
X154099432Y-91399500D01*
X154086670Y-91399500D01*
X154086654Y-91399499D01*
X154079058Y-91399499D01*
X153920943Y-91399499D01*
X153844579Y-91419961D01*
X153768214Y-91440423D01*
X153768209Y-91440426D01*
X153631290Y-91519475D01*
X153631282Y-91519481D01*
X150787584Y-94363181D01*
X150726261Y-94396666D01*
X150699903Y-94399500D01*
X143474499Y-94399500D01*
X143407460Y-94379815D01*
X143361705Y-94327011D01*
X143350499Y-94275500D01*
X143350499Y-94102129D01*
X143350498Y-94102123D01*
X143350497Y-94102116D01*
X143344091Y-94042517D01*
X143339483Y-94030163D01*
X143293797Y-93907671D01*
X143293793Y-93907664D01*
X143207547Y-93792455D01*
X143207544Y-93792452D01*
X143092335Y-93706206D01*
X143092328Y-93706202D01*
X142957482Y-93655908D01*
X142957483Y-93655908D01*
X142897883Y-93649501D01*
X142897881Y-93649500D01*
X142897873Y-93649500D01*
X142897864Y-93649500D01*
X141102129Y-93649500D01*
X141102123Y-93649501D01*
X141042516Y-93655908D01*
X140907671Y-93706202D01*
X140907664Y-93706206D01*
X140792455Y-93792452D01*
X140792452Y-93792455D01*
X140706206Y-93907664D01*
X140706202Y-93907671D01*
X140655908Y-94042517D01*
X140650821Y-94089837D01*
X140649501Y-94102123D01*
X140649500Y-94102135D01*
X140649500Y-94275500D01*
X140629815Y-94342539D01*
X140577011Y-94388294D01*
X140525500Y-94399500D01*
X138474499Y-94399500D01*
X138407460Y-94379815D01*
X138361705Y-94327011D01*
X138350499Y-94275500D01*
X138350499Y-94102129D01*
X138350498Y-94102123D01*
X138350497Y-94102116D01*
X138344091Y-94042517D01*
X138339483Y-94030163D01*
X138293797Y-93907671D01*
X138293793Y-93907664D01*
X138207547Y-93792455D01*
X138207544Y-93792452D01*
X138092335Y-93706206D01*
X138092328Y-93706202D01*
X137957482Y-93655908D01*
X137957483Y-93655908D01*
X137897883Y-93649501D01*
X137897881Y-93649500D01*
X137897873Y-93649500D01*
X137897864Y-93649500D01*
X136102129Y-93649500D01*
X136102123Y-93649501D01*
X136042516Y-93655908D01*
X135907671Y-93706202D01*
X135907664Y-93706206D01*
X135792455Y-93792452D01*
X135792452Y-93792455D01*
X135706206Y-93907664D01*
X135706202Y-93907671D01*
X135655908Y-94042517D01*
X135650821Y-94089837D01*
X135649501Y-94102123D01*
X135649500Y-94102135D01*
X135649500Y-94275500D01*
X135629815Y-94342539D01*
X135577011Y-94388294D01*
X135525500Y-94399500D01*
X133474499Y-94399500D01*
X133407460Y-94379815D01*
X133361705Y-94327011D01*
X133350499Y-94275500D01*
X133350499Y-94102129D01*
X133350498Y-94102123D01*
X133350497Y-94102116D01*
X133344091Y-94042517D01*
X133339483Y-94030163D01*
X133293797Y-93907671D01*
X133293793Y-93907664D01*
X133207547Y-93792455D01*
X133207544Y-93792452D01*
X133092335Y-93706206D01*
X133092328Y-93706202D01*
X132957482Y-93655908D01*
X132957483Y-93655908D01*
X132897883Y-93649501D01*
X132897881Y-93649500D01*
X132897873Y-93649500D01*
X132897864Y-93649500D01*
X131102129Y-93649500D01*
X131102123Y-93649501D01*
X131042516Y-93655908D01*
X130907671Y-93706202D01*
X130907664Y-93706206D01*
X130792455Y-93792452D01*
X130792452Y-93792455D01*
X130706206Y-93907664D01*
X130706202Y-93907671D01*
X130655908Y-94042517D01*
X130650821Y-94089837D01*
X130649500Y-94102127D01*
X130649500Y-94816965D01*
X130649501Y-95425500D01*
X130629816Y-95492539D01*
X130577013Y-95538294D01*
X130525501Y-95549500D01*
X127374931Y-95549500D01*
X127307892Y-95529815D01*
X127299443Y-95523875D01*
X127293718Y-95519482D01*
X127293716Y-95519480D01*
X127206904Y-95469360D01*
X127206904Y-95469359D01*
X127206900Y-95469358D01*
X127156785Y-95440423D01*
X127004057Y-95399499D01*
X126845943Y-95399499D01*
X126838347Y-95399499D01*
X126838331Y-95399500D01*
X126624499Y-95399500D01*
X126557460Y-95379815D01*
X126511705Y-95327011D01*
X126500499Y-95275500D01*
X126500499Y-94952129D01*
X126500498Y-94952123D01*
X126494091Y-94892516D01*
X126443797Y-94757671D01*
X126443793Y-94757664D01*
X126357547Y-94642455D01*
X126357544Y-94642452D01*
X126242335Y-94556206D01*
X126242328Y-94556202D01*
X126107482Y-94505908D01*
X126107483Y-94505908D01*
X126047883Y-94499501D01*
X126047881Y-94499500D01*
X126047873Y-94499500D01*
X126047864Y-94499500D01*
X123952129Y-94499500D01*
X123952123Y-94499501D01*
X123892515Y-94505909D01*
X123767832Y-94552412D01*
X123698141Y-94557396D01*
X123636818Y-94523910D01*
X123603334Y-94462587D01*
X123600500Y-94436230D01*
X123600500Y-94125096D01*
X123620185Y-94058057D01*
X123636815Y-94037419D01*
X124137416Y-93536817D01*
X124198739Y-93503333D01*
X124225097Y-93500499D01*
X125872871Y-93500499D01*
X125872872Y-93500499D01*
X125932483Y-93494091D01*
X126067331Y-93443796D01*
X126182546Y-93357546D01*
X126268796Y-93242331D01*
X126319091Y-93107483D01*
X126325500Y-93047873D01*
X126325499Y-90952128D01*
X126319091Y-90892517D01*
X126268796Y-90757669D01*
X126268795Y-90757668D01*
X126268793Y-90757664D01*
X126182547Y-90642455D01*
X126182544Y-90642452D01*
X126067335Y-90556206D01*
X126067328Y-90556202D01*
X125932482Y-90505908D01*
X125932483Y-90505908D01*
X125872883Y-90499501D01*
X125872881Y-90499500D01*
X125872873Y-90499500D01*
X125872864Y-90499500D01*
X123777129Y-90499500D01*
X123777123Y-90499501D01*
X123717516Y-90505908D01*
X123582671Y-90556202D01*
X123582664Y-90556206D01*
X123467455Y-90642452D01*
X123467452Y-90642455D01*
X123381206Y-90757664D01*
X123381202Y-90757671D01*
X123330908Y-90892517D01*
X123324501Y-90952116D01*
X123324501Y-90952123D01*
X123324500Y-90952135D01*
X123324500Y-92599901D01*
X123304815Y-92666940D01*
X123288181Y-92687582D01*
X122631286Y-93344478D01*
X122519481Y-93456282D01*
X122519479Y-93456285D01*
X122469361Y-93543094D01*
X122469359Y-93543096D01*
X122440425Y-93593209D01*
X122440424Y-93593210D01*
X122440423Y-93593215D01*
X122399499Y-93745943D01*
X122399499Y-93745945D01*
X122399499Y-93914046D01*
X122399500Y-93914059D01*
X122399500Y-101213330D01*
X122399499Y-101213348D01*
X122399499Y-101379054D01*
X122399498Y-101379054D01*
X120500500Y-101379054D01*
X120500500Y-82952135D01*
X123499500Y-82952135D01*
X123499500Y-85047870D01*
X123499501Y-85047876D01*
X123505908Y-85107483D01*
X123556202Y-85242328D01*
X123556206Y-85242335D01*
X123642452Y-85357544D01*
X123642455Y-85357547D01*
X123757664Y-85443793D01*
X123757671Y-85443797D01*
X123892517Y-85494091D01*
X123892516Y-85494091D01*
X123899444Y-85494835D01*
X123952127Y-85500500D01*
X126047872Y-85500499D01*
X126107483Y-85494091D01*
X126242331Y-85443796D01*
X126357546Y-85357546D01*
X126443796Y-85242331D01*
X126494091Y-85107483D01*
X126500500Y-85047873D01*
X126500500Y-84724500D01*
X126520185Y-84657461D01*
X126572989Y-84611706D01*
X126624500Y-84600500D01*
X127813331Y-84600500D01*
X127813347Y-84600501D01*
X127820943Y-84600501D01*
X127979054Y-84600501D01*
X127979057Y-84600501D01*
X128131785Y-84559577D01*
X128181904Y-84530639D01*
X128268716Y-84480520D01*
X128380520Y-84368716D01*
X128380520Y-84368714D01*
X128390728Y-84358507D01*
X128390730Y-84358504D01*
X131647098Y-81102135D01*
X140649500Y-81102135D01*
X140649500Y-82897870D01*
X140649501Y-82897876D01*
X140655908Y-82957483D01*
X140706202Y-83092328D01*
X140706206Y-83092335D01*
X140792452Y-83207544D01*
X140792455Y-83207547D01*
X140907664Y-83293793D01*
X140907671Y-83293797D01*
X140907674Y-83293798D01*
X141039598Y-83343002D01*
X141095531Y-83384873D01*
X141119949Y-83450337D01*
X141105098Y-83518610D01*
X141083947Y-83546865D01*
X140961886Y-83668926D01*
X140826400Y-83862420D01*
X140826399Y-83862422D01*
X140726570Y-84076507D01*
X140726567Y-84076513D01*
X140669364Y-84289999D01*
X140669364Y-84290000D01*
X141566988Y-84290000D01*
X141534075Y-84347007D01*
X141500000Y-84474174D01*
X141500000Y-84605826D01*
X141534075Y-84732993D01*
X141566988Y-84790000D01*
X140669364Y-84790000D01*
X140726567Y-85003486D01*
X140726570Y-85003492D01*
X140826399Y-85217578D01*
X140961894Y-85411082D01*
X141128917Y-85578105D01*
X141322421Y-85713600D01*
X141536507Y-85813429D01*
X141536516Y-85813433D01*
X141750000Y-85870634D01*
X141750000Y-84973012D01*
X141807007Y-85005925D01*
X141934174Y-85040000D01*
X142065826Y-85040000D01*
X142192993Y-85005925D01*
X142250000Y-84973012D01*
X142250000Y-85870633D01*
X142463483Y-85813433D01*
X142463492Y-85813429D01*
X142677578Y-85713600D01*
X142871082Y-85578105D01*
X143038105Y-85411082D01*
X143173600Y-85217578D01*
X143273429Y-85003492D01*
X143273432Y-85003486D01*
X143330636Y-84790000D01*
X142433012Y-84790000D01*
X142465925Y-84732993D01*
X142500000Y-84605826D01*
X142500000Y-84474174D01*
X142465925Y-84347007D01*
X142433012Y-84290000D01*
X143330636Y-84290000D01*
X143330635Y-84289999D01*
X143273432Y-84076513D01*
X143273429Y-84076507D01*
X143173600Y-83862422D01*
X143173599Y-83862420D01*
X143038113Y-83668926D01*
X143038108Y-83668920D01*
X142916053Y-83546865D01*
X142882568Y-83485542D01*
X142887552Y-83415850D01*
X142929424Y-83359917D01*
X142960400Y-83343002D01*
X143092331Y-83293796D01*
X143207546Y-83207546D01*
X143293796Y-83092331D01*
X143344091Y-82957483D01*
X143350500Y-82897873D01*
X143350499Y-81102128D01*
X143344091Y-81042517D01*
X143330203Y-81005282D01*
X143310381Y-80952135D01*
X144499500Y-80952135D01*
X144499500Y-83047870D01*
X144499501Y-83047876D01*
X144505908Y-83107483D01*
X144556202Y-83242328D01*
X144556206Y-83242335D01*
X144642452Y-83357544D01*
X144642455Y-83357547D01*
X144757664Y-83443793D01*
X144757671Y-83443797D01*
X144892517Y-83494091D01*
X144892516Y-83494091D01*
X144899444Y-83494835D01*
X144952127Y-83500500D01*
X147047872Y-83500499D01*
X147107483Y-83494091D01*
X147242331Y-83443796D01*
X147357546Y-83357546D01*
X147443796Y-83242331D01*
X147494091Y-83107483D01*
X147499000Y-83061823D01*
X149118499Y-83061823D01*
X149152374Y-83232118D01*
X149152377Y-83232128D01*
X149218822Y-83392543D01*
X149315295Y-83536926D01*
X149438073Y-83659704D01*
X149582456Y-83756177D01*
X149742871Y-83822622D01*
X149742876Y-83822624D01*
X149742880Y-83822624D01*
X149742881Y-83822625D01*
X149913176Y-83856500D01*
X149913179Y-83856500D01*
X150086823Y-83856500D01*
X150201393Y-83833709D01*
X150257124Y-83822624D01*
X150337335Y-83789399D01*
X150417543Y-83756177D01*
X150417544Y-83756176D01*
X150417547Y-83756175D01*
X150561924Y-83659706D01*
X152385350Y-81836278D01*
X152446673Y-81802794D01*
X152473031Y-81799960D01*
X153168362Y-81799960D01*
X153282934Y-81777169D01*
X153338664Y-81766084D01*
X153499087Y-81699635D01*
X153643463Y-81603166D01*
X153766246Y-81480383D01*
X153862715Y-81336007D01*
X153929164Y-81175584D01*
X153943775Y-81102129D01*
X153963040Y-81005282D01*
X153963040Y-80831637D01*
X153929165Y-80661341D01*
X153929164Y-80661340D01*
X153929164Y-80661336D01*
X153926916Y-80655908D01*
X153862718Y-80500919D01*
X153862711Y-80500906D01*
X153766246Y-80356537D01*
X153766243Y-80356533D01*
X153643466Y-80233756D01*
X153643462Y-80233753D01*
X153499093Y-80137288D01*
X153499080Y-80137281D01*
X153338668Y-80070837D01*
X153338658Y-80070834D01*
X153168362Y-80036960D01*
X153168360Y-80036960D01*
X152143361Y-80036960D01*
X151969719Y-80036960D01*
X151969714Y-80036960D01*
X151799423Y-80070833D01*
X151799415Y-80070835D01*
X151697876Y-80112895D01*
X151697875Y-80112895D01*
X151638999Y-80137281D01*
X151638987Y-80137288D01*
X151556102Y-80192671D01*
X151556101Y-80192671D01*
X151494621Y-80233750D01*
X151494613Y-80233756D01*
X149315296Y-82413072D01*
X149315295Y-82413073D01*
X149218822Y-82557456D01*
X149152377Y-82717871D01*
X149152374Y-82717881D01*
X149118500Y-82888176D01*
X149118500Y-82888179D01*
X149118500Y-83061821D01*
X149118500Y-83061823D01*
X149118499Y-83061823D01*
X147499000Y-83061823D01*
X147500500Y-83047873D01*
X147500499Y-80952128D01*
X147494091Y-80892517D01*
X147471385Y-80831640D01*
X147443797Y-80757671D01*
X147443793Y-80757664D01*
X147357547Y-80642455D01*
X147357544Y-80642452D01*
X147242335Y-80556206D01*
X147242328Y-80556202D01*
X147107482Y-80505908D01*
X147107483Y-80505908D01*
X147047883Y-80499501D01*
X147047881Y-80499500D01*
X147047873Y-80499500D01*
X147047864Y-80499500D01*
X144952129Y-80499500D01*
X144952123Y-80499501D01*
X144892516Y-80505908D01*
X144757671Y-80556202D01*
X144757664Y-80556206D01*
X144642455Y-80642452D01*
X144642452Y-80642455D01*
X144556206Y-80757664D01*
X144556202Y-80757671D01*
X144505908Y-80892517D01*
X144499501Y-80952116D01*
X144499501Y-80952123D01*
X144499500Y-80952135D01*
X143310381Y-80952135D01*
X143293797Y-80907671D01*
X143293793Y-80907664D01*
X143207547Y-80792455D01*
X143207544Y-80792452D01*
X143092335Y-80706206D01*
X143092328Y-80706202D01*
X142957482Y-80655908D01*
X142957483Y-80655908D01*
X142897883Y-80649501D01*
X142897881Y-80649500D01*
X142897873Y-80649500D01*
X142897864Y-80649500D01*
X141102129Y-80649500D01*
X141102123Y-80649501D01*
X141042516Y-80655908D01*
X140907671Y-80706202D01*
X140907664Y-80706206D01*
X140792455Y-80792452D01*
X140792452Y-80792455D01*
X140706206Y-80907664D01*
X140706202Y-80907671D01*
X140655908Y-81042517D01*
X140649501Y-81102116D01*
X140649501Y-81102123D01*
X140649500Y-81102135D01*
X131647098Y-81102135D01*
X132918535Y-79830698D01*
X132979856Y-79797215D01*
X132992311Y-79795163D01*
X133079255Y-79785368D01*
X133249522Y-79725789D01*
X133402262Y-79629816D01*
X133529816Y-79502262D01*
X133625789Y-79349522D01*
X133685368Y-79179255D01*
X133700171Y-79047873D01*
X133705565Y-79000003D01*
X133705565Y-78999996D01*
X133685369Y-78820750D01*
X133685368Y-78820745D01*
X133625788Y-78650476D01*
X133534950Y-78505909D01*
X133529816Y-78497738D01*
X133402262Y-78370184D01*
X133249523Y-78274211D01*
X133079254Y-78214631D01*
X133079249Y-78214630D01*
X132900004Y-78194435D01*
X132899996Y-78194435D01*
X132720750Y-78214630D01*
X132720745Y-78214631D01*
X132550476Y-78274211D01*
X132397737Y-78370184D01*
X132270184Y-78497737D01*
X132174210Y-78650478D01*
X132114630Y-78820750D01*
X132104837Y-78907668D01*
X132077770Y-78972082D01*
X132069298Y-78981465D01*
X131584000Y-79466763D01*
X131522677Y-79500248D01*
X131501365Y-79498723D01*
X131502766Y-79505163D01*
X131478350Y-79570628D01*
X131466763Y-79584000D01*
X127687584Y-83363181D01*
X127626261Y-83396666D01*
X127599903Y-83399500D01*
X126624499Y-83399500D01*
X126557460Y-83379815D01*
X126511705Y-83327011D01*
X126500499Y-83275500D01*
X126500499Y-82952129D01*
X126500498Y-82952123D01*
X126500497Y-82952116D01*
X126494091Y-82892517D01*
X126443796Y-82757669D01*
X126443795Y-82757668D01*
X126443793Y-82757664D01*
X126357547Y-82642455D01*
X126357544Y-82642452D01*
X126242335Y-82556206D01*
X126242328Y-82556202D01*
X126107482Y-82505908D01*
X126107483Y-82505908D01*
X126047883Y-82499501D01*
X126047881Y-82499500D01*
X126047873Y-82499500D01*
X126047864Y-82499500D01*
X123952129Y-82499500D01*
X123952123Y-82499501D01*
X123892516Y-82505908D01*
X123757671Y-82556202D01*
X123757664Y-82556206D01*
X123642455Y-82642452D01*
X123642452Y-82642455D01*
X123556206Y-82757664D01*
X123556202Y-82757671D01*
X123505908Y-82892517D01*
X123499501Y-82952116D01*
X123499501Y-82952123D01*
X123499500Y-82952135D01*
X120500500Y-82952135D01*
X120500500Y-78952135D01*
X123499500Y-78952135D01*
X123499500Y-81047870D01*
X123499501Y-81047876D01*
X123505908Y-81107483D01*
X123556202Y-81242328D01*
X123556206Y-81242335D01*
X123642452Y-81357544D01*
X123642455Y-81357547D01*
X123757664Y-81443793D01*
X123757671Y-81443797D01*
X123892517Y-81494091D01*
X123892516Y-81494091D01*
X123899444Y-81494835D01*
X123952127Y-81500500D01*
X126047872Y-81500499D01*
X126107483Y-81494091D01*
X126242331Y-81443796D01*
X126357546Y-81357546D01*
X126443796Y-81242331D01*
X126494091Y-81107483D01*
X126500500Y-81047873D01*
X126500499Y-79400095D01*
X126520184Y-79333057D01*
X126536813Y-79312420D01*
X128287821Y-77561412D01*
X128349142Y-77527929D01*
X128418834Y-77532913D01*
X128474767Y-77574785D01*
X128499184Y-77640249D01*
X128499500Y-77649095D01*
X128499500Y-79047870D01*
X128499501Y-79047876D01*
X128505908Y-79107483D01*
X128556202Y-79242328D01*
X128556206Y-79242335D01*
X128642452Y-79357544D01*
X128642455Y-79357547D01*
X128757664Y-79443793D01*
X128757671Y-79443797D01*
X128892517Y-79494091D01*
X128892516Y-79494091D01*
X128899444Y-79494835D01*
X128952127Y-79500500D01*
X131047872Y-79500499D01*
X131107483Y-79494091D01*
X131242331Y-79443796D01*
X131304773Y-79397051D01*
X131370234Y-79372635D01*
X131375703Y-79373824D01*
X131387487Y-79319655D01*
X131397046Y-79304780D01*
X131443796Y-79242331D01*
X131494091Y-79107483D01*
X131500500Y-79047873D01*
X131500499Y-76952128D01*
X131494091Y-76892517D01*
X131491478Y-76885513D01*
X131486493Y-76815824D01*
X131519976Y-76754500D01*
X131581299Y-76721014D01*
X131648615Y-76725137D01*
X131820745Y-76785368D01*
X131820750Y-76785369D01*
X131999996Y-76805565D01*
X132000000Y-76805565D01*
X132000004Y-76805565D01*
X132179249Y-76785369D01*
X132179252Y-76785368D01*
X132179255Y-76785368D01*
X132349522Y-76725789D01*
X132502262Y-76629816D01*
X132502267Y-76629810D01*
X132505097Y-76627555D01*
X132507275Y-76626665D01*
X132508158Y-76626111D01*
X132508255Y-76626265D01*
X132569783Y-76601145D01*
X132582412Y-76600500D01*
X138417588Y-76600500D01*
X138484627Y-76620185D01*
X138494903Y-76627555D01*
X138497736Y-76629814D01*
X138497738Y-76629816D01*
X138611270Y-76701152D01*
X138642878Y-76721014D01*
X138650478Y-76725789D01*
X138741586Y-76757669D01*
X138820745Y-76785368D01*
X138820750Y-76785369D01*
X138999996Y-76805565D01*
X139000000Y-76805565D01*
X139000004Y-76805565D01*
X139179249Y-76785369D01*
X139179252Y-76785368D01*
X139179255Y-76785368D01*
X139349522Y-76725789D01*
X139502262Y-76629816D01*
X139629816Y-76502262D01*
X139725789Y-76349522D01*
X139785368Y-76179255D01*
X139805565Y-76000000D01*
X139785368Y-75820745D01*
X139725789Y-75650478D01*
X139629816Y-75497738D01*
X139502262Y-75370184D01*
X139349523Y-75274211D01*
X139179254Y-75214631D01*
X139179249Y-75214630D01*
X139000004Y-75194435D01*
X138999996Y-75194435D01*
X138820750Y-75214630D01*
X138820745Y-75214631D01*
X138650476Y-75274211D01*
X138497736Y-75370185D01*
X138494903Y-75372445D01*
X138492724Y-75373334D01*
X138491842Y-75373889D01*
X138491744Y-75373734D01*
X138430217Y-75398855D01*
X138417588Y-75399500D01*
X132582412Y-75399500D01*
X132515373Y-75379815D01*
X132505097Y-75372445D01*
X132502263Y-75370185D01*
X132502262Y-75370184D01*
X132445496Y-75334515D01*
X132349523Y-75274211D01*
X132179254Y-75214631D01*
X132179249Y-75214630D01*
X132000004Y-75194435D01*
X131999996Y-75194435D01*
X131820750Y-75214630D01*
X131820742Y-75214632D01*
X131648614Y-75274862D01*
X131578835Y-75278423D01*
X131518208Y-75243694D01*
X131485981Y-75181700D01*
X131491479Y-75114484D01*
X131494091Y-75107483D01*
X131500500Y-75047873D01*
X131500500Y-74037496D01*
X158194435Y-74037496D01*
X158194435Y-74037503D01*
X158214630Y-74216749D01*
X158214631Y-74216754D01*
X158274211Y-74387023D01*
X158370185Y-74539763D01*
X158372445Y-74542597D01*
X158373334Y-74544775D01*
X158373889Y-74545658D01*
X158373734Y-74545755D01*
X158398855Y-74607283D01*
X158399500Y-74619912D01*
X158399500Y-80417587D01*
X158379815Y-80484626D01*
X158372450Y-80494896D01*
X158370186Y-80497734D01*
X158274211Y-80650476D01*
X158214631Y-80820745D01*
X158214630Y-80820750D01*
X158194435Y-80999996D01*
X158194435Y-81000003D01*
X158214630Y-81179249D01*
X158214631Y-81179254D01*
X158274211Y-81349523D01*
X158279253Y-81357547D01*
X158370184Y-81502262D01*
X158497738Y-81629816D01*
X158650478Y-81725789D01*
X158820745Y-81785368D01*
X158820750Y-81785369D01*
X158999996Y-81805565D01*
X159000000Y-81805565D01*
X159000004Y-81805565D01*
X159179249Y-81785369D01*
X159179252Y-81785368D01*
X159179255Y-81785368D01*
X159349522Y-81725789D01*
X159502262Y-81629816D01*
X159629816Y-81502262D01*
X159725789Y-81349522D01*
X159785368Y-81179255D01*
X159785782Y-81175584D01*
X159805565Y-81000003D01*
X159805565Y-80999996D01*
X159785369Y-80820750D01*
X159785368Y-80820745D01*
X159745288Y-80706204D01*
X159725789Y-80650478D01*
X159725174Y-80649500D01*
X159666554Y-80556206D01*
X159629816Y-80497738D01*
X159629814Y-80497736D01*
X159629813Y-80497734D01*
X159627550Y-80494896D01*
X159626659Y-80492715D01*
X159626111Y-80491842D01*
X159626264Y-80491745D01*
X159601144Y-80430209D01*
X159600500Y-80417587D01*
X159600500Y-74619912D01*
X159620185Y-74552873D01*
X159627555Y-74542597D01*
X159629810Y-74539767D01*
X159629816Y-74539762D01*
X159725789Y-74387022D01*
X159785368Y-74216755D01*
X159785369Y-74216749D01*
X159805565Y-74037503D01*
X159805565Y-74037496D01*
X159785369Y-73858250D01*
X159785368Y-73858245D01*
X159725788Y-73687976D01*
X159629815Y-73535237D01*
X159502262Y-73407684D01*
X159349523Y-73311711D01*
X159179254Y-73252131D01*
X159179249Y-73252130D01*
X159000004Y-73231935D01*
X158999996Y-73231935D01*
X158820750Y-73252130D01*
X158820745Y-73252131D01*
X158650476Y-73311711D01*
X158497737Y-73407684D01*
X158370184Y-73535237D01*
X158274211Y-73687976D01*
X158214631Y-73858245D01*
X158214630Y-73858250D01*
X158194435Y-74037496D01*
X131500500Y-74037496D01*
X131500499Y-72952128D01*
X131494091Y-72892517D01*
X131451101Y-72777256D01*
X131443797Y-72757671D01*
X131443793Y-72757664D01*
X131357547Y-72642455D01*
X131357544Y-72642452D01*
X131242335Y-72556206D01*
X131242328Y-72556202D01*
X131107482Y-72505908D01*
X131107483Y-72505908D01*
X131047883Y-72499501D01*
X131047881Y-72499500D01*
X131047873Y-72499500D01*
X131047864Y-72499500D01*
X128952129Y-72499500D01*
X128952123Y-72499501D01*
X128892516Y-72505908D01*
X128757671Y-72556202D01*
X128757664Y-72556206D01*
X128642455Y-72642452D01*
X128642452Y-72642455D01*
X128556206Y-72757664D01*
X128556202Y-72757671D01*
X128505908Y-72892517D01*
X128499501Y-72952116D01*
X128499501Y-72952123D01*
X128499500Y-72952135D01*
X128499500Y-75047870D01*
X128499501Y-75047876D01*
X128505908Y-75107483D01*
X128556202Y-75242328D01*
X128556203Y-75242330D01*
X128642607Y-75357750D01*
X128667024Y-75423214D01*
X128652173Y-75491487D01*
X128631022Y-75519742D01*
X128519480Y-75631284D01*
X128519478Y-75631286D01*
X125687582Y-78463181D01*
X125626259Y-78496666D01*
X125599901Y-78499500D01*
X123952129Y-78499500D01*
X123952123Y-78499501D01*
X123892516Y-78505908D01*
X123757671Y-78556202D01*
X123757664Y-78556206D01*
X123642455Y-78642452D01*
X123642452Y-78642455D01*
X123556206Y-78757664D01*
X123556202Y-78757671D01*
X123505908Y-78892517D01*
X123499501Y-78952116D01*
X123499500Y-78952135D01*
X120500500Y-78952135D01*
X120500500Y-73878712D01*
X122149500Y-73878712D01*
X122149500Y-74121288D01*
X122181162Y-74361789D01*
X122212554Y-74478944D01*
X122243947Y-74596104D01*
X122248578Y-74607283D01*
X122336776Y-74820212D01*
X122458064Y-75030289D01*
X122458066Y-75030292D01*
X122458067Y-75030293D01*
X122605733Y-75222736D01*
X122605739Y-75222743D01*
X122777256Y-75394260D01*
X122777262Y-75394265D01*
X122969711Y-75541936D01*
X123179788Y-75663224D01*
X123403900Y-75756054D01*
X123638211Y-75818838D01*
X123818586Y-75842584D01*
X123878711Y-75850500D01*
X123878712Y-75850500D01*
X124121289Y-75850500D01*
X124169388Y-75844167D01*
X124361789Y-75818838D01*
X124596100Y-75756054D01*
X124820212Y-75663224D01*
X125030289Y-75541936D01*
X125222738Y-75394265D01*
X125394265Y-75222738D01*
X125541936Y-75030289D01*
X125663224Y-74820212D01*
X125756054Y-74596100D01*
X125818838Y-74361789D01*
X125850500Y-74121288D01*
X125850500Y-73878712D01*
X125818838Y-73638211D01*
X125756054Y-73403900D01*
X125663224Y-73179788D01*
X125541936Y-72969711D01*
X125394265Y-72777262D01*
X125394260Y-72777256D01*
X125222743Y-72605739D01*
X125222736Y-72605733D01*
X125030293Y-72458067D01*
X125030292Y-72458066D01*
X125030289Y-72458064D01*
X124820212Y-72336776D01*
X124820205Y-72336773D01*
X124596104Y-72243947D01*
X124361785Y-72181161D01*
X124121289Y-72149500D01*
X124121288Y-72149500D01*
X123878712Y-72149500D01*
X123878711Y-72149500D01*
X123638214Y-72181161D01*
X123403895Y-72243947D01*
X123179794Y-72336773D01*
X123179785Y-72336777D01*
X122969706Y-72458067D01*
X122777263Y-72605733D01*
X122777256Y-72605739D01*
X122605739Y-72777256D01*
X122605733Y-72777263D01*
X122458067Y-72969706D01*
X122336777Y-73179785D01*
X122336773Y-73179794D01*
X122243947Y-73403895D01*
X122181161Y-73638214D01*
X122174610Y-73687976D01*
X122149500Y-73878712D01*
X120500500Y-73878712D01*
X120500500Y-70624500D01*
X120520185Y-70557461D01*
X120572989Y-70511706D01*
X120624500Y-70500500D01*
X166876000Y-70500500D01*
X166943039Y-70520185D01*
G37*
%TD.AperFunction*%
%TD*%
M02*
