%TF.GenerationSoftware,KiCad,Pcbnew,8.0.8*%
%TF.CreationDate,2025-03-13T11:32:00-04:00*%
%TF.ProjectId,Anemosens Sensor Tail,416e656d-6f73-4656-9e73-2053656e736f,rev?*%
%TF.SameCoordinates,Original*%
%TF.FileFunction,Copper,L2,Bot*%
%TF.FilePolarity,Positive*%
%FSLAX46Y46*%
G04 Gerber Fmt 4.6, Leading zero omitted, Abs format (unit mm)*
G04 Created by KiCad (PCBNEW 8.0.8) date 2025-03-13 11:32:00*
%MOMM*%
%LPD*%
G01*
G04 APERTURE LIST*
%TA.AperFunction,ComponentPad*%
%ADD10R,1.700000X1.700000*%
%TD*%
%TA.AperFunction,ComponentPad*%
%ADD11O,1.700000X1.700000*%
%TD*%
%TA.AperFunction,ViaPad*%
%ADD12C,0.600000*%
%TD*%
%TA.AperFunction,Conductor*%
%ADD13C,0.200000*%
%TD*%
G04 APERTURE END LIST*
D10*
%TO.P,J1,1,Pin_1*%
%TO.N,+3.3V*%
X146525000Y-113000000D03*
D11*
%TO.P,J1,2,Pin_2*%
%TO.N,GND*%
X143985000Y-113000000D03*
%TO.P,J1,3,Pin_3*%
%TO.N,/HALL_OUT*%
X141445000Y-113000000D03*
%TD*%
D12*
%TO.N,GND*%
X144000000Y-96000000D03*
X145000000Y-102000000D03*
%TO.N,/HALL_OUT*%
X144849001Y-98422400D03*
X142000000Y-100000000D03*
%TD*%
D13*
%TO.N,/HALL_OUT*%
X142000000Y-100000000D02*
X143271401Y-100000000D01*
X143271401Y-100000000D02*
X144849001Y-98422400D01*
%TD*%
%TA.AperFunction,Conductor*%
%TO.N,GND*%
G36*
X147004418Y-94500816D02*
G01*
X147204561Y-94515130D01*
X147222063Y-94517647D01*
X147413797Y-94559355D01*
X147430755Y-94564334D01*
X147614609Y-94632909D01*
X147630701Y-94640259D01*
X147802904Y-94734288D01*
X147817784Y-94743849D01*
X147974867Y-94861441D01*
X147988237Y-94873027D01*
X148126972Y-95011762D01*
X148138558Y-95025132D01*
X148256146Y-95182210D01*
X148265711Y-95197095D01*
X148359740Y-95369298D01*
X148367090Y-95385390D01*
X148435662Y-95569236D01*
X148440646Y-95586212D01*
X148482351Y-95777931D01*
X148484869Y-95795442D01*
X148499184Y-95995580D01*
X148499500Y-96004427D01*
X148499500Y-115375500D01*
X148479815Y-115442539D01*
X148427011Y-115488294D01*
X148375500Y-115499500D01*
X139624500Y-115499500D01*
X139557461Y-115479815D01*
X139511706Y-115427011D01*
X139500500Y-115375500D01*
X139500500Y-112999999D01*
X140089341Y-112999999D01*
X140089341Y-113000000D01*
X140109936Y-113235403D01*
X140109938Y-113235413D01*
X140171094Y-113463655D01*
X140171096Y-113463659D01*
X140171097Y-113463663D01*
X140254155Y-113641781D01*
X140270965Y-113677830D01*
X140270967Y-113677834D01*
X140379281Y-113832521D01*
X140406505Y-113871401D01*
X140573599Y-114038495D01*
X140670384Y-114106265D01*
X140767165Y-114174032D01*
X140767167Y-114174033D01*
X140767170Y-114174035D01*
X140981337Y-114273903D01*
X141209592Y-114335063D01*
X141386034Y-114350500D01*
X141444999Y-114355659D01*
X141445000Y-114355659D01*
X141445001Y-114355659D01*
X141503966Y-114350500D01*
X141680408Y-114335063D01*
X141908663Y-114273903D01*
X142122830Y-114174035D01*
X142316401Y-114038495D01*
X142483495Y-113871401D01*
X142613730Y-113685405D01*
X142668307Y-113641781D01*
X142737805Y-113634587D01*
X142800160Y-113666110D01*
X142816879Y-113685405D01*
X142946890Y-113871078D01*
X143113917Y-114038105D01*
X143307421Y-114173600D01*
X143521507Y-114273429D01*
X143521516Y-114273433D01*
X143735000Y-114330634D01*
X143735000Y-113433012D01*
X143792007Y-113465925D01*
X143919174Y-113500000D01*
X144050826Y-113500000D01*
X144177993Y-113465925D01*
X144235000Y-113433012D01*
X144235000Y-114330633D01*
X144448483Y-114273433D01*
X144448492Y-114273429D01*
X144662578Y-114173600D01*
X144856078Y-114038108D01*
X144978133Y-113916053D01*
X145039456Y-113882568D01*
X145109148Y-113887552D01*
X145165082Y-113929423D01*
X145181997Y-113960401D01*
X145231202Y-114092328D01*
X145231206Y-114092335D01*
X145317452Y-114207544D01*
X145317455Y-114207547D01*
X145432664Y-114293793D01*
X145432671Y-114293797D01*
X145567517Y-114344091D01*
X145567516Y-114344091D01*
X145574444Y-114344835D01*
X145627127Y-114350500D01*
X147422872Y-114350499D01*
X147482483Y-114344091D01*
X147617331Y-114293796D01*
X147732546Y-114207546D01*
X147818796Y-114092331D01*
X147869091Y-113957483D01*
X147875500Y-113897873D01*
X147875499Y-112102128D01*
X147869091Y-112042517D01*
X147868002Y-112039598D01*
X147818797Y-111907671D01*
X147818793Y-111907664D01*
X147732547Y-111792455D01*
X147732544Y-111792452D01*
X147617335Y-111706206D01*
X147617328Y-111706202D01*
X147482482Y-111655908D01*
X147482483Y-111655908D01*
X147422883Y-111649501D01*
X147422881Y-111649500D01*
X147422873Y-111649500D01*
X147422864Y-111649500D01*
X145627129Y-111649500D01*
X145627123Y-111649501D01*
X145567516Y-111655908D01*
X145432671Y-111706202D01*
X145432664Y-111706206D01*
X145317455Y-111792452D01*
X145317452Y-111792455D01*
X145231206Y-111907664D01*
X145231202Y-111907671D01*
X145181997Y-112039598D01*
X145140126Y-112095532D01*
X145074661Y-112119949D01*
X145006388Y-112105097D01*
X144978134Y-112083946D01*
X144856082Y-111961894D01*
X144662578Y-111826399D01*
X144448492Y-111726570D01*
X144448486Y-111726567D01*
X144235000Y-111669364D01*
X144235000Y-112566988D01*
X144177993Y-112534075D01*
X144050826Y-112500000D01*
X143919174Y-112500000D01*
X143792007Y-112534075D01*
X143735000Y-112566988D01*
X143735000Y-111669364D01*
X143734999Y-111669364D01*
X143521513Y-111726567D01*
X143521507Y-111726570D01*
X143307422Y-111826399D01*
X143307420Y-111826400D01*
X143113926Y-111961886D01*
X143113920Y-111961891D01*
X142946891Y-112128920D01*
X142946890Y-112128922D01*
X142816880Y-112314595D01*
X142762303Y-112358219D01*
X142692804Y-112365412D01*
X142630450Y-112333890D01*
X142613730Y-112314594D01*
X142483494Y-112128597D01*
X142316402Y-111961506D01*
X142316395Y-111961501D01*
X142122834Y-111825967D01*
X142122830Y-111825965D01*
X142122828Y-111825964D01*
X141908663Y-111726097D01*
X141908659Y-111726096D01*
X141908655Y-111726094D01*
X141680413Y-111664938D01*
X141680403Y-111664936D01*
X141445001Y-111644341D01*
X141444999Y-111644341D01*
X141209596Y-111664936D01*
X141209586Y-111664938D01*
X140981344Y-111726094D01*
X140981335Y-111726098D01*
X140767171Y-111825964D01*
X140767169Y-111825965D01*
X140573597Y-111961505D01*
X140406505Y-112128597D01*
X140270965Y-112322169D01*
X140270964Y-112322171D01*
X140171098Y-112536335D01*
X140171094Y-112536344D01*
X140109938Y-112764586D01*
X140109936Y-112764596D01*
X140089341Y-112999999D01*
X139500500Y-112999999D01*
X139500500Y-99999996D01*
X141194435Y-99999996D01*
X141194435Y-100000003D01*
X141214630Y-100179249D01*
X141214631Y-100179254D01*
X141274211Y-100349523D01*
X141370184Y-100502262D01*
X141497738Y-100629816D01*
X141650478Y-100725789D01*
X141820745Y-100785368D01*
X141820750Y-100785369D01*
X141999996Y-100805565D01*
X142000000Y-100805565D01*
X142000004Y-100805565D01*
X142179249Y-100785369D01*
X142179252Y-100785368D01*
X142179255Y-100785368D01*
X142349522Y-100725789D01*
X142502262Y-100629816D01*
X142502267Y-100629810D01*
X142505097Y-100627555D01*
X142507275Y-100626665D01*
X142508158Y-100626111D01*
X142508255Y-100626265D01*
X142569783Y-100601145D01*
X142582412Y-100600500D01*
X143184732Y-100600500D01*
X143184748Y-100600501D01*
X143192344Y-100600501D01*
X143350455Y-100600501D01*
X143350458Y-100600501D01*
X143503186Y-100559577D01*
X143553305Y-100530639D01*
X143640117Y-100480520D01*
X143751921Y-100368716D01*
X143751921Y-100368714D01*
X143762129Y-100358507D01*
X143762131Y-100358504D01*
X144867536Y-99253098D01*
X144928857Y-99219615D01*
X144941312Y-99217563D01*
X145028256Y-99207768D01*
X145198523Y-99148189D01*
X145351263Y-99052216D01*
X145478817Y-98924662D01*
X145574790Y-98771922D01*
X145634369Y-98601655D01*
X145654566Y-98422400D01*
X145651420Y-98394482D01*
X145634370Y-98243150D01*
X145634369Y-98243145D01*
X145574789Y-98072876D01*
X145478816Y-97920137D01*
X145351263Y-97792584D01*
X145198524Y-97696611D01*
X145028255Y-97637031D01*
X145028250Y-97637030D01*
X144849005Y-97616835D01*
X144848997Y-97616835D01*
X144669751Y-97637030D01*
X144669746Y-97637031D01*
X144499477Y-97696611D01*
X144346738Y-97792584D01*
X144219185Y-97920137D01*
X144123211Y-98072878D01*
X144063631Y-98243150D01*
X144053838Y-98330068D01*
X144026771Y-98394482D01*
X144018299Y-98403865D01*
X143058985Y-99363181D01*
X142997662Y-99396666D01*
X142971304Y-99399500D01*
X142582412Y-99399500D01*
X142515373Y-99379815D01*
X142505097Y-99372445D01*
X142502263Y-99370185D01*
X142502262Y-99370184D01*
X142445496Y-99334515D01*
X142349523Y-99274211D01*
X142179254Y-99214631D01*
X142179249Y-99214630D01*
X142000004Y-99194435D01*
X141999996Y-99194435D01*
X141820750Y-99214630D01*
X141820745Y-99214631D01*
X141650476Y-99274211D01*
X141497737Y-99370184D01*
X141370184Y-99497737D01*
X141274211Y-99650476D01*
X141214631Y-99820745D01*
X141214630Y-99820750D01*
X141194435Y-99999996D01*
X139500500Y-99999996D01*
X139500500Y-96004427D01*
X139500816Y-95995581D01*
X139515130Y-95795443D01*
X139515131Y-95795442D01*
X139515130Y-95795436D01*
X139517646Y-95777938D01*
X139559356Y-95586199D01*
X139564333Y-95569248D01*
X139632911Y-95385385D01*
X139640259Y-95369298D01*
X139702815Y-95254734D01*
X139734291Y-95197089D01*
X139743845Y-95182221D01*
X139861448Y-95025123D01*
X139873020Y-95011769D01*
X140011769Y-94873020D01*
X140025123Y-94861448D01*
X140182221Y-94743845D01*
X140197089Y-94734291D01*
X140369298Y-94640258D01*
X140385385Y-94632911D01*
X140569248Y-94564333D01*
X140586199Y-94559356D01*
X140777938Y-94517646D01*
X140795436Y-94515130D01*
X140995582Y-94500816D01*
X141004428Y-94500500D01*
X141065892Y-94500500D01*
X146934108Y-94500500D01*
X146995572Y-94500500D01*
X147004418Y-94500816D01*
G37*
%TD.AperFunction*%
%TD*%
M02*
