%TF.GenerationSoftware,KiCad,Pcbnew,8.0.8*%
%TF.CreationDate,2025-03-13T11:32:00-04:00*%
%TF.ProjectId,Anemosens Sensor Tail,416e656d-6f73-4656-9e73-2053656e736f,rev?*%
%TF.SameCoordinates,Original*%
%TF.FileFunction,Legend,Top*%
%TF.FilePolarity,Positive*%
%FSLAX46Y46*%
G04 Gerber Fmt 4.6, Leading zero omitted, Abs format (unit mm)*
G04 Created by KiCad (PCBNEW 8.0.8) date 2025-03-13 11:32:00*
%MOMM*%
%LPD*%
G01*
G04 APERTURE LIST*
%ADD10C,0.150000*%
%ADD11C,0.120000*%
%ADD12C,0.152400*%
G04 APERTURE END LIST*
D10*
X143833333Y-104359580D02*
X143785714Y-104407200D01*
X143785714Y-104407200D02*
X143642857Y-104454819D01*
X143642857Y-104454819D02*
X143547619Y-104454819D01*
X143547619Y-104454819D02*
X143404762Y-104407200D01*
X143404762Y-104407200D02*
X143309524Y-104311961D01*
X143309524Y-104311961D02*
X143261905Y-104216723D01*
X143261905Y-104216723D02*
X143214286Y-104026247D01*
X143214286Y-104026247D02*
X143214286Y-103883390D01*
X143214286Y-103883390D02*
X143261905Y-103692914D01*
X143261905Y-103692914D02*
X143309524Y-103597676D01*
X143309524Y-103597676D02*
X143404762Y-103502438D01*
X143404762Y-103502438D02*
X143547619Y-103454819D01*
X143547619Y-103454819D02*
X143642857Y-103454819D01*
X143642857Y-103454819D02*
X143785714Y-103502438D01*
X143785714Y-103502438D02*
X143833333Y-103550057D01*
X144785714Y-104454819D02*
X144214286Y-104454819D01*
X144500000Y-104454819D02*
X144500000Y-103454819D01*
X144500000Y-103454819D02*
X144404762Y-103597676D01*
X144404762Y-103597676D02*
X144309524Y-103692914D01*
X144309524Y-103692914D02*
X144214286Y-103740533D01*
X140238095Y-96454819D02*
X140238095Y-97264342D01*
X140238095Y-97264342D02*
X140285714Y-97359580D01*
X140285714Y-97359580D02*
X140333333Y-97407200D01*
X140333333Y-97407200D02*
X140428571Y-97454819D01*
X140428571Y-97454819D02*
X140619047Y-97454819D01*
X140619047Y-97454819D02*
X140714285Y-97407200D01*
X140714285Y-97407200D02*
X140761904Y-97359580D01*
X140761904Y-97359580D02*
X140809523Y-97264342D01*
X140809523Y-97264342D02*
X140809523Y-96454819D01*
X141809523Y-97454819D02*
X141238095Y-97454819D01*
X141523809Y-97454819D02*
X141523809Y-96454819D01*
X141523809Y-96454819D02*
X141428571Y-96597676D01*
X141428571Y-96597676D02*
X141333333Y-96692914D01*
X141333333Y-96692914D02*
X141238095Y-96740533D01*
X147169104Y-106166666D02*
X147169104Y-105690476D01*
X147454819Y-106261904D02*
X146454819Y-105928571D01*
X146454819Y-105928571D02*
X147454819Y-105595238D01*
X147454819Y-105261904D02*
X146454819Y-105261904D01*
X146931009Y-105261904D02*
X146931009Y-104690476D01*
X147454819Y-104690476D02*
X146454819Y-104690476D01*
X146788152Y-103785714D02*
X147454819Y-103785714D01*
X146407200Y-104023809D02*
X147121485Y-104261904D01*
X147121485Y-104261904D02*
X147121485Y-103642857D01*
X147454819Y-103214285D02*
X147454819Y-103023809D01*
X147454819Y-103023809D02*
X147407200Y-102928571D01*
X147407200Y-102928571D02*
X147359580Y-102880952D01*
X147359580Y-102880952D02*
X147216723Y-102785714D01*
X147216723Y-102785714D02*
X147026247Y-102738095D01*
X147026247Y-102738095D02*
X146645295Y-102738095D01*
X146645295Y-102738095D02*
X146550057Y-102785714D01*
X146550057Y-102785714D02*
X146502438Y-102833333D01*
X146502438Y-102833333D02*
X146454819Y-102928571D01*
X146454819Y-102928571D02*
X146454819Y-103119047D01*
X146454819Y-103119047D02*
X146502438Y-103214285D01*
X146502438Y-103214285D02*
X146550057Y-103261904D01*
X146550057Y-103261904D02*
X146645295Y-103309523D01*
X146645295Y-103309523D02*
X146883390Y-103309523D01*
X146883390Y-103309523D02*
X146978628Y-103261904D01*
X146978628Y-103261904D02*
X147026247Y-103214285D01*
X147026247Y-103214285D02*
X147073866Y-103119047D01*
X147073866Y-103119047D02*
X147073866Y-102928571D01*
X147073866Y-102928571D02*
X147026247Y-102833333D01*
X147026247Y-102833333D02*
X146978628Y-102785714D01*
X146978628Y-102785714D02*
X146883390Y-102738095D01*
X146931009Y-102309523D02*
X146931009Y-101976190D01*
X147454819Y-101833333D02*
X147454819Y-102309523D01*
X147454819Y-102309523D02*
X146454819Y-102309523D01*
X146454819Y-102309523D02*
X146454819Y-101833333D01*
X147454819Y-101404761D02*
X146454819Y-101404761D01*
X146454819Y-101404761D02*
X147454819Y-100833333D01*
X147454819Y-100833333D02*
X146454819Y-100833333D01*
X146454819Y-100499999D02*
X146454819Y-99928571D01*
X147454819Y-100214285D02*
X146454819Y-100214285D01*
X147454819Y-99023809D02*
X146978628Y-99357142D01*
X147454819Y-99595237D02*
X146454819Y-99595237D01*
X146454819Y-99595237D02*
X146454819Y-99214285D01*
X146454819Y-99214285D02*
X146502438Y-99119047D01*
X146502438Y-99119047D02*
X146550057Y-99071428D01*
X146550057Y-99071428D02*
X146645295Y-99023809D01*
X146645295Y-99023809D02*
X146788152Y-99023809D01*
X146788152Y-99023809D02*
X146883390Y-99071428D01*
X146883390Y-99071428D02*
X146931009Y-99119047D01*
X146931009Y-99119047D02*
X146978628Y-99214285D01*
X146978628Y-99214285D02*
X146978628Y-99595237D01*
X147073866Y-98595237D02*
X147073866Y-97833333D01*
X146502438Y-96833333D02*
X146454819Y-96928571D01*
X146454819Y-96928571D02*
X146454819Y-97071428D01*
X146454819Y-97071428D02*
X146502438Y-97214285D01*
X146502438Y-97214285D02*
X146597676Y-97309523D01*
X146597676Y-97309523D02*
X146692914Y-97357142D01*
X146692914Y-97357142D02*
X146883390Y-97404761D01*
X146883390Y-97404761D02*
X147026247Y-97404761D01*
X147026247Y-97404761D02*
X147216723Y-97357142D01*
X147216723Y-97357142D02*
X147311961Y-97309523D01*
X147311961Y-97309523D02*
X147407200Y-97214285D01*
X147407200Y-97214285D02*
X147454819Y-97071428D01*
X147454819Y-97071428D02*
X147454819Y-96976190D01*
X147454819Y-96976190D02*
X147407200Y-96833333D01*
X147407200Y-96833333D02*
X147359580Y-96785714D01*
X147359580Y-96785714D02*
X147026247Y-96785714D01*
X147026247Y-96785714D02*
X147026247Y-96976190D01*
X147454819Y-95833333D02*
X147454819Y-96404761D01*
X147454819Y-96119047D02*
X146454819Y-96119047D01*
X146454819Y-96119047D02*
X146597676Y-96214285D01*
X146597676Y-96214285D02*
X146692914Y-96309523D01*
X146692914Y-96309523D02*
X146740533Y-96404761D01*
X146666666Y-110454819D02*
X146666666Y-111169104D01*
X146666666Y-111169104D02*
X146619047Y-111311961D01*
X146619047Y-111311961D02*
X146523809Y-111407200D01*
X146523809Y-111407200D02*
X146380952Y-111454819D01*
X146380952Y-111454819D02*
X146285714Y-111454819D01*
X147666666Y-111454819D02*
X147095238Y-111454819D01*
X147380952Y-111454819D02*
X147380952Y-110454819D01*
X147380952Y-110454819D02*
X147285714Y-110597676D01*
X147285714Y-110597676D02*
X147190476Y-110692914D01*
X147190476Y-110692914D02*
X147095238Y-110740533D01*
X139666667Y-111454819D02*
X139666667Y-110454819D01*
X139666667Y-110931009D02*
X140238095Y-110931009D01*
X140238095Y-111454819D02*
X140238095Y-110454819D01*
X140666667Y-110550057D02*
X140714286Y-110502438D01*
X140714286Y-110502438D02*
X140809524Y-110454819D01*
X140809524Y-110454819D02*
X141047619Y-110454819D01*
X141047619Y-110454819D02*
X141142857Y-110502438D01*
X141142857Y-110502438D02*
X141190476Y-110550057D01*
X141190476Y-110550057D02*
X141238095Y-110645295D01*
X141238095Y-110645295D02*
X141238095Y-110740533D01*
X141238095Y-110740533D02*
X141190476Y-110883390D01*
X141190476Y-110883390D02*
X140619048Y-111454819D01*
X140619048Y-111454819D02*
X141238095Y-111454819D01*
X141666667Y-111454819D02*
X141666667Y-110454819D01*
X141666667Y-110454819D02*
X142000000Y-111169104D01*
X142000000Y-111169104D02*
X142333333Y-110454819D01*
X142333333Y-110454819D02*
X142333333Y-111454819D01*
D11*
%TO.C,C1*%
X143701248Y-101265000D02*
X144223752Y-101265000D01*
X143701248Y-102735000D02*
X144223752Y-102735000D01*
D12*
%TO.C,U1*%
X142260700Y-96276100D02*
X142260700Y-98231900D01*
X143406199Y-98231900D02*
X144391801Y-98231900D01*
X143441800Y-96276100D02*
X142260700Y-96276100D01*
X145537300Y-96276100D02*
X144356200Y-96276100D01*
X145537300Y-98231900D02*
X145537300Y-96276100D01*
X143025200Y-99844800D02*
G75*
G02*
X142872800Y-99844800I-76200J0D01*
G01*
X142872800Y-99844800D02*
G75*
G02*
X143025200Y-99844800I76200J0D01*
G01*
D11*
%TO.C,J1*%
X140115000Y-111670000D02*
X140115000Y-114330000D01*
X145255000Y-111670000D02*
X140115000Y-111670000D01*
X145255000Y-111670000D02*
X145255000Y-114330000D01*
X145255000Y-114330000D02*
X140115000Y-114330000D01*
X146525000Y-111670000D02*
X147855000Y-111670000D01*
X147855000Y-111670000D02*
X147855000Y-113000000D01*
%TD*%
M02*
