%TF.GenerationSoftware,KiCad,Pcbnew,8.0.8*%
%TF.CreationDate,2025-03-21T14:29:56-04:00*%
%TF.ProjectId,sht40,73687434-302e-46b6-9963-61645f706362,rev?*%
%TF.SameCoordinates,Original*%
%TF.FileFunction,Drillmap*%
%TF.FilePolarity,Positive*%
%FSLAX45Y45*%
G04 Gerber Fmt 4.5, Leading zero omitted, Abs format (unit mm)*
G04 Created by KiCad (PCBNEW 8.0.8) date 2025-03-21 14:29:56*
%MOMM*%
%LPD*%
G01*
G04 APERTURE LIST*
%ADD10C,0.100000*%
%ADD11C,0.200000*%
G04 APERTURE END LIST*
D10*
X10769600Y-5359400D02*
X13893800Y-5359400D01*
X13893800Y-7467600D01*
X10769600Y-7467600D01*
X10769600Y-5359400D01*
D11*
X12471400Y-6502400D02*
X12776200Y-6502400D01*
X12776200Y-6375400D01*
X12852400Y-6375400D01*
X12852400Y-6578600D01*
X12395200Y-6578600D01*
X12395200Y-6375400D01*
X12471400Y-6375400D01*
X12471400Y-6502400D01*
G36*
X12471400Y-6502400D02*
G01*
X12776200Y-6502400D01*
X12776200Y-6375400D01*
X12852400Y-6375400D01*
X12852400Y-6578600D01*
X12395200Y-6578600D01*
X12395200Y-6375400D01*
X12471400Y-6375400D01*
X12471400Y-6502400D01*
G37*
X12852400Y-6172200D02*
X12776200Y-6172200D01*
X12776200Y-6045200D01*
X12471400Y-6045200D01*
X12471400Y-6172200D01*
X12395200Y-6172200D01*
X12395200Y-5969000D01*
X12852400Y-5969000D01*
X12852400Y-6172200D01*
G36*
X12852400Y-6172200D02*
G01*
X12776200Y-6172200D01*
X12776200Y-6045200D01*
X12471400Y-6045200D01*
X12471400Y-6172200D01*
X12395200Y-6172200D01*
X12395200Y-5969000D01*
X12852400Y-5969000D01*
X12852400Y-6172200D01*
G37*
D10*
X11588750Y-6483350D02*
X11626850Y-6521450D01*
X11626850Y-6483350D02*
X11588750Y-6521450D01*
X12071350Y-6483350D02*
X12109450Y-6521450D01*
X12109450Y-6483350D02*
X12071350Y-6521450D01*
X12249150Y-6127750D02*
X12287250Y-6165850D01*
X12287250Y-6127750D02*
X12249150Y-6165850D01*
X12269150Y-6305550D02*
X12307250Y-6343650D01*
X12307250Y-6305550D02*
X12269150Y-6343650D01*
X12985750Y-6076950D02*
X13023850Y-6115050D01*
X13023850Y-6076950D02*
X12985750Y-6115050D01*
X13239750Y-6711950D02*
X13277850Y-6750050D01*
X13277850Y-6711950D02*
X13239750Y-6750050D01*
X11784800Y-7213600D02*
G75*
G02*
X11684800Y-7213600I-50000J0D01*
G01*
X11684800Y-7213600D02*
G75*
G02*
X11784800Y-7213600I50000J0D01*
G01*
X12191200Y-7213600D02*
G75*
G02*
X12091200Y-7213600I-50000J0D01*
G01*
X12091200Y-7213600D02*
G75*
G02*
X12191200Y-7213600I50000J0D01*
G01*
X12597600Y-5588000D02*
G75*
G02*
X12497600Y-5588000I-50000J0D01*
G01*
X12497600Y-5588000D02*
G75*
G02*
X12597600Y-5588000I50000J0D01*
G01*
X12978600Y-5588000D02*
G75*
G02*
X12878600Y-5588000I-50000J0D01*
G01*
X12878600Y-5588000D02*
G75*
G02*
X12978600Y-5588000I50000J0D01*
G01*
D11*
X11025377Y-7784084D02*
X11025377Y-7584084D01*
X11025377Y-7584084D02*
X11072996Y-7584084D01*
X11072996Y-7584084D02*
X11101567Y-7593608D01*
X11101567Y-7593608D02*
X11120615Y-7612655D01*
X11120615Y-7612655D02*
X11130139Y-7631703D01*
X11130139Y-7631703D02*
X11139663Y-7669798D01*
X11139663Y-7669798D02*
X11139663Y-7698369D01*
X11139663Y-7698369D02*
X11130139Y-7736465D01*
X11130139Y-7736465D02*
X11120615Y-7755512D01*
X11120615Y-7755512D02*
X11101567Y-7774560D01*
X11101567Y-7774560D02*
X11072996Y-7784084D01*
X11072996Y-7784084D02*
X11025377Y-7784084D01*
X11225377Y-7784084D02*
X11225377Y-7650750D01*
X11225377Y-7688846D02*
X11234901Y-7669798D01*
X11234901Y-7669798D02*
X11244424Y-7660274D01*
X11244424Y-7660274D02*
X11263472Y-7650750D01*
X11263472Y-7650750D02*
X11282520Y-7650750D01*
X11349186Y-7784084D02*
X11349186Y-7650750D01*
X11349186Y-7584084D02*
X11339662Y-7593608D01*
X11339662Y-7593608D02*
X11349186Y-7603131D01*
X11349186Y-7603131D02*
X11358710Y-7593608D01*
X11358710Y-7593608D02*
X11349186Y-7584084D01*
X11349186Y-7584084D02*
X11349186Y-7603131D01*
X11472996Y-7784084D02*
X11453948Y-7774560D01*
X11453948Y-7774560D02*
X11444424Y-7755512D01*
X11444424Y-7755512D02*
X11444424Y-7584084D01*
X11577758Y-7784084D02*
X11558710Y-7774560D01*
X11558710Y-7774560D02*
X11549186Y-7755512D01*
X11549186Y-7755512D02*
X11549186Y-7584084D01*
X11806329Y-7784084D02*
X11806329Y-7584084D01*
X11806329Y-7584084D02*
X11872996Y-7726941D01*
X11872996Y-7726941D02*
X11939662Y-7584084D01*
X11939662Y-7584084D02*
X11939662Y-7784084D01*
X12120615Y-7784084D02*
X12120615Y-7679322D01*
X12120615Y-7679322D02*
X12111091Y-7660274D01*
X12111091Y-7660274D02*
X12092043Y-7650750D01*
X12092043Y-7650750D02*
X12053948Y-7650750D01*
X12053948Y-7650750D02*
X12034901Y-7660274D01*
X12120615Y-7774560D02*
X12101567Y-7784084D01*
X12101567Y-7784084D02*
X12053948Y-7784084D01*
X12053948Y-7784084D02*
X12034901Y-7774560D01*
X12034901Y-7774560D02*
X12025377Y-7755512D01*
X12025377Y-7755512D02*
X12025377Y-7736465D01*
X12025377Y-7736465D02*
X12034901Y-7717417D01*
X12034901Y-7717417D02*
X12053948Y-7707893D01*
X12053948Y-7707893D02*
X12101567Y-7707893D01*
X12101567Y-7707893D02*
X12120615Y-7698369D01*
X12215853Y-7650750D02*
X12215853Y-7850750D01*
X12215853Y-7660274D02*
X12234901Y-7650750D01*
X12234901Y-7650750D02*
X12272996Y-7650750D01*
X12272996Y-7650750D02*
X12292043Y-7660274D01*
X12292043Y-7660274D02*
X12301567Y-7669798D01*
X12301567Y-7669798D02*
X12311091Y-7688846D01*
X12311091Y-7688846D02*
X12311091Y-7745988D01*
X12311091Y-7745988D02*
X12301567Y-7765036D01*
X12301567Y-7765036D02*
X12292043Y-7774560D01*
X12292043Y-7774560D02*
X12272996Y-7784084D01*
X12272996Y-7784084D02*
X12234901Y-7784084D01*
X12234901Y-7784084D02*
X12215853Y-7774560D01*
X12396805Y-7765036D02*
X12406329Y-7774560D01*
X12406329Y-7774560D02*
X12396805Y-7784084D01*
X12396805Y-7784084D02*
X12387282Y-7774560D01*
X12387282Y-7774560D02*
X12396805Y-7765036D01*
X12396805Y-7765036D02*
X12396805Y-7784084D01*
X12396805Y-7660274D02*
X12406329Y-7669798D01*
X12406329Y-7669798D02*
X12396805Y-7679322D01*
X12396805Y-7679322D02*
X12387282Y-7669798D01*
X12387282Y-7669798D02*
X12396805Y-7660274D01*
X12396805Y-7660274D02*
X12396805Y-7679322D01*
D10*
X10726500Y-8093550D02*
X10764600Y-8131650D01*
X10764600Y-8093550D02*
X10726500Y-8131650D01*
D11*
X11063472Y-8004084D02*
X11082520Y-8004084D01*
X11082520Y-8004084D02*
X11101567Y-8013608D01*
X11101567Y-8013608D02*
X11111091Y-8023131D01*
X11111091Y-8023131D02*
X11120615Y-8042179D01*
X11120615Y-8042179D02*
X11130139Y-8080274D01*
X11130139Y-8080274D02*
X11130139Y-8127893D01*
X11130139Y-8127893D02*
X11120615Y-8165988D01*
X11120615Y-8165988D02*
X11111091Y-8185036D01*
X11111091Y-8185036D02*
X11101567Y-8194560D01*
X11101567Y-8194560D02*
X11082520Y-8204084D01*
X11082520Y-8204084D02*
X11063472Y-8204084D01*
X11063472Y-8204084D02*
X11044424Y-8194560D01*
X11044424Y-8194560D02*
X11034901Y-8185036D01*
X11034901Y-8185036D02*
X11025377Y-8165988D01*
X11025377Y-8165988D02*
X11015853Y-8127893D01*
X11015853Y-8127893D02*
X11015853Y-8080274D01*
X11015853Y-8080274D02*
X11025377Y-8042179D01*
X11025377Y-8042179D02*
X11034901Y-8023131D01*
X11034901Y-8023131D02*
X11044424Y-8013608D01*
X11044424Y-8013608D02*
X11063472Y-8004084D01*
X11215853Y-8185036D02*
X11225377Y-8194560D01*
X11225377Y-8194560D02*
X11215853Y-8204084D01*
X11215853Y-8204084D02*
X11206329Y-8194560D01*
X11206329Y-8194560D02*
X11215853Y-8185036D01*
X11215853Y-8185036D02*
X11215853Y-8204084D01*
X11292043Y-8004084D02*
X11415853Y-8004084D01*
X11415853Y-8004084D02*
X11349186Y-8080274D01*
X11349186Y-8080274D02*
X11377758Y-8080274D01*
X11377758Y-8080274D02*
X11396805Y-8089798D01*
X11396805Y-8089798D02*
X11406329Y-8099322D01*
X11406329Y-8099322D02*
X11415853Y-8118369D01*
X11415853Y-8118369D02*
X11415853Y-8165988D01*
X11415853Y-8165988D02*
X11406329Y-8185036D01*
X11406329Y-8185036D02*
X11396805Y-8194560D01*
X11396805Y-8194560D02*
X11377758Y-8204084D01*
X11377758Y-8204084D02*
X11320615Y-8204084D01*
X11320615Y-8204084D02*
X11301567Y-8194560D01*
X11301567Y-8194560D02*
X11292043Y-8185036D01*
X11530139Y-8089798D02*
X11511091Y-8080274D01*
X11511091Y-8080274D02*
X11501567Y-8070750D01*
X11501567Y-8070750D02*
X11492043Y-8051703D01*
X11492043Y-8051703D02*
X11492043Y-8042179D01*
X11492043Y-8042179D02*
X11501567Y-8023131D01*
X11501567Y-8023131D02*
X11511091Y-8013608D01*
X11511091Y-8013608D02*
X11530139Y-8004084D01*
X11530139Y-8004084D02*
X11568234Y-8004084D01*
X11568234Y-8004084D02*
X11587282Y-8013608D01*
X11587282Y-8013608D02*
X11596805Y-8023131D01*
X11596805Y-8023131D02*
X11606329Y-8042179D01*
X11606329Y-8042179D02*
X11606329Y-8051703D01*
X11606329Y-8051703D02*
X11596805Y-8070750D01*
X11596805Y-8070750D02*
X11587282Y-8080274D01*
X11587282Y-8080274D02*
X11568234Y-8089798D01*
X11568234Y-8089798D02*
X11530139Y-8089798D01*
X11530139Y-8089798D02*
X11511091Y-8099322D01*
X11511091Y-8099322D02*
X11501567Y-8108846D01*
X11501567Y-8108846D02*
X11492043Y-8127893D01*
X11492043Y-8127893D02*
X11492043Y-8165988D01*
X11492043Y-8165988D02*
X11501567Y-8185036D01*
X11501567Y-8185036D02*
X11511091Y-8194560D01*
X11511091Y-8194560D02*
X11530139Y-8204084D01*
X11530139Y-8204084D02*
X11568234Y-8204084D01*
X11568234Y-8204084D02*
X11587282Y-8194560D01*
X11587282Y-8194560D02*
X11596805Y-8185036D01*
X11596805Y-8185036D02*
X11606329Y-8165988D01*
X11606329Y-8165988D02*
X11606329Y-8127893D01*
X11606329Y-8127893D02*
X11596805Y-8108846D01*
X11596805Y-8108846D02*
X11587282Y-8099322D01*
X11587282Y-8099322D02*
X11568234Y-8089798D01*
X11796805Y-8204084D02*
X11682520Y-8204084D01*
X11739662Y-8204084D02*
X11739662Y-8004084D01*
X11739662Y-8004084D02*
X11720615Y-8032655D01*
X11720615Y-8032655D02*
X11701567Y-8051703D01*
X11701567Y-8051703D02*
X11682520Y-8061227D01*
X11882520Y-8204084D02*
X11882520Y-8070750D01*
X11882520Y-8089798D02*
X11892043Y-8080274D01*
X11892043Y-8080274D02*
X11911091Y-8070750D01*
X11911091Y-8070750D02*
X11939663Y-8070750D01*
X11939663Y-8070750D02*
X11958710Y-8080274D01*
X11958710Y-8080274D02*
X11968234Y-8099322D01*
X11968234Y-8099322D02*
X11968234Y-8204084D01*
X11968234Y-8099322D02*
X11977758Y-8080274D01*
X11977758Y-8080274D02*
X11996805Y-8070750D01*
X11996805Y-8070750D02*
X12025377Y-8070750D01*
X12025377Y-8070750D02*
X12044424Y-8080274D01*
X12044424Y-8080274D02*
X12053948Y-8099322D01*
X12053948Y-8099322D02*
X12053948Y-8204084D01*
X12149186Y-8204084D02*
X12149186Y-8070750D01*
X12149186Y-8089798D02*
X12158710Y-8080274D01*
X12158710Y-8080274D02*
X12177758Y-8070750D01*
X12177758Y-8070750D02*
X12206329Y-8070750D01*
X12206329Y-8070750D02*
X12225377Y-8080274D01*
X12225377Y-8080274D02*
X12234901Y-8099322D01*
X12234901Y-8099322D02*
X12234901Y-8204084D01*
X12234901Y-8099322D02*
X12244424Y-8080274D01*
X12244424Y-8080274D02*
X12263472Y-8070750D01*
X12263472Y-8070750D02*
X12292043Y-8070750D01*
X12292043Y-8070750D02*
X12311091Y-8080274D01*
X12311091Y-8080274D02*
X12320615Y-8099322D01*
X12320615Y-8099322D02*
X12320615Y-8204084D01*
X12711091Y-7994560D02*
X12539663Y-8251703D01*
X12968234Y-8004084D02*
X12987282Y-8004084D01*
X12987282Y-8004084D02*
X13006329Y-8013608D01*
X13006329Y-8013608D02*
X13015853Y-8023131D01*
X13015853Y-8023131D02*
X13025377Y-8042179D01*
X13025377Y-8042179D02*
X13034901Y-8080274D01*
X13034901Y-8080274D02*
X13034901Y-8127893D01*
X13034901Y-8127893D02*
X13025377Y-8165988D01*
X13025377Y-8165988D02*
X13015853Y-8185036D01*
X13015853Y-8185036D02*
X13006329Y-8194560D01*
X13006329Y-8194560D02*
X12987282Y-8204084D01*
X12987282Y-8204084D02*
X12968234Y-8204084D01*
X12968234Y-8204084D02*
X12949186Y-8194560D01*
X12949186Y-8194560D02*
X12939663Y-8185036D01*
X12939663Y-8185036D02*
X12930139Y-8165988D01*
X12930139Y-8165988D02*
X12920615Y-8127893D01*
X12920615Y-8127893D02*
X12920615Y-8080274D01*
X12920615Y-8080274D02*
X12930139Y-8042179D01*
X12930139Y-8042179D02*
X12939663Y-8023131D01*
X12939663Y-8023131D02*
X12949186Y-8013608D01*
X12949186Y-8013608D02*
X12968234Y-8004084D01*
X13120615Y-8185036D02*
X13130139Y-8194560D01*
X13130139Y-8194560D02*
X13120615Y-8204084D01*
X13120615Y-8204084D02*
X13111091Y-8194560D01*
X13111091Y-8194560D02*
X13120615Y-8185036D01*
X13120615Y-8185036D02*
X13120615Y-8204084D01*
X13253948Y-8004084D02*
X13272996Y-8004084D01*
X13272996Y-8004084D02*
X13292044Y-8013608D01*
X13292044Y-8013608D02*
X13301567Y-8023131D01*
X13301567Y-8023131D02*
X13311091Y-8042179D01*
X13311091Y-8042179D02*
X13320615Y-8080274D01*
X13320615Y-8080274D02*
X13320615Y-8127893D01*
X13320615Y-8127893D02*
X13311091Y-8165988D01*
X13311091Y-8165988D02*
X13301567Y-8185036D01*
X13301567Y-8185036D02*
X13292044Y-8194560D01*
X13292044Y-8194560D02*
X13272996Y-8204084D01*
X13272996Y-8204084D02*
X13253948Y-8204084D01*
X13253948Y-8204084D02*
X13234901Y-8194560D01*
X13234901Y-8194560D02*
X13225377Y-8185036D01*
X13225377Y-8185036D02*
X13215853Y-8165988D01*
X13215853Y-8165988D02*
X13206329Y-8127893D01*
X13206329Y-8127893D02*
X13206329Y-8080274D01*
X13206329Y-8080274D02*
X13215853Y-8042179D01*
X13215853Y-8042179D02*
X13225377Y-8023131D01*
X13225377Y-8023131D02*
X13234901Y-8013608D01*
X13234901Y-8013608D02*
X13253948Y-8004084D01*
X13511091Y-8204084D02*
X13396806Y-8204084D01*
X13453948Y-8204084D02*
X13453948Y-8004084D01*
X13453948Y-8004084D02*
X13434901Y-8032655D01*
X13434901Y-8032655D02*
X13415853Y-8051703D01*
X13415853Y-8051703D02*
X13396806Y-8061227D01*
X13692044Y-8004084D02*
X13596806Y-8004084D01*
X13596806Y-8004084D02*
X13587282Y-8099322D01*
X13587282Y-8099322D02*
X13596806Y-8089798D01*
X13596806Y-8089798D02*
X13615853Y-8080274D01*
X13615853Y-8080274D02*
X13663472Y-8080274D01*
X13663472Y-8080274D02*
X13682520Y-8089798D01*
X13682520Y-8089798D02*
X13692044Y-8099322D01*
X13692044Y-8099322D02*
X13701567Y-8118369D01*
X13701567Y-8118369D02*
X13701567Y-8165988D01*
X13701567Y-8165988D02*
X13692044Y-8185036D01*
X13692044Y-8185036D02*
X13682520Y-8194560D01*
X13682520Y-8194560D02*
X13663472Y-8204084D01*
X13663472Y-8204084D02*
X13615853Y-8204084D01*
X13615853Y-8204084D02*
X13596806Y-8194560D01*
X13596806Y-8194560D02*
X13587282Y-8185036D01*
X13825377Y-8004084D02*
X13844425Y-8004084D01*
X13844425Y-8004084D02*
X13863472Y-8013608D01*
X13863472Y-8013608D02*
X13872996Y-8023131D01*
X13872996Y-8023131D02*
X13882520Y-8042179D01*
X13882520Y-8042179D02*
X13892044Y-8080274D01*
X13892044Y-8080274D02*
X13892044Y-8127893D01*
X13892044Y-8127893D02*
X13882520Y-8165988D01*
X13882520Y-8165988D02*
X13872996Y-8185036D01*
X13872996Y-8185036D02*
X13863472Y-8194560D01*
X13863472Y-8194560D02*
X13844425Y-8204084D01*
X13844425Y-8204084D02*
X13825377Y-8204084D01*
X13825377Y-8204084D02*
X13806329Y-8194560D01*
X13806329Y-8194560D02*
X13796806Y-8185036D01*
X13796806Y-8185036D02*
X13787282Y-8165988D01*
X13787282Y-8165988D02*
X13777758Y-8127893D01*
X13777758Y-8127893D02*
X13777758Y-8080274D01*
X13777758Y-8080274D02*
X13787282Y-8042179D01*
X13787282Y-8042179D02*
X13796806Y-8023131D01*
X13796806Y-8023131D02*
X13806329Y-8013608D01*
X13806329Y-8013608D02*
X13825377Y-8004084D01*
X13968234Y-8004084D02*
X13968234Y-8042179D01*
X14044425Y-8004084D02*
X14044425Y-8042179D01*
X14339663Y-8280274D02*
X14330139Y-8270750D01*
X14330139Y-8270750D02*
X14311091Y-8242179D01*
X14311091Y-8242179D02*
X14301568Y-8223131D01*
X14301568Y-8223131D02*
X14292044Y-8194560D01*
X14292044Y-8194560D02*
X14282520Y-8146941D01*
X14282520Y-8146941D02*
X14282520Y-8108846D01*
X14282520Y-8108846D02*
X14292044Y-8061227D01*
X14292044Y-8061227D02*
X14301568Y-8032655D01*
X14301568Y-8032655D02*
X14311091Y-8013608D01*
X14311091Y-8013608D02*
X14330139Y-7985036D01*
X14330139Y-7985036D02*
X14339663Y-7975512D01*
X14501568Y-8004084D02*
X14463472Y-8004084D01*
X14463472Y-8004084D02*
X14444425Y-8013608D01*
X14444425Y-8013608D02*
X14434901Y-8023131D01*
X14434901Y-8023131D02*
X14415853Y-8051703D01*
X14415853Y-8051703D02*
X14406329Y-8089798D01*
X14406329Y-8089798D02*
X14406329Y-8165988D01*
X14406329Y-8165988D02*
X14415853Y-8185036D01*
X14415853Y-8185036D02*
X14425377Y-8194560D01*
X14425377Y-8194560D02*
X14444425Y-8204084D01*
X14444425Y-8204084D02*
X14482520Y-8204084D01*
X14482520Y-8204084D02*
X14501568Y-8194560D01*
X14501568Y-8194560D02*
X14511091Y-8185036D01*
X14511091Y-8185036D02*
X14520615Y-8165988D01*
X14520615Y-8165988D02*
X14520615Y-8118369D01*
X14520615Y-8118369D02*
X14511091Y-8099322D01*
X14511091Y-8099322D02*
X14501568Y-8089798D01*
X14501568Y-8089798D02*
X14482520Y-8080274D01*
X14482520Y-8080274D02*
X14444425Y-8080274D01*
X14444425Y-8080274D02*
X14425377Y-8089798D01*
X14425377Y-8089798D02*
X14415853Y-8099322D01*
X14415853Y-8099322D02*
X14406329Y-8118369D01*
X14758710Y-8204084D02*
X14758710Y-8004084D01*
X14844425Y-8204084D02*
X14844425Y-8099322D01*
X14844425Y-8099322D02*
X14834901Y-8080274D01*
X14834901Y-8080274D02*
X14815853Y-8070750D01*
X14815853Y-8070750D02*
X14787282Y-8070750D01*
X14787282Y-8070750D02*
X14768234Y-8080274D01*
X14768234Y-8080274D02*
X14758710Y-8089798D01*
X14968234Y-8204084D02*
X14949187Y-8194560D01*
X14949187Y-8194560D02*
X14939663Y-8185036D01*
X14939663Y-8185036D02*
X14930139Y-8165988D01*
X14930139Y-8165988D02*
X14930139Y-8108846D01*
X14930139Y-8108846D02*
X14939663Y-8089798D01*
X14939663Y-8089798D02*
X14949187Y-8080274D01*
X14949187Y-8080274D02*
X14968234Y-8070750D01*
X14968234Y-8070750D02*
X14996806Y-8070750D01*
X14996806Y-8070750D02*
X15015853Y-8080274D01*
X15015853Y-8080274D02*
X15025377Y-8089798D01*
X15025377Y-8089798D02*
X15034901Y-8108846D01*
X15034901Y-8108846D02*
X15034901Y-8165988D01*
X15034901Y-8165988D02*
X15025377Y-8185036D01*
X15025377Y-8185036D02*
X15015853Y-8194560D01*
X15015853Y-8194560D02*
X14996806Y-8204084D01*
X14996806Y-8204084D02*
X14968234Y-8204084D01*
X15149187Y-8204084D02*
X15130139Y-8194560D01*
X15130139Y-8194560D02*
X15120615Y-8175512D01*
X15120615Y-8175512D02*
X15120615Y-8004084D01*
X15301568Y-8194560D02*
X15282520Y-8204084D01*
X15282520Y-8204084D02*
X15244425Y-8204084D01*
X15244425Y-8204084D02*
X15225377Y-8194560D01*
X15225377Y-8194560D02*
X15215853Y-8175512D01*
X15215853Y-8175512D02*
X15215853Y-8099322D01*
X15215853Y-8099322D02*
X15225377Y-8080274D01*
X15225377Y-8080274D02*
X15244425Y-8070750D01*
X15244425Y-8070750D02*
X15282520Y-8070750D01*
X15282520Y-8070750D02*
X15301568Y-8080274D01*
X15301568Y-8080274D02*
X15311091Y-8099322D01*
X15311091Y-8099322D02*
X15311091Y-8118369D01*
X15311091Y-8118369D02*
X15215853Y-8137417D01*
X15387282Y-8194560D02*
X15406330Y-8204084D01*
X15406330Y-8204084D02*
X15444425Y-8204084D01*
X15444425Y-8204084D02*
X15463472Y-8194560D01*
X15463472Y-8194560D02*
X15472996Y-8175512D01*
X15472996Y-8175512D02*
X15472996Y-8165988D01*
X15472996Y-8165988D02*
X15463472Y-8146941D01*
X15463472Y-8146941D02*
X15444425Y-8137417D01*
X15444425Y-8137417D02*
X15415853Y-8137417D01*
X15415853Y-8137417D02*
X15396806Y-8127893D01*
X15396806Y-8127893D02*
X15387282Y-8108846D01*
X15387282Y-8108846D02*
X15387282Y-8099322D01*
X15387282Y-8099322D02*
X15396806Y-8080274D01*
X15396806Y-8080274D02*
X15415853Y-8070750D01*
X15415853Y-8070750D02*
X15444425Y-8070750D01*
X15444425Y-8070750D02*
X15463472Y-8080274D01*
X15539663Y-8280274D02*
X15549187Y-8270750D01*
X15549187Y-8270750D02*
X15568234Y-8242179D01*
X15568234Y-8242179D02*
X15577758Y-8223131D01*
X15577758Y-8223131D02*
X15587282Y-8194560D01*
X15587282Y-8194560D02*
X15596806Y-8146941D01*
X15596806Y-8146941D02*
X15596806Y-8108846D01*
X15596806Y-8108846D02*
X15587282Y-8061227D01*
X15587282Y-8061227D02*
X15577758Y-8032655D01*
X15577758Y-8032655D02*
X15568234Y-8013608D01*
X15568234Y-8013608D02*
X15549187Y-7985036D01*
X15549187Y-7985036D02*
X15539663Y-7975512D01*
D10*
X10764600Y-8376600D02*
G75*
G02*
X10664600Y-8376600I-50000J0D01*
G01*
X10664600Y-8376600D02*
G75*
G02*
X10764600Y-8376600I50000J0D01*
G01*
D11*
X11130139Y-8468084D02*
X11015853Y-8468084D01*
X11072996Y-8468084D02*
X11072996Y-8268084D01*
X11072996Y-8268084D02*
X11053948Y-8296655D01*
X11053948Y-8296655D02*
X11034901Y-8315703D01*
X11034901Y-8315703D02*
X11015853Y-8325227D01*
X11215853Y-8449036D02*
X11225377Y-8458560D01*
X11225377Y-8458560D02*
X11215853Y-8468084D01*
X11215853Y-8468084D02*
X11206329Y-8458560D01*
X11206329Y-8458560D02*
X11215853Y-8449036D01*
X11215853Y-8449036D02*
X11215853Y-8468084D01*
X11349186Y-8268084D02*
X11368234Y-8268084D01*
X11368234Y-8268084D02*
X11387282Y-8277608D01*
X11387282Y-8277608D02*
X11396805Y-8287131D01*
X11396805Y-8287131D02*
X11406329Y-8306179D01*
X11406329Y-8306179D02*
X11415853Y-8344274D01*
X11415853Y-8344274D02*
X11415853Y-8391893D01*
X11415853Y-8391893D02*
X11406329Y-8429989D01*
X11406329Y-8429989D02*
X11396805Y-8449036D01*
X11396805Y-8449036D02*
X11387282Y-8458560D01*
X11387282Y-8458560D02*
X11368234Y-8468084D01*
X11368234Y-8468084D02*
X11349186Y-8468084D01*
X11349186Y-8468084D02*
X11330139Y-8458560D01*
X11330139Y-8458560D02*
X11320615Y-8449036D01*
X11320615Y-8449036D02*
X11311091Y-8429989D01*
X11311091Y-8429989D02*
X11301567Y-8391893D01*
X11301567Y-8391893D02*
X11301567Y-8344274D01*
X11301567Y-8344274D02*
X11311091Y-8306179D01*
X11311091Y-8306179D02*
X11320615Y-8287131D01*
X11320615Y-8287131D02*
X11330139Y-8277608D01*
X11330139Y-8277608D02*
X11349186Y-8268084D01*
X11539662Y-8268084D02*
X11558710Y-8268084D01*
X11558710Y-8268084D02*
X11577758Y-8277608D01*
X11577758Y-8277608D02*
X11587282Y-8287131D01*
X11587282Y-8287131D02*
X11596805Y-8306179D01*
X11596805Y-8306179D02*
X11606329Y-8344274D01*
X11606329Y-8344274D02*
X11606329Y-8391893D01*
X11606329Y-8391893D02*
X11596805Y-8429989D01*
X11596805Y-8429989D02*
X11587282Y-8449036D01*
X11587282Y-8449036D02*
X11577758Y-8458560D01*
X11577758Y-8458560D02*
X11558710Y-8468084D01*
X11558710Y-8468084D02*
X11539662Y-8468084D01*
X11539662Y-8468084D02*
X11520615Y-8458560D01*
X11520615Y-8458560D02*
X11511091Y-8449036D01*
X11511091Y-8449036D02*
X11501567Y-8429989D01*
X11501567Y-8429989D02*
X11492043Y-8391893D01*
X11492043Y-8391893D02*
X11492043Y-8344274D01*
X11492043Y-8344274D02*
X11501567Y-8306179D01*
X11501567Y-8306179D02*
X11511091Y-8287131D01*
X11511091Y-8287131D02*
X11520615Y-8277608D01*
X11520615Y-8277608D02*
X11539662Y-8268084D01*
X11730139Y-8268084D02*
X11749186Y-8268084D01*
X11749186Y-8268084D02*
X11768234Y-8277608D01*
X11768234Y-8277608D02*
X11777758Y-8287131D01*
X11777758Y-8287131D02*
X11787282Y-8306179D01*
X11787282Y-8306179D02*
X11796805Y-8344274D01*
X11796805Y-8344274D02*
X11796805Y-8391893D01*
X11796805Y-8391893D02*
X11787282Y-8429989D01*
X11787282Y-8429989D02*
X11777758Y-8449036D01*
X11777758Y-8449036D02*
X11768234Y-8458560D01*
X11768234Y-8458560D02*
X11749186Y-8468084D01*
X11749186Y-8468084D02*
X11730139Y-8468084D01*
X11730139Y-8468084D02*
X11711091Y-8458560D01*
X11711091Y-8458560D02*
X11701567Y-8449036D01*
X11701567Y-8449036D02*
X11692043Y-8429989D01*
X11692043Y-8429989D02*
X11682520Y-8391893D01*
X11682520Y-8391893D02*
X11682520Y-8344274D01*
X11682520Y-8344274D02*
X11692043Y-8306179D01*
X11692043Y-8306179D02*
X11701567Y-8287131D01*
X11701567Y-8287131D02*
X11711091Y-8277608D01*
X11711091Y-8277608D02*
X11730139Y-8268084D01*
X11882520Y-8468084D02*
X11882520Y-8334750D01*
X11882520Y-8353798D02*
X11892043Y-8344274D01*
X11892043Y-8344274D02*
X11911091Y-8334750D01*
X11911091Y-8334750D02*
X11939663Y-8334750D01*
X11939663Y-8334750D02*
X11958710Y-8344274D01*
X11958710Y-8344274D02*
X11968234Y-8363322D01*
X11968234Y-8363322D02*
X11968234Y-8468084D01*
X11968234Y-8363322D02*
X11977758Y-8344274D01*
X11977758Y-8344274D02*
X11996805Y-8334750D01*
X11996805Y-8334750D02*
X12025377Y-8334750D01*
X12025377Y-8334750D02*
X12044424Y-8344274D01*
X12044424Y-8344274D02*
X12053948Y-8363322D01*
X12053948Y-8363322D02*
X12053948Y-8468084D01*
X12149186Y-8468084D02*
X12149186Y-8334750D01*
X12149186Y-8353798D02*
X12158710Y-8344274D01*
X12158710Y-8344274D02*
X12177758Y-8334750D01*
X12177758Y-8334750D02*
X12206329Y-8334750D01*
X12206329Y-8334750D02*
X12225377Y-8344274D01*
X12225377Y-8344274D02*
X12234901Y-8363322D01*
X12234901Y-8363322D02*
X12234901Y-8468084D01*
X12234901Y-8363322D02*
X12244424Y-8344274D01*
X12244424Y-8344274D02*
X12263472Y-8334750D01*
X12263472Y-8334750D02*
X12292043Y-8334750D01*
X12292043Y-8334750D02*
X12311091Y-8344274D01*
X12311091Y-8344274D02*
X12320615Y-8363322D01*
X12320615Y-8363322D02*
X12320615Y-8468084D01*
X12711091Y-8258560D02*
X12539663Y-8515703D01*
X12968234Y-8268084D02*
X12987282Y-8268084D01*
X12987282Y-8268084D02*
X13006329Y-8277608D01*
X13006329Y-8277608D02*
X13015853Y-8287131D01*
X13015853Y-8287131D02*
X13025377Y-8306179D01*
X13025377Y-8306179D02*
X13034901Y-8344274D01*
X13034901Y-8344274D02*
X13034901Y-8391893D01*
X13034901Y-8391893D02*
X13025377Y-8429989D01*
X13025377Y-8429989D02*
X13015853Y-8449036D01*
X13015853Y-8449036D02*
X13006329Y-8458560D01*
X13006329Y-8458560D02*
X12987282Y-8468084D01*
X12987282Y-8468084D02*
X12968234Y-8468084D01*
X12968234Y-8468084D02*
X12949186Y-8458560D01*
X12949186Y-8458560D02*
X12939663Y-8449036D01*
X12939663Y-8449036D02*
X12930139Y-8429989D01*
X12930139Y-8429989D02*
X12920615Y-8391893D01*
X12920615Y-8391893D02*
X12920615Y-8344274D01*
X12920615Y-8344274D02*
X12930139Y-8306179D01*
X12930139Y-8306179D02*
X12939663Y-8287131D01*
X12939663Y-8287131D02*
X12949186Y-8277608D01*
X12949186Y-8277608D02*
X12968234Y-8268084D01*
X13120615Y-8449036D02*
X13130139Y-8458560D01*
X13130139Y-8458560D02*
X13120615Y-8468084D01*
X13120615Y-8468084D02*
X13111091Y-8458560D01*
X13111091Y-8458560D02*
X13120615Y-8449036D01*
X13120615Y-8449036D02*
X13120615Y-8468084D01*
X13253948Y-8268084D02*
X13272996Y-8268084D01*
X13272996Y-8268084D02*
X13292044Y-8277608D01*
X13292044Y-8277608D02*
X13301567Y-8287131D01*
X13301567Y-8287131D02*
X13311091Y-8306179D01*
X13311091Y-8306179D02*
X13320615Y-8344274D01*
X13320615Y-8344274D02*
X13320615Y-8391893D01*
X13320615Y-8391893D02*
X13311091Y-8429989D01*
X13311091Y-8429989D02*
X13301567Y-8449036D01*
X13301567Y-8449036D02*
X13292044Y-8458560D01*
X13292044Y-8458560D02*
X13272996Y-8468084D01*
X13272996Y-8468084D02*
X13253948Y-8468084D01*
X13253948Y-8468084D02*
X13234901Y-8458560D01*
X13234901Y-8458560D02*
X13225377Y-8449036D01*
X13225377Y-8449036D02*
X13215853Y-8429989D01*
X13215853Y-8429989D02*
X13206329Y-8391893D01*
X13206329Y-8391893D02*
X13206329Y-8344274D01*
X13206329Y-8344274D02*
X13215853Y-8306179D01*
X13215853Y-8306179D02*
X13225377Y-8287131D01*
X13225377Y-8287131D02*
X13234901Y-8277608D01*
X13234901Y-8277608D02*
X13253948Y-8268084D01*
X13387282Y-8268084D02*
X13511091Y-8268084D01*
X13511091Y-8268084D02*
X13444425Y-8344274D01*
X13444425Y-8344274D02*
X13472996Y-8344274D01*
X13472996Y-8344274D02*
X13492044Y-8353798D01*
X13492044Y-8353798D02*
X13501567Y-8363322D01*
X13501567Y-8363322D02*
X13511091Y-8382369D01*
X13511091Y-8382369D02*
X13511091Y-8429989D01*
X13511091Y-8429989D02*
X13501567Y-8449036D01*
X13501567Y-8449036D02*
X13492044Y-8458560D01*
X13492044Y-8458560D02*
X13472996Y-8468084D01*
X13472996Y-8468084D02*
X13415853Y-8468084D01*
X13415853Y-8468084D02*
X13396806Y-8458560D01*
X13396806Y-8458560D02*
X13387282Y-8449036D01*
X13606329Y-8468084D02*
X13644425Y-8468084D01*
X13644425Y-8468084D02*
X13663472Y-8458560D01*
X13663472Y-8458560D02*
X13672996Y-8449036D01*
X13672996Y-8449036D02*
X13692044Y-8420465D01*
X13692044Y-8420465D02*
X13701567Y-8382369D01*
X13701567Y-8382369D02*
X13701567Y-8306179D01*
X13701567Y-8306179D02*
X13692044Y-8287131D01*
X13692044Y-8287131D02*
X13682520Y-8277608D01*
X13682520Y-8277608D02*
X13663472Y-8268084D01*
X13663472Y-8268084D02*
X13625377Y-8268084D01*
X13625377Y-8268084D02*
X13606329Y-8277608D01*
X13606329Y-8277608D02*
X13596806Y-8287131D01*
X13596806Y-8287131D02*
X13587282Y-8306179D01*
X13587282Y-8306179D02*
X13587282Y-8353798D01*
X13587282Y-8353798D02*
X13596806Y-8372846D01*
X13596806Y-8372846D02*
X13606329Y-8382369D01*
X13606329Y-8382369D02*
X13625377Y-8391893D01*
X13625377Y-8391893D02*
X13663472Y-8391893D01*
X13663472Y-8391893D02*
X13682520Y-8382369D01*
X13682520Y-8382369D02*
X13692044Y-8372846D01*
X13692044Y-8372846D02*
X13701567Y-8353798D01*
X13872996Y-8334750D02*
X13872996Y-8468084D01*
X13825377Y-8258560D02*
X13777758Y-8401417D01*
X13777758Y-8401417D02*
X13901567Y-8401417D01*
X13968234Y-8268084D02*
X13968234Y-8306179D01*
X14044425Y-8268084D02*
X14044425Y-8306179D01*
X14339663Y-8544274D02*
X14330139Y-8534750D01*
X14330139Y-8534750D02*
X14311091Y-8506179D01*
X14311091Y-8506179D02*
X14301568Y-8487131D01*
X14301568Y-8487131D02*
X14292044Y-8458560D01*
X14292044Y-8458560D02*
X14282520Y-8410941D01*
X14282520Y-8410941D02*
X14282520Y-8372846D01*
X14282520Y-8372846D02*
X14292044Y-8325227D01*
X14292044Y-8325227D02*
X14301568Y-8296655D01*
X14301568Y-8296655D02*
X14311091Y-8277608D01*
X14311091Y-8277608D02*
X14330139Y-8249036D01*
X14330139Y-8249036D02*
X14339663Y-8239512D01*
X14501568Y-8334750D02*
X14501568Y-8468084D01*
X14453948Y-8258560D02*
X14406329Y-8401417D01*
X14406329Y-8401417D02*
X14530139Y-8401417D01*
X14758710Y-8468084D02*
X14758710Y-8268084D01*
X14844425Y-8468084D02*
X14844425Y-8363322D01*
X14844425Y-8363322D02*
X14834901Y-8344274D01*
X14834901Y-8344274D02*
X14815853Y-8334750D01*
X14815853Y-8334750D02*
X14787282Y-8334750D01*
X14787282Y-8334750D02*
X14768234Y-8344274D01*
X14768234Y-8344274D02*
X14758710Y-8353798D01*
X14968234Y-8468084D02*
X14949187Y-8458560D01*
X14949187Y-8458560D02*
X14939663Y-8449036D01*
X14939663Y-8449036D02*
X14930139Y-8429989D01*
X14930139Y-8429989D02*
X14930139Y-8372846D01*
X14930139Y-8372846D02*
X14939663Y-8353798D01*
X14939663Y-8353798D02*
X14949187Y-8344274D01*
X14949187Y-8344274D02*
X14968234Y-8334750D01*
X14968234Y-8334750D02*
X14996806Y-8334750D01*
X14996806Y-8334750D02*
X15015853Y-8344274D01*
X15015853Y-8344274D02*
X15025377Y-8353798D01*
X15025377Y-8353798D02*
X15034901Y-8372846D01*
X15034901Y-8372846D02*
X15034901Y-8429989D01*
X15034901Y-8429989D02*
X15025377Y-8449036D01*
X15025377Y-8449036D02*
X15015853Y-8458560D01*
X15015853Y-8458560D02*
X14996806Y-8468084D01*
X14996806Y-8468084D02*
X14968234Y-8468084D01*
X15149187Y-8468084D02*
X15130139Y-8458560D01*
X15130139Y-8458560D02*
X15120615Y-8439512D01*
X15120615Y-8439512D02*
X15120615Y-8268084D01*
X15301568Y-8458560D02*
X15282520Y-8468084D01*
X15282520Y-8468084D02*
X15244425Y-8468084D01*
X15244425Y-8468084D02*
X15225377Y-8458560D01*
X15225377Y-8458560D02*
X15215853Y-8439512D01*
X15215853Y-8439512D02*
X15215853Y-8363322D01*
X15215853Y-8363322D02*
X15225377Y-8344274D01*
X15225377Y-8344274D02*
X15244425Y-8334750D01*
X15244425Y-8334750D02*
X15282520Y-8334750D01*
X15282520Y-8334750D02*
X15301568Y-8344274D01*
X15301568Y-8344274D02*
X15311091Y-8363322D01*
X15311091Y-8363322D02*
X15311091Y-8382369D01*
X15311091Y-8382369D02*
X15215853Y-8401417D01*
X15387282Y-8458560D02*
X15406330Y-8468084D01*
X15406330Y-8468084D02*
X15444425Y-8468084D01*
X15444425Y-8468084D02*
X15463472Y-8458560D01*
X15463472Y-8458560D02*
X15472996Y-8439512D01*
X15472996Y-8439512D02*
X15472996Y-8429989D01*
X15472996Y-8429989D02*
X15463472Y-8410941D01*
X15463472Y-8410941D02*
X15444425Y-8401417D01*
X15444425Y-8401417D02*
X15415853Y-8401417D01*
X15415853Y-8401417D02*
X15396806Y-8391893D01*
X15396806Y-8391893D02*
X15387282Y-8372846D01*
X15387282Y-8372846D02*
X15387282Y-8363322D01*
X15387282Y-8363322D02*
X15396806Y-8344274D01*
X15396806Y-8344274D02*
X15415853Y-8334750D01*
X15415853Y-8334750D02*
X15444425Y-8334750D01*
X15444425Y-8334750D02*
X15463472Y-8344274D01*
X15539663Y-8544274D02*
X15549187Y-8534750D01*
X15549187Y-8534750D02*
X15568234Y-8506179D01*
X15568234Y-8506179D02*
X15577758Y-8487131D01*
X15577758Y-8487131D02*
X15587282Y-8458560D01*
X15587282Y-8458560D02*
X15596806Y-8410941D01*
X15596806Y-8410941D02*
X15596806Y-8372846D01*
X15596806Y-8372846D02*
X15587282Y-8325227D01*
X15587282Y-8325227D02*
X15577758Y-8296655D01*
X15577758Y-8296655D02*
X15568234Y-8277608D01*
X15568234Y-8277608D02*
X15549187Y-8249036D01*
X15549187Y-8249036D02*
X15539663Y-8239512D01*
M02*
