%TF.GenerationSoftware,KiCad,Pcbnew,8.0.8*%
%TF.CreationDate,2025-04-18T18:46:17-04:00*%
%TF.ProjectId,sht40,73687434-302e-46b6-9963-61645f706362,rev?*%
%TF.SameCoordinates,Original*%
%TF.FileFunction,Copper,L1,Top*%
%TF.FilePolarity,Positive*%
%FSLAX46Y46*%
G04 Gerber Fmt 4.6, Leading zero omitted, Abs format (unit mm)*
G04 Created by KiCad (PCBNEW 8.0.8) date 2025-04-18 18:46:17*
%MOMM*%
%LPD*%
G01*
G04 APERTURE LIST*
G04 Aperture macros list*
%AMRoundRect*
0 Rectangle with rounded corners*
0 $1 Rounding radius*
0 $2 $3 $4 $5 $6 $7 $8 $9 X,Y pos of 4 corners*
0 Add a 4 corners polygon primitive as box body*
4,1,4,$2,$3,$4,$5,$6,$7,$8,$9,$2,$3,0*
0 Add four circle primitives for the rounded corners*
1,1,$1+$1,$2,$3*
1,1,$1+$1,$4,$5*
1,1,$1+$1,$6,$7*
1,1,$1+$1,$8,$9*
0 Add four rect primitives between the rounded corners*
20,1,$1+$1,$2,$3,$4,$5,0*
20,1,$1+$1,$4,$5,$6,$7,0*
20,1,$1+$1,$6,$7,$8,$9,0*
20,1,$1+$1,$8,$9,$2,$3,0*%
G04 Aperture macros list end*
%TA.AperFunction,SMDPad,CuDef*%
%ADD10R,1.000000X3.150000*%
%TD*%
%TA.AperFunction,SMDPad,CuDef*%
%ADD11RoundRect,0.250000X0.450000X-0.350000X0.450000X0.350000X-0.450000X0.350000X-0.450000X-0.350000X0*%
%TD*%
%TA.AperFunction,ComponentPad*%
%ADD12R,2.000000X2.000000*%
%TD*%
%TA.AperFunction,SMDPad,CuDef*%
%ADD13RoundRect,0.250000X0.350000X0.450000X-0.350000X0.450000X-0.350000X-0.450000X0.350000X-0.450000X0*%
%TD*%
%TA.AperFunction,SMDPad,CuDef*%
%ADD14RoundRect,0.250000X-0.450000X0.325000X-0.450000X-0.325000X0.450000X-0.325000X0.450000X0.325000X0*%
%TD*%
%TA.AperFunction,SMDPad,CuDef*%
%ADD15RoundRect,0.250000X0.475000X-0.337500X0.475000X0.337500X-0.475000X0.337500X-0.475000X-0.337500X0*%
%TD*%
%TA.AperFunction,SMDPad,CuDef*%
%ADD16RoundRect,0.250000X-0.350000X-0.450000X0.350000X-0.450000X0.350000X0.450000X-0.350000X0.450000X0*%
%TD*%
%TA.AperFunction,SMDPad,CuDef*%
%ADD17R,3.150000X1.000000*%
%TD*%
%TA.AperFunction,ViaPad*%
%ADD18C,0.762000*%
%TD*%
%TA.AperFunction,Conductor*%
%ADD19C,0.254000*%
%TD*%
%TA.AperFunction,Conductor*%
%ADD20C,0.381000*%
%TD*%
G04 APERTURE END LIST*
D10*
%TO.P,J2,1,Pin_1*%
%TO.N,+3V3*%
X110460000Y-62525000D03*
%TO.P,J2,2,Pin_2*%
%TO.N,GND*%
X110460000Y-57475000D03*
%TO.P,J2,3,Pin_3*%
%TO.N,/SCL*%
X113000000Y-62525000D03*
%TO.P,J2,4,Pin_4*%
%TO.N,/SDA*%
X113000000Y-57475000D03*
%TD*%
D11*
%TO.P,R3,1*%
%TO.N,Net-(D1-A)*%
X134112000Y-66024000D03*
%TO.P,R3,2*%
%TO.N,+3V3*%
X134112000Y-64024000D03*
%TD*%
D12*
%TO.P,TP3,1,1*%
%TO.N,/SCL*%
X125476000Y-55880000D03*
%TD*%
D13*
%TO.P,R1,1*%
%TO.N,/SCL*%
X120888000Y-60452000D03*
%TO.P,R1,2*%
%TO.N,+3V3*%
X118888000Y-60452000D03*
%TD*%
D14*
%TO.P,D1,1,K*%
%TO.N,GND*%
X136652000Y-63999000D03*
%TO.P,D1,2,A*%
%TO.N,Net-(D1-A)*%
X136652000Y-66049000D03*
%TD*%
D12*
%TO.P,TP1,1,1*%
%TO.N,+3V3*%
X121412000Y-72136000D03*
%TD*%
D15*
%TO.P,C3,1*%
%TO.N,+3V3*%
X131572000Y-64029500D03*
%TO.P,C3,2*%
%TO.N,GND*%
X131572000Y-61954500D03*
%TD*%
D12*
%TO.P,TP4,1,1*%
%TO.N,/SDA*%
X117348000Y-72136000D03*
%TD*%
D16*
%TO.P,R2,1*%
%TO.N,+3V3*%
X118888000Y-63754000D03*
%TO.P,R2,2*%
%TO.N,/SDA*%
X120888000Y-63754000D03*
%TD*%
D12*
%TO.P,TP2,1,1*%
%TO.N,GND*%
X129286000Y-55880000D03*
%TD*%
D17*
%TO.P,J1,4,Pin_4*%
%TO.N,/SDA*%
X133525000Y-72000000D03*
%TO.P,J1,3,Pin_3*%
%TO.N,/SCL*%
X128475000Y-72000000D03*
%TO.P,J1,2,Pin_2*%
%TO.N,GND*%
X133525000Y-69460000D03*
%TO.P,J1,1,Pin_1*%
%TO.N,+3V3*%
X128475000Y-69460000D03*
%TD*%
D18*
%TO.N,GND*%
X110460000Y-57475000D03*
%TO.N,/SCL*%
X125547250Y-68452750D03*
X128475000Y-72000000D03*
%TO.N,/SDA*%
X133525000Y-72000000D03*
%TO.N,GND*%
X133525000Y-69460000D03*
%TO.N,+3V3*%
X130048000Y-60960000D03*
%TO.N,/SDA*%
X117000000Y-58000000D03*
X120888000Y-63754000D03*
%TO.N,/SCL*%
X122682000Y-61468000D03*
%TD*%
D19*
%TO.N,/SCL*%
X125547250Y-68452750D02*
X122682000Y-65587500D01*
X122682000Y-65587500D02*
X122682000Y-61468000D01*
D20*
%TO.N,+3V3*%
X124030000Y-69596000D02*
X128339000Y-69596000D01*
X131572000Y-66363000D02*
X131572000Y-64029500D01*
X128339000Y-69596000D02*
X131572000Y-66363000D01*
%TO.N,GND*%
X134484000Y-69460000D02*
X134620000Y-69596000D01*
%TO.N,+3V3*%
X118888000Y-63754000D02*
X118151500Y-64490500D01*
X118151500Y-64490500D02*
X111490500Y-64490500D01*
X110460000Y-63460000D02*
X110460000Y-62525000D01*
X111490500Y-64490500D02*
X110460000Y-63460000D01*
D19*
%TO.N,/SDA*%
X117000000Y-58000000D02*
X116475000Y-57475000D01*
X116475000Y-57475000D02*
X113000000Y-57475000D01*
%TO.N,/SCL*%
X120888000Y-60452000D02*
X120888000Y-59752000D01*
X120888000Y-59752000D02*
X120561000Y-59425000D01*
X120561000Y-59425000D02*
X116100000Y-59425000D01*
X116100000Y-59425000D02*
X113000000Y-62525000D01*
D20*
%TO.N,GND*%
X131572000Y-61954500D02*
X131572000Y-60452000D01*
X131572000Y-61954500D02*
X134607500Y-61954500D01*
X131572000Y-60452000D02*
X129286000Y-58166000D01*
X134607500Y-61954500D02*
X136652000Y-63999000D01*
X129286000Y-58166000D02*
X129286000Y-55880000D01*
%TO.N,+3V3*%
X118888000Y-64454000D02*
X124030000Y-69596000D01*
X130048000Y-62505500D02*
X130048000Y-60960000D01*
X134360500Y-64029500D02*
X134366000Y-64024000D01*
X131572000Y-64029500D02*
X134106500Y-64029500D01*
X131572000Y-64029500D02*
X130048000Y-62505500D01*
X118888000Y-63754000D02*
X118840000Y-63754000D01*
X124030000Y-69596000D02*
X123952000Y-69596000D01*
X118888000Y-60452000D02*
X118888000Y-63754000D01*
X118888000Y-63754000D02*
X118888000Y-64454000D01*
X123952000Y-69596000D02*
X121412000Y-72136000D01*
D19*
%TO.N,Net-(D1-A)*%
X134366000Y-66024000D02*
X136881000Y-66024000D01*
X136881000Y-66024000D02*
X136906000Y-66049000D01*
%TO.N,/SCL*%
X121666000Y-60452000D02*
X120888000Y-60452000D01*
X122682000Y-61468000D02*
X121666000Y-60452000D01*
X120904000Y-60452000D02*
X125476000Y-55880000D01*
%TD*%
M02*
