%TF.GenerationSoftware,KiCad,Pcbnew,8.0.8*%
%TF.CreationDate,2025-04-18T18:46:17-04:00*%
%TF.ProjectId,sht40,73687434-302e-46b6-9963-61645f706362,rev?*%
%TF.SameCoordinates,Original*%
%TF.FileFunction,Legend,Bot*%
%TF.FilePolarity,Positive*%
%FSLAX46Y46*%
G04 Gerber Fmt 4.6, Leading zero omitted, Abs format (unit mm)*
G04 Created by KiCad (PCBNEW 8.0.8) date 2025-04-18 18:46:17*
%MOMM*%
%LPD*%
G01*
G04 APERTURE LIST*
%ADD10C,0.150000*%
%ADD11C,0.120000*%
%ADD12R,2.000000X2.000000*%
%ADD13C,3.200000*%
%ADD14R,0.500000X0.300000*%
G04 APERTURE END LIST*
D10*
X127774458Y-59046700D02*
X127667316Y-59082414D01*
X127667316Y-59082414D02*
X127488744Y-59082414D01*
X127488744Y-59082414D02*
X127417316Y-59046700D01*
X127417316Y-59046700D02*
X127381601Y-59010985D01*
X127381601Y-59010985D02*
X127345887Y-58939557D01*
X127345887Y-58939557D02*
X127345887Y-58868128D01*
X127345887Y-58868128D02*
X127381601Y-58796700D01*
X127381601Y-58796700D02*
X127417316Y-58760985D01*
X127417316Y-58760985D02*
X127488744Y-58725271D01*
X127488744Y-58725271D02*
X127631601Y-58689557D01*
X127631601Y-58689557D02*
X127703030Y-58653842D01*
X127703030Y-58653842D02*
X127738744Y-58618128D01*
X127738744Y-58618128D02*
X127774458Y-58546700D01*
X127774458Y-58546700D02*
X127774458Y-58475271D01*
X127774458Y-58475271D02*
X127738744Y-58403842D01*
X127738744Y-58403842D02*
X127703030Y-58368128D01*
X127703030Y-58368128D02*
X127631601Y-58332414D01*
X127631601Y-58332414D02*
X127453030Y-58332414D01*
X127453030Y-58332414D02*
X127345887Y-58368128D01*
X127024458Y-59082414D02*
X127024458Y-58332414D01*
X127024458Y-58689557D02*
X126595887Y-58689557D01*
X126595887Y-59082414D02*
X126595887Y-58332414D01*
X126345887Y-58332414D02*
X125917316Y-58332414D01*
X126131601Y-59082414D02*
X126131601Y-58332414D01*
X125345887Y-58582414D02*
X125345887Y-59082414D01*
X125524458Y-58296700D02*
X125703029Y-58832414D01*
X125703029Y-58832414D02*
X125238744Y-58832414D01*
X125024458Y-59082414D02*
X124631601Y-58582414D01*
X125024458Y-58582414D02*
X124631601Y-59082414D01*
X126809428Y-66391164D02*
X126809428Y-66998307D01*
X126809428Y-66998307D02*
X126773714Y-67069735D01*
X126773714Y-67069735D02*
X126738000Y-67105450D01*
X126738000Y-67105450D02*
X126666571Y-67141164D01*
X126666571Y-67141164D02*
X126523714Y-67141164D01*
X126523714Y-67141164D02*
X126452285Y-67105450D01*
X126452285Y-67105450D02*
X126416571Y-67069735D01*
X126416571Y-67069735D02*
X126380857Y-66998307D01*
X126380857Y-66998307D02*
X126380857Y-66391164D01*
X125630857Y-67141164D02*
X126059428Y-67141164D01*
X125845143Y-67141164D02*
X125845143Y-66391164D01*
X125845143Y-66391164D02*
X125916571Y-66498307D01*
X125916571Y-66498307D02*
X125988000Y-66569735D01*
X125988000Y-66569735D02*
X126059428Y-66605450D01*
D11*
%TO.C,U1*%
X127050000Y-62024000D02*
X125550000Y-62024000D01*
X127050000Y-63744000D02*
X125550000Y-63744000D01*
X125100000Y-63764000D02*
X124820000Y-63484000D01*
X125100000Y-63484000D01*
X125100000Y-63764000D01*
G36*
X125100000Y-63764000D02*
G01*
X124820000Y-63484000D01*
X125100000Y-63484000D01*
X125100000Y-63764000D01*
G37*
%TD*%
%LPC*%
D12*
%TO.C,TP3*%
X125476000Y-55880000D03*
%TD*%
%TO.C,TP1*%
X121412000Y-72136000D03*
%TD*%
D13*
%TO.C,REF\u002A\u002A*%
X134874000Y-57658000D03*
%TD*%
D12*
%TO.C,TP4*%
X117348000Y-72136000D03*
%TD*%
D13*
%TO.C,REF\u002A\u002A*%
X111760000Y-70612000D03*
%TD*%
D12*
%TO.C,TP2*%
X129286000Y-55880000D03*
%TD*%
D14*
%TO.C,U1*%
X125600000Y-63284000D03*
X125600000Y-62484000D03*
X127000000Y-62484000D03*
X127000000Y-63284000D03*
%TD*%
%LPD*%
M02*
