%TF.GenerationSoftware,KiCad,Pcbnew,8.0.8*%
%TF.CreationDate,2025-04-18T18:46:17-04:00*%
%TF.ProjectId,sht40,73687434-302e-46b6-9963-61645f706362,rev?*%
%TF.SameCoordinates,Original*%
%TF.FileFunction,Profile,NP*%
%FSLAX46Y46*%
G04 Gerber Fmt 4.6, Leading zero omitted, Abs format (unit mm)*
G04 Created by KiCad (PCBNEW 8.0.8) date 2025-04-18 18:46:17*
%MOMM*%
%LPD*%
G01*
G04 APERTURE LIST*
%TA.AperFunction,Profile*%
%ADD10C,0.100000*%
%TD*%
%TA.AperFunction,Profile*%
%ADD11C,0.200000*%
%TD*%
G04 APERTURE END LIST*
D10*
X107696000Y-53594000D02*
X138938000Y-53594000D01*
X138938000Y-74676000D01*
X107696000Y-74676000D01*
X107696000Y-53594000D01*
D11*
X124714000Y-65024000D02*
X127762000Y-65024000D01*
X127762000Y-63754000D01*
X128524000Y-63754000D01*
X128524000Y-65786000D01*
X123952000Y-65786000D01*
X123952000Y-63754000D01*
X124714000Y-63754000D01*
X124714000Y-65024000D01*
%TA.AperFunction,Profile*%
G36*
X124714000Y-65024000D02*
G01*
X127762000Y-65024000D01*
X127762000Y-63754000D01*
X128524000Y-63754000D01*
X128524000Y-65786000D01*
X123952000Y-65786000D01*
X123952000Y-63754000D01*
X124714000Y-63754000D01*
X124714000Y-65024000D01*
G37*
%TD.AperFunction*%
X128524000Y-61722000D02*
X127762000Y-61722000D01*
X127762000Y-60452000D01*
X124714000Y-60452000D01*
X124714000Y-61722000D01*
X123952000Y-61722000D01*
X123952000Y-59690000D01*
X128524000Y-59690000D01*
X128524000Y-61722000D01*
%TA.AperFunction,Profile*%
G36*
X128524000Y-61722000D02*
G01*
X127762000Y-61722000D01*
X127762000Y-60452000D01*
X124714000Y-60452000D01*
X124714000Y-61722000D01*
X123952000Y-61722000D01*
X123952000Y-59690000D01*
X128524000Y-59690000D01*
X128524000Y-61722000D01*
G37*
%TD.AperFunction*%
M02*
