%TF.GenerationSoftware,KiCad,Pcbnew,8.0.8*%
%TF.CreationDate,2025-04-18T18:46:17-04:00*%
%TF.ProjectId,sht40,73687434-302e-46b6-9963-61645f706362,rev?*%
%TF.SameCoordinates,Original*%
%TF.FileFunction,Legend,Top*%
%TF.FilePolarity,Positive*%
%FSLAX46Y46*%
G04 Gerber Fmt 4.6, Leading zero omitted, Abs format (unit mm)*
G04 Created by KiCad (PCBNEW 8.0.8) date 2025-04-18 18:46:17*
%MOMM*%
%LPD*%
G01*
G04 APERTURE LIST*
G04 Aperture macros list*
%AMRoundRect*
0 Rectangle with rounded corners*
0 $1 Rounding radius*
0 $2 $3 $4 $5 $6 $7 $8 $9 X,Y pos of 4 corners*
0 Add a 4 corners polygon primitive as box body*
4,1,4,$2,$3,$4,$5,$6,$7,$8,$9,$2,$3,0*
0 Add four circle primitives for the rounded corners*
1,1,$1+$1,$2,$3*
1,1,$1+$1,$4,$5*
1,1,$1+$1,$6,$7*
1,1,$1+$1,$8,$9*
0 Add four rect primitives between the rounded corners*
20,1,$1+$1,$2,$3,$4,$5,0*
20,1,$1+$1,$4,$5,$6,$7,0*
20,1,$1+$1,$6,$7,$8,$9,0*
20,1,$1+$1,$8,$9,$2,$3,0*%
G04 Aperture macros list end*
%ADD10C,0.150000*%
%ADD11C,0.120000*%
%ADD12R,1.000000X3.150000*%
%ADD13RoundRect,0.250000X0.450000X-0.350000X0.450000X0.350000X-0.450000X0.350000X-0.450000X-0.350000X0*%
%ADD14R,2.000000X2.000000*%
%ADD15RoundRect,0.250000X0.350000X0.450000X-0.350000X0.450000X-0.350000X-0.450000X0.350000X-0.450000X0*%
%ADD16RoundRect,0.250000X-0.450000X0.325000X-0.450000X-0.325000X0.450000X-0.325000X0.450000X0.325000X0*%
%ADD17RoundRect,0.250000X0.475000X-0.337500X0.475000X0.337500X-0.475000X0.337500X-0.475000X-0.337500X0*%
%ADD18C,3.200000*%
%ADD19RoundRect,0.250000X-0.350000X-0.450000X0.350000X-0.450000X0.350000X0.450000X-0.350000X0.450000X0*%
%ADD20R,3.150000X1.000000*%
G04 APERTURE END LIST*
D10*
X120601826Y-69508414D02*
X121066112Y-69508414D01*
X121066112Y-69508414D02*
X120816112Y-69794128D01*
X120816112Y-69794128D02*
X120923255Y-69794128D01*
X120923255Y-69794128D02*
X120994684Y-69829842D01*
X120994684Y-69829842D02*
X121030398Y-69865557D01*
X121030398Y-69865557D02*
X121066112Y-69936985D01*
X121066112Y-69936985D02*
X121066112Y-70115557D01*
X121066112Y-70115557D02*
X121030398Y-70186985D01*
X121030398Y-70186985D02*
X120994684Y-70222700D01*
X120994684Y-70222700D02*
X120923255Y-70258414D01*
X120923255Y-70258414D02*
X120708969Y-70258414D01*
X120708969Y-70258414D02*
X120637541Y-70222700D01*
X120637541Y-70222700D02*
X120601826Y-70186985D01*
X121280398Y-69508414D02*
X121530398Y-70258414D01*
X121530398Y-70258414D02*
X121780398Y-69508414D01*
X121958969Y-69508414D02*
X122423255Y-69508414D01*
X122423255Y-69508414D02*
X122173255Y-69794128D01*
X122173255Y-69794128D02*
X122280398Y-69794128D01*
X122280398Y-69794128D02*
X122351827Y-69829842D01*
X122351827Y-69829842D02*
X122387541Y-69865557D01*
X122387541Y-69865557D02*
X122423255Y-69936985D01*
X122423255Y-69936985D02*
X122423255Y-70115557D01*
X122423255Y-70115557D02*
X122387541Y-70186985D01*
X122387541Y-70186985D02*
X122351827Y-70222700D01*
X122351827Y-70222700D02*
X122280398Y-70258414D01*
X122280398Y-70258414D02*
X122066112Y-70258414D01*
X122066112Y-70258414D02*
X121994684Y-70222700D01*
X121994684Y-70222700D02*
X121958969Y-70186985D01*
X124701541Y-58284700D02*
X124808684Y-58320414D01*
X124808684Y-58320414D02*
X124987255Y-58320414D01*
X124987255Y-58320414D02*
X125058684Y-58284700D01*
X125058684Y-58284700D02*
X125094398Y-58248985D01*
X125094398Y-58248985D02*
X125130112Y-58177557D01*
X125130112Y-58177557D02*
X125130112Y-58106128D01*
X125130112Y-58106128D02*
X125094398Y-58034700D01*
X125094398Y-58034700D02*
X125058684Y-57998985D01*
X125058684Y-57998985D02*
X124987255Y-57963271D01*
X124987255Y-57963271D02*
X124844398Y-57927557D01*
X124844398Y-57927557D02*
X124772969Y-57891842D01*
X124772969Y-57891842D02*
X124737255Y-57856128D01*
X124737255Y-57856128D02*
X124701541Y-57784700D01*
X124701541Y-57784700D02*
X124701541Y-57713271D01*
X124701541Y-57713271D02*
X124737255Y-57641842D01*
X124737255Y-57641842D02*
X124772969Y-57606128D01*
X124772969Y-57606128D02*
X124844398Y-57570414D01*
X124844398Y-57570414D02*
X125022969Y-57570414D01*
X125022969Y-57570414D02*
X125130112Y-57606128D01*
X125880112Y-58248985D02*
X125844398Y-58284700D01*
X125844398Y-58284700D02*
X125737255Y-58320414D01*
X125737255Y-58320414D02*
X125665827Y-58320414D01*
X125665827Y-58320414D02*
X125558684Y-58284700D01*
X125558684Y-58284700D02*
X125487255Y-58213271D01*
X125487255Y-58213271D02*
X125451541Y-58141842D01*
X125451541Y-58141842D02*
X125415827Y-57998985D01*
X125415827Y-57998985D02*
X125415827Y-57891842D01*
X125415827Y-57891842D02*
X125451541Y-57748985D01*
X125451541Y-57748985D02*
X125487255Y-57677557D01*
X125487255Y-57677557D02*
X125558684Y-57606128D01*
X125558684Y-57606128D02*
X125665827Y-57570414D01*
X125665827Y-57570414D02*
X125737255Y-57570414D01*
X125737255Y-57570414D02*
X125844398Y-57606128D01*
X125844398Y-57606128D02*
X125880112Y-57641842D01*
X126558684Y-58320414D02*
X126201541Y-58320414D01*
X126201541Y-58320414D02*
X126201541Y-57570414D01*
X115303541Y-54853784D02*
X115410684Y-54889498D01*
X115410684Y-54889498D02*
X115589255Y-54889498D01*
X115589255Y-54889498D02*
X115660684Y-54853784D01*
X115660684Y-54853784D02*
X115696398Y-54818069D01*
X115696398Y-54818069D02*
X115732112Y-54746641D01*
X115732112Y-54746641D02*
X115732112Y-54675212D01*
X115732112Y-54675212D02*
X115696398Y-54603784D01*
X115696398Y-54603784D02*
X115660684Y-54568069D01*
X115660684Y-54568069D02*
X115589255Y-54532355D01*
X115589255Y-54532355D02*
X115446398Y-54496641D01*
X115446398Y-54496641D02*
X115374969Y-54460926D01*
X115374969Y-54460926D02*
X115339255Y-54425212D01*
X115339255Y-54425212D02*
X115303541Y-54353784D01*
X115303541Y-54353784D02*
X115303541Y-54282355D01*
X115303541Y-54282355D02*
X115339255Y-54210926D01*
X115339255Y-54210926D02*
X115374969Y-54175212D01*
X115374969Y-54175212D02*
X115446398Y-54139498D01*
X115446398Y-54139498D02*
X115624969Y-54139498D01*
X115624969Y-54139498D02*
X115732112Y-54175212D01*
X116053541Y-54889498D02*
X116053541Y-54139498D01*
X116053541Y-54496641D02*
X116482112Y-54496641D01*
X116482112Y-54889498D02*
X116482112Y-54139498D01*
X116732112Y-54139498D02*
X117160684Y-54139498D01*
X116946398Y-54889498D02*
X116946398Y-54139498D01*
X117732113Y-54389498D02*
X117732113Y-54889498D01*
X117553541Y-54103784D02*
X117374970Y-54639498D01*
X117374970Y-54639498D02*
X117839255Y-54639498D01*
X118267827Y-54139498D02*
X118339256Y-54139498D01*
X118339256Y-54139498D02*
X118410684Y-54175212D01*
X118410684Y-54175212D02*
X118446399Y-54210926D01*
X118446399Y-54210926D02*
X118482113Y-54282355D01*
X118482113Y-54282355D02*
X118517827Y-54425212D01*
X118517827Y-54425212D02*
X118517827Y-54603784D01*
X118517827Y-54603784D02*
X118482113Y-54746641D01*
X118482113Y-54746641D02*
X118446399Y-54818069D01*
X118446399Y-54818069D02*
X118410684Y-54853784D01*
X118410684Y-54853784D02*
X118339256Y-54889498D01*
X118339256Y-54889498D02*
X118267827Y-54889498D01*
X118267827Y-54889498D02*
X118196399Y-54853784D01*
X118196399Y-54853784D02*
X118160684Y-54818069D01*
X118160684Y-54818069D02*
X118124970Y-54746641D01*
X118124970Y-54746641D02*
X118089256Y-54603784D01*
X118089256Y-54603784D02*
X118089256Y-54425212D01*
X118089256Y-54425212D02*
X118124970Y-54282355D01*
X118124970Y-54282355D02*
X118160684Y-54210926D01*
X118160684Y-54210926D02*
X118196399Y-54175212D01*
X118196399Y-54175212D02*
X118267827Y-54139498D01*
X119339256Y-54389498D02*
X119517828Y-54889498D01*
X119517828Y-54889498D02*
X119696399Y-54389498D01*
X120374971Y-54889498D02*
X119946400Y-54889498D01*
X120160685Y-54889498D02*
X120160685Y-54139498D01*
X120160685Y-54139498D02*
X120089257Y-54246641D01*
X120089257Y-54246641D02*
X120017828Y-54318069D01*
X120017828Y-54318069D02*
X119946400Y-54353784D01*
X120696400Y-54818069D02*
X120732114Y-54853784D01*
X120732114Y-54853784D02*
X120696400Y-54889498D01*
X120696400Y-54889498D02*
X120660686Y-54853784D01*
X120660686Y-54853784D02*
X120696400Y-54818069D01*
X120696400Y-54818069D02*
X120696400Y-54889498D01*
X121374972Y-54389498D02*
X121374972Y-54889498D01*
X121196400Y-54103784D02*
X121017829Y-54639498D01*
X121017829Y-54639498D02*
X121482114Y-54639498D01*
X115660684Y-55346956D02*
X115517826Y-55346956D01*
X115517826Y-55346956D02*
X115446398Y-55382670D01*
X115446398Y-55382670D02*
X115410684Y-55418384D01*
X115410684Y-55418384D02*
X115339255Y-55525527D01*
X115339255Y-55525527D02*
X115303541Y-55668384D01*
X115303541Y-55668384D02*
X115303541Y-55954099D01*
X115303541Y-55954099D02*
X115339255Y-56025527D01*
X115339255Y-56025527D02*
X115374969Y-56061242D01*
X115374969Y-56061242D02*
X115446398Y-56096956D01*
X115446398Y-56096956D02*
X115589255Y-56096956D01*
X115589255Y-56096956D02*
X115660684Y-56061242D01*
X115660684Y-56061242D02*
X115696398Y-56025527D01*
X115696398Y-56025527D02*
X115732112Y-55954099D01*
X115732112Y-55954099D02*
X115732112Y-55775527D01*
X115732112Y-55775527D02*
X115696398Y-55704099D01*
X115696398Y-55704099D02*
X115660684Y-55668384D01*
X115660684Y-55668384D02*
X115589255Y-55632670D01*
X115589255Y-55632670D02*
X115446398Y-55632670D01*
X115446398Y-55632670D02*
X115374969Y-55668384D01*
X115374969Y-55668384D02*
X115339255Y-55704099D01*
X115339255Y-55704099D02*
X115303541Y-55775527D01*
X116053541Y-56025527D02*
X116089255Y-56061242D01*
X116089255Y-56061242D02*
X116053541Y-56096956D01*
X116053541Y-56096956D02*
X116017827Y-56061242D01*
X116017827Y-56061242D02*
X116053541Y-56025527D01*
X116053541Y-56025527D02*
X116053541Y-56096956D01*
X116446398Y-56096956D02*
X116589255Y-56096956D01*
X116589255Y-56096956D02*
X116660684Y-56061242D01*
X116660684Y-56061242D02*
X116696398Y-56025527D01*
X116696398Y-56025527D02*
X116767827Y-55918384D01*
X116767827Y-55918384D02*
X116803541Y-55775527D01*
X116803541Y-55775527D02*
X116803541Y-55489813D01*
X116803541Y-55489813D02*
X116767827Y-55418384D01*
X116767827Y-55418384D02*
X116732113Y-55382670D01*
X116732113Y-55382670D02*
X116660684Y-55346956D01*
X116660684Y-55346956D02*
X116517827Y-55346956D01*
X116517827Y-55346956D02*
X116446398Y-55382670D01*
X116446398Y-55382670D02*
X116410684Y-55418384D01*
X116410684Y-55418384D02*
X116374970Y-55489813D01*
X116374970Y-55489813D02*
X116374970Y-55668384D01*
X116374970Y-55668384D02*
X116410684Y-55739813D01*
X116410684Y-55739813D02*
X116446398Y-55775527D01*
X116446398Y-55775527D02*
X116517827Y-55811242D01*
X116517827Y-55811242D02*
X116660684Y-55811242D01*
X116660684Y-55811242D02*
X116732113Y-55775527D01*
X116732113Y-55775527D02*
X116767827Y-55739813D01*
X116767827Y-55739813D02*
X116803541Y-55668384D01*
X117267827Y-55346956D02*
X117339256Y-55346956D01*
X117339256Y-55346956D02*
X117410684Y-55382670D01*
X117410684Y-55382670D02*
X117446399Y-55418384D01*
X117446399Y-55418384D02*
X117482113Y-55489813D01*
X117482113Y-55489813D02*
X117517827Y-55632670D01*
X117517827Y-55632670D02*
X117517827Y-55811242D01*
X117517827Y-55811242D02*
X117482113Y-55954099D01*
X117482113Y-55954099D02*
X117446399Y-56025527D01*
X117446399Y-56025527D02*
X117410684Y-56061242D01*
X117410684Y-56061242D02*
X117339256Y-56096956D01*
X117339256Y-56096956D02*
X117267827Y-56096956D01*
X117267827Y-56096956D02*
X117196399Y-56061242D01*
X117196399Y-56061242D02*
X117160684Y-56025527D01*
X117160684Y-56025527D02*
X117124970Y-55954099D01*
X117124970Y-55954099D02*
X117089256Y-55811242D01*
X117089256Y-55811242D02*
X117089256Y-55632670D01*
X117089256Y-55632670D02*
X117124970Y-55489813D01*
X117124970Y-55489813D02*
X117160684Y-55418384D01*
X117160684Y-55418384D02*
X117196399Y-55382670D01*
X117196399Y-55382670D02*
X117267827Y-55346956D01*
X117982113Y-55346956D02*
X118053542Y-55346956D01*
X118053542Y-55346956D02*
X118124970Y-55382670D01*
X118124970Y-55382670D02*
X118160685Y-55418384D01*
X118160685Y-55418384D02*
X118196399Y-55489813D01*
X118196399Y-55489813D02*
X118232113Y-55632670D01*
X118232113Y-55632670D02*
X118232113Y-55811242D01*
X118232113Y-55811242D02*
X118196399Y-55954099D01*
X118196399Y-55954099D02*
X118160685Y-56025527D01*
X118160685Y-56025527D02*
X118124970Y-56061242D01*
X118124970Y-56061242D02*
X118053542Y-56096956D01*
X118053542Y-56096956D02*
X117982113Y-56096956D01*
X117982113Y-56096956D02*
X117910685Y-56061242D01*
X117910685Y-56061242D02*
X117874970Y-56025527D01*
X117874970Y-56025527D02*
X117839256Y-55954099D01*
X117839256Y-55954099D02*
X117803542Y-55811242D01*
X117803542Y-55811242D02*
X117803542Y-55632670D01*
X117803542Y-55632670D02*
X117839256Y-55489813D01*
X117839256Y-55489813D02*
X117874970Y-55418384D01*
X117874970Y-55418384D02*
X117910685Y-55382670D01*
X117910685Y-55382670D02*
X117982113Y-55346956D01*
X119124971Y-56096956D02*
X119124971Y-55346956D01*
X119124971Y-55346956D02*
X119374971Y-55882670D01*
X119374971Y-55882670D02*
X119624971Y-55346956D01*
X119624971Y-55346956D02*
X119624971Y-56096956D01*
X119982114Y-56096956D02*
X119982114Y-55596956D01*
X119982114Y-55346956D02*
X119946400Y-55382670D01*
X119946400Y-55382670D02*
X119982114Y-55418384D01*
X119982114Y-55418384D02*
X120017828Y-55382670D01*
X120017828Y-55382670D02*
X119982114Y-55346956D01*
X119982114Y-55346956D02*
X119982114Y-55418384D01*
X120232114Y-55596956D02*
X120517828Y-55596956D01*
X120339257Y-55346956D02*
X120339257Y-55989813D01*
X120339257Y-55989813D02*
X120374971Y-56061242D01*
X120374971Y-56061242D02*
X120446400Y-56096956D01*
X120446400Y-56096956D02*
X120517828Y-56096956D01*
X120874971Y-56096956D02*
X120803542Y-56061242D01*
X120803542Y-56061242D02*
X120767828Y-56025527D01*
X120767828Y-56025527D02*
X120732114Y-55954099D01*
X120732114Y-55954099D02*
X120732114Y-55739813D01*
X120732114Y-55739813D02*
X120767828Y-55668384D01*
X120767828Y-55668384D02*
X120803542Y-55632670D01*
X120803542Y-55632670D02*
X120874971Y-55596956D01*
X120874971Y-55596956D02*
X120982114Y-55596956D01*
X120982114Y-55596956D02*
X121053542Y-55632670D01*
X121053542Y-55632670D02*
X121089257Y-55668384D01*
X121089257Y-55668384D02*
X121124971Y-55739813D01*
X121124971Y-55739813D02*
X121124971Y-55954099D01*
X121124971Y-55954099D02*
X121089257Y-56025527D01*
X121089257Y-56025527D02*
X121053542Y-56061242D01*
X121053542Y-56061242D02*
X120982114Y-56096956D01*
X120982114Y-56096956D02*
X120874971Y-56096956D01*
X121410685Y-56061242D02*
X121482113Y-56096956D01*
X121482113Y-56096956D02*
X121624970Y-56096956D01*
X121624970Y-56096956D02*
X121696399Y-56061242D01*
X121696399Y-56061242D02*
X121732113Y-55989813D01*
X121732113Y-55989813D02*
X121732113Y-55954099D01*
X121732113Y-55954099D02*
X121696399Y-55882670D01*
X121696399Y-55882670D02*
X121624970Y-55846956D01*
X121624970Y-55846956D02*
X121517828Y-55846956D01*
X121517828Y-55846956D02*
X121446399Y-55811242D01*
X121446399Y-55811242D02*
X121410685Y-55739813D01*
X121410685Y-55739813D02*
X121410685Y-55704099D01*
X121410685Y-55704099D02*
X121446399Y-55632670D01*
X121446399Y-55632670D02*
X121517828Y-55596956D01*
X121517828Y-55596956D02*
X121624970Y-55596956D01*
X121624970Y-55596956D02*
X121696399Y-55632670D01*
X122053542Y-56096956D02*
X122053542Y-55596956D01*
X122053542Y-55346956D02*
X122017828Y-55382670D01*
X122017828Y-55382670D02*
X122053542Y-55418384D01*
X122053542Y-55418384D02*
X122089256Y-55382670D01*
X122089256Y-55382670D02*
X122053542Y-55346956D01*
X122053542Y-55346956D02*
X122053542Y-55418384D01*
X122374971Y-56061242D02*
X122446399Y-56096956D01*
X122446399Y-56096956D02*
X122589256Y-56096956D01*
X122589256Y-56096956D02*
X122660685Y-56061242D01*
X122660685Y-56061242D02*
X122696399Y-55989813D01*
X122696399Y-55989813D02*
X122696399Y-55954099D01*
X122696399Y-55954099D02*
X122660685Y-55882670D01*
X122660685Y-55882670D02*
X122589256Y-55846956D01*
X122589256Y-55846956D02*
X122482114Y-55846956D01*
X122482114Y-55846956D02*
X122410685Y-55811242D01*
X122410685Y-55811242D02*
X122374971Y-55739813D01*
X122374971Y-55739813D02*
X122374971Y-55704099D01*
X122374971Y-55704099D02*
X122410685Y-55632670D01*
X122410685Y-55632670D02*
X122482114Y-55596956D01*
X122482114Y-55596956D02*
X122589256Y-55596956D01*
X122589256Y-55596956D02*
X122660685Y-55632670D01*
X115482112Y-56554414D02*
X115553541Y-56554414D01*
X115553541Y-56554414D02*
X115624969Y-56590128D01*
X115624969Y-56590128D02*
X115660684Y-56625842D01*
X115660684Y-56625842D02*
X115696398Y-56697271D01*
X115696398Y-56697271D02*
X115732112Y-56840128D01*
X115732112Y-56840128D02*
X115732112Y-57018700D01*
X115732112Y-57018700D02*
X115696398Y-57161557D01*
X115696398Y-57161557D02*
X115660684Y-57232985D01*
X115660684Y-57232985D02*
X115624969Y-57268700D01*
X115624969Y-57268700D02*
X115553541Y-57304414D01*
X115553541Y-57304414D02*
X115482112Y-57304414D01*
X115482112Y-57304414D02*
X115410684Y-57268700D01*
X115410684Y-57268700D02*
X115374969Y-57232985D01*
X115374969Y-57232985D02*
X115339255Y-57161557D01*
X115339255Y-57161557D02*
X115303541Y-57018700D01*
X115303541Y-57018700D02*
X115303541Y-56840128D01*
X115303541Y-56840128D02*
X115339255Y-56697271D01*
X115339255Y-56697271D02*
X115374969Y-56625842D01*
X115374969Y-56625842D02*
X115410684Y-56590128D01*
X115410684Y-56590128D02*
X115482112Y-56554414D01*
X115982112Y-56554414D02*
X116446398Y-56554414D01*
X116446398Y-56554414D02*
X116196398Y-56840128D01*
X116196398Y-56840128D02*
X116303541Y-56840128D01*
X116303541Y-56840128D02*
X116374970Y-56875842D01*
X116374970Y-56875842D02*
X116410684Y-56911557D01*
X116410684Y-56911557D02*
X116446398Y-56982985D01*
X116446398Y-56982985D02*
X116446398Y-57161557D01*
X116446398Y-57161557D02*
X116410684Y-57232985D01*
X116410684Y-57232985D02*
X116374970Y-57268700D01*
X116374970Y-57268700D02*
X116303541Y-57304414D01*
X116303541Y-57304414D02*
X116089255Y-57304414D01*
X116089255Y-57304414D02*
X116017827Y-57268700D01*
X116017827Y-57268700D02*
X115982112Y-57232985D01*
X117303541Y-56518700D02*
X116660684Y-57482985D01*
X117517827Y-56625842D02*
X117553541Y-56590128D01*
X117553541Y-56590128D02*
X117624970Y-56554414D01*
X117624970Y-56554414D02*
X117803541Y-56554414D01*
X117803541Y-56554414D02*
X117874970Y-56590128D01*
X117874970Y-56590128D02*
X117910684Y-56625842D01*
X117910684Y-56625842D02*
X117946398Y-56697271D01*
X117946398Y-56697271D02*
X117946398Y-56768700D01*
X117946398Y-56768700D02*
X117910684Y-56875842D01*
X117910684Y-56875842D02*
X117482112Y-57304414D01*
X117482112Y-57304414D02*
X117946398Y-57304414D01*
X118660684Y-57304414D02*
X118232113Y-57304414D01*
X118446398Y-57304414D02*
X118446398Y-56554414D01*
X118446398Y-56554414D02*
X118374970Y-56661557D01*
X118374970Y-56661557D02*
X118303541Y-56732985D01*
X118303541Y-56732985D02*
X118232113Y-56768700D01*
X119517827Y-56518700D02*
X118874970Y-57482985D01*
X119732113Y-56625842D02*
X119767827Y-56590128D01*
X119767827Y-56590128D02*
X119839256Y-56554414D01*
X119839256Y-56554414D02*
X120017827Y-56554414D01*
X120017827Y-56554414D02*
X120089256Y-56590128D01*
X120089256Y-56590128D02*
X120124970Y-56625842D01*
X120124970Y-56625842D02*
X120160684Y-56697271D01*
X120160684Y-56697271D02*
X120160684Y-56768700D01*
X120160684Y-56768700D02*
X120124970Y-56875842D01*
X120124970Y-56875842D02*
X119696398Y-57304414D01*
X119696398Y-57304414D02*
X120160684Y-57304414D01*
X120624970Y-56554414D02*
X120696399Y-56554414D01*
X120696399Y-56554414D02*
X120767827Y-56590128D01*
X120767827Y-56590128D02*
X120803542Y-56625842D01*
X120803542Y-56625842D02*
X120839256Y-56697271D01*
X120839256Y-56697271D02*
X120874970Y-56840128D01*
X120874970Y-56840128D02*
X120874970Y-57018700D01*
X120874970Y-57018700D02*
X120839256Y-57161557D01*
X120839256Y-57161557D02*
X120803542Y-57232985D01*
X120803542Y-57232985D02*
X120767827Y-57268700D01*
X120767827Y-57268700D02*
X120696399Y-57304414D01*
X120696399Y-57304414D02*
X120624970Y-57304414D01*
X120624970Y-57304414D02*
X120553542Y-57268700D01*
X120553542Y-57268700D02*
X120517827Y-57232985D01*
X120517827Y-57232985D02*
X120482113Y-57161557D01*
X120482113Y-57161557D02*
X120446399Y-57018700D01*
X120446399Y-57018700D02*
X120446399Y-56840128D01*
X120446399Y-56840128D02*
X120482113Y-56697271D01*
X120482113Y-56697271D02*
X120517827Y-56625842D01*
X120517827Y-56625842D02*
X120553542Y-56590128D01*
X120553542Y-56590128D02*
X120624970Y-56554414D01*
X121160685Y-56625842D02*
X121196399Y-56590128D01*
X121196399Y-56590128D02*
X121267828Y-56554414D01*
X121267828Y-56554414D02*
X121446399Y-56554414D01*
X121446399Y-56554414D02*
X121517828Y-56590128D01*
X121517828Y-56590128D02*
X121553542Y-56625842D01*
X121553542Y-56625842D02*
X121589256Y-56697271D01*
X121589256Y-56697271D02*
X121589256Y-56768700D01*
X121589256Y-56768700D02*
X121553542Y-56875842D01*
X121553542Y-56875842D02*
X121124970Y-57304414D01*
X121124970Y-57304414D02*
X121589256Y-57304414D01*
X122267828Y-56554414D02*
X121910685Y-56554414D01*
X121910685Y-56554414D02*
X121874971Y-56911557D01*
X121874971Y-56911557D02*
X121910685Y-56875842D01*
X121910685Y-56875842D02*
X121982114Y-56840128D01*
X121982114Y-56840128D02*
X122160685Y-56840128D01*
X122160685Y-56840128D02*
X122232114Y-56875842D01*
X122232114Y-56875842D02*
X122267828Y-56911557D01*
X122267828Y-56911557D02*
X122303542Y-56982985D01*
X122303542Y-56982985D02*
X122303542Y-57161557D01*
X122303542Y-57161557D02*
X122267828Y-57232985D01*
X122267828Y-57232985D02*
X122232114Y-57268700D01*
X122232114Y-57268700D02*
X122160685Y-57304414D01*
X122160685Y-57304414D02*
X121982114Y-57304414D01*
X121982114Y-57304414D02*
X121910685Y-57268700D01*
X121910685Y-57268700D02*
X121874971Y-57232985D01*
X116573541Y-70222700D02*
X116680684Y-70258414D01*
X116680684Y-70258414D02*
X116859255Y-70258414D01*
X116859255Y-70258414D02*
X116930684Y-70222700D01*
X116930684Y-70222700D02*
X116966398Y-70186985D01*
X116966398Y-70186985D02*
X117002112Y-70115557D01*
X117002112Y-70115557D02*
X117002112Y-70044128D01*
X117002112Y-70044128D02*
X116966398Y-69972700D01*
X116966398Y-69972700D02*
X116930684Y-69936985D01*
X116930684Y-69936985D02*
X116859255Y-69901271D01*
X116859255Y-69901271D02*
X116716398Y-69865557D01*
X116716398Y-69865557D02*
X116644969Y-69829842D01*
X116644969Y-69829842D02*
X116609255Y-69794128D01*
X116609255Y-69794128D02*
X116573541Y-69722700D01*
X116573541Y-69722700D02*
X116573541Y-69651271D01*
X116573541Y-69651271D02*
X116609255Y-69579842D01*
X116609255Y-69579842D02*
X116644969Y-69544128D01*
X116644969Y-69544128D02*
X116716398Y-69508414D01*
X116716398Y-69508414D02*
X116894969Y-69508414D01*
X116894969Y-69508414D02*
X117002112Y-69544128D01*
X117323541Y-70258414D02*
X117323541Y-69508414D01*
X117323541Y-69508414D02*
X117502112Y-69508414D01*
X117502112Y-69508414D02*
X117609255Y-69544128D01*
X117609255Y-69544128D02*
X117680684Y-69615557D01*
X117680684Y-69615557D02*
X117716398Y-69686985D01*
X117716398Y-69686985D02*
X117752112Y-69829842D01*
X117752112Y-69829842D02*
X117752112Y-69936985D01*
X117752112Y-69936985D02*
X117716398Y-70079842D01*
X117716398Y-70079842D02*
X117680684Y-70151271D01*
X117680684Y-70151271D02*
X117609255Y-70222700D01*
X117609255Y-70222700D02*
X117502112Y-70258414D01*
X117502112Y-70258414D02*
X117323541Y-70258414D01*
X118037827Y-70044128D02*
X118394970Y-70044128D01*
X117966398Y-70258414D02*
X118216398Y-69508414D01*
X118216398Y-69508414D02*
X118466398Y-70258414D01*
X128686112Y-57606128D02*
X128614684Y-57570414D01*
X128614684Y-57570414D02*
X128507541Y-57570414D01*
X128507541Y-57570414D02*
X128400398Y-57606128D01*
X128400398Y-57606128D02*
X128328969Y-57677557D01*
X128328969Y-57677557D02*
X128293255Y-57748985D01*
X128293255Y-57748985D02*
X128257541Y-57891842D01*
X128257541Y-57891842D02*
X128257541Y-57998985D01*
X128257541Y-57998985D02*
X128293255Y-58141842D01*
X128293255Y-58141842D02*
X128328969Y-58213271D01*
X128328969Y-58213271D02*
X128400398Y-58284700D01*
X128400398Y-58284700D02*
X128507541Y-58320414D01*
X128507541Y-58320414D02*
X128578969Y-58320414D01*
X128578969Y-58320414D02*
X128686112Y-58284700D01*
X128686112Y-58284700D02*
X128721826Y-58248985D01*
X128721826Y-58248985D02*
X128721826Y-57998985D01*
X128721826Y-57998985D02*
X128578969Y-57998985D01*
X129043255Y-58320414D02*
X129043255Y-57570414D01*
X129043255Y-57570414D02*
X129471826Y-58320414D01*
X129471826Y-58320414D02*
X129471826Y-57570414D01*
X129828969Y-58320414D02*
X129828969Y-57570414D01*
X129828969Y-57570414D02*
X130007540Y-57570414D01*
X130007540Y-57570414D02*
X130114683Y-57606128D01*
X130114683Y-57606128D02*
X130186112Y-57677557D01*
X130186112Y-57677557D02*
X130221826Y-57748985D01*
X130221826Y-57748985D02*
X130257540Y-57891842D01*
X130257540Y-57891842D02*
X130257540Y-57998985D01*
X130257540Y-57998985D02*
X130221826Y-58141842D01*
X130221826Y-58141842D02*
X130186112Y-58213271D01*
X130186112Y-58213271D02*
X130114683Y-58284700D01*
X130114683Y-58284700D02*
X130007540Y-58320414D01*
X130007540Y-58320414D02*
X129828969Y-58320414D01*
X133986999Y-62848164D02*
X133736999Y-62491021D01*
X133558428Y-62848164D02*
X133558428Y-62098164D01*
X133558428Y-62098164D02*
X133844142Y-62098164D01*
X133844142Y-62098164D02*
X133915571Y-62133878D01*
X133915571Y-62133878D02*
X133951285Y-62169592D01*
X133951285Y-62169592D02*
X133986999Y-62241021D01*
X133986999Y-62241021D02*
X133986999Y-62348164D01*
X133986999Y-62348164D02*
X133951285Y-62419592D01*
X133951285Y-62419592D02*
X133915571Y-62455307D01*
X133915571Y-62455307D02*
X133844142Y-62491021D01*
X133844142Y-62491021D02*
X133558428Y-62491021D01*
X134236999Y-62098164D02*
X134701285Y-62098164D01*
X134701285Y-62098164D02*
X134451285Y-62383878D01*
X134451285Y-62383878D02*
X134558428Y-62383878D01*
X134558428Y-62383878D02*
X134629857Y-62419592D01*
X134629857Y-62419592D02*
X134665571Y-62455307D01*
X134665571Y-62455307D02*
X134701285Y-62526735D01*
X134701285Y-62526735D02*
X134701285Y-62705307D01*
X134701285Y-62705307D02*
X134665571Y-62776735D01*
X134665571Y-62776735D02*
X134629857Y-62812450D01*
X134629857Y-62812450D02*
X134558428Y-62848164D01*
X134558428Y-62848164D02*
X134344142Y-62848164D01*
X134344142Y-62848164D02*
X134272714Y-62812450D01*
X134272714Y-62812450D02*
X134236999Y-62776735D01*
X118746999Y-59013164D02*
X118496999Y-58656021D01*
X118318428Y-59013164D02*
X118318428Y-58263164D01*
X118318428Y-58263164D02*
X118604142Y-58263164D01*
X118604142Y-58263164D02*
X118675571Y-58298878D01*
X118675571Y-58298878D02*
X118711285Y-58334592D01*
X118711285Y-58334592D02*
X118746999Y-58406021D01*
X118746999Y-58406021D02*
X118746999Y-58513164D01*
X118746999Y-58513164D02*
X118711285Y-58584592D01*
X118711285Y-58584592D02*
X118675571Y-58620307D01*
X118675571Y-58620307D02*
X118604142Y-58656021D01*
X118604142Y-58656021D02*
X118318428Y-58656021D01*
X119461285Y-59013164D02*
X119032714Y-59013164D01*
X119246999Y-59013164D02*
X119246999Y-58263164D01*
X119246999Y-58263164D02*
X119175571Y-58370307D01*
X119175571Y-58370307D02*
X119104142Y-58441735D01*
X119104142Y-58441735D02*
X119032714Y-58477450D01*
X136098428Y-62823164D02*
X136098428Y-62073164D01*
X136098428Y-62073164D02*
X136276999Y-62073164D01*
X136276999Y-62073164D02*
X136384142Y-62108878D01*
X136384142Y-62108878D02*
X136455571Y-62180307D01*
X136455571Y-62180307D02*
X136491285Y-62251735D01*
X136491285Y-62251735D02*
X136526999Y-62394592D01*
X136526999Y-62394592D02*
X136526999Y-62501735D01*
X136526999Y-62501735D02*
X136491285Y-62644592D01*
X136491285Y-62644592D02*
X136455571Y-62716021D01*
X136455571Y-62716021D02*
X136384142Y-62787450D01*
X136384142Y-62787450D02*
X136276999Y-62823164D01*
X136276999Y-62823164D02*
X136098428Y-62823164D01*
X137241285Y-62823164D02*
X136812714Y-62823164D01*
X137026999Y-62823164D02*
X137026999Y-62073164D01*
X137026999Y-62073164D02*
X136955571Y-62180307D01*
X136955571Y-62180307D02*
X136884142Y-62251735D01*
X136884142Y-62251735D02*
X136812714Y-62287450D01*
X131446999Y-60719735D02*
X131411285Y-60755450D01*
X131411285Y-60755450D02*
X131304142Y-60791164D01*
X131304142Y-60791164D02*
X131232714Y-60791164D01*
X131232714Y-60791164D02*
X131125571Y-60755450D01*
X131125571Y-60755450D02*
X131054142Y-60684021D01*
X131054142Y-60684021D02*
X131018428Y-60612592D01*
X131018428Y-60612592D02*
X130982714Y-60469735D01*
X130982714Y-60469735D02*
X130982714Y-60362592D01*
X130982714Y-60362592D02*
X131018428Y-60219735D01*
X131018428Y-60219735D02*
X131054142Y-60148307D01*
X131054142Y-60148307D02*
X131125571Y-60076878D01*
X131125571Y-60076878D02*
X131232714Y-60041164D01*
X131232714Y-60041164D02*
X131304142Y-60041164D01*
X131304142Y-60041164D02*
X131411285Y-60076878D01*
X131411285Y-60076878D02*
X131446999Y-60112592D01*
X131696999Y-60041164D02*
X132161285Y-60041164D01*
X132161285Y-60041164D02*
X131911285Y-60326878D01*
X131911285Y-60326878D02*
X132018428Y-60326878D01*
X132018428Y-60326878D02*
X132089857Y-60362592D01*
X132089857Y-60362592D02*
X132125571Y-60398307D01*
X132125571Y-60398307D02*
X132161285Y-60469735D01*
X132161285Y-60469735D02*
X132161285Y-60648307D01*
X132161285Y-60648307D02*
X132125571Y-60719735D01*
X132125571Y-60719735D02*
X132089857Y-60755450D01*
X132089857Y-60755450D02*
X132018428Y-60791164D01*
X132018428Y-60791164D02*
X131804142Y-60791164D01*
X131804142Y-60791164D02*
X131732714Y-60755450D01*
X131732714Y-60755450D02*
X131696999Y-60719735D01*
X118746999Y-65871164D02*
X118496999Y-65514021D01*
X118318428Y-65871164D02*
X118318428Y-65121164D01*
X118318428Y-65121164D02*
X118604142Y-65121164D01*
X118604142Y-65121164D02*
X118675571Y-65156878D01*
X118675571Y-65156878D02*
X118711285Y-65192592D01*
X118711285Y-65192592D02*
X118746999Y-65264021D01*
X118746999Y-65264021D02*
X118746999Y-65371164D01*
X118746999Y-65371164D02*
X118711285Y-65442592D01*
X118711285Y-65442592D02*
X118675571Y-65478307D01*
X118675571Y-65478307D02*
X118604142Y-65514021D01*
X118604142Y-65514021D02*
X118318428Y-65514021D01*
X119032714Y-65192592D02*
X119068428Y-65156878D01*
X119068428Y-65156878D02*
X119139857Y-65121164D01*
X119139857Y-65121164D02*
X119318428Y-65121164D01*
X119318428Y-65121164D02*
X119389857Y-65156878D01*
X119389857Y-65156878D02*
X119425571Y-65192592D01*
X119425571Y-65192592D02*
X119461285Y-65264021D01*
X119461285Y-65264021D02*
X119461285Y-65335450D01*
X119461285Y-65335450D02*
X119425571Y-65442592D01*
X119425571Y-65442592D02*
X118996999Y-65871164D01*
X118996999Y-65871164D02*
X119461285Y-65871164D01*
D11*
%TO.C,J2*%
X109700000Y-64040000D02*
X109700000Y-62600000D01*
X109130000Y-62600000D02*
X109700000Y-62600000D01*
X109130000Y-62600000D02*
X109130000Y-57400000D01*
X111220000Y-62600000D02*
X112240000Y-62600000D01*
X113760000Y-62600000D02*
X114330000Y-62600000D01*
X114330000Y-62600000D02*
X114330000Y-57400000D01*
X109130000Y-57400000D02*
X109700000Y-57400000D01*
X111220000Y-57400000D02*
X112240000Y-57400000D01*
X113760000Y-57400000D02*
X114330000Y-57400000D01*
%TO.C,R3*%
X133377000Y-65251064D02*
X133377000Y-64796936D01*
X134847000Y-65251064D02*
X134847000Y-64796936D01*
%TO.C,TP3*%
X124276000Y-54680000D02*
X126676000Y-54680000D01*
X124276000Y-57080000D02*
X124276000Y-54680000D01*
X126676000Y-54680000D02*
X126676000Y-57080000D01*
X126676000Y-57080000D02*
X124276000Y-57080000D01*
%TO.C,R1*%
X120115064Y-59717000D02*
X119660936Y-59717000D01*
X120115064Y-61187000D02*
X119660936Y-61187000D01*
%TO.C,D1*%
X135692000Y-63164000D02*
X135692000Y-66024000D01*
X137612000Y-63164000D02*
X135692000Y-63164000D01*
X137612000Y-66024000D02*
X137612000Y-63164000D01*
%TO.C,TP1*%
X120212000Y-70936000D02*
X122612000Y-70936000D01*
X120212000Y-73336000D02*
X120212000Y-70936000D01*
X122612000Y-70936000D02*
X122612000Y-73336000D01*
X122612000Y-73336000D02*
X120212000Y-73336000D01*
%TO.C,C3*%
X130837000Y-63253252D02*
X130837000Y-62730748D01*
X132307000Y-63253252D02*
X132307000Y-62730748D01*
%TO.C,TP4*%
X116148000Y-70936000D02*
X118548000Y-70936000D01*
X116148000Y-73336000D02*
X116148000Y-70936000D01*
X118548000Y-70936000D02*
X118548000Y-73336000D01*
X118548000Y-73336000D02*
X116148000Y-73336000D01*
%TO.C,R2*%
X119660936Y-63019000D02*
X120115064Y-63019000D01*
X119660936Y-64489000D02*
X120115064Y-64489000D01*
%TO.C,TP2*%
X128086000Y-54680000D02*
X130486000Y-54680000D01*
X128086000Y-57080000D02*
X128086000Y-54680000D01*
X130486000Y-54680000D02*
X130486000Y-57080000D01*
X130486000Y-57080000D02*
X128086000Y-57080000D01*
%TO.C,J1*%
X133600000Y-72760000D02*
X133600000Y-73330000D01*
X133600000Y-70220000D02*
X133600000Y-71240000D01*
X133600000Y-68130000D02*
X133600000Y-68700000D01*
X128400000Y-73330000D02*
X133600000Y-73330000D01*
X128400000Y-72760000D02*
X128400000Y-73330000D01*
X128400000Y-70220000D02*
X128400000Y-71240000D01*
X128400000Y-68130000D02*
X133600000Y-68130000D01*
X128400000Y-68130000D02*
X128400000Y-68700000D01*
X126960000Y-68700000D02*
X128400000Y-68700000D01*
%TD*%
%LPC*%
D12*
%TO.C,J2*%
X110460000Y-62525000D03*
X110460000Y-57475000D03*
X113000000Y-62525000D03*
X113000000Y-57475000D03*
%TD*%
D13*
%TO.C,R3*%
X134112000Y-66024000D03*
X134112000Y-64024000D03*
%TD*%
D14*
%TO.C,TP3*%
X125476000Y-55880000D03*
%TD*%
D15*
%TO.C,R1*%
X120888000Y-60452000D03*
X118888000Y-60452000D03*
%TD*%
D16*
%TO.C,D1*%
X136652000Y-63999000D03*
X136652000Y-66049000D03*
%TD*%
D14*
%TO.C,TP1*%
X121412000Y-72136000D03*
%TD*%
D17*
%TO.C,C3*%
X131572000Y-64029500D03*
X131572000Y-61954500D03*
%TD*%
D18*
%TO.C,REF\u002A\u002A*%
X134874000Y-57658000D03*
%TD*%
D14*
%TO.C,TP4*%
X117348000Y-72136000D03*
%TD*%
D18*
%TO.C,REF\u002A\u002A*%
X111760000Y-70612000D03*
%TD*%
D19*
%TO.C,R2*%
X118888000Y-63754000D03*
X120888000Y-63754000D03*
%TD*%
D14*
%TO.C,TP2*%
X129286000Y-55880000D03*
%TD*%
D20*
%TO.C,J1*%
X133525000Y-72000000D03*
X128475000Y-72000000D03*
X133525000Y-69460000D03*
X128475000Y-69460000D03*
%TD*%
%LPD*%
M02*
